G04 #@! TF.GenerationSoftware,KiCad,Pcbnew,(5.0.2)-1*
G04 #@! TF.CreationDate,2020-02-10T23:08:40+01:00*
G04 #@! TF.ProjectId,ToolChanger,546f6f6c-4368-4616-9e67-65722e6b6963,rev?*
G04 #@! TF.SameCoordinates,Original*
G04 #@! TF.FileFunction,Copper,L2,Bot*
G04 #@! TF.FilePolarity,Positive*
%FSLAX46Y46*%
G04 Gerber Fmt 4.6, Leading zero omitted, Abs format (unit mm)*
G04 Created by KiCad (PCBNEW (5.0.2)-1) date 2020-02-10 23:08:40*
%MOMM*%
%LPD*%
G01*
G04 APERTURE LIST*
G04 #@! TA.AperFunction,Conductor*
%ADD10C,0.100000*%
G04 #@! TD*
G04 #@! TA.AperFunction,ComponentPad*
%ADD11C,1.800000*%
G04 #@! TD*
G04 #@! TA.AperFunction,ComponentPad*
%ADD12O,3.600000X1.800000*%
G04 #@! TD*
G04 #@! TA.AperFunction,ComponentPad*
%ADD13O,1.600000X1.600000*%
G04 #@! TD*
G04 #@! TA.AperFunction,ComponentPad*
%ADD14C,1.600000*%
G04 #@! TD*
G04 #@! TA.AperFunction,ComponentPad*
%ADD15R,1.727200X1.727200*%
G04 #@! TD*
G04 #@! TA.AperFunction,ComponentPad*
%ADD16O,1.727200X1.727200*%
G04 #@! TD*
G04 #@! TA.AperFunction,ComponentPad*
%ADD17R,1.800000X1.800000*%
G04 #@! TD*
G04 #@! TA.AperFunction,ComponentPad*
%ADD18R,1.600000X1.600000*%
G04 #@! TD*
G04 #@! TA.AperFunction,ComponentPad*
%ADD19O,2.000000X1.200000*%
G04 #@! TD*
G04 #@! TA.AperFunction,Conductor*
%ADD20C,2.000000*%
G04 #@! TD*
G04 #@! TA.AperFunction,Conductor*
%ADD21C,0.254000*%
G04 #@! TD*
G04 APERTURE END LIST*
D10*
G04 #@! TO.N,+24V*
G04 #@! TO.C,J4*
G36*
X204799904Y-80101804D02*
X204824173Y-80105404D01*
X204847971Y-80111365D01*
X204871071Y-80119630D01*
X204893249Y-80130120D01*
X204914293Y-80142733D01*
X204933998Y-80157347D01*
X204952177Y-80173823D01*
X204968653Y-80192002D01*
X204983267Y-80211707D01*
X204995880Y-80232751D01*
X205006370Y-80254929D01*
X205014635Y-80278029D01*
X205020596Y-80301827D01*
X205024196Y-80326096D01*
X205025400Y-80350600D01*
X205025400Y-81650600D01*
X205024196Y-81675104D01*
X205020596Y-81699373D01*
X205014635Y-81723171D01*
X205006370Y-81746271D01*
X204995880Y-81768449D01*
X204983267Y-81789493D01*
X204968653Y-81809198D01*
X204952177Y-81827377D01*
X204933998Y-81843853D01*
X204914293Y-81858467D01*
X204893249Y-81871080D01*
X204871071Y-81881570D01*
X204847971Y-81889835D01*
X204824173Y-81895796D01*
X204799904Y-81899396D01*
X204775400Y-81900600D01*
X201675400Y-81900600D01*
X201650896Y-81899396D01*
X201626627Y-81895796D01*
X201602829Y-81889835D01*
X201579729Y-81881570D01*
X201557551Y-81871080D01*
X201536507Y-81858467D01*
X201516802Y-81843853D01*
X201498623Y-81827377D01*
X201482147Y-81809198D01*
X201467533Y-81789493D01*
X201454920Y-81768449D01*
X201444430Y-81746271D01*
X201436165Y-81723171D01*
X201430204Y-81699373D01*
X201426604Y-81675104D01*
X201425400Y-81650600D01*
X201425400Y-80350600D01*
X201426604Y-80326096D01*
X201430204Y-80301827D01*
X201436165Y-80278029D01*
X201444430Y-80254929D01*
X201454920Y-80232751D01*
X201467533Y-80211707D01*
X201482147Y-80192002D01*
X201498623Y-80173823D01*
X201516802Y-80157347D01*
X201536507Y-80142733D01*
X201557551Y-80130120D01*
X201579729Y-80119630D01*
X201602829Y-80111365D01*
X201626627Y-80105404D01*
X201650896Y-80101804D01*
X201675400Y-80100600D01*
X204775400Y-80100600D01*
X204799904Y-80101804D01*
X204799904Y-80101804D01*
G37*
D11*
G04 #@! TD*
G04 #@! TO.P,J4,1*
G04 #@! TO.N,+24V*
X203225400Y-81000600D03*
D12*
G04 #@! TO.P,J4,2*
G04 #@! TO.N,GND*
X203225400Y-86080600D03*
G04 #@! TD*
D10*
G04 #@! TO.N,+24V*
G04 #@! TO.C,J3*
G36*
X204952304Y-92801804D02*
X204976573Y-92805404D01*
X205000371Y-92811365D01*
X205023471Y-92819630D01*
X205045649Y-92830120D01*
X205066693Y-92842733D01*
X205086398Y-92857347D01*
X205104577Y-92873823D01*
X205121053Y-92892002D01*
X205135667Y-92911707D01*
X205148280Y-92932751D01*
X205158770Y-92954929D01*
X205167035Y-92978029D01*
X205172996Y-93001827D01*
X205176596Y-93026096D01*
X205177800Y-93050600D01*
X205177800Y-94350600D01*
X205176596Y-94375104D01*
X205172996Y-94399373D01*
X205167035Y-94423171D01*
X205158770Y-94446271D01*
X205148280Y-94468449D01*
X205135667Y-94489493D01*
X205121053Y-94509198D01*
X205104577Y-94527377D01*
X205086398Y-94543853D01*
X205066693Y-94558467D01*
X205045649Y-94571080D01*
X205023471Y-94581570D01*
X205000371Y-94589835D01*
X204976573Y-94595796D01*
X204952304Y-94599396D01*
X204927800Y-94600600D01*
X201827800Y-94600600D01*
X201803296Y-94599396D01*
X201779027Y-94595796D01*
X201755229Y-94589835D01*
X201732129Y-94581570D01*
X201709951Y-94571080D01*
X201688907Y-94558467D01*
X201669202Y-94543853D01*
X201651023Y-94527377D01*
X201634547Y-94509198D01*
X201619933Y-94489493D01*
X201607320Y-94468449D01*
X201596830Y-94446271D01*
X201588565Y-94423171D01*
X201582604Y-94399373D01*
X201579004Y-94375104D01*
X201577800Y-94350600D01*
X201577800Y-93050600D01*
X201579004Y-93026096D01*
X201582604Y-93001827D01*
X201588565Y-92978029D01*
X201596830Y-92954929D01*
X201607320Y-92932751D01*
X201619933Y-92911707D01*
X201634547Y-92892002D01*
X201651023Y-92873823D01*
X201669202Y-92857347D01*
X201688907Y-92842733D01*
X201709951Y-92830120D01*
X201732129Y-92819630D01*
X201755229Y-92811365D01*
X201779027Y-92805404D01*
X201803296Y-92801804D01*
X201827800Y-92800600D01*
X204927800Y-92800600D01*
X204952304Y-92801804D01*
X204952304Y-92801804D01*
G37*
D11*
G04 #@! TD*
G04 #@! TO.P,J3,1*
G04 #@! TO.N,+24V*
X203377800Y-93700600D03*
D12*
G04 #@! TO.P,J3,2*
G04 #@! TO.N,GND*
X203377800Y-98780600D03*
G04 #@! TO.P,J3,3*
G04 #@! TO.N,Net-(J3-Pad3)*
X203377800Y-103860600D03*
G04 #@! TO.P,J3,4*
G04 #@! TO.N,Net-(J3-Pad4)*
X203377800Y-108940600D03*
G04 #@! TO.P,J3,5*
G04 #@! TO.N,Net-(J3-Pad5)*
X203377800Y-114020600D03*
G04 #@! TO.P,J3,6*
G04 #@! TO.N,Net-(J3-Pad6)*
X203377800Y-119100600D03*
G04 #@! TD*
D13*
G04 #@! TO.P,R4,2*
G04 #@! TO.N,Net-(D4-Pad2)*
X172415200Y-130962400D03*
D14*
G04 #@! TO.P,R4,1*
G04 #@! TO.N,Net-(J3-Pad6)*
X185115200Y-130962400D03*
G04 #@! TD*
G04 #@! TO.P,R3,1*
G04 #@! TO.N,Net-(J3-Pad5)*
X185115200Y-123901200D03*
D13*
G04 #@! TO.P,R3,2*
G04 #@! TO.N,Net-(D3-Pad2)*
X172415200Y-123901200D03*
G04 #@! TD*
G04 #@! TO.P,R2,2*
G04 #@! TO.N,Net-(D2-Pad2)*
X172415200Y-116636800D03*
D14*
G04 #@! TO.P,R2,1*
G04 #@! TO.N,Net-(J3-Pad4)*
X185115200Y-116636800D03*
G04 #@! TD*
G04 #@! TO.P,R1,1*
G04 #@! TO.N,Net-(J3-Pad3)*
X185115200Y-109829600D03*
D13*
G04 #@! TO.P,R1,2*
G04 #@! TO.N,Net-(D1-Pad2)*
X172415200Y-109829600D03*
G04 #@! TD*
D15*
G04 #@! TO.P,J2,1*
G04 #@! TO.N,GND*
X163830000Y-99060000D03*
D16*
G04 #@! TO.P,J2,2*
G04 #@! TO.N,DIR*
X163830000Y-96520000D03*
G04 #@! TO.P,J2,3*
G04 #@! TO.N,GND*
X166370000Y-99060000D03*
G04 #@! TO.P,J2,4*
G04 #@! TO.N,Net-(J2-Pad4)*
X166370000Y-96520000D03*
G04 #@! TO.P,J2,5*
G04 #@! TO.N,GND*
X168910000Y-99060000D03*
G04 #@! TO.P,J2,6*
G04 #@! TO.N,PWM*
X168910000Y-96520000D03*
G04 #@! TO.P,J2,7*
G04 #@! TO.N,GND*
X171450000Y-99060000D03*
G04 #@! TO.P,J2,8*
G04 #@! TO.N,Net-(J2-Pad8)*
X171450000Y-96520000D03*
G04 #@! TO.P,J2,9*
G04 #@! TO.N,GND*
X173990000Y-99060000D03*
G04 #@! TO.P,J2,10*
G04 #@! TO.N,CURRENT_SENSE*
X173990000Y-96520000D03*
G04 #@! TD*
D11*
G04 #@! TO.P,D4,2*
G04 #@! TO.N,Net-(D4-Pad2)*
X166878000Y-130911600D03*
D17*
G04 #@! TO.P,D4,1*
G04 #@! TO.N,Net-(D4-Pad1)*
X164338000Y-130911600D03*
G04 #@! TD*
G04 #@! TO.P,D3,1*
G04 #@! TO.N,Net-(D3-Pad1)*
X164338000Y-123698000D03*
D11*
G04 #@! TO.P,D3,2*
G04 #@! TO.N,Net-(D3-Pad2)*
X166878000Y-123698000D03*
G04 #@! TD*
G04 #@! TO.P,D2,2*
G04 #@! TO.N,Net-(D2-Pad2)*
X166878000Y-116687600D03*
D17*
G04 #@! TO.P,D2,1*
G04 #@! TO.N,Net-(D2-Pad1)*
X164338000Y-116687600D03*
G04 #@! TD*
G04 #@! TO.P,D1,1*
G04 #@! TO.N,Net-(D1-Pad1)*
X164338000Y-109880400D03*
D11*
G04 #@! TO.P,D1,2*
G04 #@! TO.N,Net-(D1-Pad2)*
X166878000Y-109880400D03*
G04 #@! TD*
D13*
G04 #@! TO.P,U5,4*
G04 #@! TO.N,Net-(U1-Pad39)*
X152349200Y-130962400D03*
G04 #@! TO.P,U5,2*
G04 #@! TO.N,GND*
X159969200Y-128422400D03*
G04 #@! TO.P,U5,3*
X152349200Y-128422400D03*
D18*
G04 #@! TO.P,U5,1*
G04 #@! TO.N,Net-(D4-Pad1)*
X159969200Y-130962400D03*
G04 #@! TD*
G04 #@! TO.P,U4,1*
G04 #@! TO.N,Net-(D3-Pad1)*
X159969200Y-123647200D03*
D13*
G04 #@! TO.P,U4,3*
G04 #@! TO.N,GND*
X152349200Y-121107200D03*
G04 #@! TO.P,U4,2*
X159969200Y-121107200D03*
G04 #@! TO.P,U4,4*
G04 #@! TO.N,Net-(U1-Pad40)*
X152349200Y-123647200D03*
G04 #@! TD*
G04 #@! TO.P,U3,4*
G04 #@! TO.N,Net-(U1-Pad41)*
X152349200Y-116840000D03*
G04 #@! TO.P,U3,2*
G04 #@! TO.N,GND*
X159969200Y-114300000D03*
G04 #@! TO.P,U3,3*
X152349200Y-114300000D03*
D18*
G04 #@! TO.P,U3,1*
G04 #@! TO.N,Net-(D2-Pad1)*
X159969200Y-116840000D03*
G04 #@! TD*
G04 #@! TO.P,U2,1*
G04 #@! TO.N,Net-(D1-Pad1)*
X159969200Y-109982000D03*
D13*
G04 #@! TO.P,U2,3*
G04 #@! TO.N,GND*
X152349200Y-107442000D03*
G04 #@! TO.P,U2,2*
X159969200Y-107442000D03*
G04 #@! TO.P,U2,4*
G04 #@! TO.N,Net-(U1-Pad42)*
X152349200Y-109982000D03*
G04 #@! TD*
D15*
G04 #@! TO.P,J1,1*
G04 #@! TO.N,Net-(J1-Pad1)*
X78079600Y-84785200D03*
D16*
G04 #@! TO.P,J1,2*
G04 #@! TO.N,Net-(J1-Pad2)*
X80619600Y-84785200D03*
G04 #@! TO.P,J1,3*
G04 #@! TO.N,Net-(J1-Pad3)*
X78079600Y-87325200D03*
G04 #@! TO.P,J1,4*
G04 #@! TO.N,Net-(J1-Pad4)*
X80619600Y-87325200D03*
G04 #@! TO.P,J1,5*
G04 #@! TO.N,Net-(J1-Pad5)*
X78079600Y-89865200D03*
G04 #@! TO.P,J1,6*
G04 #@! TO.N,Net-(J1-Pad6)*
X80619600Y-89865200D03*
G04 #@! TO.P,J1,7*
G04 #@! TO.N,Net-(J1-Pad7)*
X78079600Y-92405200D03*
G04 #@! TO.P,J1,8*
G04 #@! TO.N,Net-(J1-Pad8)*
X80619600Y-92405200D03*
G04 #@! TO.P,J1,9*
G04 #@! TO.N,Net-(J1-Pad9)*
X78079600Y-94945200D03*
G04 #@! TO.P,J1,10*
G04 #@! TO.N,GND*
X80619600Y-94945200D03*
G04 #@! TO.P,J1,11*
G04 #@! TO.N,Net-(J1-Pad11)*
X78079600Y-97485200D03*
G04 #@! TO.P,J1,12*
G04 #@! TO.N,GND*
X80619600Y-97485200D03*
G04 #@! TO.P,J1,13*
G04 #@! TO.N,Net-(J1-Pad13)*
X78079600Y-100025200D03*
G04 #@! TO.P,J1,14*
G04 #@! TO.N,GND*
X80619600Y-100025200D03*
G04 #@! TO.P,J1,15*
G04 #@! TO.N,Net-(J1-Pad15)*
X78079600Y-102565200D03*
G04 #@! TO.P,J1,16*
G04 #@! TO.N,GND*
X80619600Y-102565200D03*
G04 #@! TO.P,J1,17*
G04 #@! TO.N,Net-(J1-Pad17)*
X78079600Y-105105200D03*
G04 #@! TO.P,J1,18*
G04 #@! TO.N,+5V*
X80619600Y-105105200D03*
G04 #@! TO.P,J1,19*
G04 #@! TO.N,Net-(J1-Pad19)*
X78079600Y-107645200D03*
G04 #@! TO.P,J1,20*
G04 #@! TO.N,+5V*
X80619600Y-107645200D03*
G04 #@! TO.P,J1,21*
G04 #@! TO.N,Net-(J1-Pad21)*
X78079600Y-110185200D03*
G04 #@! TO.P,J1,22*
G04 #@! TO.N,+5V*
X80619600Y-110185200D03*
G04 #@! TO.P,J1,23*
G04 #@! TO.N,Net-(J1-Pad23)*
X78079600Y-112725200D03*
G04 #@! TO.P,J1,24*
G04 #@! TO.N,+5V*
X80619600Y-112725200D03*
G04 #@! TO.P,J1,25*
G04 #@! TO.N,Net-(J1-Pad25)*
X78079600Y-115265200D03*
G04 #@! TO.P,J1,26*
G04 #@! TO.N,+5V*
X80619600Y-115265200D03*
G04 #@! TD*
D19*
G04 #@! TO.P,U1,56*
G04 #@! TO.N,GND*
X138430000Y-65610200D03*
G04 #@! TO.P,U1,1*
X92710000Y-65610200D03*
G04 #@! TO.P,U1,55*
G04 #@! TO.N,Net-(U1-Pad55)*
X138430000Y-68150200D03*
G04 #@! TO.P,U1,2*
G04 #@! TO.N,Net-(J1-Pad1)*
X92710000Y-68150200D03*
G04 #@! TO.P,U1,54*
G04 #@! TO.N,Net-(U1-Pad54)*
X138430000Y-70690200D03*
G04 #@! TO.P,U1,3*
G04 #@! TO.N,Net-(J1-Pad2)*
X92710000Y-70690200D03*
G04 #@! TO.P,U1,53*
G04 #@! TO.N,Net-(U1-Pad53)*
X138430000Y-73230200D03*
G04 #@! TO.P,U1,4*
G04 #@! TO.N,Net-(J1-Pad3)*
X92710000Y-73230200D03*
G04 #@! TO.P,U1,52*
G04 #@! TO.N,Net-(U1-Pad52)*
X138430000Y-75770200D03*
G04 #@! TO.P,U1,5*
G04 #@! TO.N,Net-(J1-Pad4)*
X92710000Y-75770200D03*
G04 #@! TO.P,U1,51*
G04 #@! TO.N,Net-(U1-Pad51)*
X138430000Y-78310200D03*
G04 #@! TO.P,U1,6*
G04 #@! TO.N,Net-(J1-Pad5)*
X92710000Y-78310200D03*
G04 #@! TO.P,U1,50*
G04 #@! TO.N,Net-(U1-Pad50)*
X138430000Y-80850200D03*
G04 #@! TO.P,U1,7*
G04 #@! TO.N,Net-(J1-Pad6)*
X92710000Y-80850200D03*
G04 #@! TO.P,U1,49*
G04 #@! TO.N,Net-(U1-Pad49)*
X138430000Y-83390200D03*
G04 #@! TO.P,U1,8*
G04 #@! TO.N,Net-(J1-Pad7)*
X92710000Y-83390200D03*
G04 #@! TO.P,U1,48*
G04 #@! TO.N,Net-(U1-Pad48)*
X138430000Y-85930200D03*
G04 #@! TO.P,U1,9*
G04 #@! TO.N,Net-(J1-Pad8)*
X92710000Y-85930200D03*
G04 #@! TO.P,U1,47*
G04 #@! TO.N,Net-(U1-Pad47)*
X138430000Y-88470200D03*
G04 #@! TO.P,U1,10*
G04 #@! TO.N,Net-(J1-Pad9)*
X92710000Y-88470200D03*
G04 #@! TO.P,U1,46*
G04 #@! TO.N,CURRENT_SENSE*
X138430000Y-91010200D03*
G04 #@! TO.P,U1,11*
G04 #@! TO.N,Net-(J1-Pad11)*
X92710000Y-91010200D03*
G04 #@! TO.P,U1,45*
G04 #@! TO.N,PWM*
X138430000Y-93550200D03*
G04 #@! TO.P,U1,12*
G04 #@! TO.N,Net-(J1-Pad13)*
X92710000Y-93550200D03*
G04 #@! TO.P,U1,44*
G04 #@! TO.N,DIR*
X138430000Y-96090200D03*
G04 #@! TO.P,U1,13*
G04 #@! TO.N,Net-(J1-Pad15)*
X92710000Y-96090200D03*
G04 #@! TO.P,U1,43*
G04 #@! TO.N,Net-(U1-Pad43)*
X138430000Y-98630200D03*
G04 #@! TO.P,U1,14*
G04 #@! TO.N,Net-(J1-Pad17)*
X92710000Y-98630200D03*
G04 #@! TO.P,U1,42*
G04 #@! TO.N,Net-(U1-Pad42)*
X138430000Y-101170200D03*
G04 #@! TO.P,U1,15*
G04 #@! TO.N,Net-(J1-Pad19)*
X92710000Y-101170200D03*
G04 #@! TO.P,U1,41*
G04 #@! TO.N,Net-(U1-Pad41)*
X138430000Y-103710200D03*
G04 #@! TO.P,U1,16*
G04 #@! TO.N,Net-(J1-Pad21)*
X92710000Y-103710200D03*
G04 #@! TO.P,U1,40*
G04 #@! TO.N,Net-(U1-Pad40)*
X138430000Y-106250200D03*
G04 #@! TO.P,U1,17*
G04 #@! TO.N,Net-(J1-Pad23)*
X92710000Y-106250200D03*
G04 #@! TO.P,U1,39*
G04 #@! TO.N,Net-(U1-Pad39)*
X138430000Y-108790200D03*
G04 #@! TO.P,U1,18*
G04 #@! TO.N,Net-(J1-Pad25)*
X92710000Y-108790200D03*
G04 #@! TO.P,U1,38*
G04 #@! TO.N,Net-(U1-Pad38)*
X138430000Y-111330200D03*
G04 #@! TO.P,U1,19*
G04 #@! TO.N,Net-(U1-Pad19)*
X92710000Y-111330200D03*
G04 #@! TO.P,U1,37*
G04 #@! TO.N,Net-(U1-Pad37)*
X138430000Y-113870200D03*
G04 #@! TO.P,U1,20*
G04 #@! TO.N,Net-(U1-Pad20)*
X92710000Y-113870200D03*
G04 #@! TO.P,U1,36*
G04 #@! TO.N,Net-(U1-Pad36)*
X138430000Y-116410200D03*
G04 #@! TO.P,U1,21*
G04 #@! TO.N,Net-(U1-Pad21)*
X92710000Y-116410200D03*
G04 #@! TO.P,U1,35*
G04 #@! TO.N,Net-(U1-Pad35)*
X138430000Y-118950200D03*
G04 #@! TO.P,U1,22*
G04 #@! TO.N,Net-(U1-Pad22)*
X92710000Y-118950200D03*
G04 #@! TO.P,U1,34*
G04 #@! TO.N,Net-(U1-Pad34)*
X138430000Y-121490200D03*
G04 #@! TO.P,U1,23*
G04 #@! TO.N,Net-(U1-Pad23)*
X92710000Y-121490200D03*
G04 #@! TO.P,U1,33*
G04 #@! TO.N,Net-(U1-Pad33)*
X138430000Y-124030200D03*
G04 #@! TO.P,U1,24*
G04 #@! TO.N,GND*
X92710000Y-124030200D03*
G04 #@! TO.P,U1,32*
G04 #@! TO.N,Net-(U1-Pad32)*
X138430000Y-126570200D03*
G04 #@! TO.P,U1,25*
G04 #@! TO.N,Net-(U1-Pad25)*
X92710000Y-126570200D03*
G04 #@! TO.P,U1,31*
G04 #@! TO.N,Net-(U1-Pad31)*
X138430000Y-129110200D03*
G04 #@! TO.P,U1,26*
G04 #@! TO.N,Net-(U1-Pad26)*
X92710000Y-129110200D03*
G04 #@! TO.P,U1,30*
G04 #@! TO.N,GND*
X138430000Y-131650200D03*
G04 #@! TO.P,U1,27*
X92710000Y-131650200D03*
G04 #@! TO.P,U1,29*
G04 #@! TO.N,Net-(U1-Pad29)*
X138430000Y-134190200D03*
G04 #@! TO.P,U1,28*
G04 #@! TO.N,+5V*
X92710000Y-134190200D03*
G04 #@! TD*
D20*
G04 #@! TO.N,+5V*
X80619600Y-115265200D02*
X80619600Y-112725200D01*
X80619600Y-112725200D02*
X80619600Y-110185200D01*
X80619600Y-110185200D02*
X80619600Y-107645200D01*
X80619600Y-107645200D02*
X80619600Y-105105200D01*
X80619600Y-116486514D02*
X80619600Y-115265200D01*
X80619600Y-118770400D02*
X80619600Y-116486514D01*
X87680800Y-125831600D02*
X80619600Y-118770400D01*
X89660610Y-133450210D02*
X87680800Y-131470400D01*
X87680800Y-131470400D02*
X87680800Y-125831600D01*
X89660610Y-134140810D02*
X89660610Y-133450210D01*
X89710000Y-134190200D02*
X89660610Y-134140810D01*
X92710000Y-134190200D02*
X89710000Y-134190200D01*
G04 #@! TD*
D21*
G04 #@! TO.N,GND*
G36*
X210110001Y-138990000D02*
X71830000Y-138990000D01*
X71830000Y-127715594D01*
X76355000Y-127715594D01*
X76355000Y-128664406D01*
X76718095Y-129540994D01*
X77389006Y-130211905D01*
X78265594Y-130575000D01*
X79214406Y-130575000D01*
X80090994Y-130211905D01*
X80761905Y-129540994D01*
X81125000Y-128664406D01*
X81125000Y-127715594D01*
X80761905Y-126839006D01*
X80090994Y-126168095D01*
X79214406Y-125805000D01*
X78265594Y-125805000D01*
X77389006Y-126168095D01*
X76718095Y-126839006D01*
X76355000Y-127715594D01*
X71830000Y-127715594D01*
X71830000Y-87325200D01*
X76551641Y-87325200D01*
X76667950Y-87909925D01*
X76999170Y-88405630D01*
X77282881Y-88595200D01*
X76999170Y-88784770D01*
X76667950Y-89280475D01*
X76551641Y-89865200D01*
X76667950Y-90449925D01*
X76999170Y-90945630D01*
X77282881Y-91135200D01*
X76999170Y-91324770D01*
X76667950Y-91820475D01*
X76551641Y-92405200D01*
X76667950Y-92989925D01*
X76999170Y-93485630D01*
X77282881Y-93675200D01*
X76999170Y-93864770D01*
X76667950Y-94360475D01*
X76551641Y-94945200D01*
X76667950Y-95529925D01*
X76999170Y-96025630D01*
X77282881Y-96215200D01*
X76999170Y-96404770D01*
X76667950Y-96900475D01*
X76551641Y-97485200D01*
X76667950Y-98069925D01*
X76999170Y-98565630D01*
X77282881Y-98755200D01*
X76999170Y-98944770D01*
X76667950Y-99440475D01*
X76551641Y-100025200D01*
X76667950Y-100609925D01*
X76999170Y-101105630D01*
X77282881Y-101295200D01*
X76999170Y-101484770D01*
X76667950Y-101980475D01*
X76551641Y-102565200D01*
X76667950Y-103149925D01*
X76999170Y-103645630D01*
X77282881Y-103835200D01*
X76999170Y-104024770D01*
X76667950Y-104520475D01*
X76551641Y-105105200D01*
X76667950Y-105689925D01*
X76999170Y-106185630D01*
X77282881Y-106375200D01*
X76999170Y-106564770D01*
X76667950Y-107060475D01*
X76551641Y-107645200D01*
X76667950Y-108229925D01*
X76999170Y-108725630D01*
X77282881Y-108915200D01*
X76999170Y-109104770D01*
X76667950Y-109600475D01*
X76551641Y-110185200D01*
X76667950Y-110769925D01*
X76999170Y-111265630D01*
X77282881Y-111455200D01*
X76999170Y-111644770D01*
X76667950Y-112140475D01*
X76551641Y-112725200D01*
X76667950Y-113309925D01*
X76999170Y-113805630D01*
X77282881Y-113995200D01*
X76999170Y-114184770D01*
X76667950Y-114680475D01*
X76551641Y-115265200D01*
X76667950Y-115849925D01*
X76999170Y-116345630D01*
X77494875Y-116676850D01*
X77932002Y-116763800D01*
X78227198Y-116763800D01*
X78664325Y-116676850D01*
X78984600Y-116462849D01*
X78984600Y-116647544D01*
X78984601Y-116647548D01*
X78984600Y-118609370D01*
X78952569Y-118770400D01*
X78984600Y-118931430D01*
X79079464Y-119408344D01*
X79440831Y-119949169D01*
X79577350Y-120040388D01*
X86045801Y-126508840D01*
X86045800Y-131309370D01*
X86013769Y-131470400D01*
X86045800Y-131631430D01*
X86140664Y-132108344D01*
X86502031Y-132649169D01*
X86638550Y-132740388D01*
X88001110Y-134102949D01*
X87993579Y-134140810D01*
X88025610Y-134301840D01*
X88120474Y-134778754D01*
X88481841Y-135319579D01*
X88511448Y-135339362D01*
X88531231Y-135368969D01*
X89072055Y-135730336D01*
X89548969Y-135825200D01*
X89548970Y-135825200D01*
X89709999Y-135857231D01*
X89871029Y-135825200D01*
X92871031Y-135825200D01*
X93347945Y-135730336D01*
X93888769Y-135368969D01*
X94250136Y-134828145D01*
X94377031Y-134190200D01*
X136770805Y-134190200D01*
X136866656Y-134672073D01*
X137139615Y-135080585D01*
X137548127Y-135353544D01*
X137908364Y-135425200D01*
X138951636Y-135425200D01*
X139311873Y-135353544D01*
X139720385Y-135080585D01*
X139993344Y-134672073D01*
X140089195Y-134190200D01*
X139993344Y-133708327D01*
X139720385Y-133299815D01*
X139311873Y-133026856D01*
X138951636Y-132955200D01*
X137908364Y-132955200D01*
X137548127Y-133026856D01*
X137139615Y-133299815D01*
X136866656Y-133708327D01*
X136770805Y-134190200D01*
X94377031Y-134190200D01*
X94250136Y-133552255D01*
X93888769Y-133011431D01*
X93553798Y-132787611D01*
X93699947Y-132742590D01*
X94073080Y-132433674D01*
X94299592Y-132005481D01*
X94303462Y-131967809D01*
X136836538Y-131967809D01*
X136840408Y-132005481D01*
X137066920Y-132433674D01*
X137440053Y-132742590D01*
X137903000Y-132885200D01*
X138303000Y-132885200D01*
X138303000Y-131777200D01*
X138557000Y-131777200D01*
X138557000Y-132885200D01*
X138957000Y-132885200D01*
X139419947Y-132742590D01*
X139793080Y-132433674D01*
X140019592Y-132005481D01*
X140023462Y-131967809D01*
X139898731Y-131777200D01*
X138557000Y-131777200D01*
X138303000Y-131777200D01*
X136961269Y-131777200D01*
X136836538Y-131967809D01*
X94303462Y-131967809D01*
X94178731Y-131777200D01*
X92837000Y-131777200D01*
X92837000Y-131797200D01*
X92583000Y-131797200D01*
X92583000Y-131777200D01*
X91241269Y-131777200D01*
X91116538Y-131967809D01*
X91120408Y-132005481D01*
X91346920Y-132433674D01*
X91493709Y-132555200D01*
X91028981Y-132555200D01*
X90839379Y-132271441D01*
X90702862Y-132180224D01*
X89855229Y-131332591D01*
X91116538Y-131332591D01*
X91241269Y-131523200D01*
X92583000Y-131523200D01*
X92583000Y-130415200D01*
X92837000Y-130415200D01*
X92837000Y-131523200D01*
X94178731Y-131523200D01*
X94303462Y-131332591D01*
X136836538Y-131332591D01*
X136961269Y-131523200D01*
X138303000Y-131523200D01*
X138303000Y-130415200D01*
X138557000Y-130415200D01*
X138557000Y-131523200D01*
X139898731Y-131523200D01*
X140023462Y-131332591D01*
X140019592Y-131294919D01*
X139843692Y-130962400D01*
X150886087Y-130962400D01*
X150997460Y-131522309D01*
X151314623Y-131996977D01*
X151789291Y-132314140D01*
X152207867Y-132397400D01*
X152490533Y-132397400D01*
X152909109Y-132314140D01*
X153383777Y-131996977D01*
X153700940Y-131522309D01*
X153812313Y-130962400D01*
X153700940Y-130402491D01*
X153540517Y-130162400D01*
X158521760Y-130162400D01*
X158521760Y-131762400D01*
X158571043Y-132010165D01*
X158711391Y-132220209D01*
X158921435Y-132360557D01*
X159169200Y-132409840D01*
X160769200Y-132409840D01*
X161016965Y-132360557D01*
X161227009Y-132220209D01*
X161367357Y-132010165D01*
X161416640Y-131762400D01*
X161416640Y-130162400D01*
X161386645Y-130011600D01*
X162790560Y-130011600D01*
X162790560Y-131811600D01*
X162839843Y-132059365D01*
X162980191Y-132269409D01*
X163190235Y-132409757D01*
X163438000Y-132459040D01*
X165238000Y-132459040D01*
X165485765Y-132409757D01*
X165695809Y-132269409D01*
X165836157Y-132059365D01*
X165839275Y-132043692D01*
X166008493Y-132212910D01*
X166572670Y-132446600D01*
X167183330Y-132446600D01*
X167747507Y-132212910D01*
X168179310Y-131781107D01*
X168413000Y-131216930D01*
X168413000Y-130962400D01*
X170952087Y-130962400D01*
X171063460Y-131522309D01*
X171380623Y-131996977D01*
X171855291Y-132314140D01*
X172273867Y-132397400D01*
X172556533Y-132397400D01*
X172975109Y-132314140D01*
X173449777Y-131996977D01*
X173766940Y-131522309D01*
X173878313Y-130962400D01*
X173821536Y-130676961D01*
X183680200Y-130676961D01*
X183680200Y-131247839D01*
X183898666Y-131775262D01*
X184302338Y-132178934D01*
X184829761Y-132397400D01*
X185400639Y-132397400D01*
X185928062Y-132178934D01*
X186331734Y-131775262D01*
X186550200Y-131247839D01*
X186550200Y-130676961D01*
X186331734Y-130149538D01*
X185928062Y-129745866D01*
X185400639Y-129527400D01*
X184829761Y-129527400D01*
X184302338Y-129745866D01*
X183898666Y-130149538D01*
X183680200Y-130676961D01*
X173821536Y-130676961D01*
X173766940Y-130402491D01*
X173449777Y-129927823D01*
X172975109Y-129610660D01*
X172556533Y-129527400D01*
X172273867Y-129527400D01*
X171855291Y-129610660D01*
X171380623Y-129927823D01*
X171063460Y-130402491D01*
X170952087Y-130962400D01*
X168413000Y-130962400D01*
X168413000Y-130606270D01*
X168179310Y-130042093D01*
X167747507Y-129610290D01*
X167183330Y-129376600D01*
X166572670Y-129376600D01*
X166008493Y-129610290D01*
X165839275Y-129779508D01*
X165836157Y-129763835D01*
X165695809Y-129553791D01*
X165485765Y-129413443D01*
X165238000Y-129364160D01*
X163438000Y-129364160D01*
X163190235Y-129413443D01*
X162980191Y-129553791D01*
X162839843Y-129763835D01*
X162790560Y-130011600D01*
X161386645Y-130011600D01*
X161367357Y-129914635D01*
X161227009Y-129704591D01*
X161016965Y-129564243D01*
X160861839Y-129533387D01*
X161200241Y-129159823D01*
X161361104Y-128771439D01*
X161239115Y-128549400D01*
X160096200Y-128549400D01*
X160096200Y-128569400D01*
X159842200Y-128569400D01*
X159842200Y-128549400D01*
X158699285Y-128549400D01*
X158577296Y-128771439D01*
X158738159Y-129159823D01*
X159076561Y-129533387D01*
X158921435Y-129564243D01*
X158711391Y-129704591D01*
X158571043Y-129914635D01*
X158521760Y-130162400D01*
X153540517Y-130162400D01*
X153383777Y-129927823D01*
X153000092Y-129671453D01*
X153204334Y-129574789D01*
X153580241Y-129159823D01*
X153741104Y-128771439D01*
X153619115Y-128549400D01*
X152476200Y-128549400D01*
X152476200Y-128569400D01*
X152222200Y-128569400D01*
X152222200Y-128549400D01*
X151079285Y-128549400D01*
X150957296Y-128771439D01*
X151118159Y-129159823D01*
X151494066Y-129574789D01*
X151698308Y-129671453D01*
X151314623Y-129927823D01*
X150997460Y-130402491D01*
X150886087Y-130962400D01*
X139843692Y-130962400D01*
X139793080Y-130866726D01*
X139419947Y-130557810D01*
X138957000Y-130415200D01*
X138557000Y-130415200D01*
X138303000Y-130415200D01*
X137903000Y-130415200D01*
X137440053Y-130557810D01*
X137066920Y-130866726D01*
X136840408Y-131294919D01*
X136836538Y-131332591D01*
X94303462Y-131332591D01*
X94299592Y-131294919D01*
X94073080Y-130866726D01*
X93699947Y-130557810D01*
X93237000Y-130415200D01*
X92837000Y-130415200D01*
X92583000Y-130415200D01*
X92183000Y-130415200D01*
X91720053Y-130557810D01*
X91346920Y-130866726D01*
X91120408Y-131294919D01*
X91116538Y-131332591D01*
X89855229Y-131332591D01*
X89315800Y-130793162D01*
X89315800Y-129110200D01*
X91050805Y-129110200D01*
X91146656Y-129592073D01*
X91419615Y-130000585D01*
X91828127Y-130273544D01*
X92188364Y-130345200D01*
X93231636Y-130345200D01*
X93591873Y-130273544D01*
X94000385Y-130000585D01*
X94273344Y-129592073D01*
X94369195Y-129110200D01*
X136770805Y-129110200D01*
X136866656Y-129592073D01*
X137139615Y-130000585D01*
X137548127Y-130273544D01*
X137908364Y-130345200D01*
X138951636Y-130345200D01*
X139311873Y-130273544D01*
X139720385Y-130000585D01*
X139993344Y-129592073D01*
X140089195Y-129110200D01*
X139993344Y-128628327D01*
X139720385Y-128219815D01*
X139501202Y-128073361D01*
X150957296Y-128073361D01*
X151079285Y-128295400D01*
X152222200Y-128295400D01*
X152222200Y-127151771D01*
X152476200Y-127151771D01*
X152476200Y-128295400D01*
X153619115Y-128295400D01*
X153741104Y-128073361D01*
X158577296Y-128073361D01*
X158699285Y-128295400D01*
X159842200Y-128295400D01*
X159842200Y-127151771D01*
X160096200Y-127151771D01*
X160096200Y-128295400D01*
X161239115Y-128295400D01*
X161361104Y-128073361D01*
X161212923Y-127715594D01*
X202085000Y-127715594D01*
X202085000Y-128664406D01*
X202448095Y-129540994D01*
X203119006Y-130211905D01*
X203995594Y-130575000D01*
X204944406Y-130575000D01*
X205820994Y-130211905D01*
X206491905Y-129540994D01*
X206855000Y-128664406D01*
X206855000Y-127715594D01*
X206491905Y-126839006D01*
X205820994Y-126168095D01*
X204944406Y-125805000D01*
X203995594Y-125805000D01*
X203119006Y-126168095D01*
X202448095Y-126839006D01*
X202085000Y-127715594D01*
X161212923Y-127715594D01*
X161200241Y-127684977D01*
X160824334Y-127270011D01*
X160318241Y-127030486D01*
X160096200Y-127151771D01*
X159842200Y-127151771D01*
X159620159Y-127030486D01*
X159114066Y-127270011D01*
X158738159Y-127684977D01*
X158577296Y-128073361D01*
X153741104Y-128073361D01*
X153580241Y-127684977D01*
X153204334Y-127270011D01*
X152698241Y-127030486D01*
X152476200Y-127151771D01*
X152222200Y-127151771D01*
X152000159Y-127030486D01*
X151494066Y-127270011D01*
X151118159Y-127684977D01*
X150957296Y-128073361D01*
X139501202Y-128073361D01*
X139311873Y-127946856D01*
X138951636Y-127875200D01*
X137908364Y-127875200D01*
X137548127Y-127946856D01*
X137139615Y-128219815D01*
X136866656Y-128628327D01*
X136770805Y-129110200D01*
X94369195Y-129110200D01*
X94273344Y-128628327D01*
X94000385Y-128219815D01*
X93591873Y-127946856D01*
X93231636Y-127875200D01*
X92188364Y-127875200D01*
X91828127Y-127946856D01*
X91419615Y-128219815D01*
X91146656Y-128628327D01*
X91050805Y-129110200D01*
X89315800Y-129110200D01*
X89315800Y-126570200D01*
X91050805Y-126570200D01*
X91146656Y-127052073D01*
X91419615Y-127460585D01*
X91828127Y-127733544D01*
X92188364Y-127805200D01*
X93231636Y-127805200D01*
X93591873Y-127733544D01*
X94000385Y-127460585D01*
X94273344Y-127052073D01*
X94369195Y-126570200D01*
X136770805Y-126570200D01*
X136866656Y-127052073D01*
X137139615Y-127460585D01*
X137548127Y-127733544D01*
X137908364Y-127805200D01*
X138951636Y-127805200D01*
X139311873Y-127733544D01*
X139720385Y-127460585D01*
X139993344Y-127052073D01*
X140089195Y-126570200D01*
X139993344Y-126088327D01*
X139720385Y-125679815D01*
X139311873Y-125406856D01*
X138951636Y-125335200D01*
X137908364Y-125335200D01*
X137548127Y-125406856D01*
X137139615Y-125679815D01*
X136866656Y-126088327D01*
X136770805Y-126570200D01*
X94369195Y-126570200D01*
X94273344Y-126088327D01*
X94000385Y-125679815D01*
X93591873Y-125406856D01*
X93231636Y-125335200D01*
X92188364Y-125335200D01*
X91828127Y-125406856D01*
X91419615Y-125679815D01*
X91146656Y-126088327D01*
X91050805Y-126570200D01*
X89315800Y-126570200D01*
X89315800Y-125992630D01*
X89347831Y-125831600D01*
X89263344Y-125406856D01*
X89220936Y-125193655D01*
X88859569Y-124652831D01*
X88723053Y-124561614D01*
X88509248Y-124347809D01*
X91116538Y-124347809D01*
X91120408Y-124385481D01*
X91346920Y-124813674D01*
X91720053Y-125122590D01*
X92183000Y-125265200D01*
X92583000Y-125265200D01*
X92583000Y-124157200D01*
X92837000Y-124157200D01*
X92837000Y-125265200D01*
X93237000Y-125265200D01*
X93699947Y-125122590D01*
X94073080Y-124813674D01*
X94299592Y-124385481D01*
X94303462Y-124347809D01*
X94178731Y-124157200D01*
X92837000Y-124157200D01*
X92583000Y-124157200D01*
X91241269Y-124157200D01*
X91116538Y-124347809D01*
X88509248Y-124347809D01*
X88191639Y-124030200D01*
X136770805Y-124030200D01*
X136866656Y-124512073D01*
X137139615Y-124920585D01*
X137548127Y-125193544D01*
X137908364Y-125265200D01*
X138951636Y-125265200D01*
X139311873Y-125193544D01*
X139720385Y-124920585D01*
X139993344Y-124512073D01*
X140089195Y-124030200D01*
X140013012Y-123647200D01*
X150886087Y-123647200D01*
X150997460Y-124207109D01*
X151314623Y-124681777D01*
X151789291Y-124998940D01*
X152207867Y-125082200D01*
X152490533Y-125082200D01*
X152909109Y-124998940D01*
X153383777Y-124681777D01*
X153700940Y-124207109D01*
X153812313Y-123647200D01*
X153700940Y-123087291D01*
X153540517Y-122847200D01*
X158521760Y-122847200D01*
X158521760Y-124447200D01*
X158571043Y-124694965D01*
X158711391Y-124905009D01*
X158921435Y-125045357D01*
X159169200Y-125094640D01*
X160769200Y-125094640D01*
X161016965Y-125045357D01*
X161227009Y-124905009D01*
X161367357Y-124694965D01*
X161416640Y-124447200D01*
X161416640Y-122847200D01*
X161406854Y-122798000D01*
X162790560Y-122798000D01*
X162790560Y-124598000D01*
X162839843Y-124845765D01*
X162980191Y-125055809D01*
X163190235Y-125196157D01*
X163438000Y-125245440D01*
X165238000Y-125245440D01*
X165485765Y-125196157D01*
X165695809Y-125055809D01*
X165836157Y-124845765D01*
X165839275Y-124830092D01*
X166008493Y-124999310D01*
X166572670Y-125233000D01*
X167183330Y-125233000D01*
X167747507Y-124999310D01*
X168179310Y-124567507D01*
X168413000Y-124003330D01*
X168413000Y-123901200D01*
X170952087Y-123901200D01*
X171063460Y-124461109D01*
X171380623Y-124935777D01*
X171855291Y-125252940D01*
X172273867Y-125336200D01*
X172556533Y-125336200D01*
X172975109Y-125252940D01*
X173449777Y-124935777D01*
X173766940Y-124461109D01*
X173878313Y-123901200D01*
X173821536Y-123615761D01*
X183680200Y-123615761D01*
X183680200Y-124186639D01*
X183898666Y-124714062D01*
X184302338Y-125117734D01*
X184829761Y-125336200D01*
X185400639Y-125336200D01*
X185928062Y-125117734D01*
X186331734Y-124714062D01*
X186550200Y-124186639D01*
X186550200Y-123615761D01*
X186331734Y-123088338D01*
X185928062Y-122684666D01*
X185400639Y-122466200D01*
X184829761Y-122466200D01*
X184302338Y-122684666D01*
X183898666Y-123088338D01*
X183680200Y-123615761D01*
X173821536Y-123615761D01*
X173766940Y-123341291D01*
X173449777Y-122866623D01*
X172975109Y-122549460D01*
X172556533Y-122466200D01*
X172273867Y-122466200D01*
X171855291Y-122549460D01*
X171380623Y-122866623D01*
X171063460Y-123341291D01*
X170952087Y-123901200D01*
X168413000Y-123901200D01*
X168413000Y-123392670D01*
X168179310Y-122828493D01*
X167747507Y-122396690D01*
X167183330Y-122163000D01*
X166572670Y-122163000D01*
X166008493Y-122396690D01*
X165839275Y-122565908D01*
X165836157Y-122550235D01*
X165695809Y-122340191D01*
X165485765Y-122199843D01*
X165238000Y-122150560D01*
X163438000Y-122150560D01*
X163190235Y-122199843D01*
X162980191Y-122340191D01*
X162839843Y-122550235D01*
X162790560Y-122798000D01*
X161406854Y-122798000D01*
X161367357Y-122599435D01*
X161227009Y-122389391D01*
X161016965Y-122249043D01*
X160861839Y-122218187D01*
X161200241Y-121844623D01*
X161361104Y-121456239D01*
X161239115Y-121234200D01*
X160096200Y-121234200D01*
X160096200Y-121254200D01*
X159842200Y-121254200D01*
X159842200Y-121234200D01*
X158699285Y-121234200D01*
X158577296Y-121456239D01*
X158738159Y-121844623D01*
X159076561Y-122218187D01*
X158921435Y-122249043D01*
X158711391Y-122389391D01*
X158571043Y-122599435D01*
X158521760Y-122847200D01*
X153540517Y-122847200D01*
X153383777Y-122612623D01*
X153000092Y-122356253D01*
X153204334Y-122259589D01*
X153580241Y-121844623D01*
X153741104Y-121456239D01*
X153619115Y-121234200D01*
X152476200Y-121234200D01*
X152476200Y-121254200D01*
X152222200Y-121254200D01*
X152222200Y-121234200D01*
X151079285Y-121234200D01*
X150957296Y-121456239D01*
X151118159Y-121844623D01*
X151494066Y-122259589D01*
X151698308Y-122356253D01*
X151314623Y-122612623D01*
X150997460Y-123087291D01*
X150886087Y-123647200D01*
X140013012Y-123647200D01*
X139993344Y-123548327D01*
X139720385Y-123139815D01*
X139311873Y-122866856D01*
X138951636Y-122795200D01*
X137908364Y-122795200D01*
X137548127Y-122866856D01*
X137139615Y-123139815D01*
X136866656Y-123548327D01*
X136770805Y-124030200D01*
X88191639Y-124030200D01*
X87874030Y-123712591D01*
X91116538Y-123712591D01*
X91241269Y-123903200D01*
X92583000Y-123903200D01*
X92583000Y-122795200D01*
X92837000Y-122795200D01*
X92837000Y-123903200D01*
X94178731Y-123903200D01*
X94303462Y-123712591D01*
X94299592Y-123674919D01*
X94073080Y-123246726D01*
X93699947Y-122937810D01*
X93237000Y-122795200D01*
X92837000Y-122795200D01*
X92583000Y-122795200D01*
X92183000Y-122795200D01*
X91720053Y-122937810D01*
X91346920Y-123246726D01*
X91120408Y-123674919D01*
X91116538Y-123712591D01*
X87874030Y-123712591D01*
X85651639Y-121490200D01*
X91050805Y-121490200D01*
X91146656Y-121972073D01*
X91419615Y-122380585D01*
X91828127Y-122653544D01*
X92188364Y-122725200D01*
X93231636Y-122725200D01*
X93591873Y-122653544D01*
X94000385Y-122380585D01*
X94273344Y-121972073D01*
X94369195Y-121490200D01*
X136770805Y-121490200D01*
X136866656Y-121972073D01*
X137139615Y-122380585D01*
X137548127Y-122653544D01*
X137908364Y-122725200D01*
X138951636Y-122725200D01*
X139311873Y-122653544D01*
X139720385Y-122380585D01*
X139993344Y-121972073D01*
X140089195Y-121490200D01*
X139993344Y-121008327D01*
X139826189Y-120758161D01*
X150957296Y-120758161D01*
X151079285Y-120980200D01*
X152222200Y-120980200D01*
X152222200Y-119836571D01*
X152476200Y-119836571D01*
X152476200Y-120980200D01*
X153619115Y-120980200D01*
X153741104Y-120758161D01*
X158577296Y-120758161D01*
X158699285Y-120980200D01*
X159842200Y-120980200D01*
X159842200Y-119836571D01*
X160096200Y-119836571D01*
X160096200Y-120980200D01*
X161239115Y-120980200D01*
X161361104Y-120758161D01*
X161200241Y-120369777D01*
X160824334Y-119954811D01*
X160318241Y-119715286D01*
X160096200Y-119836571D01*
X159842200Y-119836571D01*
X159620159Y-119715286D01*
X159114066Y-119954811D01*
X158738159Y-120369777D01*
X158577296Y-120758161D01*
X153741104Y-120758161D01*
X153580241Y-120369777D01*
X153204334Y-119954811D01*
X152698241Y-119715286D01*
X152476200Y-119836571D01*
X152222200Y-119836571D01*
X152000159Y-119715286D01*
X151494066Y-119954811D01*
X151118159Y-120369777D01*
X150957296Y-120758161D01*
X139826189Y-120758161D01*
X139720385Y-120599815D01*
X139311873Y-120326856D01*
X138951636Y-120255200D01*
X137908364Y-120255200D01*
X137548127Y-120326856D01*
X137139615Y-120599815D01*
X136866656Y-121008327D01*
X136770805Y-121490200D01*
X94369195Y-121490200D01*
X94273344Y-121008327D01*
X94000385Y-120599815D01*
X93591873Y-120326856D01*
X93231636Y-120255200D01*
X92188364Y-120255200D01*
X91828127Y-120326856D01*
X91419615Y-120599815D01*
X91146656Y-121008327D01*
X91050805Y-121490200D01*
X85651639Y-121490200D01*
X83111639Y-118950200D01*
X91050805Y-118950200D01*
X91146656Y-119432073D01*
X91419615Y-119840585D01*
X91828127Y-120113544D01*
X92188364Y-120185200D01*
X93231636Y-120185200D01*
X93591873Y-120113544D01*
X94000385Y-119840585D01*
X94273344Y-119432073D01*
X94369195Y-118950200D01*
X136770805Y-118950200D01*
X136866656Y-119432073D01*
X137139615Y-119840585D01*
X137548127Y-120113544D01*
X137908364Y-120185200D01*
X138951636Y-120185200D01*
X139311873Y-120113544D01*
X139720385Y-119840585D01*
X139993344Y-119432073D01*
X140059278Y-119100600D01*
X200912728Y-119100600D01*
X201031862Y-119699527D01*
X201371127Y-120207273D01*
X201878873Y-120546538D01*
X202326618Y-120635600D01*
X204428982Y-120635600D01*
X204876727Y-120546538D01*
X205384473Y-120207273D01*
X205723738Y-119699527D01*
X205842872Y-119100600D01*
X205723738Y-118501673D01*
X205384473Y-117993927D01*
X204876727Y-117654662D01*
X204428982Y-117565600D01*
X202326618Y-117565600D01*
X201878873Y-117654662D01*
X201371127Y-117993927D01*
X201031862Y-118501673D01*
X200912728Y-119100600D01*
X140059278Y-119100600D01*
X140089195Y-118950200D01*
X139993344Y-118468327D01*
X139720385Y-118059815D01*
X139311873Y-117786856D01*
X138951636Y-117715200D01*
X137908364Y-117715200D01*
X137548127Y-117786856D01*
X137139615Y-118059815D01*
X136866656Y-118468327D01*
X136770805Y-118950200D01*
X94369195Y-118950200D01*
X94273344Y-118468327D01*
X94000385Y-118059815D01*
X93591873Y-117786856D01*
X93231636Y-117715200D01*
X92188364Y-117715200D01*
X91828127Y-117786856D01*
X91419615Y-118059815D01*
X91146656Y-118468327D01*
X91050805Y-118950200D01*
X83111639Y-118950200D01*
X82254600Y-118093162D01*
X82254600Y-116410200D01*
X91050805Y-116410200D01*
X91146656Y-116892073D01*
X91419615Y-117300585D01*
X91828127Y-117573544D01*
X92188364Y-117645200D01*
X93231636Y-117645200D01*
X93591873Y-117573544D01*
X94000385Y-117300585D01*
X94273344Y-116892073D01*
X94369195Y-116410200D01*
X136770805Y-116410200D01*
X136866656Y-116892073D01*
X137139615Y-117300585D01*
X137548127Y-117573544D01*
X137908364Y-117645200D01*
X138951636Y-117645200D01*
X139311873Y-117573544D01*
X139720385Y-117300585D01*
X139993344Y-116892073D01*
X140003702Y-116840000D01*
X150886087Y-116840000D01*
X150997460Y-117399909D01*
X151314623Y-117874577D01*
X151789291Y-118191740D01*
X152207867Y-118275000D01*
X152490533Y-118275000D01*
X152909109Y-118191740D01*
X153383777Y-117874577D01*
X153700940Y-117399909D01*
X153812313Y-116840000D01*
X153700940Y-116280091D01*
X153540517Y-116040000D01*
X158521760Y-116040000D01*
X158521760Y-117640000D01*
X158571043Y-117887765D01*
X158711391Y-118097809D01*
X158921435Y-118238157D01*
X159169200Y-118287440D01*
X160769200Y-118287440D01*
X161016965Y-118238157D01*
X161227009Y-118097809D01*
X161367357Y-117887765D01*
X161416640Y-117640000D01*
X161416640Y-116040000D01*
X161367357Y-115792235D01*
X161364260Y-115787600D01*
X162790560Y-115787600D01*
X162790560Y-117587600D01*
X162839843Y-117835365D01*
X162980191Y-118045409D01*
X163190235Y-118185757D01*
X163438000Y-118235040D01*
X165238000Y-118235040D01*
X165485765Y-118185757D01*
X165695809Y-118045409D01*
X165836157Y-117835365D01*
X165839275Y-117819692D01*
X166008493Y-117988910D01*
X166572670Y-118222600D01*
X167183330Y-118222600D01*
X167747507Y-117988910D01*
X168179310Y-117557107D01*
X168413000Y-116992930D01*
X168413000Y-116636800D01*
X170952087Y-116636800D01*
X171063460Y-117196709D01*
X171380623Y-117671377D01*
X171855291Y-117988540D01*
X172273867Y-118071800D01*
X172556533Y-118071800D01*
X172975109Y-117988540D01*
X173449777Y-117671377D01*
X173766940Y-117196709D01*
X173878313Y-116636800D01*
X173821536Y-116351361D01*
X183680200Y-116351361D01*
X183680200Y-116922239D01*
X183898666Y-117449662D01*
X184302338Y-117853334D01*
X184829761Y-118071800D01*
X185400639Y-118071800D01*
X185928062Y-117853334D01*
X186331734Y-117449662D01*
X186550200Y-116922239D01*
X186550200Y-116351361D01*
X186331734Y-115823938D01*
X185928062Y-115420266D01*
X185400639Y-115201800D01*
X184829761Y-115201800D01*
X184302338Y-115420266D01*
X183898666Y-115823938D01*
X183680200Y-116351361D01*
X173821536Y-116351361D01*
X173766940Y-116076891D01*
X173449777Y-115602223D01*
X172975109Y-115285060D01*
X172556533Y-115201800D01*
X172273867Y-115201800D01*
X171855291Y-115285060D01*
X171380623Y-115602223D01*
X171063460Y-116076891D01*
X170952087Y-116636800D01*
X168413000Y-116636800D01*
X168413000Y-116382270D01*
X168179310Y-115818093D01*
X167747507Y-115386290D01*
X167183330Y-115152600D01*
X166572670Y-115152600D01*
X166008493Y-115386290D01*
X165839275Y-115555508D01*
X165836157Y-115539835D01*
X165695809Y-115329791D01*
X165485765Y-115189443D01*
X165238000Y-115140160D01*
X163438000Y-115140160D01*
X163190235Y-115189443D01*
X162980191Y-115329791D01*
X162839843Y-115539835D01*
X162790560Y-115787600D01*
X161364260Y-115787600D01*
X161227009Y-115582191D01*
X161016965Y-115441843D01*
X160861839Y-115410987D01*
X161200241Y-115037423D01*
X161361104Y-114649039D01*
X161239115Y-114427000D01*
X160096200Y-114427000D01*
X160096200Y-114447000D01*
X159842200Y-114447000D01*
X159842200Y-114427000D01*
X158699285Y-114427000D01*
X158577296Y-114649039D01*
X158738159Y-115037423D01*
X159076561Y-115410987D01*
X158921435Y-115441843D01*
X158711391Y-115582191D01*
X158571043Y-115792235D01*
X158521760Y-116040000D01*
X153540517Y-116040000D01*
X153383777Y-115805423D01*
X153000092Y-115549053D01*
X153204334Y-115452389D01*
X153580241Y-115037423D01*
X153741104Y-114649039D01*
X153619115Y-114427000D01*
X152476200Y-114427000D01*
X152476200Y-114447000D01*
X152222200Y-114447000D01*
X152222200Y-114427000D01*
X151079285Y-114427000D01*
X150957296Y-114649039D01*
X151118159Y-115037423D01*
X151494066Y-115452389D01*
X151698308Y-115549053D01*
X151314623Y-115805423D01*
X150997460Y-116280091D01*
X150886087Y-116840000D01*
X140003702Y-116840000D01*
X140089195Y-116410200D01*
X139993344Y-115928327D01*
X139720385Y-115519815D01*
X139311873Y-115246856D01*
X138951636Y-115175200D01*
X137908364Y-115175200D01*
X137548127Y-115246856D01*
X137139615Y-115519815D01*
X136866656Y-115928327D01*
X136770805Y-116410200D01*
X94369195Y-116410200D01*
X94273344Y-115928327D01*
X94000385Y-115519815D01*
X93591873Y-115246856D01*
X93231636Y-115175200D01*
X92188364Y-115175200D01*
X91828127Y-115246856D01*
X91419615Y-115519815D01*
X91146656Y-115928327D01*
X91050805Y-116410200D01*
X82254600Y-116410200D01*
X82254600Y-113870200D01*
X91050805Y-113870200D01*
X91146656Y-114352073D01*
X91419615Y-114760585D01*
X91828127Y-115033544D01*
X92188364Y-115105200D01*
X93231636Y-115105200D01*
X93591873Y-115033544D01*
X94000385Y-114760585D01*
X94273344Y-114352073D01*
X94369195Y-113870200D01*
X136770805Y-113870200D01*
X136866656Y-114352073D01*
X137139615Y-114760585D01*
X137548127Y-115033544D01*
X137908364Y-115105200D01*
X138951636Y-115105200D01*
X139311873Y-115033544D01*
X139720385Y-114760585D01*
X139993344Y-114352073D01*
X140073130Y-113950961D01*
X150957296Y-113950961D01*
X151079285Y-114173000D01*
X152222200Y-114173000D01*
X152222200Y-113029371D01*
X152476200Y-113029371D01*
X152476200Y-114173000D01*
X153619115Y-114173000D01*
X153741104Y-113950961D01*
X158577296Y-113950961D01*
X158699285Y-114173000D01*
X159842200Y-114173000D01*
X159842200Y-113029371D01*
X160096200Y-113029371D01*
X160096200Y-114173000D01*
X161239115Y-114173000D01*
X161322844Y-114020600D01*
X200912728Y-114020600D01*
X201031862Y-114619527D01*
X201371127Y-115127273D01*
X201878873Y-115466538D01*
X202326618Y-115555600D01*
X204428982Y-115555600D01*
X204876727Y-115466538D01*
X205384473Y-115127273D01*
X205723738Y-114619527D01*
X205842872Y-114020600D01*
X205723738Y-113421673D01*
X205384473Y-112913927D01*
X204876727Y-112574662D01*
X204428982Y-112485600D01*
X202326618Y-112485600D01*
X201878873Y-112574662D01*
X201371127Y-112913927D01*
X201031862Y-113421673D01*
X200912728Y-114020600D01*
X161322844Y-114020600D01*
X161361104Y-113950961D01*
X161200241Y-113562577D01*
X160824334Y-113147611D01*
X160318241Y-112908086D01*
X160096200Y-113029371D01*
X159842200Y-113029371D01*
X159620159Y-112908086D01*
X159114066Y-113147611D01*
X158738159Y-113562577D01*
X158577296Y-113950961D01*
X153741104Y-113950961D01*
X153580241Y-113562577D01*
X153204334Y-113147611D01*
X152698241Y-112908086D01*
X152476200Y-113029371D01*
X152222200Y-113029371D01*
X152000159Y-112908086D01*
X151494066Y-113147611D01*
X151118159Y-113562577D01*
X150957296Y-113950961D01*
X140073130Y-113950961D01*
X140089195Y-113870200D01*
X139993344Y-113388327D01*
X139720385Y-112979815D01*
X139311873Y-112706856D01*
X138951636Y-112635200D01*
X137908364Y-112635200D01*
X137548127Y-112706856D01*
X137139615Y-112979815D01*
X136866656Y-113388327D01*
X136770805Y-113870200D01*
X94369195Y-113870200D01*
X94273344Y-113388327D01*
X94000385Y-112979815D01*
X93591873Y-112706856D01*
X93231636Y-112635200D01*
X92188364Y-112635200D01*
X91828127Y-112706856D01*
X91419615Y-112979815D01*
X91146656Y-113388327D01*
X91050805Y-113870200D01*
X82254600Y-113870200D01*
X82254600Y-111330200D01*
X91050805Y-111330200D01*
X91146656Y-111812073D01*
X91419615Y-112220585D01*
X91828127Y-112493544D01*
X92188364Y-112565200D01*
X93231636Y-112565200D01*
X93591873Y-112493544D01*
X94000385Y-112220585D01*
X94273344Y-111812073D01*
X94369195Y-111330200D01*
X136770805Y-111330200D01*
X136866656Y-111812073D01*
X137139615Y-112220585D01*
X137548127Y-112493544D01*
X137908364Y-112565200D01*
X138951636Y-112565200D01*
X139311873Y-112493544D01*
X139720385Y-112220585D01*
X139993344Y-111812073D01*
X140089195Y-111330200D01*
X139993344Y-110848327D01*
X139720385Y-110439815D01*
X139311873Y-110166856D01*
X138951636Y-110095200D01*
X137908364Y-110095200D01*
X137548127Y-110166856D01*
X137139615Y-110439815D01*
X136866656Y-110848327D01*
X136770805Y-111330200D01*
X94369195Y-111330200D01*
X94273344Y-110848327D01*
X94000385Y-110439815D01*
X93591873Y-110166856D01*
X93231636Y-110095200D01*
X92188364Y-110095200D01*
X91828127Y-110166856D01*
X91419615Y-110439815D01*
X91146656Y-110848327D01*
X91050805Y-111330200D01*
X82254600Y-111330200D01*
X82254600Y-108790200D01*
X91050805Y-108790200D01*
X91146656Y-109272073D01*
X91419615Y-109680585D01*
X91828127Y-109953544D01*
X92188364Y-110025200D01*
X93231636Y-110025200D01*
X93591873Y-109953544D01*
X94000385Y-109680585D01*
X94273344Y-109272073D01*
X94369195Y-108790200D01*
X136770805Y-108790200D01*
X136866656Y-109272073D01*
X137139615Y-109680585D01*
X137548127Y-109953544D01*
X137908364Y-110025200D01*
X138951636Y-110025200D01*
X139168815Y-109982000D01*
X150886087Y-109982000D01*
X150997460Y-110541909D01*
X151314623Y-111016577D01*
X151789291Y-111333740D01*
X152207867Y-111417000D01*
X152490533Y-111417000D01*
X152909109Y-111333740D01*
X153383777Y-111016577D01*
X153700940Y-110541909D01*
X153812313Y-109982000D01*
X153700940Y-109422091D01*
X153540517Y-109182000D01*
X158521760Y-109182000D01*
X158521760Y-110782000D01*
X158571043Y-111029765D01*
X158711391Y-111239809D01*
X158921435Y-111380157D01*
X159169200Y-111429440D01*
X160769200Y-111429440D01*
X161016965Y-111380157D01*
X161227009Y-111239809D01*
X161367357Y-111029765D01*
X161416640Y-110782000D01*
X161416640Y-109182000D01*
X161376540Y-108980400D01*
X162790560Y-108980400D01*
X162790560Y-110780400D01*
X162839843Y-111028165D01*
X162980191Y-111238209D01*
X163190235Y-111378557D01*
X163438000Y-111427840D01*
X165238000Y-111427840D01*
X165485765Y-111378557D01*
X165695809Y-111238209D01*
X165836157Y-111028165D01*
X165839275Y-111012492D01*
X166008493Y-111181710D01*
X166572670Y-111415400D01*
X167183330Y-111415400D01*
X167747507Y-111181710D01*
X168179310Y-110749907D01*
X168413000Y-110185730D01*
X168413000Y-109829600D01*
X170952087Y-109829600D01*
X171063460Y-110389509D01*
X171380623Y-110864177D01*
X171855291Y-111181340D01*
X172273867Y-111264600D01*
X172556533Y-111264600D01*
X172975109Y-111181340D01*
X173449777Y-110864177D01*
X173766940Y-110389509D01*
X173878313Y-109829600D01*
X173821536Y-109544161D01*
X183680200Y-109544161D01*
X183680200Y-110115039D01*
X183898666Y-110642462D01*
X184302338Y-111046134D01*
X184829761Y-111264600D01*
X185400639Y-111264600D01*
X185928062Y-111046134D01*
X186331734Y-110642462D01*
X186550200Y-110115039D01*
X186550200Y-109544161D01*
X186331734Y-109016738D01*
X186255596Y-108940600D01*
X200912728Y-108940600D01*
X201031862Y-109539527D01*
X201371127Y-110047273D01*
X201878873Y-110386538D01*
X202326618Y-110475600D01*
X204428982Y-110475600D01*
X204876727Y-110386538D01*
X205384473Y-110047273D01*
X205723738Y-109539527D01*
X205842872Y-108940600D01*
X205723738Y-108341673D01*
X205384473Y-107833927D01*
X204876727Y-107494662D01*
X204428982Y-107405600D01*
X202326618Y-107405600D01*
X201878873Y-107494662D01*
X201371127Y-107833927D01*
X201031862Y-108341673D01*
X200912728Y-108940600D01*
X186255596Y-108940600D01*
X185928062Y-108613066D01*
X185400639Y-108394600D01*
X184829761Y-108394600D01*
X184302338Y-108613066D01*
X183898666Y-109016738D01*
X183680200Y-109544161D01*
X173821536Y-109544161D01*
X173766940Y-109269691D01*
X173449777Y-108795023D01*
X172975109Y-108477860D01*
X172556533Y-108394600D01*
X172273867Y-108394600D01*
X171855291Y-108477860D01*
X171380623Y-108795023D01*
X171063460Y-109269691D01*
X170952087Y-109829600D01*
X168413000Y-109829600D01*
X168413000Y-109575070D01*
X168179310Y-109010893D01*
X167747507Y-108579090D01*
X167183330Y-108345400D01*
X166572670Y-108345400D01*
X166008493Y-108579090D01*
X165839275Y-108748308D01*
X165836157Y-108732635D01*
X165695809Y-108522591D01*
X165485765Y-108382243D01*
X165238000Y-108332960D01*
X163438000Y-108332960D01*
X163190235Y-108382243D01*
X162980191Y-108522591D01*
X162839843Y-108732635D01*
X162790560Y-108980400D01*
X161376540Y-108980400D01*
X161367357Y-108934235D01*
X161227009Y-108724191D01*
X161016965Y-108583843D01*
X160861839Y-108552987D01*
X161200241Y-108179423D01*
X161361104Y-107791039D01*
X161239115Y-107569000D01*
X160096200Y-107569000D01*
X160096200Y-107589000D01*
X159842200Y-107589000D01*
X159842200Y-107569000D01*
X158699285Y-107569000D01*
X158577296Y-107791039D01*
X158738159Y-108179423D01*
X159076561Y-108552987D01*
X158921435Y-108583843D01*
X158711391Y-108724191D01*
X158571043Y-108934235D01*
X158521760Y-109182000D01*
X153540517Y-109182000D01*
X153383777Y-108947423D01*
X153000092Y-108691053D01*
X153204334Y-108594389D01*
X153580241Y-108179423D01*
X153741104Y-107791039D01*
X153619115Y-107569000D01*
X152476200Y-107569000D01*
X152476200Y-107589000D01*
X152222200Y-107589000D01*
X152222200Y-107569000D01*
X151079285Y-107569000D01*
X150957296Y-107791039D01*
X151118159Y-108179423D01*
X151494066Y-108594389D01*
X151698308Y-108691053D01*
X151314623Y-108947423D01*
X150997460Y-109422091D01*
X150886087Y-109982000D01*
X139168815Y-109982000D01*
X139311873Y-109953544D01*
X139720385Y-109680585D01*
X139993344Y-109272073D01*
X140089195Y-108790200D01*
X139993344Y-108308327D01*
X139720385Y-107899815D01*
X139311873Y-107626856D01*
X138951636Y-107555200D01*
X137908364Y-107555200D01*
X137548127Y-107626856D01*
X137139615Y-107899815D01*
X136866656Y-108308327D01*
X136770805Y-108790200D01*
X94369195Y-108790200D01*
X94273344Y-108308327D01*
X94000385Y-107899815D01*
X93591873Y-107626856D01*
X93231636Y-107555200D01*
X92188364Y-107555200D01*
X91828127Y-107626856D01*
X91419615Y-107899815D01*
X91146656Y-108308327D01*
X91050805Y-108790200D01*
X82254600Y-108790200D01*
X82254600Y-106250200D01*
X91050805Y-106250200D01*
X91146656Y-106732073D01*
X91419615Y-107140585D01*
X91828127Y-107413544D01*
X92188364Y-107485200D01*
X93231636Y-107485200D01*
X93591873Y-107413544D01*
X94000385Y-107140585D01*
X94273344Y-106732073D01*
X94369195Y-106250200D01*
X136770805Y-106250200D01*
X136866656Y-106732073D01*
X137139615Y-107140585D01*
X137548127Y-107413544D01*
X137908364Y-107485200D01*
X138951636Y-107485200D01*
X139311873Y-107413544D01*
X139720385Y-107140585D01*
X139752206Y-107092961D01*
X150957296Y-107092961D01*
X151079285Y-107315000D01*
X152222200Y-107315000D01*
X152222200Y-106171371D01*
X152476200Y-106171371D01*
X152476200Y-107315000D01*
X153619115Y-107315000D01*
X153741104Y-107092961D01*
X158577296Y-107092961D01*
X158699285Y-107315000D01*
X159842200Y-107315000D01*
X159842200Y-106171371D01*
X160096200Y-106171371D01*
X160096200Y-107315000D01*
X161239115Y-107315000D01*
X161361104Y-107092961D01*
X161200241Y-106704577D01*
X160824334Y-106289611D01*
X160318241Y-106050086D01*
X160096200Y-106171371D01*
X159842200Y-106171371D01*
X159620159Y-106050086D01*
X159114066Y-106289611D01*
X158738159Y-106704577D01*
X158577296Y-107092961D01*
X153741104Y-107092961D01*
X153580241Y-106704577D01*
X153204334Y-106289611D01*
X152698241Y-106050086D01*
X152476200Y-106171371D01*
X152222200Y-106171371D01*
X152000159Y-106050086D01*
X151494066Y-106289611D01*
X151118159Y-106704577D01*
X150957296Y-107092961D01*
X139752206Y-107092961D01*
X139993344Y-106732073D01*
X140089195Y-106250200D01*
X139993344Y-105768327D01*
X139720385Y-105359815D01*
X139311873Y-105086856D01*
X138951636Y-105015200D01*
X137908364Y-105015200D01*
X137548127Y-105086856D01*
X137139615Y-105359815D01*
X136866656Y-105768327D01*
X136770805Y-106250200D01*
X94369195Y-106250200D01*
X94273344Y-105768327D01*
X94000385Y-105359815D01*
X93591873Y-105086856D01*
X93231636Y-105015200D01*
X92188364Y-105015200D01*
X91828127Y-105086856D01*
X91419615Y-105359815D01*
X91146656Y-105768327D01*
X91050805Y-106250200D01*
X82254600Y-106250200D01*
X82254600Y-104944169D01*
X82159736Y-104467255D01*
X81798369Y-103926431D01*
X81530513Y-103747455D01*
X81564517Y-103710200D01*
X91050805Y-103710200D01*
X91146656Y-104192073D01*
X91419615Y-104600585D01*
X91828127Y-104873544D01*
X92188364Y-104945200D01*
X93231636Y-104945200D01*
X93591873Y-104873544D01*
X94000385Y-104600585D01*
X94273344Y-104192073D01*
X94369195Y-103710200D01*
X136770805Y-103710200D01*
X136866656Y-104192073D01*
X137139615Y-104600585D01*
X137548127Y-104873544D01*
X137908364Y-104945200D01*
X138951636Y-104945200D01*
X139311873Y-104873544D01*
X139720385Y-104600585D01*
X139993344Y-104192073D01*
X140059278Y-103860600D01*
X200912728Y-103860600D01*
X201031862Y-104459527D01*
X201371127Y-104967273D01*
X201878873Y-105306538D01*
X202326618Y-105395600D01*
X204428982Y-105395600D01*
X204876727Y-105306538D01*
X205384473Y-104967273D01*
X205723738Y-104459527D01*
X205842872Y-103860600D01*
X205723738Y-103261673D01*
X205384473Y-102753927D01*
X204876727Y-102414662D01*
X204428982Y-102325600D01*
X202326618Y-102325600D01*
X201878873Y-102414662D01*
X201371127Y-102753927D01*
X201031862Y-103261673D01*
X200912728Y-103860600D01*
X140059278Y-103860600D01*
X140089195Y-103710200D01*
X139993344Y-103228327D01*
X139720385Y-102819815D01*
X139311873Y-102546856D01*
X138951636Y-102475200D01*
X137908364Y-102475200D01*
X137548127Y-102546856D01*
X137139615Y-102819815D01*
X136866656Y-103228327D01*
X136770805Y-103710200D01*
X94369195Y-103710200D01*
X94273344Y-103228327D01*
X94000385Y-102819815D01*
X93591873Y-102546856D01*
X93231636Y-102475200D01*
X92188364Y-102475200D01*
X91828127Y-102546856D01*
X91419615Y-102819815D01*
X91146656Y-103228327D01*
X91050805Y-103710200D01*
X81564517Y-103710200D01*
X81902288Y-103340147D01*
X82074558Y-102924226D01*
X81953417Y-102692200D01*
X80746600Y-102692200D01*
X80746600Y-102712200D01*
X80492600Y-102712200D01*
X80492600Y-102692200D01*
X80472600Y-102692200D01*
X80472600Y-102438200D01*
X80492600Y-102438200D01*
X80492600Y-100152200D01*
X80746600Y-100152200D01*
X80746600Y-102438200D01*
X81953417Y-102438200D01*
X82074558Y-102206174D01*
X81902288Y-101790253D01*
X81508090Y-101358379D01*
X81373287Y-101295200D01*
X81508090Y-101232021D01*
X81564517Y-101170200D01*
X91050805Y-101170200D01*
X91146656Y-101652073D01*
X91419615Y-102060585D01*
X91828127Y-102333544D01*
X92188364Y-102405200D01*
X93231636Y-102405200D01*
X93591873Y-102333544D01*
X94000385Y-102060585D01*
X94273344Y-101652073D01*
X94369195Y-101170200D01*
X136770805Y-101170200D01*
X136866656Y-101652073D01*
X137139615Y-102060585D01*
X137548127Y-102333544D01*
X137908364Y-102405200D01*
X138951636Y-102405200D01*
X139311873Y-102333544D01*
X139720385Y-102060585D01*
X139993344Y-101652073D01*
X140089195Y-101170200D01*
X139993344Y-100688327D01*
X139720385Y-100279815D01*
X139311873Y-100006856D01*
X138951636Y-99935200D01*
X137908364Y-99935200D01*
X137548127Y-100006856D01*
X137139615Y-100279815D01*
X136866656Y-100688327D01*
X136770805Y-101170200D01*
X94369195Y-101170200D01*
X94273344Y-100688327D01*
X94000385Y-100279815D01*
X93591873Y-100006856D01*
X93231636Y-99935200D01*
X92188364Y-99935200D01*
X91828127Y-100006856D01*
X91419615Y-100279815D01*
X91146656Y-100688327D01*
X91050805Y-101170200D01*
X81564517Y-101170200D01*
X81902288Y-100800147D01*
X82074558Y-100384226D01*
X81953417Y-100152200D01*
X80746600Y-100152200D01*
X80492600Y-100152200D01*
X80472600Y-100152200D01*
X80472600Y-99898200D01*
X80492600Y-99898200D01*
X80492600Y-97612200D01*
X80746600Y-97612200D01*
X80746600Y-99898200D01*
X81953417Y-99898200D01*
X82074558Y-99666174D01*
X81902288Y-99250253D01*
X81508090Y-98818379D01*
X81373287Y-98755200D01*
X81508090Y-98692021D01*
X81564517Y-98630200D01*
X91050805Y-98630200D01*
X91146656Y-99112073D01*
X91419615Y-99520585D01*
X91828127Y-99793544D01*
X92188364Y-99865200D01*
X93231636Y-99865200D01*
X93591873Y-99793544D01*
X94000385Y-99520585D01*
X94273344Y-99112073D01*
X94369195Y-98630200D01*
X136770805Y-98630200D01*
X136866656Y-99112073D01*
X137139615Y-99520585D01*
X137548127Y-99793544D01*
X137908364Y-99865200D01*
X138951636Y-99865200D01*
X139311873Y-99793544D01*
X139720385Y-99520585D01*
X139837206Y-99345750D01*
X162331400Y-99345750D01*
X162331400Y-100049909D01*
X162428073Y-100283298D01*
X162606701Y-100461927D01*
X162840090Y-100558600D01*
X163544250Y-100558600D01*
X163703000Y-100399850D01*
X163703000Y-99187000D01*
X163957000Y-99187000D01*
X163957000Y-100399850D01*
X164115750Y-100558600D01*
X164819910Y-100558600D01*
X165053299Y-100461927D01*
X165231927Y-100283298D01*
X165313700Y-100085880D01*
X165595053Y-100342688D01*
X166010974Y-100514958D01*
X166243000Y-100393817D01*
X166243000Y-99187000D01*
X166497000Y-99187000D01*
X166497000Y-100393817D01*
X166729026Y-100514958D01*
X167144947Y-100342688D01*
X167576821Y-99948490D01*
X167640000Y-99813687D01*
X167703179Y-99948490D01*
X168135053Y-100342688D01*
X168550974Y-100514958D01*
X168783000Y-100393817D01*
X168783000Y-99187000D01*
X169037000Y-99187000D01*
X169037000Y-100393817D01*
X169269026Y-100514958D01*
X169684947Y-100342688D01*
X170116821Y-99948490D01*
X170180000Y-99813687D01*
X170243179Y-99948490D01*
X170675053Y-100342688D01*
X171090974Y-100514958D01*
X171323000Y-100393817D01*
X171323000Y-99187000D01*
X171577000Y-99187000D01*
X171577000Y-100393817D01*
X171809026Y-100514958D01*
X172224947Y-100342688D01*
X172656821Y-99948490D01*
X172720000Y-99813687D01*
X172783179Y-99948490D01*
X173215053Y-100342688D01*
X173630974Y-100514958D01*
X173863000Y-100393817D01*
X173863000Y-99187000D01*
X174117000Y-99187000D01*
X174117000Y-100393817D01*
X174349026Y-100514958D01*
X174764947Y-100342688D01*
X175196821Y-99948490D01*
X175444968Y-99419027D01*
X175324469Y-99187000D01*
X174117000Y-99187000D01*
X173863000Y-99187000D01*
X171577000Y-99187000D01*
X171323000Y-99187000D01*
X169037000Y-99187000D01*
X168783000Y-99187000D01*
X166497000Y-99187000D01*
X166243000Y-99187000D01*
X163957000Y-99187000D01*
X163703000Y-99187000D01*
X162490150Y-99187000D01*
X162331400Y-99345750D01*
X139837206Y-99345750D01*
X139971115Y-99145340D01*
X200986764Y-99145340D01*
X201011044Y-99250686D01*
X201302588Y-99776206D01*
X201773048Y-100150154D01*
X202350800Y-100315600D01*
X203250800Y-100315600D01*
X203250800Y-98907600D01*
X203504800Y-98907600D01*
X203504800Y-100315600D01*
X204404800Y-100315600D01*
X204982552Y-100150154D01*
X205453012Y-99776206D01*
X205744556Y-99250686D01*
X205768836Y-99145340D01*
X205648178Y-98907600D01*
X203504800Y-98907600D01*
X203250800Y-98907600D01*
X201107422Y-98907600D01*
X200986764Y-99145340D01*
X139971115Y-99145340D01*
X139993344Y-99112073D01*
X140089195Y-98630200D01*
X139993344Y-98148327D01*
X139720385Y-97739815D01*
X139311873Y-97466856D01*
X138951636Y-97395200D01*
X137908364Y-97395200D01*
X137548127Y-97466856D01*
X137139615Y-97739815D01*
X136866656Y-98148327D01*
X136770805Y-98630200D01*
X94369195Y-98630200D01*
X94273344Y-98148327D01*
X94000385Y-97739815D01*
X93591873Y-97466856D01*
X93231636Y-97395200D01*
X92188364Y-97395200D01*
X91828127Y-97466856D01*
X91419615Y-97739815D01*
X91146656Y-98148327D01*
X91050805Y-98630200D01*
X81564517Y-98630200D01*
X81902288Y-98260147D01*
X82074558Y-97844226D01*
X81953417Y-97612200D01*
X80746600Y-97612200D01*
X80492600Y-97612200D01*
X80472600Y-97612200D01*
X80472600Y-97358200D01*
X80492600Y-97358200D01*
X80492600Y-95072200D01*
X80746600Y-95072200D01*
X80746600Y-97358200D01*
X81953417Y-97358200D01*
X82074558Y-97126174D01*
X81902288Y-96710253D01*
X81508090Y-96278379D01*
X81373287Y-96215200D01*
X81508090Y-96152021D01*
X81564517Y-96090200D01*
X91050805Y-96090200D01*
X91146656Y-96572073D01*
X91419615Y-96980585D01*
X91828127Y-97253544D01*
X92188364Y-97325200D01*
X93231636Y-97325200D01*
X93591873Y-97253544D01*
X94000385Y-96980585D01*
X94273344Y-96572073D01*
X94369195Y-96090200D01*
X136770805Y-96090200D01*
X136866656Y-96572073D01*
X137139615Y-96980585D01*
X137548127Y-97253544D01*
X137908364Y-97325200D01*
X138951636Y-97325200D01*
X139311873Y-97253544D01*
X139720385Y-96980585D01*
X139993344Y-96572073D01*
X140003702Y-96520000D01*
X162302041Y-96520000D01*
X162418350Y-97104725D01*
X162748766Y-97599227D01*
X162606701Y-97658073D01*
X162428073Y-97836702D01*
X162331400Y-98070091D01*
X162331400Y-98774250D01*
X162490150Y-98933000D01*
X163703000Y-98933000D01*
X163703000Y-98913000D01*
X163957000Y-98913000D01*
X163957000Y-98933000D01*
X166243000Y-98933000D01*
X166243000Y-98913000D01*
X166497000Y-98913000D01*
X166497000Y-98933000D01*
X168783000Y-98933000D01*
X168783000Y-98913000D01*
X169037000Y-98913000D01*
X169037000Y-98933000D01*
X171323000Y-98933000D01*
X171323000Y-98913000D01*
X171577000Y-98913000D01*
X171577000Y-98933000D01*
X173863000Y-98933000D01*
X173863000Y-98913000D01*
X174117000Y-98913000D01*
X174117000Y-98933000D01*
X175324469Y-98933000D01*
X175444968Y-98700973D01*
X175311343Y-98415860D01*
X200986764Y-98415860D01*
X201107422Y-98653600D01*
X203250800Y-98653600D01*
X203250800Y-97245600D01*
X203504800Y-97245600D01*
X203504800Y-98653600D01*
X205648178Y-98653600D01*
X205768836Y-98415860D01*
X205744556Y-98310514D01*
X205453012Y-97784994D01*
X204982552Y-97411046D01*
X204404800Y-97245600D01*
X203504800Y-97245600D01*
X203250800Y-97245600D01*
X202350800Y-97245600D01*
X201773048Y-97411046D01*
X201302588Y-97784994D01*
X201011044Y-98310514D01*
X200986764Y-98415860D01*
X175311343Y-98415860D01*
X175196821Y-98171510D01*
X174782174Y-97793037D01*
X175070430Y-97600430D01*
X175401650Y-97104725D01*
X175517959Y-96520000D01*
X175401650Y-95935275D01*
X175070430Y-95439570D01*
X174574725Y-95108350D01*
X174137598Y-95021400D01*
X173842402Y-95021400D01*
X173405275Y-95108350D01*
X172909570Y-95439570D01*
X172720000Y-95723281D01*
X172530430Y-95439570D01*
X172034725Y-95108350D01*
X171597598Y-95021400D01*
X171302402Y-95021400D01*
X170865275Y-95108350D01*
X170369570Y-95439570D01*
X170180000Y-95723281D01*
X169990430Y-95439570D01*
X169494725Y-95108350D01*
X169057598Y-95021400D01*
X168762402Y-95021400D01*
X168325275Y-95108350D01*
X167829570Y-95439570D01*
X167640000Y-95723281D01*
X167450430Y-95439570D01*
X166954725Y-95108350D01*
X166517598Y-95021400D01*
X166222402Y-95021400D01*
X165785275Y-95108350D01*
X165289570Y-95439570D01*
X165100000Y-95723281D01*
X164910430Y-95439570D01*
X164414725Y-95108350D01*
X163977598Y-95021400D01*
X163682402Y-95021400D01*
X163245275Y-95108350D01*
X162749570Y-95439570D01*
X162418350Y-95935275D01*
X162302041Y-96520000D01*
X140003702Y-96520000D01*
X140089195Y-96090200D01*
X139993344Y-95608327D01*
X139720385Y-95199815D01*
X139311873Y-94926856D01*
X138951636Y-94855200D01*
X137908364Y-94855200D01*
X137548127Y-94926856D01*
X137139615Y-95199815D01*
X136866656Y-95608327D01*
X136770805Y-96090200D01*
X94369195Y-96090200D01*
X94273344Y-95608327D01*
X94000385Y-95199815D01*
X93591873Y-94926856D01*
X93231636Y-94855200D01*
X92188364Y-94855200D01*
X91828127Y-94926856D01*
X91419615Y-95199815D01*
X91146656Y-95608327D01*
X91050805Y-96090200D01*
X81564517Y-96090200D01*
X81902288Y-95720147D01*
X82074558Y-95304226D01*
X81953417Y-95072200D01*
X80746600Y-95072200D01*
X80492600Y-95072200D01*
X80472600Y-95072200D01*
X80472600Y-94818200D01*
X80492600Y-94818200D01*
X80492600Y-94798200D01*
X80746600Y-94798200D01*
X80746600Y-94818200D01*
X81953417Y-94818200D01*
X82074558Y-94586174D01*
X81902288Y-94170253D01*
X81508090Y-93738379D01*
X81398579Y-93687054D01*
X81603394Y-93550200D01*
X91050805Y-93550200D01*
X91146656Y-94032073D01*
X91419615Y-94440585D01*
X91828127Y-94713544D01*
X92188364Y-94785200D01*
X93231636Y-94785200D01*
X93591873Y-94713544D01*
X94000385Y-94440585D01*
X94273344Y-94032073D01*
X94369195Y-93550200D01*
X136770805Y-93550200D01*
X136866656Y-94032073D01*
X137139615Y-94440585D01*
X137548127Y-94713544D01*
X137908364Y-94785200D01*
X138951636Y-94785200D01*
X139311873Y-94713544D01*
X139720385Y-94440585D01*
X139993344Y-94032073D01*
X140089195Y-93550200D01*
X139993344Y-93068327D01*
X139981500Y-93050600D01*
X200930360Y-93050600D01*
X200930360Y-94350600D01*
X200998674Y-94694035D01*
X201193214Y-94985186D01*
X201484365Y-95179726D01*
X201827800Y-95248040D01*
X204927800Y-95248040D01*
X205271235Y-95179726D01*
X205562386Y-94985186D01*
X205756926Y-94694035D01*
X205825240Y-94350600D01*
X205825240Y-93050600D01*
X205756926Y-92707165D01*
X205562386Y-92416014D01*
X205271235Y-92221474D01*
X204927800Y-92153160D01*
X201827800Y-92153160D01*
X201484365Y-92221474D01*
X201193214Y-92416014D01*
X200998674Y-92707165D01*
X200930360Y-93050600D01*
X139981500Y-93050600D01*
X139720385Y-92659815D01*
X139311873Y-92386856D01*
X138951636Y-92315200D01*
X137908364Y-92315200D01*
X137548127Y-92386856D01*
X137139615Y-92659815D01*
X136866656Y-93068327D01*
X136770805Y-93550200D01*
X94369195Y-93550200D01*
X94273344Y-93068327D01*
X94000385Y-92659815D01*
X93591873Y-92386856D01*
X93231636Y-92315200D01*
X92188364Y-92315200D01*
X91828127Y-92386856D01*
X91419615Y-92659815D01*
X91146656Y-93068327D01*
X91050805Y-93550200D01*
X81603394Y-93550200D01*
X81700030Y-93485630D01*
X82031250Y-92989925D01*
X82147559Y-92405200D01*
X82031250Y-91820475D01*
X81700030Y-91324770D01*
X81416319Y-91135200D01*
X81603394Y-91010200D01*
X91050805Y-91010200D01*
X91146656Y-91492073D01*
X91419615Y-91900585D01*
X91828127Y-92173544D01*
X92188364Y-92245200D01*
X93231636Y-92245200D01*
X93591873Y-92173544D01*
X94000385Y-91900585D01*
X94273344Y-91492073D01*
X94369195Y-91010200D01*
X136770805Y-91010200D01*
X136866656Y-91492073D01*
X137139615Y-91900585D01*
X137548127Y-92173544D01*
X137908364Y-92245200D01*
X138951636Y-92245200D01*
X139311873Y-92173544D01*
X139720385Y-91900585D01*
X139993344Y-91492073D01*
X140089195Y-91010200D01*
X139993344Y-90528327D01*
X139720385Y-90119815D01*
X139311873Y-89846856D01*
X138951636Y-89775200D01*
X137908364Y-89775200D01*
X137548127Y-89846856D01*
X137139615Y-90119815D01*
X136866656Y-90528327D01*
X136770805Y-91010200D01*
X94369195Y-91010200D01*
X94273344Y-90528327D01*
X94000385Y-90119815D01*
X93591873Y-89846856D01*
X93231636Y-89775200D01*
X92188364Y-89775200D01*
X91828127Y-89846856D01*
X91419615Y-90119815D01*
X91146656Y-90528327D01*
X91050805Y-91010200D01*
X81603394Y-91010200D01*
X81700030Y-90945630D01*
X82031250Y-90449925D01*
X82147559Y-89865200D01*
X82031250Y-89280475D01*
X81700030Y-88784770D01*
X81416319Y-88595200D01*
X81603394Y-88470200D01*
X91050805Y-88470200D01*
X91146656Y-88952073D01*
X91419615Y-89360585D01*
X91828127Y-89633544D01*
X92188364Y-89705200D01*
X93231636Y-89705200D01*
X93591873Y-89633544D01*
X94000385Y-89360585D01*
X94273344Y-88952073D01*
X94369195Y-88470200D01*
X136770805Y-88470200D01*
X136866656Y-88952073D01*
X137139615Y-89360585D01*
X137548127Y-89633544D01*
X137908364Y-89705200D01*
X138951636Y-89705200D01*
X139311873Y-89633544D01*
X139720385Y-89360585D01*
X139993344Y-88952073D01*
X140089195Y-88470200D01*
X139993344Y-87988327D01*
X139720385Y-87579815D01*
X139311873Y-87306856D01*
X138951636Y-87235200D01*
X137908364Y-87235200D01*
X137548127Y-87306856D01*
X137139615Y-87579815D01*
X136866656Y-87988327D01*
X136770805Y-88470200D01*
X94369195Y-88470200D01*
X94273344Y-87988327D01*
X94000385Y-87579815D01*
X93591873Y-87306856D01*
X93231636Y-87235200D01*
X92188364Y-87235200D01*
X91828127Y-87306856D01*
X91419615Y-87579815D01*
X91146656Y-87988327D01*
X91050805Y-88470200D01*
X81603394Y-88470200D01*
X81700030Y-88405630D01*
X82031250Y-87909925D01*
X82147559Y-87325200D01*
X82031250Y-86740475D01*
X81700030Y-86244770D01*
X81416319Y-86055200D01*
X81603394Y-85930200D01*
X91050805Y-85930200D01*
X91146656Y-86412073D01*
X91419615Y-86820585D01*
X91828127Y-87093544D01*
X92188364Y-87165200D01*
X93231636Y-87165200D01*
X93591873Y-87093544D01*
X94000385Y-86820585D01*
X94273344Y-86412073D01*
X94369195Y-85930200D01*
X136770805Y-85930200D01*
X136866656Y-86412073D01*
X137139615Y-86820585D01*
X137548127Y-87093544D01*
X137908364Y-87165200D01*
X138951636Y-87165200D01*
X139311873Y-87093544D01*
X139720385Y-86820585D01*
X139971115Y-86445340D01*
X200834364Y-86445340D01*
X200858644Y-86550686D01*
X201150188Y-87076206D01*
X201620648Y-87450154D01*
X202198400Y-87615600D01*
X203098400Y-87615600D01*
X203098400Y-86207600D01*
X203352400Y-86207600D01*
X203352400Y-87615600D01*
X204252400Y-87615600D01*
X204830152Y-87450154D01*
X205300612Y-87076206D01*
X205592156Y-86550686D01*
X205616436Y-86445340D01*
X205495778Y-86207600D01*
X203352400Y-86207600D01*
X203098400Y-86207600D01*
X200955022Y-86207600D01*
X200834364Y-86445340D01*
X139971115Y-86445340D01*
X139993344Y-86412073D01*
X140089195Y-85930200D01*
X140046560Y-85715860D01*
X200834364Y-85715860D01*
X200955022Y-85953600D01*
X203098400Y-85953600D01*
X203098400Y-84545600D01*
X203352400Y-84545600D01*
X203352400Y-85953600D01*
X205495778Y-85953600D01*
X205616436Y-85715860D01*
X205592156Y-85610514D01*
X205300612Y-85084994D01*
X204830152Y-84711046D01*
X204252400Y-84545600D01*
X203352400Y-84545600D01*
X203098400Y-84545600D01*
X202198400Y-84545600D01*
X201620648Y-84711046D01*
X201150188Y-85084994D01*
X200858644Y-85610514D01*
X200834364Y-85715860D01*
X140046560Y-85715860D01*
X139993344Y-85448327D01*
X139720385Y-85039815D01*
X139311873Y-84766856D01*
X138951636Y-84695200D01*
X137908364Y-84695200D01*
X137548127Y-84766856D01*
X137139615Y-85039815D01*
X136866656Y-85448327D01*
X136770805Y-85930200D01*
X94369195Y-85930200D01*
X94273344Y-85448327D01*
X94000385Y-85039815D01*
X93591873Y-84766856D01*
X93231636Y-84695200D01*
X92188364Y-84695200D01*
X91828127Y-84766856D01*
X91419615Y-85039815D01*
X91146656Y-85448327D01*
X91050805Y-85930200D01*
X81603394Y-85930200D01*
X81700030Y-85865630D01*
X82031250Y-85369925D01*
X82147559Y-84785200D01*
X82031250Y-84200475D01*
X81700030Y-83704770D01*
X81229244Y-83390200D01*
X91050805Y-83390200D01*
X91146656Y-83872073D01*
X91419615Y-84280585D01*
X91828127Y-84553544D01*
X92188364Y-84625200D01*
X93231636Y-84625200D01*
X93591873Y-84553544D01*
X94000385Y-84280585D01*
X94273344Y-83872073D01*
X94369195Y-83390200D01*
X136770805Y-83390200D01*
X136866656Y-83872073D01*
X137139615Y-84280585D01*
X137548127Y-84553544D01*
X137908364Y-84625200D01*
X138951636Y-84625200D01*
X139311873Y-84553544D01*
X139720385Y-84280585D01*
X139993344Y-83872073D01*
X140089195Y-83390200D01*
X139993344Y-82908327D01*
X139720385Y-82499815D01*
X139311873Y-82226856D01*
X138951636Y-82155200D01*
X137908364Y-82155200D01*
X137548127Y-82226856D01*
X137139615Y-82499815D01*
X136866656Y-82908327D01*
X136770805Y-83390200D01*
X94369195Y-83390200D01*
X94273344Y-82908327D01*
X94000385Y-82499815D01*
X93591873Y-82226856D01*
X93231636Y-82155200D01*
X92188364Y-82155200D01*
X91828127Y-82226856D01*
X91419615Y-82499815D01*
X91146656Y-82908327D01*
X91050805Y-83390200D01*
X81229244Y-83390200D01*
X81204325Y-83373550D01*
X80767198Y-83286600D01*
X80472002Y-83286600D01*
X80034875Y-83373550D01*
X79546532Y-83699851D01*
X79541357Y-83673835D01*
X79401009Y-83463791D01*
X79190965Y-83323443D01*
X78943200Y-83274160D01*
X77216000Y-83274160D01*
X76968235Y-83323443D01*
X76758191Y-83463791D01*
X76617843Y-83673835D01*
X76568560Y-83921600D01*
X76568560Y-85648800D01*
X76617843Y-85896565D01*
X76758191Y-86106609D01*
X76968235Y-86246957D01*
X76994251Y-86252132D01*
X76667950Y-86740475D01*
X76551641Y-87325200D01*
X71830000Y-87325200D01*
X71830000Y-80850200D01*
X91050805Y-80850200D01*
X91146656Y-81332073D01*
X91419615Y-81740585D01*
X91828127Y-82013544D01*
X92188364Y-82085200D01*
X93231636Y-82085200D01*
X93591873Y-82013544D01*
X94000385Y-81740585D01*
X94273344Y-81332073D01*
X94369195Y-80850200D01*
X136770805Y-80850200D01*
X136866656Y-81332073D01*
X137139615Y-81740585D01*
X137548127Y-82013544D01*
X137908364Y-82085200D01*
X138951636Y-82085200D01*
X138999928Y-82075594D01*
X150075000Y-82075594D01*
X150075000Y-83024406D01*
X150438095Y-83900994D01*
X151109006Y-84571905D01*
X151985594Y-84935000D01*
X152934406Y-84935000D01*
X153810994Y-84571905D01*
X154481905Y-83900994D01*
X154845000Y-83024406D01*
X154845000Y-82075594D01*
X182075000Y-82075594D01*
X182075000Y-83024406D01*
X182438095Y-83900994D01*
X183109006Y-84571905D01*
X183985594Y-84935000D01*
X184934406Y-84935000D01*
X185810994Y-84571905D01*
X186481905Y-83900994D01*
X186845000Y-83024406D01*
X186845000Y-82075594D01*
X186481905Y-81199006D01*
X185810994Y-80528095D01*
X185382484Y-80350600D01*
X200777960Y-80350600D01*
X200777960Y-81650600D01*
X200846274Y-81994035D01*
X201040814Y-82285186D01*
X201331965Y-82479726D01*
X201675400Y-82548040D01*
X204775400Y-82548040D01*
X205118835Y-82479726D01*
X205409986Y-82285186D01*
X205604526Y-81994035D01*
X205672840Y-81650600D01*
X205672840Y-80350600D01*
X205604526Y-80007165D01*
X205409986Y-79716014D01*
X205118835Y-79521474D01*
X204775400Y-79453160D01*
X201675400Y-79453160D01*
X201331965Y-79521474D01*
X201040814Y-79716014D01*
X200846274Y-80007165D01*
X200777960Y-80350600D01*
X185382484Y-80350600D01*
X184934406Y-80165000D01*
X183985594Y-80165000D01*
X183109006Y-80528095D01*
X182438095Y-81199006D01*
X182075000Y-82075594D01*
X154845000Y-82075594D01*
X154481905Y-81199006D01*
X153810994Y-80528095D01*
X152934406Y-80165000D01*
X151985594Y-80165000D01*
X151109006Y-80528095D01*
X150438095Y-81199006D01*
X150075000Y-82075594D01*
X138999928Y-82075594D01*
X139311873Y-82013544D01*
X139720385Y-81740585D01*
X139993344Y-81332073D01*
X140089195Y-80850200D01*
X139993344Y-80368327D01*
X139720385Y-79959815D01*
X139311873Y-79686856D01*
X138951636Y-79615200D01*
X137908364Y-79615200D01*
X137548127Y-79686856D01*
X137139615Y-79959815D01*
X136866656Y-80368327D01*
X136770805Y-80850200D01*
X94369195Y-80850200D01*
X94273344Y-80368327D01*
X94000385Y-79959815D01*
X93591873Y-79686856D01*
X93231636Y-79615200D01*
X92188364Y-79615200D01*
X91828127Y-79686856D01*
X91419615Y-79959815D01*
X91146656Y-80368327D01*
X91050805Y-80850200D01*
X71830000Y-80850200D01*
X71830000Y-78310200D01*
X91050805Y-78310200D01*
X91146656Y-78792073D01*
X91419615Y-79200585D01*
X91828127Y-79473544D01*
X92188364Y-79545200D01*
X93231636Y-79545200D01*
X93591873Y-79473544D01*
X94000385Y-79200585D01*
X94273344Y-78792073D01*
X94369195Y-78310200D01*
X136770805Y-78310200D01*
X136866656Y-78792073D01*
X137139615Y-79200585D01*
X137548127Y-79473544D01*
X137908364Y-79545200D01*
X138951636Y-79545200D01*
X139311873Y-79473544D01*
X139720385Y-79200585D01*
X139993344Y-78792073D01*
X140089195Y-78310200D01*
X139993344Y-77828327D01*
X139720385Y-77419815D01*
X139311873Y-77146856D01*
X138951636Y-77075200D01*
X137908364Y-77075200D01*
X137548127Y-77146856D01*
X137139615Y-77419815D01*
X136866656Y-77828327D01*
X136770805Y-78310200D01*
X94369195Y-78310200D01*
X94273344Y-77828327D01*
X94000385Y-77419815D01*
X93591873Y-77146856D01*
X93231636Y-77075200D01*
X92188364Y-77075200D01*
X91828127Y-77146856D01*
X91419615Y-77419815D01*
X91146656Y-77828327D01*
X91050805Y-78310200D01*
X71830000Y-78310200D01*
X71830000Y-75770200D01*
X91050805Y-75770200D01*
X91146656Y-76252073D01*
X91419615Y-76660585D01*
X91828127Y-76933544D01*
X92188364Y-77005200D01*
X93231636Y-77005200D01*
X93591873Y-76933544D01*
X94000385Y-76660585D01*
X94273344Y-76252073D01*
X94369195Y-75770200D01*
X136770805Y-75770200D01*
X136866656Y-76252073D01*
X137139615Y-76660585D01*
X137548127Y-76933544D01*
X137908364Y-77005200D01*
X138951636Y-77005200D01*
X139311873Y-76933544D01*
X139720385Y-76660585D01*
X139993344Y-76252073D01*
X140089195Y-75770200D01*
X139993344Y-75288327D01*
X139720385Y-74879815D01*
X139311873Y-74606856D01*
X138951636Y-74535200D01*
X137908364Y-74535200D01*
X137548127Y-74606856D01*
X137139615Y-74879815D01*
X136866656Y-75288327D01*
X136770805Y-75770200D01*
X94369195Y-75770200D01*
X94273344Y-75288327D01*
X94000385Y-74879815D01*
X93591873Y-74606856D01*
X93231636Y-74535200D01*
X92188364Y-74535200D01*
X91828127Y-74606856D01*
X91419615Y-74879815D01*
X91146656Y-75288327D01*
X91050805Y-75770200D01*
X71830000Y-75770200D01*
X71830000Y-70565594D01*
X76355000Y-70565594D01*
X76355000Y-71514406D01*
X76718095Y-72390994D01*
X77389006Y-73061905D01*
X78265594Y-73425000D01*
X79214406Y-73425000D01*
X79684694Y-73230200D01*
X91050805Y-73230200D01*
X91146656Y-73712073D01*
X91419615Y-74120585D01*
X91828127Y-74393544D01*
X92188364Y-74465200D01*
X93231636Y-74465200D01*
X93591873Y-74393544D01*
X94000385Y-74120585D01*
X94273344Y-73712073D01*
X94369195Y-73230200D01*
X136770805Y-73230200D01*
X136866656Y-73712073D01*
X137139615Y-74120585D01*
X137548127Y-74393544D01*
X137908364Y-74465200D01*
X138951636Y-74465200D01*
X139311873Y-74393544D01*
X139720385Y-74120585D01*
X139993344Y-73712073D01*
X140089195Y-73230200D01*
X139993344Y-72748327D01*
X139720385Y-72339815D01*
X139311873Y-72066856D01*
X138951636Y-71995200D01*
X137908364Y-71995200D01*
X137548127Y-72066856D01*
X137139615Y-72339815D01*
X136866656Y-72748327D01*
X136770805Y-73230200D01*
X94369195Y-73230200D01*
X94273344Y-72748327D01*
X94000385Y-72339815D01*
X93591873Y-72066856D01*
X93231636Y-71995200D01*
X92188364Y-71995200D01*
X91828127Y-72066856D01*
X91419615Y-72339815D01*
X91146656Y-72748327D01*
X91050805Y-73230200D01*
X79684694Y-73230200D01*
X80090994Y-73061905D01*
X80761905Y-72390994D01*
X81125000Y-71514406D01*
X81125000Y-70690200D01*
X91050805Y-70690200D01*
X91146656Y-71172073D01*
X91419615Y-71580585D01*
X91828127Y-71853544D01*
X92188364Y-71925200D01*
X93231636Y-71925200D01*
X93591873Y-71853544D01*
X94000385Y-71580585D01*
X94273344Y-71172073D01*
X94369195Y-70690200D01*
X136770805Y-70690200D01*
X136866656Y-71172073D01*
X137139615Y-71580585D01*
X137548127Y-71853544D01*
X137908364Y-71925200D01*
X138951636Y-71925200D01*
X139311873Y-71853544D01*
X139720385Y-71580585D01*
X139993344Y-71172073D01*
X140089195Y-70690200D01*
X140064410Y-70565594D01*
X202085000Y-70565594D01*
X202085000Y-71514406D01*
X202448095Y-72390994D01*
X203119006Y-73061905D01*
X203995594Y-73425000D01*
X204944406Y-73425000D01*
X205820994Y-73061905D01*
X206491905Y-72390994D01*
X206855000Y-71514406D01*
X206855000Y-70565594D01*
X206491905Y-69689006D01*
X205820994Y-69018095D01*
X204944406Y-68655000D01*
X203995594Y-68655000D01*
X203119006Y-69018095D01*
X202448095Y-69689006D01*
X202085000Y-70565594D01*
X140064410Y-70565594D01*
X139993344Y-70208327D01*
X139720385Y-69799815D01*
X139311873Y-69526856D01*
X138951636Y-69455200D01*
X137908364Y-69455200D01*
X137548127Y-69526856D01*
X137139615Y-69799815D01*
X136866656Y-70208327D01*
X136770805Y-70690200D01*
X94369195Y-70690200D01*
X94273344Y-70208327D01*
X94000385Y-69799815D01*
X93591873Y-69526856D01*
X93231636Y-69455200D01*
X92188364Y-69455200D01*
X91828127Y-69526856D01*
X91419615Y-69799815D01*
X91146656Y-70208327D01*
X91050805Y-70690200D01*
X81125000Y-70690200D01*
X81125000Y-70565594D01*
X80761905Y-69689006D01*
X80090994Y-69018095D01*
X79214406Y-68655000D01*
X78265594Y-68655000D01*
X77389006Y-69018095D01*
X76718095Y-69689006D01*
X76355000Y-70565594D01*
X71830000Y-70565594D01*
X71830000Y-68150200D01*
X91050805Y-68150200D01*
X91146656Y-68632073D01*
X91419615Y-69040585D01*
X91828127Y-69313544D01*
X92188364Y-69385200D01*
X93231636Y-69385200D01*
X93591873Y-69313544D01*
X94000385Y-69040585D01*
X94273344Y-68632073D01*
X94369195Y-68150200D01*
X136770805Y-68150200D01*
X136866656Y-68632073D01*
X137139615Y-69040585D01*
X137548127Y-69313544D01*
X137908364Y-69385200D01*
X138951636Y-69385200D01*
X139311873Y-69313544D01*
X139720385Y-69040585D01*
X139993344Y-68632073D01*
X140089195Y-68150200D01*
X139993344Y-67668327D01*
X139720385Y-67259815D01*
X139311873Y-66986856D01*
X138951636Y-66915200D01*
X137908364Y-66915200D01*
X137548127Y-66986856D01*
X137139615Y-67259815D01*
X136866656Y-67668327D01*
X136770805Y-68150200D01*
X94369195Y-68150200D01*
X94273344Y-67668327D01*
X94000385Y-67259815D01*
X93591873Y-66986856D01*
X93231636Y-66915200D01*
X92188364Y-66915200D01*
X91828127Y-66986856D01*
X91419615Y-67259815D01*
X91146656Y-67668327D01*
X91050805Y-68150200D01*
X71830000Y-68150200D01*
X71830000Y-65927809D01*
X91116538Y-65927809D01*
X91120408Y-65965481D01*
X91346920Y-66393674D01*
X91720053Y-66702590D01*
X92183000Y-66845200D01*
X92583000Y-66845200D01*
X92583000Y-65737200D01*
X92837000Y-65737200D01*
X92837000Y-66845200D01*
X93237000Y-66845200D01*
X93699947Y-66702590D01*
X94073080Y-66393674D01*
X94299592Y-65965481D01*
X94303462Y-65927809D01*
X136836538Y-65927809D01*
X136840408Y-65965481D01*
X137066920Y-66393674D01*
X137440053Y-66702590D01*
X137903000Y-66845200D01*
X138303000Y-66845200D01*
X138303000Y-65737200D01*
X138557000Y-65737200D01*
X138557000Y-66845200D01*
X138957000Y-66845200D01*
X139419947Y-66702590D01*
X139793080Y-66393674D01*
X140019592Y-65965481D01*
X140023462Y-65927809D01*
X139898731Y-65737200D01*
X138557000Y-65737200D01*
X138303000Y-65737200D01*
X136961269Y-65737200D01*
X136836538Y-65927809D01*
X94303462Y-65927809D01*
X94178731Y-65737200D01*
X92837000Y-65737200D01*
X92583000Y-65737200D01*
X91241269Y-65737200D01*
X91116538Y-65927809D01*
X71830000Y-65927809D01*
X71830000Y-65292591D01*
X91116538Y-65292591D01*
X91241269Y-65483200D01*
X92583000Y-65483200D01*
X92583000Y-64375200D01*
X92837000Y-64375200D01*
X92837000Y-65483200D01*
X94178731Y-65483200D01*
X94303462Y-65292591D01*
X136836538Y-65292591D01*
X136961269Y-65483200D01*
X138303000Y-65483200D01*
X138303000Y-64375200D01*
X138557000Y-64375200D01*
X138557000Y-65483200D01*
X139898731Y-65483200D01*
X140023462Y-65292591D01*
X140019592Y-65254919D01*
X139793080Y-64826726D01*
X139419947Y-64517810D01*
X138957000Y-64375200D01*
X138557000Y-64375200D01*
X138303000Y-64375200D01*
X137903000Y-64375200D01*
X137440053Y-64517810D01*
X137066920Y-64826726D01*
X136840408Y-65254919D01*
X136836538Y-65292591D01*
X94303462Y-65292591D01*
X94299592Y-65254919D01*
X94073080Y-64826726D01*
X93699947Y-64517810D01*
X93237000Y-64375200D01*
X92837000Y-64375200D01*
X92583000Y-64375200D01*
X92183000Y-64375200D01*
X91720053Y-64517810D01*
X91346920Y-64826726D01*
X91120408Y-65254919D01*
X91116538Y-65292591D01*
X71830000Y-65292591D01*
X71830000Y-60400000D01*
X210110000Y-60400000D01*
X210110001Y-138990000D01*
X210110001Y-138990000D01*
G37*
X210110001Y-138990000D02*
X71830000Y-138990000D01*
X71830000Y-127715594D01*
X76355000Y-127715594D01*
X76355000Y-128664406D01*
X76718095Y-129540994D01*
X77389006Y-130211905D01*
X78265594Y-130575000D01*
X79214406Y-130575000D01*
X80090994Y-130211905D01*
X80761905Y-129540994D01*
X81125000Y-128664406D01*
X81125000Y-127715594D01*
X80761905Y-126839006D01*
X80090994Y-126168095D01*
X79214406Y-125805000D01*
X78265594Y-125805000D01*
X77389006Y-126168095D01*
X76718095Y-126839006D01*
X76355000Y-127715594D01*
X71830000Y-127715594D01*
X71830000Y-87325200D01*
X76551641Y-87325200D01*
X76667950Y-87909925D01*
X76999170Y-88405630D01*
X77282881Y-88595200D01*
X76999170Y-88784770D01*
X76667950Y-89280475D01*
X76551641Y-89865200D01*
X76667950Y-90449925D01*
X76999170Y-90945630D01*
X77282881Y-91135200D01*
X76999170Y-91324770D01*
X76667950Y-91820475D01*
X76551641Y-92405200D01*
X76667950Y-92989925D01*
X76999170Y-93485630D01*
X77282881Y-93675200D01*
X76999170Y-93864770D01*
X76667950Y-94360475D01*
X76551641Y-94945200D01*
X76667950Y-95529925D01*
X76999170Y-96025630D01*
X77282881Y-96215200D01*
X76999170Y-96404770D01*
X76667950Y-96900475D01*
X76551641Y-97485200D01*
X76667950Y-98069925D01*
X76999170Y-98565630D01*
X77282881Y-98755200D01*
X76999170Y-98944770D01*
X76667950Y-99440475D01*
X76551641Y-100025200D01*
X76667950Y-100609925D01*
X76999170Y-101105630D01*
X77282881Y-101295200D01*
X76999170Y-101484770D01*
X76667950Y-101980475D01*
X76551641Y-102565200D01*
X76667950Y-103149925D01*
X76999170Y-103645630D01*
X77282881Y-103835200D01*
X76999170Y-104024770D01*
X76667950Y-104520475D01*
X76551641Y-105105200D01*
X76667950Y-105689925D01*
X76999170Y-106185630D01*
X77282881Y-106375200D01*
X76999170Y-106564770D01*
X76667950Y-107060475D01*
X76551641Y-107645200D01*
X76667950Y-108229925D01*
X76999170Y-108725630D01*
X77282881Y-108915200D01*
X76999170Y-109104770D01*
X76667950Y-109600475D01*
X76551641Y-110185200D01*
X76667950Y-110769925D01*
X76999170Y-111265630D01*
X77282881Y-111455200D01*
X76999170Y-111644770D01*
X76667950Y-112140475D01*
X76551641Y-112725200D01*
X76667950Y-113309925D01*
X76999170Y-113805630D01*
X77282881Y-113995200D01*
X76999170Y-114184770D01*
X76667950Y-114680475D01*
X76551641Y-115265200D01*
X76667950Y-115849925D01*
X76999170Y-116345630D01*
X77494875Y-116676850D01*
X77932002Y-116763800D01*
X78227198Y-116763800D01*
X78664325Y-116676850D01*
X78984600Y-116462849D01*
X78984600Y-116647544D01*
X78984601Y-116647548D01*
X78984600Y-118609370D01*
X78952569Y-118770400D01*
X78984600Y-118931430D01*
X79079464Y-119408344D01*
X79440831Y-119949169D01*
X79577350Y-120040388D01*
X86045801Y-126508840D01*
X86045800Y-131309370D01*
X86013769Y-131470400D01*
X86045800Y-131631430D01*
X86140664Y-132108344D01*
X86502031Y-132649169D01*
X86638550Y-132740388D01*
X88001110Y-134102949D01*
X87993579Y-134140810D01*
X88025610Y-134301840D01*
X88120474Y-134778754D01*
X88481841Y-135319579D01*
X88511448Y-135339362D01*
X88531231Y-135368969D01*
X89072055Y-135730336D01*
X89548969Y-135825200D01*
X89548970Y-135825200D01*
X89709999Y-135857231D01*
X89871029Y-135825200D01*
X92871031Y-135825200D01*
X93347945Y-135730336D01*
X93888769Y-135368969D01*
X94250136Y-134828145D01*
X94377031Y-134190200D01*
X136770805Y-134190200D01*
X136866656Y-134672073D01*
X137139615Y-135080585D01*
X137548127Y-135353544D01*
X137908364Y-135425200D01*
X138951636Y-135425200D01*
X139311873Y-135353544D01*
X139720385Y-135080585D01*
X139993344Y-134672073D01*
X140089195Y-134190200D01*
X139993344Y-133708327D01*
X139720385Y-133299815D01*
X139311873Y-133026856D01*
X138951636Y-132955200D01*
X137908364Y-132955200D01*
X137548127Y-133026856D01*
X137139615Y-133299815D01*
X136866656Y-133708327D01*
X136770805Y-134190200D01*
X94377031Y-134190200D01*
X94250136Y-133552255D01*
X93888769Y-133011431D01*
X93553798Y-132787611D01*
X93699947Y-132742590D01*
X94073080Y-132433674D01*
X94299592Y-132005481D01*
X94303462Y-131967809D01*
X136836538Y-131967809D01*
X136840408Y-132005481D01*
X137066920Y-132433674D01*
X137440053Y-132742590D01*
X137903000Y-132885200D01*
X138303000Y-132885200D01*
X138303000Y-131777200D01*
X138557000Y-131777200D01*
X138557000Y-132885200D01*
X138957000Y-132885200D01*
X139419947Y-132742590D01*
X139793080Y-132433674D01*
X140019592Y-132005481D01*
X140023462Y-131967809D01*
X139898731Y-131777200D01*
X138557000Y-131777200D01*
X138303000Y-131777200D01*
X136961269Y-131777200D01*
X136836538Y-131967809D01*
X94303462Y-131967809D01*
X94178731Y-131777200D01*
X92837000Y-131777200D01*
X92837000Y-131797200D01*
X92583000Y-131797200D01*
X92583000Y-131777200D01*
X91241269Y-131777200D01*
X91116538Y-131967809D01*
X91120408Y-132005481D01*
X91346920Y-132433674D01*
X91493709Y-132555200D01*
X91028981Y-132555200D01*
X90839379Y-132271441D01*
X90702862Y-132180224D01*
X89855229Y-131332591D01*
X91116538Y-131332591D01*
X91241269Y-131523200D01*
X92583000Y-131523200D01*
X92583000Y-130415200D01*
X92837000Y-130415200D01*
X92837000Y-131523200D01*
X94178731Y-131523200D01*
X94303462Y-131332591D01*
X136836538Y-131332591D01*
X136961269Y-131523200D01*
X138303000Y-131523200D01*
X138303000Y-130415200D01*
X138557000Y-130415200D01*
X138557000Y-131523200D01*
X139898731Y-131523200D01*
X140023462Y-131332591D01*
X140019592Y-131294919D01*
X139843692Y-130962400D01*
X150886087Y-130962400D01*
X150997460Y-131522309D01*
X151314623Y-131996977D01*
X151789291Y-132314140D01*
X152207867Y-132397400D01*
X152490533Y-132397400D01*
X152909109Y-132314140D01*
X153383777Y-131996977D01*
X153700940Y-131522309D01*
X153812313Y-130962400D01*
X153700940Y-130402491D01*
X153540517Y-130162400D01*
X158521760Y-130162400D01*
X158521760Y-131762400D01*
X158571043Y-132010165D01*
X158711391Y-132220209D01*
X158921435Y-132360557D01*
X159169200Y-132409840D01*
X160769200Y-132409840D01*
X161016965Y-132360557D01*
X161227009Y-132220209D01*
X161367357Y-132010165D01*
X161416640Y-131762400D01*
X161416640Y-130162400D01*
X161386645Y-130011600D01*
X162790560Y-130011600D01*
X162790560Y-131811600D01*
X162839843Y-132059365D01*
X162980191Y-132269409D01*
X163190235Y-132409757D01*
X163438000Y-132459040D01*
X165238000Y-132459040D01*
X165485765Y-132409757D01*
X165695809Y-132269409D01*
X165836157Y-132059365D01*
X165839275Y-132043692D01*
X166008493Y-132212910D01*
X166572670Y-132446600D01*
X167183330Y-132446600D01*
X167747507Y-132212910D01*
X168179310Y-131781107D01*
X168413000Y-131216930D01*
X168413000Y-130962400D01*
X170952087Y-130962400D01*
X171063460Y-131522309D01*
X171380623Y-131996977D01*
X171855291Y-132314140D01*
X172273867Y-132397400D01*
X172556533Y-132397400D01*
X172975109Y-132314140D01*
X173449777Y-131996977D01*
X173766940Y-131522309D01*
X173878313Y-130962400D01*
X173821536Y-130676961D01*
X183680200Y-130676961D01*
X183680200Y-131247839D01*
X183898666Y-131775262D01*
X184302338Y-132178934D01*
X184829761Y-132397400D01*
X185400639Y-132397400D01*
X185928062Y-132178934D01*
X186331734Y-131775262D01*
X186550200Y-131247839D01*
X186550200Y-130676961D01*
X186331734Y-130149538D01*
X185928062Y-129745866D01*
X185400639Y-129527400D01*
X184829761Y-129527400D01*
X184302338Y-129745866D01*
X183898666Y-130149538D01*
X183680200Y-130676961D01*
X173821536Y-130676961D01*
X173766940Y-130402491D01*
X173449777Y-129927823D01*
X172975109Y-129610660D01*
X172556533Y-129527400D01*
X172273867Y-129527400D01*
X171855291Y-129610660D01*
X171380623Y-129927823D01*
X171063460Y-130402491D01*
X170952087Y-130962400D01*
X168413000Y-130962400D01*
X168413000Y-130606270D01*
X168179310Y-130042093D01*
X167747507Y-129610290D01*
X167183330Y-129376600D01*
X166572670Y-129376600D01*
X166008493Y-129610290D01*
X165839275Y-129779508D01*
X165836157Y-129763835D01*
X165695809Y-129553791D01*
X165485765Y-129413443D01*
X165238000Y-129364160D01*
X163438000Y-129364160D01*
X163190235Y-129413443D01*
X162980191Y-129553791D01*
X162839843Y-129763835D01*
X162790560Y-130011600D01*
X161386645Y-130011600D01*
X161367357Y-129914635D01*
X161227009Y-129704591D01*
X161016965Y-129564243D01*
X160861839Y-129533387D01*
X161200241Y-129159823D01*
X161361104Y-128771439D01*
X161239115Y-128549400D01*
X160096200Y-128549400D01*
X160096200Y-128569400D01*
X159842200Y-128569400D01*
X159842200Y-128549400D01*
X158699285Y-128549400D01*
X158577296Y-128771439D01*
X158738159Y-129159823D01*
X159076561Y-129533387D01*
X158921435Y-129564243D01*
X158711391Y-129704591D01*
X158571043Y-129914635D01*
X158521760Y-130162400D01*
X153540517Y-130162400D01*
X153383777Y-129927823D01*
X153000092Y-129671453D01*
X153204334Y-129574789D01*
X153580241Y-129159823D01*
X153741104Y-128771439D01*
X153619115Y-128549400D01*
X152476200Y-128549400D01*
X152476200Y-128569400D01*
X152222200Y-128569400D01*
X152222200Y-128549400D01*
X151079285Y-128549400D01*
X150957296Y-128771439D01*
X151118159Y-129159823D01*
X151494066Y-129574789D01*
X151698308Y-129671453D01*
X151314623Y-129927823D01*
X150997460Y-130402491D01*
X150886087Y-130962400D01*
X139843692Y-130962400D01*
X139793080Y-130866726D01*
X139419947Y-130557810D01*
X138957000Y-130415200D01*
X138557000Y-130415200D01*
X138303000Y-130415200D01*
X137903000Y-130415200D01*
X137440053Y-130557810D01*
X137066920Y-130866726D01*
X136840408Y-131294919D01*
X136836538Y-131332591D01*
X94303462Y-131332591D01*
X94299592Y-131294919D01*
X94073080Y-130866726D01*
X93699947Y-130557810D01*
X93237000Y-130415200D01*
X92837000Y-130415200D01*
X92583000Y-130415200D01*
X92183000Y-130415200D01*
X91720053Y-130557810D01*
X91346920Y-130866726D01*
X91120408Y-131294919D01*
X91116538Y-131332591D01*
X89855229Y-131332591D01*
X89315800Y-130793162D01*
X89315800Y-129110200D01*
X91050805Y-129110200D01*
X91146656Y-129592073D01*
X91419615Y-130000585D01*
X91828127Y-130273544D01*
X92188364Y-130345200D01*
X93231636Y-130345200D01*
X93591873Y-130273544D01*
X94000385Y-130000585D01*
X94273344Y-129592073D01*
X94369195Y-129110200D01*
X136770805Y-129110200D01*
X136866656Y-129592073D01*
X137139615Y-130000585D01*
X137548127Y-130273544D01*
X137908364Y-130345200D01*
X138951636Y-130345200D01*
X139311873Y-130273544D01*
X139720385Y-130000585D01*
X139993344Y-129592073D01*
X140089195Y-129110200D01*
X139993344Y-128628327D01*
X139720385Y-128219815D01*
X139501202Y-128073361D01*
X150957296Y-128073361D01*
X151079285Y-128295400D01*
X152222200Y-128295400D01*
X152222200Y-127151771D01*
X152476200Y-127151771D01*
X152476200Y-128295400D01*
X153619115Y-128295400D01*
X153741104Y-128073361D01*
X158577296Y-128073361D01*
X158699285Y-128295400D01*
X159842200Y-128295400D01*
X159842200Y-127151771D01*
X160096200Y-127151771D01*
X160096200Y-128295400D01*
X161239115Y-128295400D01*
X161361104Y-128073361D01*
X161212923Y-127715594D01*
X202085000Y-127715594D01*
X202085000Y-128664406D01*
X202448095Y-129540994D01*
X203119006Y-130211905D01*
X203995594Y-130575000D01*
X204944406Y-130575000D01*
X205820994Y-130211905D01*
X206491905Y-129540994D01*
X206855000Y-128664406D01*
X206855000Y-127715594D01*
X206491905Y-126839006D01*
X205820994Y-126168095D01*
X204944406Y-125805000D01*
X203995594Y-125805000D01*
X203119006Y-126168095D01*
X202448095Y-126839006D01*
X202085000Y-127715594D01*
X161212923Y-127715594D01*
X161200241Y-127684977D01*
X160824334Y-127270011D01*
X160318241Y-127030486D01*
X160096200Y-127151771D01*
X159842200Y-127151771D01*
X159620159Y-127030486D01*
X159114066Y-127270011D01*
X158738159Y-127684977D01*
X158577296Y-128073361D01*
X153741104Y-128073361D01*
X153580241Y-127684977D01*
X153204334Y-127270011D01*
X152698241Y-127030486D01*
X152476200Y-127151771D01*
X152222200Y-127151771D01*
X152000159Y-127030486D01*
X151494066Y-127270011D01*
X151118159Y-127684977D01*
X150957296Y-128073361D01*
X139501202Y-128073361D01*
X139311873Y-127946856D01*
X138951636Y-127875200D01*
X137908364Y-127875200D01*
X137548127Y-127946856D01*
X137139615Y-128219815D01*
X136866656Y-128628327D01*
X136770805Y-129110200D01*
X94369195Y-129110200D01*
X94273344Y-128628327D01*
X94000385Y-128219815D01*
X93591873Y-127946856D01*
X93231636Y-127875200D01*
X92188364Y-127875200D01*
X91828127Y-127946856D01*
X91419615Y-128219815D01*
X91146656Y-128628327D01*
X91050805Y-129110200D01*
X89315800Y-129110200D01*
X89315800Y-126570200D01*
X91050805Y-126570200D01*
X91146656Y-127052073D01*
X91419615Y-127460585D01*
X91828127Y-127733544D01*
X92188364Y-127805200D01*
X93231636Y-127805200D01*
X93591873Y-127733544D01*
X94000385Y-127460585D01*
X94273344Y-127052073D01*
X94369195Y-126570200D01*
X136770805Y-126570200D01*
X136866656Y-127052073D01*
X137139615Y-127460585D01*
X137548127Y-127733544D01*
X137908364Y-127805200D01*
X138951636Y-127805200D01*
X139311873Y-127733544D01*
X139720385Y-127460585D01*
X139993344Y-127052073D01*
X140089195Y-126570200D01*
X139993344Y-126088327D01*
X139720385Y-125679815D01*
X139311873Y-125406856D01*
X138951636Y-125335200D01*
X137908364Y-125335200D01*
X137548127Y-125406856D01*
X137139615Y-125679815D01*
X136866656Y-126088327D01*
X136770805Y-126570200D01*
X94369195Y-126570200D01*
X94273344Y-126088327D01*
X94000385Y-125679815D01*
X93591873Y-125406856D01*
X93231636Y-125335200D01*
X92188364Y-125335200D01*
X91828127Y-125406856D01*
X91419615Y-125679815D01*
X91146656Y-126088327D01*
X91050805Y-126570200D01*
X89315800Y-126570200D01*
X89315800Y-125992630D01*
X89347831Y-125831600D01*
X89263344Y-125406856D01*
X89220936Y-125193655D01*
X88859569Y-124652831D01*
X88723053Y-124561614D01*
X88509248Y-124347809D01*
X91116538Y-124347809D01*
X91120408Y-124385481D01*
X91346920Y-124813674D01*
X91720053Y-125122590D01*
X92183000Y-125265200D01*
X92583000Y-125265200D01*
X92583000Y-124157200D01*
X92837000Y-124157200D01*
X92837000Y-125265200D01*
X93237000Y-125265200D01*
X93699947Y-125122590D01*
X94073080Y-124813674D01*
X94299592Y-124385481D01*
X94303462Y-124347809D01*
X94178731Y-124157200D01*
X92837000Y-124157200D01*
X92583000Y-124157200D01*
X91241269Y-124157200D01*
X91116538Y-124347809D01*
X88509248Y-124347809D01*
X88191639Y-124030200D01*
X136770805Y-124030200D01*
X136866656Y-124512073D01*
X137139615Y-124920585D01*
X137548127Y-125193544D01*
X137908364Y-125265200D01*
X138951636Y-125265200D01*
X139311873Y-125193544D01*
X139720385Y-124920585D01*
X139993344Y-124512073D01*
X140089195Y-124030200D01*
X140013012Y-123647200D01*
X150886087Y-123647200D01*
X150997460Y-124207109D01*
X151314623Y-124681777D01*
X151789291Y-124998940D01*
X152207867Y-125082200D01*
X152490533Y-125082200D01*
X152909109Y-124998940D01*
X153383777Y-124681777D01*
X153700940Y-124207109D01*
X153812313Y-123647200D01*
X153700940Y-123087291D01*
X153540517Y-122847200D01*
X158521760Y-122847200D01*
X158521760Y-124447200D01*
X158571043Y-124694965D01*
X158711391Y-124905009D01*
X158921435Y-125045357D01*
X159169200Y-125094640D01*
X160769200Y-125094640D01*
X161016965Y-125045357D01*
X161227009Y-124905009D01*
X161367357Y-124694965D01*
X161416640Y-124447200D01*
X161416640Y-122847200D01*
X161406854Y-122798000D01*
X162790560Y-122798000D01*
X162790560Y-124598000D01*
X162839843Y-124845765D01*
X162980191Y-125055809D01*
X163190235Y-125196157D01*
X163438000Y-125245440D01*
X165238000Y-125245440D01*
X165485765Y-125196157D01*
X165695809Y-125055809D01*
X165836157Y-124845765D01*
X165839275Y-124830092D01*
X166008493Y-124999310D01*
X166572670Y-125233000D01*
X167183330Y-125233000D01*
X167747507Y-124999310D01*
X168179310Y-124567507D01*
X168413000Y-124003330D01*
X168413000Y-123901200D01*
X170952087Y-123901200D01*
X171063460Y-124461109D01*
X171380623Y-124935777D01*
X171855291Y-125252940D01*
X172273867Y-125336200D01*
X172556533Y-125336200D01*
X172975109Y-125252940D01*
X173449777Y-124935777D01*
X173766940Y-124461109D01*
X173878313Y-123901200D01*
X173821536Y-123615761D01*
X183680200Y-123615761D01*
X183680200Y-124186639D01*
X183898666Y-124714062D01*
X184302338Y-125117734D01*
X184829761Y-125336200D01*
X185400639Y-125336200D01*
X185928062Y-125117734D01*
X186331734Y-124714062D01*
X186550200Y-124186639D01*
X186550200Y-123615761D01*
X186331734Y-123088338D01*
X185928062Y-122684666D01*
X185400639Y-122466200D01*
X184829761Y-122466200D01*
X184302338Y-122684666D01*
X183898666Y-123088338D01*
X183680200Y-123615761D01*
X173821536Y-123615761D01*
X173766940Y-123341291D01*
X173449777Y-122866623D01*
X172975109Y-122549460D01*
X172556533Y-122466200D01*
X172273867Y-122466200D01*
X171855291Y-122549460D01*
X171380623Y-122866623D01*
X171063460Y-123341291D01*
X170952087Y-123901200D01*
X168413000Y-123901200D01*
X168413000Y-123392670D01*
X168179310Y-122828493D01*
X167747507Y-122396690D01*
X167183330Y-122163000D01*
X166572670Y-122163000D01*
X166008493Y-122396690D01*
X165839275Y-122565908D01*
X165836157Y-122550235D01*
X165695809Y-122340191D01*
X165485765Y-122199843D01*
X165238000Y-122150560D01*
X163438000Y-122150560D01*
X163190235Y-122199843D01*
X162980191Y-122340191D01*
X162839843Y-122550235D01*
X162790560Y-122798000D01*
X161406854Y-122798000D01*
X161367357Y-122599435D01*
X161227009Y-122389391D01*
X161016965Y-122249043D01*
X160861839Y-122218187D01*
X161200241Y-121844623D01*
X161361104Y-121456239D01*
X161239115Y-121234200D01*
X160096200Y-121234200D01*
X160096200Y-121254200D01*
X159842200Y-121254200D01*
X159842200Y-121234200D01*
X158699285Y-121234200D01*
X158577296Y-121456239D01*
X158738159Y-121844623D01*
X159076561Y-122218187D01*
X158921435Y-122249043D01*
X158711391Y-122389391D01*
X158571043Y-122599435D01*
X158521760Y-122847200D01*
X153540517Y-122847200D01*
X153383777Y-122612623D01*
X153000092Y-122356253D01*
X153204334Y-122259589D01*
X153580241Y-121844623D01*
X153741104Y-121456239D01*
X153619115Y-121234200D01*
X152476200Y-121234200D01*
X152476200Y-121254200D01*
X152222200Y-121254200D01*
X152222200Y-121234200D01*
X151079285Y-121234200D01*
X150957296Y-121456239D01*
X151118159Y-121844623D01*
X151494066Y-122259589D01*
X151698308Y-122356253D01*
X151314623Y-122612623D01*
X150997460Y-123087291D01*
X150886087Y-123647200D01*
X140013012Y-123647200D01*
X139993344Y-123548327D01*
X139720385Y-123139815D01*
X139311873Y-122866856D01*
X138951636Y-122795200D01*
X137908364Y-122795200D01*
X137548127Y-122866856D01*
X137139615Y-123139815D01*
X136866656Y-123548327D01*
X136770805Y-124030200D01*
X88191639Y-124030200D01*
X87874030Y-123712591D01*
X91116538Y-123712591D01*
X91241269Y-123903200D01*
X92583000Y-123903200D01*
X92583000Y-122795200D01*
X92837000Y-122795200D01*
X92837000Y-123903200D01*
X94178731Y-123903200D01*
X94303462Y-123712591D01*
X94299592Y-123674919D01*
X94073080Y-123246726D01*
X93699947Y-122937810D01*
X93237000Y-122795200D01*
X92837000Y-122795200D01*
X92583000Y-122795200D01*
X92183000Y-122795200D01*
X91720053Y-122937810D01*
X91346920Y-123246726D01*
X91120408Y-123674919D01*
X91116538Y-123712591D01*
X87874030Y-123712591D01*
X85651639Y-121490200D01*
X91050805Y-121490200D01*
X91146656Y-121972073D01*
X91419615Y-122380585D01*
X91828127Y-122653544D01*
X92188364Y-122725200D01*
X93231636Y-122725200D01*
X93591873Y-122653544D01*
X94000385Y-122380585D01*
X94273344Y-121972073D01*
X94369195Y-121490200D01*
X136770805Y-121490200D01*
X136866656Y-121972073D01*
X137139615Y-122380585D01*
X137548127Y-122653544D01*
X137908364Y-122725200D01*
X138951636Y-122725200D01*
X139311873Y-122653544D01*
X139720385Y-122380585D01*
X139993344Y-121972073D01*
X140089195Y-121490200D01*
X139993344Y-121008327D01*
X139826189Y-120758161D01*
X150957296Y-120758161D01*
X151079285Y-120980200D01*
X152222200Y-120980200D01*
X152222200Y-119836571D01*
X152476200Y-119836571D01*
X152476200Y-120980200D01*
X153619115Y-120980200D01*
X153741104Y-120758161D01*
X158577296Y-120758161D01*
X158699285Y-120980200D01*
X159842200Y-120980200D01*
X159842200Y-119836571D01*
X160096200Y-119836571D01*
X160096200Y-120980200D01*
X161239115Y-120980200D01*
X161361104Y-120758161D01*
X161200241Y-120369777D01*
X160824334Y-119954811D01*
X160318241Y-119715286D01*
X160096200Y-119836571D01*
X159842200Y-119836571D01*
X159620159Y-119715286D01*
X159114066Y-119954811D01*
X158738159Y-120369777D01*
X158577296Y-120758161D01*
X153741104Y-120758161D01*
X153580241Y-120369777D01*
X153204334Y-119954811D01*
X152698241Y-119715286D01*
X152476200Y-119836571D01*
X152222200Y-119836571D01*
X152000159Y-119715286D01*
X151494066Y-119954811D01*
X151118159Y-120369777D01*
X150957296Y-120758161D01*
X139826189Y-120758161D01*
X139720385Y-120599815D01*
X139311873Y-120326856D01*
X138951636Y-120255200D01*
X137908364Y-120255200D01*
X137548127Y-120326856D01*
X137139615Y-120599815D01*
X136866656Y-121008327D01*
X136770805Y-121490200D01*
X94369195Y-121490200D01*
X94273344Y-121008327D01*
X94000385Y-120599815D01*
X93591873Y-120326856D01*
X93231636Y-120255200D01*
X92188364Y-120255200D01*
X91828127Y-120326856D01*
X91419615Y-120599815D01*
X91146656Y-121008327D01*
X91050805Y-121490200D01*
X85651639Y-121490200D01*
X83111639Y-118950200D01*
X91050805Y-118950200D01*
X91146656Y-119432073D01*
X91419615Y-119840585D01*
X91828127Y-120113544D01*
X92188364Y-120185200D01*
X93231636Y-120185200D01*
X93591873Y-120113544D01*
X94000385Y-119840585D01*
X94273344Y-119432073D01*
X94369195Y-118950200D01*
X136770805Y-118950200D01*
X136866656Y-119432073D01*
X137139615Y-119840585D01*
X137548127Y-120113544D01*
X137908364Y-120185200D01*
X138951636Y-120185200D01*
X139311873Y-120113544D01*
X139720385Y-119840585D01*
X139993344Y-119432073D01*
X140059278Y-119100600D01*
X200912728Y-119100600D01*
X201031862Y-119699527D01*
X201371127Y-120207273D01*
X201878873Y-120546538D01*
X202326618Y-120635600D01*
X204428982Y-120635600D01*
X204876727Y-120546538D01*
X205384473Y-120207273D01*
X205723738Y-119699527D01*
X205842872Y-119100600D01*
X205723738Y-118501673D01*
X205384473Y-117993927D01*
X204876727Y-117654662D01*
X204428982Y-117565600D01*
X202326618Y-117565600D01*
X201878873Y-117654662D01*
X201371127Y-117993927D01*
X201031862Y-118501673D01*
X200912728Y-119100600D01*
X140059278Y-119100600D01*
X140089195Y-118950200D01*
X139993344Y-118468327D01*
X139720385Y-118059815D01*
X139311873Y-117786856D01*
X138951636Y-117715200D01*
X137908364Y-117715200D01*
X137548127Y-117786856D01*
X137139615Y-118059815D01*
X136866656Y-118468327D01*
X136770805Y-118950200D01*
X94369195Y-118950200D01*
X94273344Y-118468327D01*
X94000385Y-118059815D01*
X93591873Y-117786856D01*
X93231636Y-117715200D01*
X92188364Y-117715200D01*
X91828127Y-117786856D01*
X91419615Y-118059815D01*
X91146656Y-118468327D01*
X91050805Y-118950200D01*
X83111639Y-118950200D01*
X82254600Y-118093162D01*
X82254600Y-116410200D01*
X91050805Y-116410200D01*
X91146656Y-116892073D01*
X91419615Y-117300585D01*
X91828127Y-117573544D01*
X92188364Y-117645200D01*
X93231636Y-117645200D01*
X93591873Y-117573544D01*
X94000385Y-117300585D01*
X94273344Y-116892073D01*
X94369195Y-116410200D01*
X136770805Y-116410200D01*
X136866656Y-116892073D01*
X137139615Y-117300585D01*
X137548127Y-117573544D01*
X137908364Y-117645200D01*
X138951636Y-117645200D01*
X139311873Y-117573544D01*
X139720385Y-117300585D01*
X139993344Y-116892073D01*
X140003702Y-116840000D01*
X150886087Y-116840000D01*
X150997460Y-117399909D01*
X151314623Y-117874577D01*
X151789291Y-118191740D01*
X152207867Y-118275000D01*
X152490533Y-118275000D01*
X152909109Y-118191740D01*
X153383777Y-117874577D01*
X153700940Y-117399909D01*
X153812313Y-116840000D01*
X153700940Y-116280091D01*
X153540517Y-116040000D01*
X158521760Y-116040000D01*
X158521760Y-117640000D01*
X158571043Y-117887765D01*
X158711391Y-118097809D01*
X158921435Y-118238157D01*
X159169200Y-118287440D01*
X160769200Y-118287440D01*
X161016965Y-118238157D01*
X161227009Y-118097809D01*
X161367357Y-117887765D01*
X161416640Y-117640000D01*
X161416640Y-116040000D01*
X161367357Y-115792235D01*
X161364260Y-115787600D01*
X162790560Y-115787600D01*
X162790560Y-117587600D01*
X162839843Y-117835365D01*
X162980191Y-118045409D01*
X163190235Y-118185757D01*
X163438000Y-118235040D01*
X165238000Y-118235040D01*
X165485765Y-118185757D01*
X165695809Y-118045409D01*
X165836157Y-117835365D01*
X165839275Y-117819692D01*
X166008493Y-117988910D01*
X166572670Y-118222600D01*
X167183330Y-118222600D01*
X167747507Y-117988910D01*
X168179310Y-117557107D01*
X168413000Y-116992930D01*
X168413000Y-116636800D01*
X170952087Y-116636800D01*
X171063460Y-117196709D01*
X171380623Y-117671377D01*
X171855291Y-117988540D01*
X172273867Y-118071800D01*
X172556533Y-118071800D01*
X172975109Y-117988540D01*
X173449777Y-117671377D01*
X173766940Y-117196709D01*
X173878313Y-116636800D01*
X173821536Y-116351361D01*
X183680200Y-116351361D01*
X183680200Y-116922239D01*
X183898666Y-117449662D01*
X184302338Y-117853334D01*
X184829761Y-118071800D01*
X185400639Y-118071800D01*
X185928062Y-117853334D01*
X186331734Y-117449662D01*
X186550200Y-116922239D01*
X186550200Y-116351361D01*
X186331734Y-115823938D01*
X185928062Y-115420266D01*
X185400639Y-115201800D01*
X184829761Y-115201800D01*
X184302338Y-115420266D01*
X183898666Y-115823938D01*
X183680200Y-116351361D01*
X173821536Y-116351361D01*
X173766940Y-116076891D01*
X173449777Y-115602223D01*
X172975109Y-115285060D01*
X172556533Y-115201800D01*
X172273867Y-115201800D01*
X171855291Y-115285060D01*
X171380623Y-115602223D01*
X171063460Y-116076891D01*
X170952087Y-116636800D01*
X168413000Y-116636800D01*
X168413000Y-116382270D01*
X168179310Y-115818093D01*
X167747507Y-115386290D01*
X167183330Y-115152600D01*
X166572670Y-115152600D01*
X166008493Y-115386290D01*
X165839275Y-115555508D01*
X165836157Y-115539835D01*
X165695809Y-115329791D01*
X165485765Y-115189443D01*
X165238000Y-115140160D01*
X163438000Y-115140160D01*
X163190235Y-115189443D01*
X162980191Y-115329791D01*
X162839843Y-115539835D01*
X162790560Y-115787600D01*
X161364260Y-115787600D01*
X161227009Y-115582191D01*
X161016965Y-115441843D01*
X160861839Y-115410987D01*
X161200241Y-115037423D01*
X161361104Y-114649039D01*
X161239115Y-114427000D01*
X160096200Y-114427000D01*
X160096200Y-114447000D01*
X159842200Y-114447000D01*
X159842200Y-114427000D01*
X158699285Y-114427000D01*
X158577296Y-114649039D01*
X158738159Y-115037423D01*
X159076561Y-115410987D01*
X158921435Y-115441843D01*
X158711391Y-115582191D01*
X158571043Y-115792235D01*
X158521760Y-116040000D01*
X153540517Y-116040000D01*
X153383777Y-115805423D01*
X153000092Y-115549053D01*
X153204334Y-115452389D01*
X153580241Y-115037423D01*
X153741104Y-114649039D01*
X153619115Y-114427000D01*
X152476200Y-114427000D01*
X152476200Y-114447000D01*
X152222200Y-114447000D01*
X152222200Y-114427000D01*
X151079285Y-114427000D01*
X150957296Y-114649039D01*
X151118159Y-115037423D01*
X151494066Y-115452389D01*
X151698308Y-115549053D01*
X151314623Y-115805423D01*
X150997460Y-116280091D01*
X150886087Y-116840000D01*
X140003702Y-116840000D01*
X140089195Y-116410200D01*
X139993344Y-115928327D01*
X139720385Y-115519815D01*
X139311873Y-115246856D01*
X138951636Y-115175200D01*
X137908364Y-115175200D01*
X137548127Y-115246856D01*
X137139615Y-115519815D01*
X136866656Y-115928327D01*
X136770805Y-116410200D01*
X94369195Y-116410200D01*
X94273344Y-115928327D01*
X94000385Y-115519815D01*
X93591873Y-115246856D01*
X93231636Y-115175200D01*
X92188364Y-115175200D01*
X91828127Y-115246856D01*
X91419615Y-115519815D01*
X91146656Y-115928327D01*
X91050805Y-116410200D01*
X82254600Y-116410200D01*
X82254600Y-113870200D01*
X91050805Y-113870200D01*
X91146656Y-114352073D01*
X91419615Y-114760585D01*
X91828127Y-115033544D01*
X92188364Y-115105200D01*
X93231636Y-115105200D01*
X93591873Y-115033544D01*
X94000385Y-114760585D01*
X94273344Y-114352073D01*
X94369195Y-113870200D01*
X136770805Y-113870200D01*
X136866656Y-114352073D01*
X137139615Y-114760585D01*
X137548127Y-115033544D01*
X137908364Y-115105200D01*
X138951636Y-115105200D01*
X139311873Y-115033544D01*
X139720385Y-114760585D01*
X139993344Y-114352073D01*
X140073130Y-113950961D01*
X150957296Y-113950961D01*
X151079285Y-114173000D01*
X152222200Y-114173000D01*
X152222200Y-113029371D01*
X152476200Y-113029371D01*
X152476200Y-114173000D01*
X153619115Y-114173000D01*
X153741104Y-113950961D01*
X158577296Y-113950961D01*
X158699285Y-114173000D01*
X159842200Y-114173000D01*
X159842200Y-113029371D01*
X160096200Y-113029371D01*
X160096200Y-114173000D01*
X161239115Y-114173000D01*
X161322844Y-114020600D01*
X200912728Y-114020600D01*
X201031862Y-114619527D01*
X201371127Y-115127273D01*
X201878873Y-115466538D01*
X202326618Y-115555600D01*
X204428982Y-115555600D01*
X204876727Y-115466538D01*
X205384473Y-115127273D01*
X205723738Y-114619527D01*
X205842872Y-114020600D01*
X205723738Y-113421673D01*
X205384473Y-112913927D01*
X204876727Y-112574662D01*
X204428982Y-112485600D01*
X202326618Y-112485600D01*
X201878873Y-112574662D01*
X201371127Y-112913927D01*
X201031862Y-113421673D01*
X200912728Y-114020600D01*
X161322844Y-114020600D01*
X161361104Y-113950961D01*
X161200241Y-113562577D01*
X160824334Y-113147611D01*
X160318241Y-112908086D01*
X160096200Y-113029371D01*
X159842200Y-113029371D01*
X159620159Y-112908086D01*
X159114066Y-113147611D01*
X158738159Y-113562577D01*
X158577296Y-113950961D01*
X153741104Y-113950961D01*
X153580241Y-113562577D01*
X153204334Y-113147611D01*
X152698241Y-112908086D01*
X152476200Y-113029371D01*
X152222200Y-113029371D01*
X152000159Y-112908086D01*
X151494066Y-113147611D01*
X151118159Y-113562577D01*
X150957296Y-113950961D01*
X140073130Y-113950961D01*
X140089195Y-113870200D01*
X139993344Y-113388327D01*
X139720385Y-112979815D01*
X139311873Y-112706856D01*
X138951636Y-112635200D01*
X137908364Y-112635200D01*
X137548127Y-112706856D01*
X137139615Y-112979815D01*
X136866656Y-113388327D01*
X136770805Y-113870200D01*
X94369195Y-113870200D01*
X94273344Y-113388327D01*
X94000385Y-112979815D01*
X93591873Y-112706856D01*
X93231636Y-112635200D01*
X92188364Y-112635200D01*
X91828127Y-112706856D01*
X91419615Y-112979815D01*
X91146656Y-113388327D01*
X91050805Y-113870200D01*
X82254600Y-113870200D01*
X82254600Y-111330200D01*
X91050805Y-111330200D01*
X91146656Y-111812073D01*
X91419615Y-112220585D01*
X91828127Y-112493544D01*
X92188364Y-112565200D01*
X93231636Y-112565200D01*
X93591873Y-112493544D01*
X94000385Y-112220585D01*
X94273344Y-111812073D01*
X94369195Y-111330200D01*
X136770805Y-111330200D01*
X136866656Y-111812073D01*
X137139615Y-112220585D01*
X137548127Y-112493544D01*
X137908364Y-112565200D01*
X138951636Y-112565200D01*
X139311873Y-112493544D01*
X139720385Y-112220585D01*
X139993344Y-111812073D01*
X140089195Y-111330200D01*
X139993344Y-110848327D01*
X139720385Y-110439815D01*
X139311873Y-110166856D01*
X138951636Y-110095200D01*
X137908364Y-110095200D01*
X137548127Y-110166856D01*
X137139615Y-110439815D01*
X136866656Y-110848327D01*
X136770805Y-111330200D01*
X94369195Y-111330200D01*
X94273344Y-110848327D01*
X94000385Y-110439815D01*
X93591873Y-110166856D01*
X93231636Y-110095200D01*
X92188364Y-110095200D01*
X91828127Y-110166856D01*
X91419615Y-110439815D01*
X91146656Y-110848327D01*
X91050805Y-111330200D01*
X82254600Y-111330200D01*
X82254600Y-108790200D01*
X91050805Y-108790200D01*
X91146656Y-109272073D01*
X91419615Y-109680585D01*
X91828127Y-109953544D01*
X92188364Y-110025200D01*
X93231636Y-110025200D01*
X93591873Y-109953544D01*
X94000385Y-109680585D01*
X94273344Y-109272073D01*
X94369195Y-108790200D01*
X136770805Y-108790200D01*
X136866656Y-109272073D01*
X137139615Y-109680585D01*
X137548127Y-109953544D01*
X137908364Y-110025200D01*
X138951636Y-110025200D01*
X139168815Y-109982000D01*
X150886087Y-109982000D01*
X150997460Y-110541909D01*
X151314623Y-111016577D01*
X151789291Y-111333740D01*
X152207867Y-111417000D01*
X152490533Y-111417000D01*
X152909109Y-111333740D01*
X153383777Y-111016577D01*
X153700940Y-110541909D01*
X153812313Y-109982000D01*
X153700940Y-109422091D01*
X153540517Y-109182000D01*
X158521760Y-109182000D01*
X158521760Y-110782000D01*
X158571043Y-111029765D01*
X158711391Y-111239809D01*
X158921435Y-111380157D01*
X159169200Y-111429440D01*
X160769200Y-111429440D01*
X161016965Y-111380157D01*
X161227009Y-111239809D01*
X161367357Y-111029765D01*
X161416640Y-110782000D01*
X161416640Y-109182000D01*
X161376540Y-108980400D01*
X162790560Y-108980400D01*
X162790560Y-110780400D01*
X162839843Y-111028165D01*
X162980191Y-111238209D01*
X163190235Y-111378557D01*
X163438000Y-111427840D01*
X165238000Y-111427840D01*
X165485765Y-111378557D01*
X165695809Y-111238209D01*
X165836157Y-111028165D01*
X165839275Y-111012492D01*
X166008493Y-111181710D01*
X166572670Y-111415400D01*
X167183330Y-111415400D01*
X167747507Y-111181710D01*
X168179310Y-110749907D01*
X168413000Y-110185730D01*
X168413000Y-109829600D01*
X170952087Y-109829600D01*
X171063460Y-110389509D01*
X171380623Y-110864177D01*
X171855291Y-111181340D01*
X172273867Y-111264600D01*
X172556533Y-111264600D01*
X172975109Y-111181340D01*
X173449777Y-110864177D01*
X173766940Y-110389509D01*
X173878313Y-109829600D01*
X173821536Y-109544161D01*
X183680200Y-109544161D01*
X183680200Y-110115039D01*
X183898666Y-110642462D01*
X184302338Y-111046134D01*
X184829761Y-111264600D01*
X185400639Y-111264600D01*
X185928062Y-111046134D01*
X186331734Y-110642462D01*
X186550200Y-110115039D01*
X186550200Y-109544161D01*
X186331734Y-109016738D01*
X186255596Y-108940600D01*
X200912728Y-108940600D01*
X201031862Y-109539527D01*
X201371127Y-110047273D01*
X201878873Y-110386538D01*
X202326618Y-110475600D01*
X204428982Y-110475600D01*
X204876727Y-110386538D01*
X205384473Y-110047273D01*
X205723738Y-109539527D01*
X205842872Y-108940600D01*
X205723738Y-108341673D01*
X205384473Y-107833927D01*
X204876727Y-107494662D01*
X204428982Y-107405600D01*
X202326618Y-107405600D01*
X201878873Y-107494662D01*
X201371127Y-107833927D01*
X201031862Y-108341673D01*
X200912728Y-108940600D01*
X186255596Y-108940600D01*
X185928062Y-108613066D01*
X185400639Y-108394600D01*
X184829761Y-108394600D01*
X184302338Y-108613066D01*
X183898666Y-109016738D01*
X183680200Y-109544161D01*
X173821536Y-109544161D01*
X173766940Y-109269691D01*
X173449777Y-108795023D01*
X172975109Y-108477860D01*
X172556533Y-108394600D01*
X172273867Y-108394600D01*
X171855291Y-108477860D01*
X171380623Y-108795023D01*
X171063460Y-109269691D01*
X170952087Y-109829600D01*
X168413000Y-109829600D01*
X168413000Y-109575070D01*
X168179310Y-109010893D01*
X167747507Y-108579090D01*
X167183330Y-108345400D01*
X166572670Y-108345400D01*
X166008493Y-108579090D01*
X165839275Y-108748308D01*
X165836157Y-108732635D01*
X165695809Y-108522591D01*
X165485765Y-108382243D01*
X165238000Y-108332960D01*
X163438000Y-108332960D01*
X163190235Y-108382243D01*
X162980191Y-108522591D01*
X162839843Y-108732635D01*
X162790560Y-108980400D01*
X161376540Y-108980400D01*
X161367357Y-108934235D01*
X161227009Y-108724191D01*
X161016965Y-108583843D01*
X160861839Y-108552987D01*
X161200241Y-108179423D01*
X161361104Y-107791039D01*
X161239115Y-107569000D01*
X160096200Y-107569000D01*
X160096200Y-107589000D01*
X159842200Y-107589000D01*
X159842200Y-107569000D01*
X158699285Y-107569000D01*
X158577296Y-107791039D01*
X158738159Y-108179423D01*
X159076561Y-108552987D01*
X158921435Y-108583843D01*
X158711391Y-108724191D01*
X158571043Y-108934235D01*
X158521760Y-109182000D01*
X153540517Y-109182000D01*
X153383777Y-108947423D01*
X153000092Y-108691053D01*
X153204334Y-108594389D01*
X153580241Y-108179423D01*
X153741104Y-107791039D01*
X153619115Y-107569000D01*
X152476200Y-107569000D01*
X152476200Y-107589000D01*
X152222200Y-107589000D01*
X152222200Y-107569000D01*
X151079285Y-107569000D01*
X150957296Y-107791039D01*
X151118159Y-108179423D01*
X151494066Y-108594389D01*
X151698308Y-108691053D01*
X151314623Y-108947423D01*
X150997460Y-109422091D01*
X150886087Y-109982000D01*
X139168815Y-109982000D01*
X139311873Y-109953544D01*
X139720385Y-109680585D01*
X139993344Y-109272073D01*
X140089195Y-108790200D01*
X139993344Y-108308327D01*
X139720385Y-107899815D01*
X139311873Y-107626856D01*
X138951636Y-107555200D01*
X137908364Y-107555200D01*
X137548127Y-107626856D01*
X137139615Y-107899815D01*
X136866656Y-108308327D01*
X136770805Y-108790200D01*
X94369195Y-108790200D01*
X94273344Y-108308327D01*
X94000385Y-107899815D01*
X93591873Y-107626856D01*
X93231636Y-107555200D01*
X92188364Y-107555200D01*
X91828127Y-107626856D01*
X91419615Y-107899815D01*
X91146656Y-108308327D01*
X91050805Y-108790200D01*
X82254600Y-108790200D01*
X82254600Y-106250200D01*
X91050805Y-106250200D01*
X91146656Y-106732073D01*
X91419615Y-107140585D01*
X91828127Y-107413544D01*
X92188364Y-107485200D01*
X93231636Y-107485200D01*
X93591873Y-107413544D01*
X94000385Y-107140585D01*
X94273344Y-106732073D01*
X94369195Y-106250200D01*
X136770805Y-106250200D01*
X136866656Y-106732073D01*
X137139615Y-107140585D01*
X137548127Y-107413544D01*
X137908364Y-107485200D01*
X138951636Y-107485200D01*
X139311873Y-107413544D01*
X139720385Y-107140585D01*
X139752206Y-107092961D01*
X150957296Y-107092961D01*
X151079285Y-107315000D01*
X152222200Y-107315000D01*
X152222200Y-106171371D01*
X152476200Y-106171371D01*
X152476200Y-107315000D01*
X153619115Y-107315000D01*
X153741104Y-107092961D01*
X158577296Y-107092961D01*
X158699285Y-107315000D01*
X159842200Y-107315000D01*
X159842200Y-106171371D01*
X160096200Y-106171371D01*
X160096200Y-107315000D01*
X161239115Y-107315000D01*
X161361104Y-107092961D01*
X161200241Y-106704577D01*
X160824334Y-106289611D01*
X160318241Y-106050086D01*
X160096200Y-106171371D01*
X159842200Y-106171371D01*
X159620159Y-106050086D01*
X159114066Y-106289611D01*
X158738159Y-106704577D01*
X158577296Y-107092961D01*
X153741104Y-107092961D01*
X153580241Y-106704577D01*
X153204334Y-106289611D01*
X152698241Y-106050086D01*
X152476200Y-106171371D01*
X152222200Y-106171371D01*
X152000159Y-106050086D01*
X151494066Y-106289611D01*
X151118159Y-106704577D01*
X150957296Y-107092961D01*
X139752206Y-107092961D01*
X139993344Y-106732073D01*
X140089195Y-106250200D01*
X139993344Y-105768327D01*
X139720385Y-105359815D01*
X139311873Y-105086856D01*
X138951636Y-105015200D01*
X137908364Y-105015200D01*
X137548127Y-105086856D01*
X137139615Y-105359815D01*
X136866656Y-105768327D01*
X136770805Y-106250200D01*
X94369195Y-106250200D01*
X94273344Y-105768327D01*
X94000385Y-105359815D01*
X93591873Y-105086856D01*
X93231636Y-105015200D01*
X92188364Y-105015200D01*
X91828127Y-105086856D01*
X91419615Y-105359815D01*
X91146656Y-105768327D01*
X91050805Y-106250200D01*
X82254600Y-106250200D01*
X82254600Y-104944169D01*
X82159736Y-104467255D01*
X81798369Y-103926431D01*
X81530513Y-103747455D01*
X81564517Y-103710200D01*
X91050805Y-103710200D01*
X91146656Y-104192073D01*
X91419615Y-104600585D01*
X91828127Y-104873544D01*
X92188364Y-104945200D01*
X93231636Y-104945200D01*
X93591873Y-104873544D01*
X94000385Y-104600585D01*
X94273344Y-104192073D01*
X94369195Y-103710200D01*
X136770805Y-103710200D01*
X136866656Y-104192073D01*
X137139615Y-104600585D01*
X137548127Y-104873544D01*
X137908364Y-104945200D01*
X138951636Y-104945200D01*
X139311873Y-104873544D01*
X139720385Y-104600585D01*
X139993344Y-104192073D01*
X140059278Y-103860600D01*
X200912728Y-103860600D01*
X201031862Y-104459527D01*
X201371127Y-104967273D01*
X201878873Y-105306538D01*
X202326618Y-105395600D01*
X204428982Y-105395600D01*
X204876727Y-105306538D01*
X205384473Y-104967273D01*
X205723738Y-104459527D01*
X205842872Y-103860600D01*
X205723738Y-103261673D01*
X205384473Y-102753927D01*
X204876727Y-102414662D01*
X204428982Y-102325600D01*
X202326618Y-102325600D01*
X201878873Y-102414662D01*
X201371127Y-102753927D01*
X201031862Y-103261673D01*
X200912728Y-103860600D01*
X140059278Y-103860600D01*
X140089195Y-103710200D01*
X139993344Y-103228327D01*
X139720385Y-102819815D01*
X139311873Y-102546856D01*
X138951636Y-102475200D01*
X137908364Y-102475200D01*
X137548127Y-102546856D01*
X137139615Y-102819815D01*
X136866656Y-103228327D01*
X136770805Y-103710200D01*
X94369195Y-103710200D01*
X94273344Y-103228327D01*
X94000385Y-102819815D01*
X93591873Y-102546856D01*
X93231636Y-102475200D01*
X92188364Y-102475200D01*
X91828127Y-102546856D01*
X91419615Y-102819815D01*
X91146656Y-103228327D01*
X91050805Y-103710200D01*
X81564517Y-103710200D01*
X81902288Y-103340147D01*
X82074558Y-102924226D01*
X81953417Y-102692200D01*
X80746600Y-102692200D01*
X80746600Y-102712200D01*
X80492600Y-102712200D01*
X80492600Y-102692200D01*
X80472600Y-102692200D01*
X80472600Y-102438200D01*
X80492600Y-102438200D01*
X80492600Y-100152200D01*
X80746600Y-100152200D01*
X80746600Y-102438200D01*
X81953417Y-102438200D01*
X82074558Y-102206174D01*
X81902288Y-101790253D01*
X81508090Y-101358379D01*
X81373287Y-101295200D01*
X81508090Y-101232021D01*
X81564517Y-101170200D01*
X91050805Y-101170200D01*
X91146656Y-101652073D01*
X91419615Y-102060585D01*
X91828127Y-102333544D01*
X92188364Y-102405200D01*
X93231636Y-102405200D01*
X93591873Y-102333544D01*
X94000385Y-102060585D01*
X94273344Y-101652073D01*
X94369195Y-101170200D01*
X136770805Y-101170200D01*
X136866656Y-101652073D01*
X137139615Y-102060585D01*
X137548127Y-102333544D01*
X137908364Y-102405200D01*
X138951636Y-102405200D01*
X139311873Y-102333544D01*
X139720385Y-102060585D01*
X139993344Y-101652073D01*
X140089195Y-101170200D01*
X139993344Y-100688327D01*
X139720385Y-100279815D01*
X139311873Y-100006856D01*
X138951636Y-99935200D01*
X137908364Y-99935200D01*
X137548127Y-100006856D01*
X137139615Y-100279815D01*
X136866656Y-100688327D01*
X136770805Y-101170200D01*
X94369195Y-101170200D01*
X94273344Y-100688327D01*
X94000385Y-100279815D01*
X93591873Y-100006856D01*
X93231636Y-99935200D01*
X92188364Y-99935200D01*
X91828127Y-100006856D01*
X91419615Y-100279815D01*
X91146656Y-100688327D01*
X91050805Y-101170200D01*
X81564517Y-101170200D01*
X81902288Y-100800147D01*
X82074558Y-100384226D01*
X81953417Y-100152200D01*
X80746600Y-100152200D01*
X80492600Y-100152200D01*
X80472600Y-100152200D01*
X80472600Y-99898200D01*
X80492600Y-99898200D01*
X80492600Y-97612200D01*
X80746600Y-97612200D01*
X80746600Y-99898200D01*
X81953417Y-99898200D01*
X82074558Y-99666174D01*
X81902288Y-99250253D01*
X81508090Y-98818379D01*
X81373287Y-98755200D01*
X81508090Y-98692021D01*
X81564517Y-98630200D01*
X91050805Y-98630200D01*
X91146656Y-99112073D01*
X91419615Y-99520585D01*
X91828127Y-99793544D01*
X92188364Y-99865200D01*
X93231636Y-99865200D01*
X93591873Y-99793544D01*
X94000385Y-99520585D01*
X94273344Y-99112073D01*
X94369195Y-98630200D01*
X136770805Y-98630200D01*
X136866656Y-99112073D01*
X137139615Y-99520585D01*
X137548127Y-99793544D01*
X137908364Y-99865200D01*
X138951636Y-99865200D01*
X139311873Y-99793544D01*
X139720385Y-99520585D01*
X139837206Y-99345750D01*
X162331400Y-99345750D01*
X162331400Y-100049909D01*
X162428073Y-100283298D01*
X162606701Y-100461927D01*
X162840090Y-100558600D01*
X163544250Y-100558600D01*
X163703000Y-100399850D01*
X163703000Y-99187000D01*
X163957000Y-99187000D01*
X163957000Y-100399850D01*
X164115750Y-100558600D01*
X164819910Y-100558600D01*
X165053299Y-100461927D01*
X165231927Y-100283298D01*
X165313700Y-100085880D01*
X165595053Y-100342688D01*
X166010974Y-100514958D01*
X166243000Y-100393817D01*
X166243000Y-99187000D01*
X166497000Y-99187000D01*
X166497000Y-100393817D01*
X166729026Y-100514958D01*
X167144947Y-100342688D01*
X167576821Y-99948490D01*
X167640000Y-99813687D01*
X167703179Y-99948490D01*
X168135053Y-100342688D01*
X168550974Y-100514958D01*
X168783000Y-100393817D01*
X168783000Y-99187000D01*
X169037000Y-99187000D01*
X169037000Y-100393817D01*
X169269026Y-100514958D01*
X169684947Y-100342688D01*
X170116821Y-99948490D01*
X170180000Y-99813687D01*
X170243179Y-99948490D01*
X170675053Y-100342688D01*
X171090974Y-100514958D01*
X171323000Y-100393817D01*
X171323000Y-99187000D01*
X171577000Y-99187000D01*
X171577000Y-100393817D01*
X171809026Y-100514958D01*
X172224947Y-100342688D01*
X172656821Y-99948490D01*
X172720000Y-99813687D01*
X172783179Y-99948490D01*
X173215053Y-100342688D01*
X173630974Y-100514958D01*
X173863000Y-100393817D01*
X173863000Y-99187000D01*
X174117000Y-99187000D01*
X174117000Y-100393817D01*
X174349026Y-100514958D01*
X174764947Y-100342688D01*
X175196821Y-99948490D01*
X175444968Y-99419027D01*
X175324469Y-99187000D01*
X174117000Y-99187000D01*
X173863000Y-99187000D01*
X171577000Y-99187000D01*
X171323000Y-99187000D01*
X169037000Y-99187000D01*
X168783000Y-99187000D01*
X166497000Y-99187000D01*
X166243000Y-99187000D01*
X163957000Y-99187000D01*
X163703000Y-99187000D01*
X162490150Y-99187000D01*
X162331400Y-99345750D01*
X139837206Y-99345750D01*
X139971115Y-99145340D01*
X200986764Y-99145340D01*
X201011044Y-99250686D01*
X201302588Y-99776206D01*
X201773048Y-100150154D01*
X202350800Y-100315600D01*
X203250800Y-100315600D01*
X203250800Y-98907600D01*
X203504800Y-98907600D01*
X203504800Y-100315600D01*
X204404800Y-100315600D01*
X204982552Y-100150154D01*
X205453012Y-99776206D01*
X205744556Y-99250686D01*
X205768836Y-99145340D01*
X205648178Y-98907600D01*
X203504800Y-98907600D01*
X203250800Y-98907600D01*
X201107422Y-98907600D01*
X200986764Y-99145340D01*
X139971115Y-99145340D01*
X139993344Y-99112073D01*
X140089195Y-98630200D01*
X139993344Y-98148327D01*
X139720385Y-97739815D01*
X139311873Y-97466856D01*
X138951636Y-97395200D01*
X137908364Y-97395200D01*
X137548127Y-97466856D01*
X137139615Y-97739815D01*
X136866656Y-98148327D01*
X136770805Y-98630200D01*
X94369195Y-98630200D01*
X94273344Y-98148327D01*
X94000385Y-97739815D01*
X93591873Y-97466856D01*
X93231636Y-97395200D01*
X92188364Y-97395200D01*
X91828127Y-97466856D01*
X91419615Y-97739815D01*
X91146656Y-98148327D01*
X91050805Y-98630200D01*
X81564517Y-98630200D01*
X81902288Y-98260147D01*
X82074558Y-97844226D01*
X81953417Y-97612200D01*
X80746600Y-97612200D01*
X80492600Y-97612200D01*
X80472600Y-97612200D01*
X80472600Y-97358200D01*
X80492600Y-97358200D01*
X80492600Y-95072200D01*
X80746600Y-95072200D01*
X80746600Y-97358200D01*
X81953417Y-97358200D01*
X82074558Y-97126174D01*
X81902288Y-96710253D01*
X81508090Y-96278379D01*
X81373287Y-96215200D01*
X81508090Y-96152021D01*
X81564517Y-96090200D01*
X91050805Y-96090200D01*
X91146656Y-96572073D01*
X91419615Y-96980585D01*
X91828127Y-97253544D01*
X92188364Y-97325200D01*
X93231636Y-97325200D01*
X93591873Y-97253544D01*
X94000385Y-96980585D01*
X94273344Y-96572073D01*
X94369195Y-96090200D01*
X136770805Y-96090200D01*
X136866656Y-96572073D01*
X137139615Y-96980585D01*
X137548127Y-97253544D01*
X137908364Y-97325200D01*
X138951636Y-97325200D01*
X139311873Y-97253544D01*
X139720385Y-96980585D01*
X139993344Y-96572073D01*
X140003702Y-96520000D01*
X162302041Y-96520000D01*
X162418350Y-97104725D01*
X162748766Y-97599227D01*
X162606701Y-97658073D01*
X162428073Y-97836702D01*
X162331400Y-98070091D01*
X162331400Y-98774250D01*
X162490150Y-98933000D01*
X163703000Y-98933000D01*
X163703000Y-98913000D01*
X163957000Y-98913000D01*
X163957000Y-98933000D01*
X166243000Y-98933000D01*
X166243000Y-98913000D01*
X166497000Y-98913000D01*
X166497000Y-98933000D01*
X168783000Y-98933000D01*
X168783000Y-98913000D01*
X169037000Y-98913000D01*
X169037000Y-98933000D01*
X171323000Y-98933000D01*
X171323000Y-98913000D01*
X171577000Y-98913000D01*
X171577000Y-98933000D01*
X173863000Y-98933000D01*
X173863000Y-98913000D01*
X174117000Y-98913000D01*
X174117000Y-98933000D01*
X175324469Y-98933000D01*
X175444968Y-98700973D01*
X175311343Y-98415860D01*
X200986764Y-98415860D01*
X201107422Y-98653600D01*
X203250800Y-98653600D01*
X203250800Y-97245600D01*
X203504800Y-97245600D01*
X203504800Y-98653600D01*
X205648178Y-98653600D01*
X205768836Y-98415860D01*
X205744556Y-98310514D01*
X205453012Y-97784994D01*
X204982552Y-97411046D01*
X204404800Y-97245600D01*
X203504800Y-97245600D01*
X203250800Y-97245600D01*
X202350800Y-97245600D01*
X201773048Y-97411046D01*
X201302588Y-97784994D01*
X201011044Y-98310514D01*
X200986764Y-98415860D01*
X175311343Y-98415860D01*
X175196821Y-98171510D01*
X174782174Y-97793037D01*
X175070430Y-97600430D01*
X175401650Y-97104725D01*
X175517959Y-96520000D01*
X175401650Y-95935275D01*
X175070430Y-95439570D01*
X174574725Y-95108350D01*
X174137598Y-95021400D01*
X173842402Y-95021400D01*
X173405275Y-95108350D01*
X172909570Y-95439570D01*
X172720000Y-95723281D01*
X172530430Y-95439570D01*
X172034725Y-95108350D01*
X171597598Y-95021400D01*
X171302402Y-95021400D01*
X170865275Y-95108350D01*
X170369570Y-95439570D01*
X170180000Y-95723281D01*
X169990430Y-95439570D01*
X169494725Y-95108350D01*
X169057598Y-95021400D01*
X168762402Y-95021400D01*
X168325275Y-95108350D01*
X167829570Y-95439570D01*
X167640000Y-95723281D01*
X167450430Y-95439570D01*
X166954725Y-95108350D01*
X166517598Y-95021400D01*
X166222402Y-95021400D01*
X165785275Y-95108350D01*
X165289570Y-95439570D01*
X165100000Y-95723281D01*
X164910430Y-95439570D01*
X164414725Y-95108350D01*
X163977598Y-95021400D01*
X163682402Y-95021400D01*
X163245275Y-95108350D01*
X162749570Y-95439570D01*
X162418350Y-95935275D01*
X162302041Y-96520000D01*
X140003702Y-96520000D01*
X140089195Y-96090200D01*
X139993344Y-95608327D01*
X139720385Y-95199815D01*
X139311873Y-94926856D01*
X138951636Y-94855200D01*
X137908364Y-94855200D01*
X137548127Y-94926856D01*
X137139615Y-95199815D01*
X136866656Y-95608327D01*
X136770805Y-96090200D01*
X94369195Y-96090200D01*
X94273344Y-95608327D01*
X94000385Y-95199815D01*
X93591873Y-94926856D01*
X93231636Y-94855200D01*
X92188364Y-94855200D01*
X91828127Y-94926856D01*
X91419615Y-95199815D01*
X91146656Y-95608327D01*
X91050805Y-96090200D01*
X81564517Y-96090200D01*
X81902288Y-95720147D01*
X82074558Y-95304226D01*
X81953417Y-95072200D01*
X80746600Y-95072200D01*
X80492600Y-95072200D01*
X80472600Y-95072200D01*
X80472600Y-94818200D01*
X80492600Y-94818200D01*
X80492600Y-94798200D01*
X80746600Y-94798200D01*
X80746600Y-94818200D01*
X81953417Y-94818200D01*
X82074558Y-94586174D01*
X81902288Y-94170253D01*
X81508090Y-93738379D01*
X81398579Y-93687054D01*
X81603394Y-93550200D01*
X91050805Y-93550200D01*
X91146656Y-94032073D01*
X91419615Y-94440585D01*
X91828127Y-94713544D01*
X92188364Y-94785200D01*
X93231636Y-94785200D01*
X93591873Y-94713544D01*
X94000385Y-94440585D01*
X94273344Y-94032073D01*
X94369195Y-93550200D01*
X136770805Y-93550200D01*
X136866656Y-94032073D01*
X137139615Y-94440585D01*
X137548127Y-94713544D01*
X137908364Y-94785200D01*
X138951636Y-94785200D01*
X139311873Y-94713544D01*
X139720385Y-94440585D01*
X139993344Y-94032073D01*
X140089195Y-93550200D01*
X139993344Y-93068327D01*
X139981500Y-93050600D01*
X200930360Y-93050600D01*
X200930360Y-94350600D01*
X200998674Y-94694035D01*
X201193214Y-94985186D01*
X201484365Y-95179726D01*
X201827800Y-95248040D01*
X204927800Y-95248040D01*
X205271235Y-95179726D01*
X205562386Y-94985186D01*
X205756926Y-94694035D01*
X205825240Y-94350600D01*
X205825240Y-93050600D01*
X205756926Y-92707165D01*
X205562386Y-92416014D01*
X205271235Y-92221474D01*
X204927800Y-92153160D01*
X201827800Y-92153160D01*
X201484365Y-92221474D01*
X201193214Y-92416014D01*
X200998674Y-92707165D01*
X200930360Y-93050600D01*
X139981500Y-93050600D01*
X139720385Y-92659815D01*
X139311873Y-92386856D01*
X138951636Y-92315200D01*
X137908364Y-92315200D01*
X137548127Y-92386856D01*
X137139615Y-92659815D01*
X136866656Y-93068327D01*
X136770805Y-93550200D01*
X94369195Y-93550200D01*
X94273344Y-93068327D01*
X94000385Y-92659815D01*
X93591873Y-92386856D01*
X93231636Y-92315200D01*
X92188364Y-92315200D01*
X91828127Y-92386856D01*
X91419615Y-92659815D01*
X91146656Y-93068327D01*
X91050805Y-93550200D01*
X81603394Y-93550200D01*
X81700030Y-93485630D01*
X82031250Y-92989925D01*
X82147559Y-92405200D01*
X82031250Y-91820475D01*
X81700030Y-91324770D01*
X81416319Y-91135200D01*
X81603394Y-91010200D01*
X91050805Y-91010200D01*
X91146656Y-91492073D01*
X91419615Y-91900585D01*
X91828127Y-92173544D01*
X92188364Y-92245200D01*
X93231636Y-92245200D01*
X93591873Y-92173544D01*
X94000385Y-91900585D01*
X94273344Y-91492073D01*
X94369195Y-91010200D01*
X136770805Y-91010200D01*
X136866656Y-91492073D01*
X137139615Y-91900585D01*
X137548127Y-92173544D01*
X137908364Y-92245200D01*
X138951636Y-92245200D01*
X139311873Y-92173544D01*
X139720385Y-91900585D01*
X139993344Y-91492073D01*
X140089195Y-91010200D01*
X139993344Y-90528327D01*
X139720385Y-90119815D01*
X139311873Y-89846856D01*
X138951636Y-89775200D01*
X137908364Y-89775200D01*
X137548127Y-89846856D01*
X137139615Y-90119815D01*
X136866656Y-90528327D01*
X136770805Y-91010200D01*
X94369195Y-91010200D01*
X94273344Y-90528327D01*
X94000385Y-90119815D01*
X93591873Y-89846856D01*
X93231636Y-89775200D01*
X92188364Y-89775200D01*
X91828127Y-89846856D01*
X91419615Y-90119815D01*
X91146656Y-90528327D01*
X91050805Y-91010200D01*
X81603394Y-91010200D01*
X81700030Y-90945630D01*
X82031250Y-90449925D01*
X82147559Y-89865200D01*
X82031250Y-89280475D01*
X81700030Y-88784770D01*
X81416319Y-88595200D01*
X81603394Y-88470200D01*
X91050805Y-88470200D01*
X91146656Y-88952073D01*
X91419615Y-89360585D01*
X91828127Y-89633544D01*
X92188364Y-89705200D01*
X93231636Y-89705200D01*
X93591873Y-89633544D01*
X94000385Y-89360585D01*
X94273344Y-88952073D01*
X94369195Y-88470200D01*
X136770805Y-88470200D01*
X136866656Y-88952073D01*
X137139615Y-89360585D01*
X137548127Y-89633544D01*
X137908364Y-89705200D01*
X138951636Y-89705200D01*
X139311873Y-89633544D01*
X139720385Y-89360585D01*
X139993344Y-88952073D01*
X140089195Y-88470200D01*
X139993344Y-87988327D01*
X139720385Y-87579815D01*
X139311873Y-87306856D01*
X138951636Y-87235200D01*
X137908364Y-87235200D01*
X137548127Y-87306856D01*
X137139615Y-87579815D01*
X136866656Y-87988327D01*
X136770805Y-88470200D01*
X94369195Y-88470200D01*
X94273344Y-87988327D01*
X94000385Y-87579815D01*
X93591873Y-87306856D01*
X93231636Y-87235200D01*
X92188364Y-87235200D01*
X91828127Y-87306856D01*
X91419615Y-87579815D01*
X91146656Y-87988327D01*
X91050805Y-88470200D01*
X81603394Y-88470200D01*
X81700030Y-88405630D01*
X82031250Y-87909925D01*
X82147559Y-87325200D01*
X82031250Y-86740475D01*
X81700030Y-86244770D01*
X81416319Y-86055200D01*
X81603394Y-85930200D01*
X91050805Y-85930200D01*
X91146656Y-86412073D01*
X91419615Y-86820585D01*
X91828127Y-87093544D01*
X92188364Y-87165200D01*
X93231636Y-87165200D01*
X93591873Y-87093544D01*
X94000385Y-86820585D01*
X94273344Y-86412073D01*
X94369195Y-85930200D01*
X136770805Y-85930200D01*
X136866656Y-86412073D01*
X137139615Y-86820585D01*
X137548127Y-87093544D01*
X137908364Y-87165200D01*
X138951636Y-87165200D01*
X139311873Y-87093544D01*
X139720385Y-86820585D01*
X139971115Y-86445340D01*
X200834364Y-86445340D01*
X200858644Y-86550686D01*
X201150188Y-87076206D01*
X201620648Y-87450154D01*
X202198400Y-87615600D01*
X203098400Y-87615600D01*
X203098400Y-86207600D01*
X203352400Y-86207600D01*
X203352400Y-87615600D01*
X204252400Y-87615600D01*
X204830152Y-87450154D01*
X205300612Y-87076206D01*
X205592156Y-86550686D01*
X205616436Y-86445340D01*
X205495778Y-86207600D01*
X203352400Y-86207600D01*
X203098400Y-86207600D01*
X200955022Y-86207600D01*
X200834364Y-86445340D01*
X139971115Y-86445340D01*
X139993344Y-86412073D01*
X140089195Y-85930200D01*
X140046560Y-85715860D01*
X200834364Y-85715860D01*
X200955022Y-85953600D01*
X203098400Y-85953600D01*
X203098400Y-84545600D01*
X203352400Y-84545600D01*
X203352400Y-85953600D01*
X205495778Y-85953600D01*
X205616436Y-85715860D01*
X205592156Y-85610514D01*
X205300612Y-85084994D01*
X204830152Y-84711046D01*
X204252400Y-84545600D01*
X203352400Y-84545600D01*
X203098400Y-84545600D01*
X202198400Y-84545600D01*
X201620648Y-84711046D01*
X201150188Y-85084994D01*
X200858644Y-85610514D01*
X200834364Y-85715860D01*
X140046560Y-85715860D01*
X139993344Y-85448327D01*
X139720385Y-85039815D01*
X139311873Y-84766856D01*
X138951636Y-84695200D01*
X137908364Y-84695200D01*
X137548127Y-84766856D01*
X137139615Y-85039815D01*
X136866656Y-85448327D01*
X136770805Y-85930200D01*
X94369195Y-85930200D01*
X94273344Y-85448327D01*
X94000385Y-85039815D01*
X93591873Y-84766856D01*
X93231636Y-84695200D01*
X92188364Y-84695200D01*
X91828127Y-84766856D01*
X91419615Y-85039815D01*
X91146656Y-85448327D01*
X91050805Y-85930200D01*
X81603394Y-85930200D01*
X81700030Y-85865630D01*
X82031250Y-85369925D01*
X82147559Y-84785200D01*
X82031250Y-84200475D01*
X81700030Y-83704770D01*
X81229244Y-83390200D01*
X91050805Y-83390200D01*
X91146656Y-83872073D01*
X91419615Y-84280585D01*
X91828127Y-84553544D01*
X92188364Y-84625200D01*
X93231636Y-84625200D01*
X93591873Y-84553544D01*
X94000385Y-84280585D01*
X94273344Y-83872073D01*
X94369195Y-83390200D01*
X136770805Y-83390200D01*
X136866656Y-83872073D01*
X137139615Y-84280585D01*
X137548127Y-84553544D01*
X137908364Y-84625200D01*
X138951636Y-84625200D01*
X139311873Y-84553544D01*
X139720385Y-84280585D01*
X139993344Y-83872073D01*
X140089195Y-83390200D01*
X139993344Y-82908327D01*
X139720385Y-82499815D01*
X139311873Y-82226856D01*
X138951636Y-82155200D01*
X137908364Y-82155200D01*
X137548127Y-82226856D01*
X137139615Y-82499815D01*
X136866656Y-82908327D01*
X136770805Y-83390200D01*
X94369195Y-83390200D01*
X94273344Y-82908327D01*
X94000385Y-82499815D01*
X93591873Y-82226856D01*
X93231636Y-82155200D01*
X92188364Y-82155200D01*
X91828127Y-82226856D01*
X91419615Y-82499815D01*
X91146656Y-82908327D01*
X91050805Y-83390200D01*
X81229244Y-83390200D01*
X81204325Y-83373550D01*
X80767198Y-83286600D01*
X80472002Y-83286600D01*
X80034875Y-83373550D01*
X79546532Y-83699851D01*
X79541357Y-83673835D01*
X79401009Y-83463791D01*
X79190965Y-83323443D01*
X78943200Y-83274160D01*
X77216000Y-83274160D01*
X76968235Y-83323443D01*
X76758191Y-83463791D01*
X76617843Y-83673835D01*
X76568560Y-83921600D01*
X76568560Y-85648800D01*
X76617843Y-85896565D01*
X76758191Y-86106609D01*
X76968235Y-86246957D01*
X76994251Y-86252132D01*
X76667950Y-86740475D01*
X76551641Y-87325200D01*
X71830000Y-87325200D01*
X71830000Y-80850200D01*
X91050805Y-80850200D01*
X91146656Y-81332073D01*
X91419615Y-81740585D01*
X91828127Y-82013544D01*
X92188364Y-82085200D01*
X93231636Y-82085200D01*
X93591873Y-82013544D01*
X94000385Y-81740585D01*
X94273344Y-81332073D01*
X94369195Y-80850200D01*
X136770805Y-80850200D01*
X136866656Y-81332073D01*
X137139615Y-81740585D01*
X137548127Y-82013544D01*
X137908364Y-82085200D01*
X138951636Y-82085200D01*
X138999928Y-82075594D01*
X150075000Y-82075594D01*
X150075000Y-83024406D01*
X150438095Y-83900994D01*
X151109006Y-84571905D01*
X151985594Y-84935000D01*
X152934406Y-84935000D01*
X153810994Y-84571905D01*
X154481905Y-83900994D01*
X154845000Y-83024406D01*
X154845000Y-82075594D01*
X182075000Y-82075594D01*
X182075000Y-83024406D01*
X182438095Y-83900994D01*
X183109006Y-84571905D01*
X183985594Y-84935000D01*
X184934406Y-84935000D01*
X185810994Y-84571905D01*
X186481905Y-83900994D01*
X186845000Y-83024406D01*
X186845000Y-82075594D01*
X186481905Y-81199006D01*
X185810994Y-80528095D01*
X185382484Y-80350600D01*
X200777960Y-80350600D01*
X200777960Y-81650600D01*
X200846274Y-81994035D01*
X201040814Y-82285186D01*
X201331965Y-82479726D01*
X201675400Y-82548040D01*
X204775400Y-82548040D01*
X205118835Y-82479726D01*
X205409986Y-82285186D01*
X205604526Y-81994035D01*
X205672840Y-81650600D01*
X205672840Y-80350600D01*
X205604526Y-80007165D01*
X205409986Y-79716014D01*
X205118835Y-79521474D01*
X204775400Y-79453160D01*
X201675400Y-79453160D01*
X201331965Y-79521474D01*
X201040814Y-79716014D01*
X200846274Y-80007165D01*
X200777960Y-80350600D01*
X185382484Y-80350600D01*
X184934406Y-80165000D01*
X183985594Y-80165000D01*
X183109006Y-80528095D01*
X182438095Y-81199006D01*
X182075000Y-82075594D01*
X154845000Y-82075594D01*
X154481905Y-81199006D01*
X153810994Y-80528095D01*
X152934406Y-80165000D01*
X151985594Y-80165000D01*
X151109006Y-80528095D01*
X150438095Y-81199006D01*
X150075000Y-82075594D01*
X138999928Y-82075594D01*
X139311873Y-82013544D01*
X139720385Y-81740585D01*
X139993344Y-81332073D01*
X140089195Y-80850200D01*
X139993344Y-80368327D01*
X139720385Y-79959815D01*
X139311873Y-79686856D01*
X138951636Y-79615200D01*
X137908364Y-79615200D01*
X137548127Y-79686856D01*
X137139615Y-79959815D01*
X136866656Y-80368327D01*
X136770805Y-80850200D01*
X94369195Y-80850200D01*
X94273344Y-80368327D01*
X94000385Y-79959815D01*
X93591873Y-79686856D01*
X93231636Y-79615200D01*
X92188364Y-79615200D01*
X91828127Y-79686856D01*
X91419615Y-79959815D01*
X91146656Y-80368327D01*
X91050805Y-80850200D01*
X71830000Y-80850200D01*
X71830000Y-78310200D01*
X91050805Y-78310200D01*
X91146656Y-78792073D01*
X91419615Y-79200585D01*
X91828127Y-79473544D01*
X92188364Y-79545200D01*
X93231636Y-79545200D01*
X93591873Y-79473544D01*
X94000385Y-79200585D01*
X94273344Y-78792073D01*
X94369195Y-78310200D01*
X136770805Y-78310200D01*
X136866656Y-78792073D01*
X137139615Y-79200585D01*
X137548127Y-79473544D01*
X137908364Y-79545200D01*
X138951636Y-79545200D01*
X139311873Y-79473544D01*
X139720385Y-79200585D01*
X139993344Y-78792073D01*
X140089195Y-78310200D01*
X139993344Y-77828327D01*
X139720385Y-77419815D01*
X139311873Y-77146856D01*
X138951636Y-77075200D01*
X137908364Y-77075200D01*
X137548127Y-77146856D01*
X137139615Y-77419815D01*
X136866656Y-77828327D01*
X136770805Y-78310200D01*
X94369195Y-78310200D01*
X94273344Y-77828327D01*
X94000385Y-77419815D01*
X93591873Y-77146856D01*
X93231636Y-77075200D01*
X92188364Y-77075200D01*
X91828127Y-77146856D01*
X91419615Y-77419815D01*
X91146656Y-77828327D01*
X91050805Y-78310200D01*
X71830000Y-78310200D01*
X71830000Y-75770200D01*
X91050805Y-75770200D01*
X91146656Y-76252073D01*
X91419615Y-76660585D01*
X91828127Y-76933544D01*
X92188364Y-77005200D01*
X93231636Y-77005200D01*
X93591873Y-76933544D01*
X94000385Y-76660585D01*
X94273344Y-76252073D01*
X94369195Y-75770200D01*
X136770805Y-75770200D01*
X136866656Y-76252073D01*
X137139615Y-76660585D01*
X137548127Y-76933544D01*
X137908364Y-77005200D01*
X138951636Y-77005200D01*
X139311873Y-76933544D01*
X139720385Y-76660585D01*
X139993344Y-76252073D01*
X140089195Y-75770200D01*
X139993344Y-75288327D01*
X139720385Y-74879815D01*
X139311873Y-74606856D01*
X138951636Y-74535200D01*
X137908364Y-74535200D01*
X137548127Y-74606856D01*
X137139615Y-74879815D01*
X136866656Y-75288327D01*
X136770805Y-75770200D01*
X94369195Y-75770200D01*
X94273344Y-75288327D01*
X94000385Y-74879815D01*
X93591873Y-74606856D01*
X93231636Y-74535200D01*
X92188364Y-74535200D01*
X91828127Y-74606856D01*
X91419615Y-74879815D01*
X91146656Y-75288327D01*
X91050805Y-75770200D01*
X71830000Y-75770200D01*
X71830000Y-70565594D01*
X76355000Y-70565594D01*
X76355000Y-71514406D01*
X76718095Y-72390994D01*
X77389006Y-73061905D01*
X78265594Y-73425000D01*
X79214406Y-73425000D01*
X79684694Y-73230200D01*
X91050805Y-73230200D01*
X91146656Y-73712073D01*
X91419615Y-74120585D01*
X91828127Y-74393544D01*
X92188364Y-74465200D01*
X93231636Y-74465200D01*
X93591873Y-74393544D01*
X94000385Y-74120585D01*
X94273344Y-73712073D01*
X94369195Y-73230200D01*
X136770805Y-73230200D01*
X136866656Y-73712073D01*
X137139615Y-74120585D01*
X137548127Y-74393544D01*
X137908364Y-74465200D01*
X138951636Y-74465200D01*
X139311873Y-74393544D01*
X139720385Y-74120585D01*
X139993344Y-73712073D01*
X140089195Y-73230200D01*
X139993344Y-72748327D01*
X139720385Y-72339815D01*
X139311873Y-72066856D01*
X138951636Y-71995200D01*
X137908364Y-71995200D01*
X137548127Y-72066856D01*
X137139615Y-72339815D01*
X136866656Y-72748327D01*
X136770805Y-73230200D01*
X94369195Y-73230200D01*
X94273344Y-72748327D01*
X94000385Y-72339815D01*
X93591873Y-72066856D01*
X93231636Y-71995200D01*
X92188364Y-71995200D01*
X91828127Y-72066856D01*
X91419615Y-72339815D01*
X91146656Y-72748327D01*
X91050805Y-73230200D01*
X79684694Y-73230200D01*
X80090994Y-73061905D01*
X80761905Y-72390994D01*
X81125000Y-71514406D01*
X81125000Y-70690200D01*
X91050805Y-70690200D01*
X91146656Y-71172073D01*
X91419615Y-71580585D01*
X91828127Y-71853544D01*
X92188364Y-71925200D01*
X93231636Y-71925200D01*
X93591873Y-71853544D01*
X94000385Y-71580585D01*
X94273344Y-71172073D01*
X94369195Y-70690200D01*
X136770805Y-70690200D01*
X136866656Y-71172073D01*
X137139615Y-71580585D01*
X137548127Y-71853544D01*
X137908364Y-71925200D01*
X138951636Y-71925200D01*
X139311873Y-71853544D01*
X139720385Y-71580585D01*
X139993344Y-71172073D01*
X140089195Y-70690200D01*
X140064410Y-70565594D01*
X202085000Y-70565594D01*
X202085000Y-71514406D01*
X202448095Y-72390994D01*
X203119006Y-73061905D01*
X203995594Y-73425000D01*
X204944406Y-73425000D01*
X205820994Y-73061905D01*
X206491905Y-72390994D01*
X206855000Y-71514406D01*
X206855000Y-70565594D01*
X206491905Y-69689006D01*
X205820994Y-69018095D01*
X204944406Y-68655000D01*
X203995594Y-68655000D01*
X203119006Y-69018095D01*
X202448095Y-69689006D01*
X202085000Y-70565594D01*
X140064410Y-70565594D01*
X139993344Y-70208327D01*
X139720385Y-69799815D01*
X139311873Y-69526856D01*
X138951636Y-69455200D01*
X137908364Y-69455200D01*
X137548127Y-69526856D01*
X137139615Y-69799815D01*
X136866656Y-70208327D01*
X136770805Y-70690200D01*
X94369195Y-70690200D01*
X94273344Y-70208327D01*
X94000385Y-69799815D01*
X93591873Y-69526856D01*
X93231636Y-69455200D01*
X92188364Y-69455200D01*
X91828127Y-69526856D01*
X91419615Y-69799815D01*
X91146656Y-70208327D01*
X91050805Y-70690200D01*
X81125000Y-70690200D01*
X81125000Y-70565594D01*
X80761905Y-69689006D01*
X80090994Y-69018095D01*
X79214406Y-68655000D01*
X78265594Y-68655000D01*
X77389006Y-69018095D01*
X76718095Y-69689006D01*
X76355000Y-70565594D01*
X71830000Y-70565594D01*
X71830000Y-68150200D01*
X91050805Y-68150200D01*
X91146656Y-68632073D01*
X91419615Y-69040585D01*
X91828127Y-69313544D01*
X92188364Y-69385200D01*
X93231636Y-69385200D01*
X93591873Y-69313544D01*
X94000385Y-69040585D01*
X94273344Y-68632073D01*
X94369195Y-68150200D01*
X136770805Y-68150200D01*
X136866656Y-68632073D01*
X137139615Y-69040585D01*
X137548127Y-69313544D01*
X137908364Y-69385200D01*
X138951636Y-69385200D01*
X139311873Y-69313544D01*
X139720385Y-69040585D01*
X139993344Y-68632073D01*
X140089195Y-68150200D01*
X139993344Y-67668327D01*
X139720385Y-67259815D01*
X139311873Y-66986856D01*
X138951636Y-66915200D01*
X137908364Y-66915200D01*
X137548127Y-66986856D01*
X137139615Y-67259815D01*
X136866656Y-67668327D01*
X136770805Y-68150200D01*
X94369195Y-68150200D01*
X94273344Y-67668327D01*
X94000385Y-67259815D01*
X93591873Y-66986856D01*
X93231636Y-66915200D01*
X92188364Y-66915200D01*
X91828127Y-66986856D01*
X91419615Y-67259815D01*
X91146656Y-67668327D01*
X91050805Y-68150200D01*
X71830000Y-68150200D01*
X71830000Y-65927809D01*
X91116538Y-65927809D01*
X91120408Y-65965481D01*
X91346920Y-66393674D01*
X91720053Y-66702590D01*
X92183000Y-66845200D01*
X92583000Y-66845200D01*
X92583000Y-65737200D01*
X92837000Y-65737200D01*
X92837000Y-66845200D01*
X93237000Y-66845200D01*
X93699947Y-66702590D01*
X94073080Y-66393674D01*
X94299592Y-65965481D01*
X94303462Y-65927809D01*
X136836538Y-65927809D01*
X136840408Y-65965481D01*
X137066920Y-66393674D01*
X137440053Y-66702590D01*
X137903000Y-66845200D01*
X138303000Y-66845200D01*
X138303000Y-65737200D01*
X138557000Y-65737200D01*
X138557000Y-66845200D01*
X138957000Y-66845200D01*
X139419947Y-66702590D01*
X139793080Y-66393674D01*
X140019592Y-65965481D01*
X140023462Y-65927809D01*
X139898731Y-65737200D01*
X138557000Y-65737200D01*
X138303000Y-65737200D01*
X136961269Y-65737200D01*
X136836538Y-65927809D01*
X94303462Y-65927809D01*
X94178731Y-65737200D01*
X92837000Y-65737200D01*
X92583000Y-65737200D01*
X91241269Y-65737200D01*
X91116538Y-65927809D01*
X71830000Y-65927809D01*
X71830000Y-65292591D01*
X91116538Y-65292591D01*
X91241269Y-65483200D01*
X92583000Y-65483200D01*
X92583000Y-64375200D01*
X92837000Y-64375200D01*
X92837000Y-65483200D01*
X94178731Y-65483200D01*
X94303462Y-65292591D01*
X136836538Y-65292591D01*
X136961269Y-65483200D01*
X138303000Y-65483200D01*
X138303000Y-64375200D01*
X138557000Y-64375200D01*
X138557000Y-65483200D01*
X139898731Y-65483200D01*
X140023462Y-65292591D01*
X140019592Y-65254919D01*
X139793080Y-64826726D01*
X139419947Y-64517810D01*
X138957000Y-64375200D01*
X138557000Y-64375200D01*
X138303000Y-64375200D01*
X137903000Y-64375200D01*
X137440053Y-64517810D01*
X137066920Y-64826726D01*
X136840408Y-65254919D01*
X136836538Y-65292591D01*
X94303462Y-65292591D01*
X94299592Y-65254919D01*
X94073080Y-64826726D01*
X93699947Y-64517810D01*
X93237000Y-64375200D01*
X92837000Y-64375200D01*
X92583000Y-64375200D01*
X92183000Y-64375200D01*
X91720053Y-64517810D01*
X91346920Y-64826726D01*
X91120408Y-65254919D01*
X91116538Y-65292591D01*
X71830000Y-65292591D01*
X71830000Y-60400000D01*
X210110000Y-60400000D01*
X210110001Y-138990000D01*
G04 #@! TD*
M02*
