G04 #@! TF.GenerationSoftware,KiCad,Pcbnew,(5.0.2)-1*
G04 #@! TF.CreationDate,2020-02-10T23:08:40+01:00*
G04 #@! TF.ProjectId,ToolChanger,546f6f6c-4368-4616-9e67-65722e6b6963,rev?*
G04 #@! TF.SameCoordinates,Original*
G04 #@! TF.FileFunction,Copper,L1,Top*
G04 #@! TF.FilePolarity,Positive*
%FSLAX46Y46*%
G04 Gerber Fmt 4.6, Leading zero omitted, Abs format (unit mm)*
G04 Created by KiCad (PCBNEW (5.0.2)-1) date 2020-02-10 23:08:40*
%MOMM*%
%LPD*%
G01*
G04 APERTURE LIST*
G04 #@! TA.AperFunction,Conductor*
%ADD10C,0.100000*%
G04 #@! TD*
G04 #@! TA.AperFunction,ComponentPad*
%ADD11C,1.800000*%
G04 #@! TD*
G04 #@! TA.AperFunction,ComponentPad*
%ADD12O,3.600000X1.800000*%
G04 #@! TD*
G04 #@! TA.AperFunction,ComponentPad*
%ADD13O,1.600000X1.600000*%
G04 #@! TD*
G04 #@! TA.AperFunction,ComponentPad*
%ADD14C,1.600000*%
G04 #@! TD*
G04 #@! TA.AperFunction,ComponentPad*
%ADD15R,1.727200X1.727200*%
G04 #@! TD*
G04 #@! TA.AperFunction,ComponentPad*
%ADD16O,1.727200X1.727200*%
G04 #@! TD*
G04 #@! TA.AperFunction,ComponentPad*
%ADD17R,1.800000X1.800000*%
G04 #@! TD*
G04 #@! TA.AperFunction,ComponentPad*
%ADD18R,1.600000X1.600000*%
G04 #@! TD*
G04 #@! TA.AperFunction,ComponentPad*
%ADD19O,2.000000X1.200000*%
G04 #@! TD*
G04 #@! TA.AperFunction,Conductor*
%ADD20C,0.500000*%
G04 #@! TD*
G04 #@! TA.AperFunction,Conductor*
%ADD21C,0.250000*%
G04 #@! TD*
G04 #@! TA.AperFunction,Conductor*
%ADD22C,2.000000*%
G04 #@! TD*
G04 APERTURE END LIST*
D10*
G04 #@! TO.N,+24V*
G04 #@! TO.C,J4*
G36*
X204799904Y-80101804D02*
X204824173Y-80105404D01*
X204847971Y-80111365D01*
X204871071Y-80119630D01*
X204893249Y-80130120D01*
X204914293Y-80142733D01*
X204933998Y-80157347D01*
X204952177Y-80173823D01*
X204968653Y-80192002D01*
X204983267Y-80211707D01*
X204995880Y-80232751D01*
X205006370Y-80254929D01*
X205014635Y-80278029D01*
X205020596Y-80301827D01*
X205024196Y-80326096D01*
X205025400Y-80350600D01*
X205025400Y-81650600D01*
X205024196Y-81675104D01*
X205020596Y-81699373D01*
X205014635Y-81723171D01*
X205006370Y-81746271D01*
X204995880Y-81768449D01*
X204983267Y-81789493D01*
X204968653Y-81809198D01*
X204952177Y-81827377D01*
X204933998Y-81843853D01*
X204914293Y-81858467D01*
X204893249Y-81871080D01*
X204871071Y-81881570D01*
X204847971Y-81889835D01*
X204824173Y-81895796D01*
X204799904Y-81899396D01*
X204775400Y-81900600D01*
X201675400Y-81900600D01*
X201650896Y-81899396D01*
X201626627Y-81895796D01*
X201602829Y-81889835D01*
X201579729Y-81881570D01*
X201557551Y-81871080D01*
X201536507Y-81858467D01*
X201516802Y-81843853D01*
X201498623Y-81827377D01*
X201482147Y-81809198D01*
X201467533Y-81789493D01*
X201454920Y-81768449D01*
X201444430Y-81746271D01*
X201436165Y-81723171D01*
X201430204Y-81699373D01*
X201426604Y-81675104D01*
X201425400Y-81650600D01*
X201425400Y-80350600D01*
X201426604Y-80326096D01*
X201430204Y-80301827D01*
X201436165Y-80278029D01*
X201444430Y-80254929D01*
X201454920Y-80232751D01*
X201467533Y-80211707D01*
X201482147Y-80192002D01*
X201498623Y-80173823D01*
X201516802Y-80157347D01*
X201536507Y-80142733D01*
X201557551Y-80130120D01*
X201579729Y-80119630D01*
X201602829Y-80111365D01*
X201626627Y-80105404D01*
X201650896Y-80101804D01*
X201675400Y-80100600D01*
X204775400Y-80100600D01*
X204799904Y-80101804D01*
X204799904Y-80101804D01*
G37*
D11*
G04 #@! TD*
G04 #@! TO.P,J4,1*
G04 #@! TO.N,+24V*
X203225400Y-81000600D03*
D12*
G04 #@! TO.P,J4,2*
G04 #@! TO.N,GND*
X203225400Y-86080600D03*
G04 #@! TD*
D10*
G04 #@! TO.N,+24V*
G04 #@! TO.C,J3*
G36*
X204952304Y-92801804D02*
X204976573Y-92805404D01*
X205000371Y-92811365D01*
X205023471Y-92819630D01*
X205045649Y-92830120D01*
X205066693Y-92842733D01*
X205086398Y-92857347D01*
X205104577Y-92873823D01*
X205121053Y-92892002D01*
X205135667Y-92911707D01*
X205148280Y-92932751D01*
X205158770Y-92954929D01*
X205167035Y-92978029D01*
X205172996Y-93001827D01*
X205176596Y-93026096D01*
X205177800Y-93050600D01*
X205177800Y-94350600D01*
X205176596Y-94375104D01*
X205172996Y-94399373D01*
X205167035Y-94423171D01*
X205158770Y-94446271D01*
X205148280Y-94468449D01*
X205135667Y-94489493D01*
X205121053Y-94509198D01*
X205104577Y-94527377D01*
X205086398Y-94543853D01*
X205066693Y-94558467D01*
X205045649Y-94571080D01*
X205023471Y-94581570D01*
X205000371Y-94589835D01*
X204976573Y-94595796D01*
X204952304Y-94599396D01*
X204927800Y-94600600D01*
X201827800Y-94600600D01*
X201803296Y-94599396D01*
X201779027Y-94595796D01*
X201755229Y-94589835D01*
X201732129Y-94581570D01*
X201709951Y-94571080D01*
X201688907Y-94558467D01*
X201669202Y-94543853D01*
X201651023Y-94527377D01*
X201634547Y-94509198D01*
X201619933Y-94489493D01*
X201607320Y-94468449D01*
X201596830Y-94446271D01*
X201588565Y-94423171D01*
X201582604Y-94399373D01*
X201579004Y-94375104D01*
X201577800Y-94350600D01*
X201577800Y-93050600D01*
X201579004Y-93026096D01*
X201582604Y-93001827D01*
X201588565Y-92978029D01*
X201596830Y-92954929D01*
X201607320Y-92932751D01*
X201619933Y-92911707D01*
X201634547Y-92892002D01*
X201651023Y-92873823D01*
X201669202Y-92857347D01*
X201688907Y-92842733D01*
X201709951Y-92830120D01*
X201732129Y-92819630D01*
X201755229Y-92811365D01*
X201779027Y-92805404D01*
X201803296Y-92801804D01*
X201827800Y-92800600D01*
X204927800Y-92800600D01*
X204952304Y-92801804D01*
X204952304Y-92801804D01*
G37*
D11*
G04 #@! TD*
G04 #@! TO.P,J3,1*
G04 #@! TO.N,+24V*
X203377800Y-93700600D03*
D12*
G04 #@! TO.P,J3,2*
G04 #@! TO.N,GND*
X203377800Y-98780600D03*
G04 #@! TO.P,J3,3*
G04 #@! TO.N,Net-(J3-Pad3)*
X203377800Y-103860600D03*
G04 #@! TO.P,J3,4*
G04 #@! TO.N,Net-(J3-Pad4)*
X203377800Y-108940600D03*
G04 #@! TO.P,J3,5*
G04 #@! TO.N,Net-(J3-Pad5)*
X203377800Y-114020600D03*
G04 #@! TO.P,J3,6*
G04 #@! TO.N,Net-(J3-Pad6)*
X203377800Y-119100600D03*
G04 #@! TD*
D13*
G04 #@! TO.P,R4,2*
G04 #@! TO.N,Net-(D4-Pad2)*
X172415200Y-130962400D03*
D14*
G04 #@! TO.P,R4,1*
G04 #@! TO.N,Net-(J3-Pad6)*
X185115200Y-130962400D03*
G04 #@! TD*
G04 #@! TO.P,R3,1*
G04 #@! TO.N,Net-(J3-Pad5)*
X185115200Y-123901200D03*
D13*
G04 #@! TO.P,R3,2*
G04 #@! TO.N,Net-(D3-Pad2)*
X172415200Y-123901200D03*
G04 #@! TD*
G04 #@! TO.P,R2,2*
G04 #@! TO.N,Net-(D2-Pad2)*
X172415200Y-116636800D03*
D14*
G04 #@! TO.P,R2,1*
G04 #@! TO.N,Net-(J3-Pad4)*
X185115200Y-116636800D03*
G04 #@! TD*
G04 #@! TO.P,R1,1*
G04 #@! TO.N,Net-(J3-Pad3)*
X185115200Y-109829600D03*
D13*
G04 #@! TO.P,R1,2*
G04 #@! TO.N,Net-(D1-Pad2)*
X172415200Y-109829600D03*
G04 #@! TD*
D15*
G04 #@! TO.P,J2,1*
G04 #@! TO.N,GND*
X163830000Y-99060000D03*
D16*
G04 #@! TO.P,J2,2*
G04 #@! TO.N,DIR*
X163830000Y-96520000D03*
G04 #@! TO.P,J2,3*
G04 #@! TO.N,GND*
X166370000Y-99060000D03*
G04 #@! TO.P,J2,4*
G04 #@! TO.N,Net-(J2-Pad4)*
X166370000Y-96520000D03*
G04 #@! TO.P,J2,5*
G04 #@! TO.N,GND*
X168910000Y-99060000D03*
G04 #@! TO.P,J2,6*
G04 #@! TO.N,PWM*
X168910000Y-96520000D03*
G04 #@! TO.P,J2,7*
G04 #@! TO.N,GND*
X171450000Y-99060000D03*
G04 #@! TO.P,J2,8*
G04 #@! TO.N,Net-(J2-Pad8)*
X171450000Y-96520000D03*
G04 #@! TO.P,J2,9*
G04 #@! TO.N,GND*
X173990000Y-99060000D03*
G04 #@! TO.P,J2,10*
G04 #@! TO.N,CURRENT_SENSE*
X173990000Y-96520000D03*
G04 #@! TD*
D11*
G04 #@! TO.P,D4,2*
G04 #@! TO.N,Net-(D4-Pad2)*
X166878000Y-130911600D03*
D17*
G04 #@! TO.P,D4,1*
G04 #@! TO.N,Net-(D4-Pad1)*
X164338000Y-130911600D03*
G04 #@! TD*
G04 #@! TO.P,D3,1*
G04 #@! TO.N,Net-(D3-Pad1)*
X164338000Y-123698000D03*
D11*
G04 #@! TO.P,D3,2*
G04 #@! TO.N,Net-(D3-Pad2)*
X166878000Y-123698000D03*
G04 #@! TD*
G04 #@! TO.P,D2,2*
G04 #@! TO.N,Net-(D2-Pad2)*
X166878000Y-116687600D03*
D17*
G04 #@! TO.P,D2,1*
G04 #@! TO.N,Net-(D2-Pad1)*
X164338000Y-116687600D03*
G04 #@! TD*
G04 #@! TO.P,D1,1*
G04 #@! TO.N,Net-(D1-Pad1)*
X164338000Y-109880400D03*
D11*
G04 #@! TO.P,D1,2*
G04 #@! TO.N,Net-(D1-Pad2)*
X166878000Y-109880400D03*
G04 #@! TD*
D13*
G04 #@! TO.P,U5,4*
G04 #@! TO.N,Net-(U1-Pad39)*
X152349200Y-130962400D03*
G04 #@! TO.P,U5,2*
G04 #@! TO.N,GND*
X159969200Y-128422400D03*
G04 #@! TO.P,U5,3*
X152349200Y-128422400D03*
D18*
G04 #@! TO.P,U5,1*
G04 #@! TO.N,Net-(D4-Pad1)*
X159969200Y-130962400D03*
G04 #@! TD*
G04 #@! TO.P,U4,1*
G04 #@! TO.N,Net-(D3-Pad1)*
X159969200Y-123647200D03*
D13*
G04 #@! TO.P,U4,3*
G04 #@! TO.N,GND*
X152349200Y-121107200D03*
G04 #@! TO.P,U4,2*
X159969200Y-121107200D03*
G04 #@! TO.P,U4,4*
G04 #@! TO.N,Net-(U1-Pad40)*
X152349200Y-123647200D03*
G04 #@! TD*
G04 #@! TO.P,U3,4*
G04 #@! TO.N,Net-(U1-Pad41)*
X152349200Y-116840000D03*
G04 #@! TO.P,U3,2*
G04 #@! TO.N,GND*
X159969200Y-114300000D03*
G04 #@! TO.P,U3,3*
X152349200Y-114300000D03*
D18*
G04 #@! TO.P,U3,1*
G04 #@! TO.N,Net-(D2-Pad1)*
X159969200Y-116840000D03*
G04 #@! TD*
G04 #@! TO.P,U2,1*
G04 #@! TO.N,Net-(D1-Pad1)*
X159969200Y-109982000D03*
D13*
G04 #@! TO.P,U2,3*
G04 #@! TO.N,GND*
X152349200Y-107442000D03*
G04 #@! TO.P,U2,2*
X159969200Y-107442000D03*
G04 #@! TO.P,U2,4*
G04 #@! TO.N,Net-(U1-Pad42)*
X152349200Y-109982000D03*
G04 #@! TD*
D15*
G04 #@! TO.P,J1,1*
G04 #@! TO.N,Net-(J1-Pad1)*
X78079600Y-84785200D03*
D16*
G04 #@! TO.P,J1,2*
G04 #@! TO.N,Net-(J1-Pad2)*
X80619600Y-84785200D03*
G04 #@! TO.P,J1,3*
G04 #@! TO.N,Net-(J1-Pad3)*
X78079600Y-87325200D03*
G04 #@! TO.P,J1,4*
G04 #@! TO.N,Net-(J1-Pad4)*
X80619600Y-87325200D03*
G04 #@! TO.P,J1,5*
G04 #@! TO.N,Net-(J1-Pad5)*
X78079600Y-89865200D03*
G04 #@! TO.P,J1,6*
G04 #@! TO.N,Net-(J1-Pad6)*
X80619600Y-89865200D03*
G04 #@! TO.P,J1,7*
G04 #@! TO.N,Net-(J1-Pad7)*
X78079600Y-92405200D03*
G04 #@! TO.P,J1,8*
G04 #@! TO.N,Net-(J1-Pad8)*
X80619600Y-92405200D03*
G04 #@! TO.P,J1,9*
G04 #@! TO.N,Net-(J1-Pad9)*
X78079600Y-94945200D03*
G04 #@! TO.P,J1,10*
G04 #@! TO.N,GND*
X80619600Y-94945200D03*
G04 #@! TO.P,J1,11*
G04 #@! TO.N,Net-(J1-Pad11)*
X78079600Y-97485200D03*
G04 #@! TO.P,J1,12*
G04 #@! TO.N,GND*
X80619600Y-97485200D03*
G04 #@! TO.P,J1,13*
G04 #@! TO.N,Net-(J1-Pad13)*
X78079600Y-100025200D03*
G04 #@! TO.P,J1,14*
G04 #@! TO.N,GND*
X80619600Y-100025200D03*
G04 #@! TO.P,J1,15*
G04 #@! TO.N,Net-(J1-Pad15)*
X78079600Y-102565200D03*
G04 #@! TO.P,J1,16*
G04 #@! TO.N,GND*
X80619600Y-102565200D03*
G04 #@! TO.P,J1,17*
G04 #@! TO.N,Net-(J1-Pad17)*
X78079600Y-105105200D03*
G04 #@! TO.P,J1,18*
G04 #@! TO.N,+5V*
X80619600Y-105105200D03*
G04 #@! TO.P,J1,19*
G04 #@! TO.N,Net-(J1-Pad19)*
X78079600Y-107645200D03*
G04 #@! TO.P,J1,20*
G04 #@! TO.N,+5V*
X80619600Y-107645200D03*
G04 #@! TO.P,J1,21*
G04 #@! TO.N,Net-(J1-Pad21)*
X78079600Y-110185200D03*
G04 #@! TO.P,J1,22*
G04 #@! TO.N,+5V*
X80619600Y-110185200D03*
G04 #@! TO.P,J1,23*
G04 #@! TO.N,Net-(J1-Pad23)*
X78079600Y-112725200D03*
G04 #@! TO.P,J1,24*
G04 #@! TO.N,+5V*
X80619600Y-112725200D03*
G04 #@! TO.P,J1,25*
G04 #@! TO.N,Net-(J1-Pad25)*
X78079600Y-115265200D03*
G04 #@! TO.P,J1,26*
G04 #@! TO.N,+5V*
X80619600Y-115265200D03*
G04 #@! TD*
D19*
G04 #@! TO.P,U1,56*
G04 #@! TO.N,GND*
X138430000Y-65610200D03*
G04 #@! TO.P,U1,1*
X92710000Y-65610200D03*
G04 #@! TO.P,U1,55*
G04 #@! TO.N,Net-(U1-Pad55)*
X138430000Y-68150200D03*
G04 #@! TO.P,U1,2*
G04 #@! TO.N,Net-(J1-Pad1)*
X92710000Y-68150200D03*
G04 #@! TO.P,U1,54*
G04 #@! TO.N,Net-(U1-Pad54)*
X138430000Y-70690200D03*
G04 #@! TO.P,U1,3*
G04 #@! TO.N,Net-(J1-Pad2)*
X92710000Y-70690200D03*
G04 #@! TO.P,U1,53*
G04 #@! TO.N,Net-(U1-Pad53)*
X138430000Y-73230200D03*
G04 #@! TO.P,U1,4*
G04 #@! TO.N,Net-(J1-Pad3)*
X92710000Y-73230200D03*
G04 #@! TO.P,U1,52*
G04 #@! TO.N,Net-(U1-Pad52)*
X138430000Y-75770200D03*
G04 #@! TO.P,U1,5*
G04 #@! TO.N,Net-(J1-Pad4)*
X92710000Y-75770200D03*
G04 #@! TO.P,U1,51*
G04 #@! TO.N,Net-(U1-Pad51)*
X138430000Y-78310200D03*
G04 #@! TO.P,U1,6*
G04 #@! TO.N,Net-(J1-Pad5)*
X92710000Y-78310200D03*
G04 #@! TO.P,U1,50*
G04 #@! TO.N,Net-(U1-Pad50)*
X138430000Y-80850200D03*
G04 #@! TO.P,U1,7*
G04 #@! TO.N,Net-(J1-Pad6)*
X92710000Y-80850200D03*
G04 #@! TO.P,U1,49*
G04 #@! TO.N,Net-(U1-Pad49)*
X138430000Y-83390200D03*
G04 #@! TO.P,U1,8*
G04 #@! TO.N,Net-(J1-Pad7)*
X92710000Y-83390200D03*
G04 #@! TO.P,U1,48*
G04 #@! TO.N,Net-(U1-Pad48)*
X138430000Y-85930200D03*
G04 #@! TO.P,U1,9*
G04 #@! TO.N,Net-(J1-Pad8)*
X92710000Y-85930200D03*
G04 #@! TO.P,U1,47*
G04 #@! TO.N,Net-(U1-Pad47)*
X138430000Y-88470200D03*
G04 #@! TO.P,U1,10*
G04 #@! TO.N,Net-(J1-Pad9)*
X92710000Y-88470200D03*
G04 #@! TO.P,U1,46*
G04 #@! TO.N,CURRENT_SENSE*
X138430000Y-91010200D03*
G04 #@! TO.P,U1,11*
G04 #@! TO.N,Net-(J1-Pad11)*
X92710000Y-91010200D03*
G04 #@! TO.P,U1,45*
G04 #@! TO.N,PWM*
X138430000Y-93550200D03*
G04 #@! TO.P,U1,12*
G04 #@! TO.N,Net-(J1-Pad13)*
X92710000Y-93550200D03*
G04 #@! TO.P,U1,44*
G04 #@! TO.N,DIR*
X138430000Y-96090200D03*
G04 #@! TO.P,U1,13*
G04 #@! TO.N,Net-(J1-Pad15)*
X92710000Y-96090200D03*
G04 #@! TO.P,U1,43*
G04 #@! TO.N,Net-(U1-Pad43)*
X138430000Y-98630200D03*
G04 #@! TO.P,U1,14*
G04 #@! TO.N,Net-(J1-Pad17)*
X92710000Y-98630200D03*
G04 #@! TO.P,U1,42*
G04 #@! TO.N,Net-(U1-Pad42)*
X138430000Y-101170200D03*
G04 #@! TO.P,U1,15*
G04 #@! TO.N,Net-(J1-Pad19)*
X92710000Y-101170200D03*
G04 #@! TO.P,U1,41*
G04 #@! TO.N,Net-(U1-Pad41)*
X138430000Y-103710200D03*
G04 #@! TO.P,U1,16*
G04 #@! TO.N,Net-(J1-Pad21)*
X92710000Y-103710200D03*
G04 #@! TO.P,U1,40*
G04 #@! TO.N,Net-(U1-Pad40)*
X138430000Y-106250200D03*
G04 #@! TO.P,U1,17*
G04 #@! TO.N,Net-(J1-Pad23)*
X92710000Y-106250200D03*
G04 #@! TO.P,U1,39*
G04 #@! TO.N,Net-(U1-Pad39)*
X138430000Y-108790200D03*
G04 #@! TO.P,U1,18*
G04 #@! TO.N,Net-(J1-Pad25)*
X92710000Y-108790200D03*
G04 #@! TO.P,U1,38*
G04 #@! TO.N,Net-(U1-Pad38)*
X138430000Y-111330200D03*
G04 #@! TO.P,U1,19*
G04 #@! TO.N,Net-(U1-Pad19)*
X92710000Y-111330200D03*
G04 #@! TO.P,U1,37*
G04 #@! TO.N,Net-(U1-Pad37)*
X138430000Y-113870200D03*
G04 #@! TO.P,U1,20*
G04 #@! TO.N,Net-(U1-Pad20)*
X92710000Y-113870200D03*
G04 #@! TO.P,U1,36*
G04 #@! TO.N,Net-(U1-Pad36)*
X138430000Y-116410200D03*
G04 #@! TO.P,U1,21*
G04 #@! TO.N,Net-(U1-Pad21)*
X92710000Y-116410200D03*
G04 #@! TO.P,U1,35*
G04 #@! TO.N,Net-(U1-Pad35)*
X138430000Y-118950200D03*
G04 #@! TO.P,U1,22*
G04 #@! TO.N,Net-(U1-Pad22)*
X92710000Y-118950200D03*
G04 #@! TO.P,U1,34*
G04 #@! TO.N,Net-(U1-Pad34)*
X138430000Y-121490200D03*
G04 #@! TO.P,U1,23*
G04 #@! TO.N,Net-(U1-Pad23)*
X92710000Y-121490200D03*
G04 #@! TO.P,U1,33*
G04 #@! TO.N,Net-(U1-Pad33)*
X138430000Y-124030200D03*
G04 #@! TO.P,U1,24*
G04 #@! TO.N,GND*
X92710000Y-124030200D03*
G04 #@! TO.P,U1,32*
G04 #@! TO.N,Net-(U1-Pad32)*
X138430000Y-126570200D03*
G04 #@! TO.P,U1,25*
G04 #@! TO.N,Net-(U1-Pad25)*
X92710000Y-126570200D03*
G04 #@! TO.P,U1,31*
G04 #@! TO.N,Net-(U1-Pad31)*
X138430000Y-129110200D03*
G04 #@! TO.P,U1,26*
G04 #@! TO.N,Net-(U1-Pad26)*
X92710000Y-129110200D03*
G04 #@! TO.P,U1,30*
G04 #@! TO.N,GND*
X138430000Y-131650200D03*
G04 #@! TO.P,U1,27*
X92710000Y-131650200D03*
G04 #@! TO.P,U1,29*
G04 #@! TO.N,Net-(U1-Pad29)*
X138430000Y-134190200D03*
G04 #@! TO.P,U1,28*
G04 #@! TO.N,+5V*
X92710000Y-134190200D03*
G04 #@! TD*
D20*
G04 #@! TO.N,Net-(U1-Pad42)*
X139930000Y-101170200D02*
X138430000Y-101170200D01*
X143537400Y-101170200D02*
X139930000Y-101170200D01*
X152349200Y-109982000D02*
X143537400Y-101170200D01*
G04 #@! TO.N,Net-(U1-Pad41)*
X139219400Y-103710200D02*
X138430000Y-103710200D01*
X152349200Y-116840000D02*
X139219400Y-103710200D01*
G04 #@! TO.N,Net-(U1-Pad40)*
X138830000Y-106250200D02*
X138430000Y-106250200D01*
X146038810Y-113459010D02*
X138830000Y-106250200D01*
X146038810Y-117336810D02*
X146038810Y-113459010D01*
X152349200Y-123647200D02*
X146038810Y-117336810D01*
G04 #@! TO.N,Net-(U1-Pad39)*
X138830000Y-108790200D02*
X138430000Y-108790200D01*
X143738600Y-113698800D02*
X138830000Y-108790200D01*
X152349200Y-130962400D02*
X143738600Y-122351800D01*
X143738600Y-122351800D02*
X143738600Y-113698800D01*
D21*
G04 #@! TO.N,Net-(J1-Pad1)*
X78079600Y-83671600D02*
X78079600Y-84785200D01*
X78079600Y-81530600D02*
X78079600Y-83671600D01*
X91460000Y-68150200D02*
X78079600Y-81530600D01*
X92710000Y-68150200D02*
X91460000Y-68150200D01*
G04 #@! TO.N,Net-(J1-Pad2)*
X80619600Y-83563886D02*
X80619600Y-84785200D01*
X80619600Y-81530600D02*
X80619600Y-83563886D01*
X91460000Y-70690200D02*
X80619600Y-81530600D01*
X92710000Y-70690200D02*
X91460000Y-70690200D01*
G04 #@! TO.N,Net-(J1-Pad3)*
X82194400Y-85699600D02*
X82042000Y-85852000D01*
X79268201Y-86136599D02*
X81757401Y-86136599D01*
X78079600Y-87325200D02*
X79268201Y-86136599D01*
X81757401Y-86136599D02*
X82194400Y-85699600D01*
X82550000Y-85344000D02*
X82194400Y-85699600D01*
X82550000Y-82016600D02*
X82550000Y-85344000D01*
X92710000Y-73230200D02*
X91336400Y-73230200D01*
X91336400Y-73230200D02*
X82550000Y-82016600D01*
G04 #@! TO.N,Net-(J1-Pad4)*
X81991200Y-87325200D02*
X80619600Y-87325200D01*
X82042000Y-87376000D02*
X81991200Y-87325200D01*
X83312000Y-86106000D02*
X82042000Y-87376000D01*
X83312000Y-83693000D02*
X83312000Y-86106000D01*
X92710000Y-75770200D02*
X91234800Y-75770200D01*
X91234800Y-75770200D02*
X83312000Y-83693000D01*
G04 #@! TO.N,Net-(J1-Pad5)*
X84074000Y-85696200D02*
X83820000Y-86868000D01*
X92710000Y-78310200D02*
X91460000Y-78310200D01*
X91460000Y-78310200D02*
X84074000Y-85696200D01*
X82011401Y-88676599D02*
X82499200Y-88188800D01*
X79268201Y-88676599D02*
X82011401Y-88676599D01*
X78079600Y-89865200D02*
X79268201Y-88676599D01*
X83820000Y-86868000D02*
X82499200Y-88188800D01*
X82499200Y-88188800D02*
X82296000Y-88392000D01*
G04 #@! TO.N,Net-(J1-Pad6)*
X81840914Y-89865200D02*
X80619600Y-89865200D01*
X82445000Y-89865200D02*
X81840914Y-89865200D01*
X91460000Y-80850200D02*
X82445000Y-89865200D01*
X92710000Y-80850200D02*
X91460000Y-80850200D01*
G04 #@! TO.N,Net-(J1-Pad7)*
X91460000Y-83390200D02*
X83664200Y-91186000D01*
X92710000Y-83390200D02*
X91460000Y-83390200D01*
X79298800Y-91186000D02*
X81965800Y-91186000D01*
X78079600Y-92405200D02*
X79298800Y-91186000D01*
X83664200Y-91186000D02*
X81965800Y-91186000D01*
X81965800Y-91186000D02*
X81788000Y-91186000D01*
G04 #@! TO.N,Net-(J1-Pad8)*
X81840914Y-92405200D02*
X80619600Y-92405200D01*
X84985000Y-92405200D02*
X81840914Y-92405200D01*
X91460000Y-85930200D02*
X84985000Y-92405200D01*
X92710000Y-85930200D02*
X91460000Y-85930200D01*
G04 #@! TO.N,Net-(J1-Pad9)*
X79298800Y-93726000D02*
X82448400Y-93726000D01*
X78079600Y-94945200D02*
X79298800Y-93726000D01*
X82448400Y-93726000D02*
X82042000Y-93726000D01*
X86106000Y-93726000D02*
X82448400Y-93726000D01*
X92710000Y-88470200D02*
X91361800Y-88470200D01*
X91361800Y-88470200D02*
X86106000Y-93726000D01*
G04 #@! TO.N,Net-(J1-Pad11)*
X78943199Y-96621601D02*
X78079600Y-97485200D01*
X79268201Y-96296599D02*
X78943199Y-96621601D01*
X86173601Y-96296599D02*
X79268201Y-96296599D01*
X91460000Y-91010200D02*
X86173601Y-96296599D01*
X92710000Y-91010200D02*
X91460000Y-91010200D01*
G04 #@! TO.N,Net-(J1-Pad13)*
X79298800Y-98806000D02*
X82473800Y-98806000D01*
X78079600Y-100025200D02*
X79298800Y-98806000D01*
X82473800Y-98806000D02*
X81788000Y-98806000D01*
X86004400Y-98806000D02*
X82473800Y-98806000D01*
X92710000Y-93550200D02*
X91260200Y-93550200D01*
X91260200Y-93550200D02*
X86004400Y-98806000D01*
G04 #@! TO.N,Net-(J1-Pad15)*
X91460000Y-96090200D02*
X86204200Y-101346000D01*
X92710000Y-96090200D02*
X91460000Y-96090200D01*
X79298800Y-101346000D02*
X82397600Y-101346000D01*
X78079600Y-102565200D02*
X79298800Y-101346000D01*
X86204200Y-101346000D02*
X82397600Y-101346000D01*
X82397600Y-101346000D02*
X81788000Y-101346000D01*
G04 #@! TO.N,Net-(J1-Pad17)*
X91460000Y-98630200D02*
X86204200Y-103886000D01*
X92710000Y-98630200D02*
X91460000Y-98630200D01*
X79298800Y-103886000D02*
X82270600Y-103886000D01*
X78079600Y-105105200D02*
X79298800Y-103886000D01*
X86204200Y-103886000D02*
X82270600Y-103886000D01*
X82270600Y-103886000D02*
X81788000Y-103886000D01*
G04 #@! TO.N,Net-(J1-Pad19)*
X79298800Y-106426000D02*
X82397600Y-106426000D01*
X78079600Y-107645200D02*
X79298800Y-106426000D01*
X82397600Y-106426000D02*
X81788000Y-106426000D01*
X85902800Y-106426000D02*
X82397600Y-106426000D01*
X92710000Y-101170200D02*
X91158600Y-101170200D01*
X91158600Y-101170200D02*
X85902800Y-106426000D01*
G04 #@! TO.N,Net-(J1-Pad21)*
X82544801Y-108996599D02*
X82575400Y-108966000D01*
X79268201Y-108996599D02*
X82544801Y-108996599D01*
X78079600Y-110185200D02*
X79268201Y-108996599D01*
X82575400Y-108966000D02*
X81788000Y-108966000D01*
X86004400Y-108966000D02*
X82575400Y-108966000D01*
X92710000Y-103710200D02*
X91260200Y-103710200D01*
X91260200Y-103710200D02*
X86004400Y-108966000D01*
G04 #@! TO.N,Net-(J1-Pad23)*
X79298800Y-111506000D02*
X82270600Y-111506000D01*
X78079600Y-112725200D02*
X79298800Y-111506000D01*
X82270600Y-111506000D02*
X81788000Y-111506000D01*
X85953600Y-111506000D02*
X82270600Y-111506000D01*
X92710000Y-106250200D02*
X91209400Y-106250200D01*
X91209400Y-106250200D02*
X85953600Y-111506000D01*
G04 #@! TO.N,Net-(J1-Pad25)*
X91460000Y-108790200D02*
X86204200Y-114046000D01*
X92710000Y-108790200D02*
X91460000Y-108790200D01*
X79298800Y-114046000D02*
X82626200Y-114046000D01*
X78079600Y-115265200D02*
X79298800Y-114046000D01*
X86204200Y-114046000D02*
X82626200Y-114046000D01*
X82626200Y-114046000D02*
X81788000Y-114046000D01*
D20*
G04 #@! TO.N,CURRENT_SENSE*
X168480200Y-91010200D02*
X173990000Y-96520000D01*
X138430000Y-91010200D02*
X168480200Y-91010200D01*
G04 #@! TO.N,PWM*
X165940200Y-93550200D02*
X168910000Y-96520000D01*
X138430000Y-93550200D02*
X165940200Y-93550200D01*
G04 #@! TO.N,DIR*
X163400200Y-96090200D02*
X163830000Y-96520000D01*
X138430000Y-96090200D02*
X163400200Y-96090200D01*
G04 #@! TO.N,Net-(J3-Pad3)*
X191084200Y-103860600D02*
X185115200Y-109829600D01*
X203377800Y-103860600D02*
X191084200Y-103860600D01*
G04 #@! TO.N,Net-(D1-Pad2)*
X172364400Y-109880400D02*
X172415200Y-109829600D01*
X166878000Y-109880400D02*
X172364400Y-109880400D01*
G04 #@! TO.N,Net-(D2-Pad2)*
X172364400Y-116687600D02*
X172415200Y-116636800D01*
X166878000Y-116687600D02*
X172364400Y-116687600D01*
G04 #@! TO.N,Net-(J3-Pad4)*
X192811400Y-108940600D02*
X185115200Y-116636800D01*
X203377800Y-108940600D02*
X192811400Y-108940600D01*
G04 #@! TO.N,Net-(J3-Pad5)*
X194995800Y-114020600D02*
X185115200Y-123901200D01*
X203377800Y-114020600D02*
X194995800Y-114020600D01*
G04 #@! TO.N,Net-(D3-Pad2)*
X167081200Y-123901200D02*
X166878000Y-123698000D01*
X172415200Y-123901200D02*
X167081200Y-123901200D01*
G04 #@! TO.N,Net-(D4-Pad2)*
X172364400Y-130911600D02*
X172415200Y-130962400D01*
X166878000Y-130911600D02*
X172364400Y-130911600D01*
G04 #@! TO.N,Net-(J3-Pad6)*
X196977000Y-119100600D02*
X203377800Y-119100600D01*
X185115200Y-130962400D02*
X196977000Y-119100600D01*
G04 #@! TO.N,Net-(D1-Pad1)*
X164236400Y-109982000D02*
X164338000Y-109880400D01*
X159969200Y-109982000D02*
X164236400Y-109982000D01*
G04 #@! TO.N,Net-(D2-Pad1)*
X164185600Y-116840000D02*
X164338000Y-116687600D01*
X159969200Y-116840000D02*
X164185600Y-116840000D01*
G04 #@! TO.N,Net-(D3-Pad1)*
X164287200Y-123647200D02*
X164338000Y-123698000D01*
X159969200Y-123647200D02*
X164287200Y-123647200D01*
G04 #@! TO.N,Net-(D4-Pad1)*
X164287200Y-130962400D02*
X164338000Y-130911600D01*
X159969200Y-130962400D02*
X164287200Y-130962400D01*
D22*
G04 #@! TO.N,+24V*
X199364600Y-93700600D02*
X203377800Y-93700600D01*
X197332600Y-91668600D02*
X199364600Y-93700600D01*
X197332600Y-82702400D02*
X197332600Y-91668600D01*
X203225400Y-81000600D02*
X199034400Y-81000600D01*
X199034400Y-81000600D02*
X197332600Y-82702400D01*
G04 #@! TD*
M02*
