M48
;DRILL file {KiCad (5.0.2)-1} date 2020-02-10 23:08:49
;FORMAT={-:-/ absolute / metric / decimal}
FMAT,2
METRIC,TZ
T1C0.800
T2C0.900
T3C1.016
T4C1.200
T5C3.500
%
G90
G05
T1
X172.415Y-130.962
X185.115Y-130.962
X172.415Y-109.83
X185.115Y-109.83
X172.415Y-116.637
X185.115Y-116.637
X172.415Y-123.901
X185.115Y-123.901
X92.71Y-65.61
X92.71Y-68.15
X92.71Y-70.69
X92.71Y-73.23
X92.71Y-75.77
X92.71Y-78.31
X92.71Y-80.85
X92.71Y-83.39
X92.71Y-85.93
X92.71Y-88.47
X92.71Y-91.01
X92.71Y-93.55
X92.71Y-96.09
X92.71Y-98.63
X92.71Y-101.17
X92.71Y-103.71
X92.71Y-106.25
X92.71Y-108.79
X92.71Y-111.33
X92.71Y-113.87
X92.71Y-116.41
X92.71Y-118.95
X92.71Y-121.49
X92.71Y-124.03
X92.71Y-126.57
X92.71Y-129.11
X92.71Y-131.65
X92.71Y-134.19
X138.43Y-65.61
X138.43Y-68.15
X138.43Y-70.69
X138.43Y-73.23
X138.43Y-75.77
X138.43Y-78.31
X138.43Y-80.85
X138.43Y-83.39
X138.43Y-85.93
X138.43Y-88.47
X138.43Y-91.01
X138.43Y-93.55
X138.43Y-96.09
X138.43Y-98.63
X138.43Y-101.17
X138.43Y-103.71
X138.43Y-106.25
X138.43Y-108.79
X138.43Y-111.33
X138.43Y-113.87
X138.43Y-116.41
X138.43Y-118.95
X138.43Y-121.49
X138.43Y-124.03
X138.43Y-126.57
X138.43Y-129.11
X138.43Y-131.65
X138.43Y-134.19
X152.349Y-107.442
X152.349Y-109.982
X159.969Y-107.442
X159.969Y-109.982
X152.349Y-114.3
X152.349Y-116.84
X159.969Y-114.3
X159.969Y-116.84
X152.349Y-128.422
X152.349Y-130.962
X159.969Y-128.422
X159.969Y-130.962
X152.349Y-121.107
X152.349Y-123.647
X159.969Y-121.107
X159.969Y-123.647
T2
X164.338Y-130.912
X166.878Y-130.912
X164.338Y-116.688
X166.878Y-116.688
X164.338Y-123.698
X166.878Y-123.698
X164.338Y-109.88
X166.878Y-109.88
T3
X163.83Y-96.52
X163.83Y-99.06
X166.37Y-96.52
X166.37Y-99.06
X168.91Y-96.52
X168.91Y-99.06
X171.45Y-96.52
X171.45Y-99.06
X173.99Y-96.52
X173.99Y-99.06
X78.08Y-84.785
X78.08Y-87.325
X78.08Y-89.865
X78.08Y-92.405
X78.08Y-94.945
X78.08Y-97.485
X78.08Y-100.025
X78.08Y-102.565
X78.08Y-105.105
X78.08Y-107.645
X78.08Y-110.185
X78.08Y-112.725
X78.08Y-115.265
X80.62Y-84.785
X80.62Y-87.325
X80.62Y-89.865
X80.62Y-92.405
X80.62Y-94.945
X80.62Y-97.485
X80.62Y-100.025
X80.62Y-102.565
X80.62Y-105.105
X80.62Y-107.645
X80.62Y-110.185
X80.62Y-112.725
X80.62Y-115.265
T4
X203.225Y-81.001
X203.225Y-86.081
X203.378Y-93.701
X203.378Y-98.781
X203.378Y-103.861
X203.378Y-108.941
X203.378Y-114.021
X203.378Y-119.101
T5
X204.47Y-71.04
X78.74Y-128.19
X184.46Y-82.55
X152.46Y-82.55
X204.47Y-128.19
X78.74Y-71.04
T0
M30
