G04 #@! TF.GenerationSoftware,KiCad,Pcbnew,(5.0.2)-1*
G04 #@! TF.CreationDate,2020-02-10T23:08:41+01:00*
G04 #@! TF.ProjectId,ToolChanger,546f6f6c-4368-4616-9e67-65722e6b6963,rev?*
G04 #@! TF.SameCoordinates,Original*
G04 #@! TF.FileFunction,Soldermask,Bot*
G04 #@! TF.FilePolarity,Negative*
%FSLAX46Y46*%
G04 Gerber Fmt 4.6, Leading zero omitted, Abs format (unit mm)*
G04 Created by KiCad (PCBNEW (5.0.2)-1) date 2020-02-10 23:08:41*
%MOMM*%
%LPD*%
G01*
G04 APERTURE LIST*
%ADD10C,0.100000*%
G04 APERTURE END LIST*
D10*
G36*
X138893855Y-133542340D02*
X138957618Y-133548620D01*
X139039427Y-133573437D01*
X139080333Y-133585845D01*
X139180491Y-133639381D01*
X139193426Y-133646295D01*
X139292553Y-133727647D01*
X139373905Y-133826774D01*
X139373906Y-133826776D01*
X139434355Y-133939867D01*
X139434355Y-133939868D01*
X139471580Y-134062582D01*
X139484149Y-134190200D01*
X139471580Y-134317818D01*
X139446763Y-134399627D01*
X139434355Y-134440533D01*
X139380819Y-134540691D01*
X139373905Y-134553626D01*
X139292553Y-134652753D01*
X139193426Y-134734105D01*
X139193424Y-134734106D01*
X139080333Y-134794555D01*
X139039427Y-134806963D01*
X138957618Y-134831780D01*
X138893855Y-134838060D01*
X138861974Y-134841200D01*
X137998026Y-134841200D01*
X137966145Y-134838060D01*
X137902382Y-134831780D01*
X137820573Y-134806963D01*
X137779667Y-134794555D01*
X137666576Y-134734106D01*
X137666574Y-134734105D01*
X137567447Y-134652753D01*
X137486095Y-134553626D01*
X137479181Y-134540691D01*
X137425645Y-134440533D01*
X137413237Y-134399627D01*
X137388420Y-134317818D01*
X137375851Y-134190200D01*
X137388420Y-134062582D01*
X137425645Y-133939868D01*
X137425645Y-133939867D01*
X137486094Y-133826776D01*
X137486095Y-133826774D01*
X137567447Y-133727647D01*
X137666574Y-133646295D01*
X137679509Y-133639381D01*
X137779667Y-133585845D01*
X137820573Y-133573437D01*
X137902382Y-133548620D01*
X137966145Y-133542340D01*
X137998026Y-133539200D01*
X138861974Y-133539200D01*
X138893855Y-133542340D01*
X138893855Y-133542340D01*
G37*
G36*
X93173855Y-133542340D02*
X93237618Y-133548620D01*
X93319427Y-133573437D01*
X93360333Y-133585845D01*
X93460491Y-133639381D01*
X93473426Y-133646295D01*
X93572553Y-133727647D01*
X93653905Y-133826774D01*
X93653906Y-133826776D01*
X93714355Y-133939867D01*
X93714355Y-133939868D01*
X93751580Y-134062582D01*
X93764149Y-134190200D01*
X93751580Y-134317818D01*
X93726763Y-134399627D01*
X93714355Y-134440533D01*
X93660819Y-134540691D01*
X93653905Y-134553626D01*
X93572553Y-134652753D01*
X93473426Y-134734105D01*
X93473424Y-134734106D01*
X93360333Y-134794555D01*
X93319427Y-134806963D01*
X93237618Y-134831780D01*
X93173855Y-134838060D01*
X93141974Y-134841200D01*
X92278026Y-134841200D01*
X92246145Y-134838060D01*
X92182382Y-134831780D01*
X92100573Y-134806963D01*
X92059667Y-134794555D01*
X91946576Y-134734106D01*
X91946574Y-134734105D01*
X91847447Y-134652753D01*
X91766095Y-134553626D01*
X91759181Y-134540691D01*
X91705645Y-134440533D01*
X91693237Y-134399627D01*
X91668420Y-134317818D01*
X91655851Y-134190200D01*
X91668420Y-134062582D01*
X91705645Y-133939868D01*
X91705645Y-133939867D01*
X91766094Y-133826776D01*
X91766095Y-133826774D01*
X91847447Y-133727647D01*
X91946574Y-133646295D01*
X91959509Y-133639381D01*
X92059667Y-133585845D01*
X92100573Y-133573437D01*
X92182382Y-133548620D01*
X92246145Y-133542340D01*
X92278026Y-133539200D01*
X93141974Y-133539200D01*
X93173855Y-133542340D01*
X93173855Y-133542340D01*
G37*
G36*
X138893855Y-131002340D02*
X138957618Y-131008620D01*
X139039427Y-131033437D01*
X139080333Y-131045845D01*
X139180491Y-131099381D01*
X139193426Y-131106295D01*
X139292553Y-131187647D01*
X139373905Y-131286774D01*
X139373906Y-131286776D01*
X139434355Y-131399867D01*
X139434355Y-131399868D01*
X139471580Y-131522582D01*
X139484149Y-131650200D01*
X139471580Y-131777818D01*
X139446763Y-131859627D01*
X139434355Y-131900533D01*
X139380819Y-132000691D01*
X139373905Y-132013626D01*
X139292553Y-132112753D01*
X139193426Y-132194105D01*
X139193424Y-132194106D01*
X139080333Y-132254555D01*
X139039427Y-132266963D01*
X138957618Y-132291780D01*
X138893855Y-132298060D01*
X138861974Y-132301200D01*
X137998026Y-132301200D01*
X137966145Y-132298060D01*
X137902382Y-132291780D01*
X137820573Y-132266963D01*
X137779667Y-132254555D01*
X137666576Y-132194106D01*
X137666574Y-132194105D01*
X137567447Y-132112753D01*
X137486095Y-132013626D01*
X137479181Y-132000691D01*
X137425645Y-131900533D01*
X137413237Y-131859627D01*
X137388420Y-131777818D01*
X137375851Y-131650200D01*
X137388420Y-131522582D01*
X137425645Y-131399868D01*
X137425645Y-131399867D01*
X137486094Y-131286776D01*
X137486095Y-131286774D01*
X137567447Y-131187647D01*
X137666574Y-131106295D01*
X137679509Y-131099381D01*
X137779667Y-131045845D01*
X137820573Y-131033437D01*
X137902382Y-131008620D01*
X137966145Y-131002340D01*
X137998026Y-130999200D01*
X138861974Y-130999200D01*
X138893855Y-131002340D01*
X138893855Y-131002340D01*
G37*
G36*
X93173855Y-131002340D02*
X93237618Y-131008620D01*
X93319427Y-131033437D01*
X93360333Y-131045845D01*
X93460491Y-131099381D01*
X93473426Y-131106295D01*
X93572553Y-131187647D01*
X93653905Y-131286774D01*
X93653906Y-131286776D01*
X93714355Y-131399867D01*
X93714355Y-131399868D01*
X93751580Y-131522582D01*
X93764149Y-131650200D01*
X93751580Y-131777818D01*
X93726763Y-131859627D01*
X93714355Y-131900533D01*
X93660819Y-132000691D01*
X93653905Y-132013626D01*
X93572553Y-132112753D01*
X93473426Y-132194105D01*
X93473424Y-132194106D01*
X93360333Y-132254555D01*
X93319427Y-132266963D01*
X93237618Y-132291780D01*
X93173855Y-132298060D01*
X93141974Y-132301200D01*
X92278026Y-132301200D01*
X92246145Y-132298060D01*
X92182382Y-132291780D01*
X92100573Y-132266963D01*
X92059667Y-132254555D01*
X91946576Y-132194106D01*
X91946574Y-132194105D01*
X91847447Y-132112753D01*
X91766095Y-132013626D01*
X91759181Y-132000691D01*
X91705645Y-131900533D01*
X91693237Y-131859627D01*
X91668420Y-131777818D01*
X91655851Y-131650200D01*
X91668420Y-131522582D01*
X91705645Y-131399868D01*
X91705645Y-131399867D01*
X91766094Y-131286776D01*
X91766095Y-131286774D01*
X91847447Y-131187647D01*
X91946574Y-131106295D01*
X91959509Y-131099381D01*
X92059667Y-131045845D01*
X92100573Y-131033437D01*
X92182382Y-131008620D01*
X92246145Y-131002340D01*
X92278026Y-130999200D01*
X93141974Y-130999200D01*
X93173855Y-131002340D01*
X93173855Y-131002340D01*
G37*
G36*
X165289000Y-131862600D02*
X163387000Y-131862600D01*
X163387000Y-129960600D01*
X165289000Y-129960600D01*
X165289000Y-131862600D01*
X165289000Y-131862600D01*
G37*
G36*
X167155396Y-129997146D02*
X167328466Y-130068834D01*
X167484230Y-130172912D01*
X167616688Y-130305370D01*
X167720766Y-130461134D01*
X167792454Y-130634204D01*
X167829000Y-130817933D01*
X167829000Y-131005267D01*
X167792454Y-131188996D01*
X167720766Y-131362066D01*
X167616688Y-131517830D01*
X167484230Y-131650288D01*
X167328466Y-131754366D01*
X167155396Y-131826054D01*
X166971667Y-131862600D01*
X166784333Y-131862600D01*
X166600604Y-131826054D01*
X166427534Y-131754366D01*
X166271770Y-131650288D01*
X166139312Y-131517830D01*
X166035234Y-131362066D01*
X165963546Y-131188996D01*
X165927000Y-131005267D01*
X165927000Y-130817933D01*
X165963546Y-130634204D01*
X166035234Y-130461134D01*
X166139312Y-130305370D01*
X166271770Y-130172912D01*
X166427534Y-130068834D01*
X166600604Y-129997146D01*
X166784333Y-129960600D01*
X166971667Y-129960600D01*
X167155396Y-129997146D01*
X167155396Y-129997146D01*
G37*
G36*
X185363428Y-130144103D02*
X185518300Y-130208253D01*
X185657681Y-130301385D01*
X185776215Y-130419919D01*
X185869347Y-130559300D01*
X185933497Y-130714172D01*
X185966200Y-130878584D01*
X185966200Y-131046216D01*
X185933497Y-131210628D01*
X185869347Y-131365500D01*
X185776215Y-131504881D01*
X185657681Y-131623415D01*
X185518300Y-131716547D01*
X185363428Y-131780697D01*
X185199016Y-131813400D01*
X185031384Y-131813400D01*
X184866972Y-131780697D01*
X184712100Y-131716547D01*
X184572719Y-131623415D01*
X184454185Y-131504881D01*
X184361053Y-131365500D01*
X184296903Y-131210628D01*
X184264200Y-131046216D01*
X184264200Y-130878584D01*
X184296903Y-130714172D01*
X184361053Y-130559300D01*
X184454185Y-130419919D01*
X184572719Y-130301385D01*
X184712100Y-130208253D01*
X184866972Y-130144103D01*
X185031384Y-130111400D01*
X185199016Y-130111400D01*
X185363428Y-130144103D01*
X185363428Y-130144103D01*
G37*
G36*
X172582021Y-130123713D02*
X172582024Y-130123714D01*
X172582025Y-130123714D01*
X172742439Y-130172375D01*
X172742441Y-130172376D01*
X172742444Y-130172377D01*
X172890278Y-130251395D01*
X173019859Y-130357741D01*
X173126205Y-130487322D01*
X173205223Y-130635156D01*
X173205224Y-130635159D01*
X173205225Y-130635161D01*
X173253886Y-130795575D01*
X173253887Y-130795579D01*
X173270317Y-130962400D01*
X173253887Y-131129221D01*
X173253886Y-131129224D01*
X173253886Y-131129225D01*
X173229193Y-131210628D01*
X173205223Y-131289644D01*
X173126205Y-131437478D01*
X173019859Y-131567059D01*
X172890278Y-131673405D01*
X172742444Y-131752423D01*
X172742441Y-131752424D01*
X172742439Y-131752425D01*
X172582025Y-131801086D01*
X172582024Y-131801086D01*
X172582021Y-131801087D01*
X172457004Y-131813400D01*
X172373396Y-131813400D01*
X172248379Y-131801087D01*
X172248376Y-131801086D01*
X172248375Y-131801086D01*
X172087961Y-131752425D01*
X172087959Y-131752424D01*
X172087956Y-131752423D01*
X171940122Y-131673405D01*
X171810541Y-131567059D01*
X171704195Y-131437478D01*
X171625177Y-131289644D01*
X171601208Y-131210628D01*
X171576514Y-131129225D01*
X171576514Y-131129224D01*
X171576513Y-131129221D01*
X171560083Y-130962400D01*
X171576513Y-130795579D01*
X171576514Y-130795575D01*
X171625175Y-130635161D01*
X171625176Y-130635159D01*
X171625177Y-130635156D01*
X171704195Y-130487322D01*
X171810541Y-130357741D01*
X171940122Y-130251395D01*
X172087956Y-130172377D01*
X172087959Y-130172376D01*
X172087961Y-130172375D01*
X172248375Y-130123714D01*
X172248376Y-130123714D01*
X172248379Y-130123713D01*
X172373396Y-130111400D01*
X172457004Y-130111400D01*
X172582021Y-130123713D01*
X172582021Y-130123713D01*
G37*
G36*
X160820200Y-131813400D02*
X159118200Y-131813400D01*
X159118200Y-130111400D01*
X160820200Y-130111400D01*
X160820200Y-131813400D01*
X160820200Y-131813400D01*
G37*
G36*
X152516021Y-130123713D02*
X152516024Y-130123714D01*
X152516025Y-130123714D01*
X152676439Y-130172375D01*
X152676441Y-130172376D01*
X152676444Y-130172377D01*
X152824278Y-130251395D01*
X152953859Y-130357741D01*
X153060205Y-130487322D01*
X153139223Y-130635156D01*
X153139224Y-130635159D01*
X153139225Y-130635161D01*
X153187886Y-130795575D01*
X153187887Y-130795579D01*
X153204317Y-130962400D01*
X153187887Y-131129221D01*
X153187886Y-131129224D01*
X153187886Y-131129225D01*
X153163193Y-131210628D01*
X153139223Y-131289644D01*
X153060205Y-131437478D01*
X152953859Y-131567059D01*
X152824278Y-131673405D01*
X152676444Y-131752423D01*
X152676441Y-131752424D01*
X152676439Y-131752425D01*
X152516025Y-131801086D01*
X152516024Y-131801086D01*
X152516021Y-131801087D01*
X152391004Y-131813400D01*
X152307396Y-131813400D01*
X152182379Y-131801087D01*
X152182376Y-131801086D01*
X152182375Y-131801086D01*
X152021961Y-131752425D01*
X152021959Y-131752424D01*
X152021956Y-131752423D01*
X151874122Y-131673405D01*
X151744541Y-131567059D01*
X151638195Y-131437478D01*
X151559177Y-131289644D01*
X151535208Y-131210628D01*
X151510514Y-131129225D01*
X151510514Y-131129224D01*
X151510513Y-131129221D01*
X151494083Y-130962400D01*
X151510513Y-130795579D01*
X151510514Y-130795575D01*
X151559175Y-130635161D01*
X151559176Y-130635159D01*
X151559177Y-130635156D01*
X151638195Y-130487322D01*
X151744541Y-130357741D01*
X151874122Y-130251395D01*
X152021956Y-130172377D01*
X152021959Y-130172376D01*
X152021961Y-130172375D01*
X152182375Y-130123714D01*
X152182376Y-130123714D01*
X152182379Y-130123713D01*
X152307396Y-130111400D01*
X152391004Y-130111400D01*
X152516021Y-130123713D01*
X152516021Y-130123713D01*
G37*
G36*
X79265331Y-126458211D02*
X79593092Y-126593974D01*
X79888073Y-126791074D01*
X80138926Y-127041927D01*
X80336026Y-127336908D01*
X80471789Y-127664669D01*
X80541000Y-128012616D01*
X80541000Y-128367384D01*
X80471789Y-128715331D01*
X80336026Y-129043092D01*
X80138926Y-129338073D01*
X79888073Y-129588926D01*
X79593092Y-129786026D01*
X79265331Y-129921789D01*
X78917384Y-129991000D01*
X78562616Y-129991000D01*
X78214669Y-129921789D01*
X77886908Y-129786026D01*
X77591927Y-129588926D01*
X77341074Y-129338073D01*
X77143974Y-129043092D01*
X77008211Y-128715331D01*
X76939000Y-128367384D01*
X76939000Y-128012616D01*
X77008211Y-127664669D01*
X77143974Y-127336908D01*
X77341074Y-127041927D01*
X77591927Y-126791074D01*
X77886908Y-126593974D01*
X78214669Y-126458211D01*
X78562616Y-126389000D01*
X78917384Y-126389000D01*
X79265331Y-126458211D01*
X79265331Y-126458211D01*
G37*
G36*
X204995331Y-126458211D02*
X205323092Y-126593974D01*
X205618073Y-126791074D01*
X205868926Y-127041927D01*
X206066026Y-127336908D01*
X206201789Y-127664669D01*
X206271000Y-128012616D01*
X206271000Y-128367384D01*
X206201789Y-128715331D01*
X206066026Y-129043092D01*
X205868926Y-129338073D01*
X205618073Y-129588926D01*
X205323092Y-129786026D01*
X204995331Y-129921789D01*
X204647384Y-129991000D01*
X204292616Y-129991000D01*
X203944669Y-129921789D01*
X203616908Y-129786026D01*
X203321927Y-129588926D01*
X203071074Y-129338073D01*
X202873974Y-129043092D01*
X202738211Y-128715331D01*
X202669000Y-128367384D01*
X202669000Y-128012616D01*
X202738211Y-127664669D01*
X202873974Y-127336908D01*
X203071074Y-127041927D01*
X203321927Y-126791074D01*
X203616908Y-126593974D01*
X203944669Y-126458211D01*
X204292616Y-126389000D01*
X204647384Y-126389000D01*
X204995331Y-126458211D01*
X204995331Y-126458211D01*
G37*
G36*
X138893855Y-128462340D02*
X138957618Y-128468620D01*
X139039427Y-128493437D01*
X139080333Y-128505845D01*
X139180491Y-128559381D01*
X139193426Y-128566295D01*
X139292553Y-128647647D01*
X139373905Y-128746774D01*
X139373906Y-128746776D01*
X139434355Y-128859867D01*
X139434355Y-128859868D01*
X139471580Y-128982582D01*
X139484149Y-129110200D01*
X139471580Y-129237818D01*
X139464521Y-129261087D01*
X139434355Y-129360533D01*
X139380819Y-129460691D01*
X139373905Y-129473626D01*
X139292553Y-129572753D01*
X139193426Y-129654105D01*
X139193424Y-129654106D01*
X139080333Y-129714555D01*
X139039427Y-129726963D01*
X138957618Y-129751780D01*
X138893855Y-129758060D01*
X138861974Y-129761200D01*
X137998026Y-129761200D01*
X137966145Y-129758060D01*
X137902382Y-129751780D01*
X137820573Y-129726963D01*
X137779667Y-129714555D01*
X137666576Y-129654106D01*
X137666574Y-129654105D01*
X137567447Y-129572753D01*
X137486095Y-129473626D01*
X137479181Y-129460691D01*
X137425645Y-129360533D01*
X137395479Y-129261087D01*
X137388420Y-129237818D01*
X137375851Y-129110200D01*
X137388420Y-128982582D01*
X137425645Y-128859868D01*
X137425645Y-128859867D01*
X137486094Y-128746776D01*
X137486095Y-128746774D01*
X137567447Y-128647647D01*
X137666574Y-128566295D01*
X137679509Y-128559381D01*
X137779667Y-128505845D01*
X137820573Y-128493437D01*
X137902382Y-128468620D01*
X137966145Y-128462340D01*
X137998026Y-128459200D01*
X138861974Y-128459200D01*
X138893855Y-128462340D01*
X138893855Y-128462340D01*
G37*
G36*
X93173855Y-128462340D02*
X93237618Y-128468620D01*
X93319427Y-128493437D01*
X93360333Y-128505845D01*
X93460491Y-128559381D01*
X93473426Y-128566295D01*
X93572553Y-128647647D01*
X93653905Y-128746774D01*
X93653906Y-128746776D01*
X93714355Y-128859867D01*
X93714355Y-128859868D01*
X93751580Y-128982582D01*
X93764149Y-129110200D01*
X93751580Y-129237818D01*
X93744521Y-129261087D01*
X93714355Y-129360533D01*
X93660819Y-129460691D01*
X93653905Y-129473626D01*
X93572553Y-129572753D01*
X93473426Y-129654105D01*
X93473424Y-129654106D01*
X93360333Y-129714555D01*
X93319427Y-129726963D01*
X93237618Y-129751780D01*
X93173855Y-129758060D01*
X93141974Y-129761200D01*
X92278026Y-129761200D01*
X92246145Y-129758060D01*
X92182382Y-129751780D01*
X92100573Y-129726963D01*
X92059667Y-129714555D01*
X91946576Y-129654106D01*
X91946574Y-129654105D01*
X91847447Y-129572753D01*
X91766095Y-129473626D01*
X91759181Y-129460691D01*
X91705645Y-129360533D01*
X91675479Y-129261087D01*
X91668420Y-129237818D01*
X91655851Y-129110200D01*
X91668420Y-128982582D01*
X91705645Y-128859868D01*
X91705645Y-128859867D01*
X91766094Y-128746776D01*
X91766095Y-128746774D01*
X91847447Y-128647647D01*
X91946574Y-128566295D01*
X91959509Y-128559381D01*
X92059667Y-128505845D01*
X92100573Y-128493437D01*
X92182382Y-128468620D01*
X92246145Y-128462340D01*
X92278026Y-128459200D01*
X93141974Y-128459200D01*
X93173855Y-128462340D01*
X93173855Y-128462340D01*
G37*
G36*
X160136021Y-127583713D02*
X160136024Y-127583714D01*
X160136025Y-127583714D01*
X160296439Y-127632375D01*
X160296441Y-127632376D01*
X160296444Y-127632377D01*
X160444278Y-127711395D01*
X160573859Y-127817741D01*
X160680205Y-127947322D01*
X160759223Y-128095156D01*
X160807887Y-128255579D01*
X160824317Y-128422400D01*
X160807887Y-128589221D01*
X160807886Y-128589224D01*
X160807886Y-128589225D01*
X160769632Y-128715332D01*
X160759223Y-128749644D01*
X160680205Y-128897478D01*
X160573859Y-129027059D01*
X160444278Y-129133405D01*
X160296444Y-129212423D01*
X160296441Y-129212424D01*
X160296439Y-129212425D01*
X160136025Y-129261086D01*
X160136024Y-129261086D01*
X160136021Y-129261087D01*
X160011004Y-129273400D01*
X159927396Y-129273400D01*
X159802379Y-129261087D01*
X159802376Y-129261086D01*
X159802375Y-129261086D01*
X159641961Y-129212425D01*
X159641959Y-129212424D01*
X159641956Y-129212423D01*
X159494122Y-129133405D01*
X159364541Y-129027059D01*
X159258195Y-128897478D01*
X159179177Y-128749644D01*
X159168769Y-128715332D01*
X159130514Y-128589225D01*
X159130514Y-128589224D01*
X159130513Y-128589221D01*
X159114083Y-128422400D01*
X159130513Y-128255579D01*
X159179177Y-128095156D01*
X159258195Y-127947322D01*
X159364541Y-127817741D01*
X159494122Y-127711395D01*
X159641956Y-127632377D01*
X159641959Y-127632376D01*
X159641961Y-127632375D01*
X159802375Y-127583714D01*
X159802376Y-127583714D01*
X159802379Y-127583713D01*
X159927396Y-127571400D01*
X160011004Y-127571400D01*
X160136021Y-127583713D01*
X160136021Y-127583713D01*
G37*
G36*
X152516021Y-127583713D02*
X152516024Y-127583714D01*
X152516025Y-127583714D01*
X152676439Y-127632375D01*
X152676441Y-127632376D01*
X152676444Y-127632377D01*
X152824278Y-127711395D01*
X152953859Y-127817741D01*
X153060205Y-127947322D01*
X153139223Y-128095156D01*
X153187887Y-128255579D01*
X153204317Y-128422400D01*
X153187887Y-128589221D01*
X153187886Y-128589224D01*
X153187886Y-128589225D01*
X153149632Y-128715332D01*
X153139223Y-128749644D01*
X153060205Y-128897478D01*
X152953859Y-129027059D01*
X152824278Y-129133405D01*
X152676444Y-129212423D01*
X152676441Y-129212424D01*
X152676439Y-129212425D01*
X152516025Y-129261086D01*
X152516024Y-129261086D01*
X152516021Y-129261087D01*
X152391004Y-129273400D01*
X152307396Y-129273400D01*
X152182379Y-129261087D01*
X152182376Y-129261086D01*
X152182375Y-129261086D01*
X152021961Y-129212425D01*
X152021959Y-129212424D01*
X152021956Y-129212423D01*
X151874122Y-129133405D01*
X151744541Y-129027059D01*
X151638195Y-128897478D01*
X151559177Y-128749644D01*
X151548769Y-128715332D01*
X151510514Y-128589225D01*
X151510514Y-128589224D01*
X151510513Y-128589221D01*
X151494083Y-128422400D01*
X151510513Y-128255579D01*
X151559177Y-128095156D01*
X151638195Y-127947322D01*
X151744541Y-127817741D01*
X151874122Y-127711395D01*
X152021956Y-127632377D01*
X152021959Y-127632376D01*
X152021961Y-127632375D01*
X152182375Y-127583714D01*
X152182376Y-127583714D01*
X152182379Y-127583713D01*
X152307396Y-127571400D01*
X152391004Y-127571400D01*
X152516021Y-127583713D01*
X152516021Y-127583713D01*
G37*
G36*
X138893855Y-125922340D02*
X138957618Y-125928620D01*
X139039427Y-125953437D01*
X139080333Y-125965845D01*
X139180491Y-126019381D01*
X139193426Y-126026295D01*
X139292553Y-126107647D01*
X139373905Y-126206774D01*
X139373906Y-126206776D01*
X139434355Y-126319867D01*
X139434355Y-126319868D01*
X139471580Y-126442582D01*
X139484149Y-126570200D01*
X139471580Y-126697818D01*
X139446763Y-126779627D01*
X139434355Y-126820533D01*
X139380819Y-126920691D01*
X139373905Y-126933626D01*
X139292553Y-127032753D01*
X139193426Y-127114105D01*
X139193424Y-127114106D01*
X139080333Y-127174555D01*
X139039427Y-127186963D01*
X138957618Y-127211780D01*
X138893855Y-127218060D01*
X138861974Y-127221200D01*
X137998026Y-127221200D01*
X137966145Y-127218060D01*
X137902382Y-127211780D01*
X137820573Y-127186963D01*
X137779667Y-127174555D01*
X137666576Y-127114106D01*
X137666574Y-127114105D01*
X137567447Y-127032753D01*
X137486095Y-126933626D01*
X137479181Y-126920691D01*
X137425645Y-126820533D01*
X137413237Y-126779627D01*
X137388420Y-126697818D01*
X137375851Y-126570200D01*
X137388420Y-126442582D01*
X137425645Y-126319868D01*
X137425645Y-126319867D01*
X137486094Y-126206776D01*
X137486095Y-126206774D01*
X137567447Y-126107647D01*
X137666574Y-126026295D01*
X137679509Y-126019381D01*
X137779667Y-125965845D01*
X137820573Y-125953437D01*
X137902382Y-125928620D01*
X137966145Y-125922340D01*
X137998026Y-125919200D01*
X138861974Y-125919200D01*
X138893855Y-125922340D01*
X138893855Y-125922340D01*
G37*
G36*
X93173855Y-125922340D02*
X93237618Y-125928620D01*
X93319427Y-125953437D01*
X93360333Y-125965845D01*
X93460491Y-126019381D01*
X93473426Y-126026295D01*
X93572553Y-126107647D01*
X93653905Y-126206774D01*
X93653906Y-126206776D01*
X93714355Y-126319867D01*
X93714355Y-126319868D01*
X93751580Y-126442582D01*
X93764149Y-126570200D01*
X93751580Y-126697818D01*
X93726763Y-126779627D01*
X93714355Y-126820533D01*
X93660819Y-126920691D01*
X93653905Y-126933626D01*
X93572553Y-127032753D01*
X93473426Y-127114105D01*
X93473424Y-127114106D01*
X93360333Y-127174555D01*
X93319427Y-127186963D01*
X93237618Y-127211780D01*
X93173855Y-127218060D01*
X93141974Y-127221200D01*
X92278026Y-127221200D01*
X92246145Y-127218060D01*
X92182382Y-127211780D01*
X92100573Y-127186963D01*
X92059667Y-127174555D01*
X91946576Y-127114106D01*
X91946574Y-127114105D01*
X91847447Y-127032753D01*
X91766095Y-126933626D01*
X91759181Y-126920691D01*
X91705645Y-126820533D01*
X91693237Y-126779627D01*
X91668420Y-126697818D01*
X91655851Y-126570200D01*
X91668420Y-126442582D01*
X91705645Y-126319868D01*
X91705645Y-126319867D01*
X91766094Y-126206776D01*
X91766095Y-126206774D01*
X91847447Y-126107647D01*
X91946574Y-126026295D01*
X91959509Y-126019381D01*
X92059667Y-125965845D01*
X92100573Y-125953437D01*
X92182382Y-125928620D01*
X92246145Y-125922340D01*
X92278026Y-125919200D01*
X93141974Y-125919200D01*
X93173855Y-125922340D01*
X93173855Y-125922340D01*
G37*
G36*
X172582021Y-123062513D02*
X172582024Y-123062514D01*
X172582025Y-123062514D01*
X172742439Y-123111175D01*
X172742441Y-123111176D01*
X172742444Y-123111177D01*
X172890278Y-123190195D01*
X173019859Y-123296541D01*
X173126205Y-123426122D01*
X173205223Y-123573956D01*
X173205224Y-123573959D01*
X173205225Y-123573961D01*
X173233379Y-123666774D01*
X173253887Y-123734379D01*
X173270317Y-123901200D01*
X173253887Y-124068021D01*
X173253886Y-124068024D01*
X173253886Y-124068025D01*
X173226648Y-124157818D01*
X173205223Y-124228444D01*
X173126205Y-124376278D01*
X173019859Y-124505859D01*
X172890278Y-124612205D01*
X172742444Y-124691223D01*
X172742441Y-124691224D01*
X172742439Y-124691225D01*
X172582025Y-124739886D01*
X172582024Y-124739886D01*
X172582021Y-124739887D01*
X172457004Y-124752200D01*
X172373396Y-124752200D01*
X172248379Y-124739887D01*
X172248376Y-124739886D01*
X172248375Y-124739886D01*
X172087961Y-124691225D01*
X172087959Y-124691224D01*
X172087956Y-124691223D01*
X171940122Y-124612205D01*
X171810541Y-124505859D01*
X171704195Y-124376278D01*
X171625177Y-124228444D01*
X171603753Y-124157818D01*
X171576514Y-124068025D01*
X171576514Y-124068024D01*
X171576513Y-124068021D01*
X171560083Y-123901200D01*
X171576513Y-123734379D01*
X171597021Y-123666774D01*
X171625175Y-123573961D01*
X171625176Y-123573959D01*
X171625177Y-123573956D01*
X171704195Y-123426122D01*
X171810541Y-123296541D01*
X171940122Y-123190195D01*
X172087956Y-123111177D01*
X172087959Y-123111176D01*
X172087961Y-123111175D01*
X172248375Y-123062514D01*
X172248376Y-123062514D01*
X172248379Y-123062513D01*
X172373396Y-123050200D01*
X172457004Y-123050200D01*
X172582021Y-123062513D01*
X172582021Y-123062513D01*
G37*
G36*
X185363428Y-123082903D02*
X185518300Y-123147053D01*
X185657681Y-123240185D01*
X185776215Y-123358719D01*
X185869347Y-123498100D01*
X185933497Y-123652972D01*
X185966200Y-123817384D01*
X185966200Y-123985016D01*
X185933497Y-124149428D01*
X185869347Y-124304300D01*
X185776215Y-124443681D01*
X185657681Y-124562215D01*
X185518300Y-124655347D01*
X185363428Y-124719497D01*
X185199016Y-124752200D01*
X185031384Y-124752200D01*
X184866972Y-124719497D01*
X184712100Y-124655347D01*
X184572719Y-124562215D01*
X184454185Y-124443681D01*
X184361053Y-124304300D01*
X184296903Y-124149428D01*
X184264200Y-123985016D01*
X184264200Y-123817384D01*
X184296903Y-123652972D01*
X184361053Y-123498100D01*
X184454185Y-123358719D01*
X184572719Y-123240185D01*
X184712100Y-123147053D01*
X184866972Y-123082903D01*
X185031384Y-123050200D01*
X185199016Y-123050200D01*
X185363428Y-123082903D01*
X185363428Y-123082903D01*
G37*
G36*
X138893855Y-123382340D02*
X138957618Y-123388620D01*
X139039427Y-123413437D01*
X139080333Y-123425845D01*
X139180491Y-123479381D01*
X139193426Y-123486295D01*
X139292553Y-123567647D01*
X139373905Y-123666774D01*
X139373906Y-123666776D01*
X139434355Y-123779867D01*
X139434355Y-123779868D01*
X139471580Y-123902582D01*
X139484149Y-124030200D01*
X139471580Y-124157818D01*
X139450157Y-124228439D01*
X139434355Y-124280533D01*
X139392838Y-124358205D01*
X139373905Y-124393626D01*
X139292553Y-124492753D01*
X139193426Y-124574105D01*
X139193424Y-124574106D01*
X139080333Y-124634555D01*
X139039427Y-124646963D01*
X138957618Y-124671780D01*
X138893855Y-124678060D01*
X138861974Y-124681200D01*
X137998026Y-124681200D01*
X137966145Y-124678060D01*
X137902382Y-124671780D01*
X137820573Y-124646963D01*
X137779667Y-124634555D01*
X137666576Y-124574106D01*
X137666574Y-124574105D01*
X137567447Y-124492753D01*
X137486095Y-124393626D01*
X137467162Y-124358205D01*
X137425645Y-124280533D01*
X137409843Y-124228439D01*
X137388420Y-124157818D01*
X137375851Y-124030200D01*
X137388420Y-123902582D01*
X137425645Y-123779868D01*
X137425645Y-123779867D01*
X137486094Y-123666776D01*
X137486095Y-123666774D01*
X137567447Y-123567647D01*
X137666574Y-123486295D01*
X137679509Y-123479381D01*
X137779667Y-123425845D01*
X137820573Y-123413437D01*
X137902382Y-123388620D01*
X137966145Y-123382340D01*
X137998026Y-123379200D01*
X138861974Y-123379200D01*
X138893855Y-123382340D01*
X138893855Y-123382340D01*
G37*
G36*
X93173855Y-123382340D02*
X93237618Y-123388620D01*
X93319427Y-123413437D01*
X93360333Y-123425845D01*
X93460491Y-123479381D01*
X93473426Y-123486295D01*
X93572553Y-123567647D01*
X93653905Y-123666774D01*
X93653906Y-123666776D01*
X93714355Y-123779867D01*
X93714355Y-123779868D01*
X93751580Y-123902582D01*
X93764149Y-124030200D01*
X93751580Y-124157818D01*
X93730157Y-124228439D01*
X93714355Y-124280533D01*
X93672838Y-124358205D01*
X93653905Y-124393626D01*
X93572553Y-124492753D01*
X93473426Y-124574105D01*
X93473424Y-124574106D01*
X93360333Y-124634555D01*
X93319427Y-124646963D01*
X93237618Y-124671780D01*
X93173855Y-124678060D01*
X93141974Y-124681200D01*
X92278026Y-124681200D01*
X92246145Y-124678060D01*
X92182382Y-124671780D01*
X92100573Y-124646963D01*
X92059667Y-124634555D01*
X91946576Y-124574106D01*
X91946574Y-124574105D01*
X91847447Y-124492753D01*
X91766095Y-124393626D01*
X91747162Y-124358205D01*
X91705645Y-124280533D01*
X91689843Y-124228439D01*
X91668420Y-124157818D01*
X91655851Y-124030200D01*
X91668420Y-123902582D01*
X91705645Y-123779868D01*
X91705645Y-123779867D01*
X91766094Y-123666776D01*
X91766095Y-123666774D01*
X91847447Y-123567647D01*
X91946574Y-123486295D01*
X91959509Y-123479381D01*
X92059667Y-123425845D01*
X92100573Y-123413437D01*
X92182382Y-123388620D01*
X92246145Y-123382340D01*
X92278026Y-123379200D01*
X93141974Y-123379200D01*
X93173855Y-123382340D01*
X93173855Y-123382340D01*
G37*
G36*
X165289000Y-124649000D02*
X163387000Y-124649000D01*
X163387000Y-122747000D01*
X165289000Y-122747000D01*
X165289000Y-124649000D01*
X165289000Y-124649000D01*
G37*
G36*
X167155396Y-122783546D02*
X167328466Y-122855234D01*
X167484230Y-122959312D01*
X167616688Y-123091770D01*
X167720766Y-123247534D01*
X167792454Y-123420604D01*
X167829000Y-123604333D01*
X167829000Y-123791667D01*
X167792454Y-123975396D01*
X167720766Y-124148466D01*
X167616688Y-124304230D01*
X167484230Y-124436688D01*
X167328466Y-124540766D01*
X167155396Y-124612454D01*
X166971667Y-124649000D01*
X166784333Y-124649000D01*
X166600604Y-124612454D01*
X166427534Y-124540766D01*
X166271770Y-124436688D01*
X166139312Y-124304230D01*
X166035234Y-124148466D01*
X165963546Y-123975396D01*
X165927000Y-123791667D01*
X165927000Y-123604333D01*
X165963546Y-123420604D01*
X166035234Y-123247534D01*
X166139312Y-123091770D01*
X166271770Y-122959312D01*
X166427534Y-122855234D01*
X166600604Y-122783546D01*
X166784333Y-122747000D01*
X166971667Y-122747000D01*
X167155396Y-122783546D01*
X167155396Y-122783546D01*
G37*
G36*
X160820200Y-124498200D02*
X159118200Y-124498200D01*
X159118200Y-122796200D01*
X160820200Y-122796200D01*
X160820200Y-124498200D01*
X160820200Y-124498200D01*
G37*
G36*
X152516021Y-122808513D02*
X152516024Y-122808514D01*
X152516025Y-122808514D01*
X152676439Y-122857175D01*
X152676441Y-122857176D01*
X152676444Y-122857177D01*
X152824278Y-122936195D01*
X152953859Y-123042541D01*
X153060205Y-123172122D01*
X153139223Y-123319956D01*
X153139224Y-123319959D01*
X153139225Y-123319961D01*
X153187886Y-123480375D01*
X153187887Y-123480379D01*
X153204317Y-123647200D01*
X153187887Y-123814021D01*
X153187886Y-123814024D01*
X153187886Y-123814025D01*
X153161023Y-123902582D01*
X153139223Y-123974444D01*
X153060205Y-124122278D01*
X152953859Y-124251859D01*
X152824278Y-124358205D01*
X152676444Y-124437223D01*
X152676441Y-124437224D01*
X152676439Y-124437225D01*
X152516025Y-124485886D01*
X152516024Y-124485886D01*
X152516021Y-124485887D01*
X152391004Y-124498200D01*
X152307396Y-124498200D01*
X152182379Y-124485887D01*
X152182376Y-124485886D01*
X152182375Y-124485886D01*
X152021961Y-124437225D01*
X152021959Y-124437224D01*
X152021956Y-124437223D01*
X151874122Y-124358205D01*
X151744541Y-124251859D01*
X151638195Y-124122278D01*
X151559177Y-123974444D01*
X151537378Y-123902582D01*
X151510514Y-123814025D01*
X151510514Y-123814024D01*
X151510513Y-123814021D01*
X151494083Y-123647200D01*
X151510513Y-123480379D01*
X151510514Y-123480375D01*
X151559175Y-123319961D01*
X151559176Y-123319959D01*
X151559177Y-123319956D01*
X151638195Y-123172122D01*
X151744541Y-123042541D01*
X151874122Y-122936195D01*
X152021956Y-122857177D01*
X152021959Y-122857176D01*
X152021961Y-122857175D01*
X152182375Y-122808514D01*
X152182376Y-122808514D01*
X152182379Y-122808513D01*
X152307396Y-122796200D01*
X152391004Y-122796200D01*
X152516021Y-122808513D01*
X152516021Y-122808513D01*
G37*
G36*
X93173855Y-120842340D02*
X93237618Y-120848620D01*
X93319427Y-120873437D01*
X93360333Y-120885845D01*
X93460491Y-120939381D01*
X93473426Y-120946295D01*
X93572553Y-121027647D01*
X93653905Y-121126774D01*
X93653906Y-121126776D01*
X93714355Y-121239867D01*
X93714355Y-121239868D01*
X93751580Y-121362582D01*
X93764149Y-121490200D01*
X93751580Y-121617818D01*
X93726763Y-121699627D01*
X93714355Y-121740533D01*
X93672838Y-121818205D01*
X93653905Y-121853626D01*
X93572553Y-121952753D01*
X93473426Y-122034105D01*
X93473424Y-122034106D01*
X93360333Y-122094555D01*
X93319427Y-122106963D01*
X93237618Y-122131780D01*
X93173855Y-122138060D01*
X93141974Y-122141200D01*
X92278026Y-122141200D01*
X92246145Y-122138060D01*
X92182382Y-122131780D01*
X92100573Y-122106963D01*
X92059667Y-122094555D01*
X91946576Y-122034106D01*
X91946574Y-122034105D01*
X91847447Y-121952753D01*
X91766095Y-121853626D01*
X91747162Y-121818205D01*
X91705645Y-121740533D01*
X91693237Y-121699627D01*
X91668420Y-121617818D01*
X91655851Y-121490200D01*
X91668420Y-121362582D01*
X91705645Y-121239868D01*
X91705645Y-121239867D01*
X91766094Y-121126776D01*
X91766095Y-121126774D01*
X91847447Y-121027647D01*
X91946574Y-120946295D01*
X91959509Y-120939381D01*
X92059667Y-120885845D01*
X92100573Y-120873437D01*
X92182382Y-120848620D01*
X92246145Y-120842340D01*
X92278026Y-120839200D01*
X93141974Y-120839200D01*
X93173855Y-120842340D01*
X93173855Y-120842340D01*
G37*
G36*
X138893855Y-120842340D02*
X138957618Y-120848620D01*
X139039427Y-120873437D01*
X139080333Y-120885845D01*
X139180491Y-120939381D01*
X139193426Y-120946295D01*
X139292553Y-121027647D01*
X139373905Y-121126774D01*
X139373906Y-121126776D01*
X139434355Y-121239867D01*
X139434355Y-121239868D01*
X139471580Y-121362582D01*
X139484149Y-121490200D01*
X139471580Y-121617818D01*
X139446763Y-121699627D01*
X139434355Y-121740533D01*
X139392838Y-121818205D01*
X139373905Y-121853626D01*
X139292553Y-121952753D01*
X139193426Y-122034105D01*
X139193424Y-122034106D01*
X139080333Y-122094555D01*
X139039427Y-122106963D01*
X138957618Y-122131780D01*
X138893855Y-122138060D01*
X138861974Y-122141200D01*
X137998026Y-122141200D01*
X137966145Y-122138060D01*
X137902382Y-122131780D01*
X137820573Y-122106963D01*
X137779667Y-122094555D01*
X137666576Y-122034106D01*
X137666574Y-122034105D01*
X137567447Y-121952753D01*
X137486095Y-121853626D01*
X137467162Y-121818205D01*
X137425645Y-121740533D01*
X137413237Y-121699627D01*
X137388420Y-121617818D01*
X137375851Y-121490200D01*
X137388420Y-121362582D01*
X137425645Y-121239868D01*
X137425645Y-121239867D01*
X137486094Y-121126776D01*
X137486095Y-121126774D01*
X137567447Y-121027647D01*
X137666574Y-120946295D01*
X137679509Y-120939381D01*
X137779667Y-120885845D01*
X137820573Y-120873437D01*
X137902382Y-120848620D01*
X137966145Y-120842340D01*
X137998026Y-120839200D01*
X138861974Y-120839200D01*
X138893855Y-120842340D01*
X138893855Y-120842340D01*
G37*
G36*
X152516021Y-120268513D02*
X152516024Y-120268514D01*
X152516025Y-120268514D01*
X152676439Y-120317175D01*
X152676441Y-120317176D01*
X152676444Y-120317177D01*
X152824278Y-120396195D01*
X152953859Y-120502541D01*
X153060205Y-120632122D01*
X153139223Y-120779956D01*
X153139224Y-120779959D01*
X153139225Y-120779961D01*
X153187886Y-120940375D01*
X153187887Y-120940379D01*
X153204317Y-121107200D01*
X153187887Y-121274021D01*
X153187886Y-121274024D01*
X153187886Y-121274025D01*
X153161023Y-121362582D01*
X153139223Y-121434444D01*
X153060205Y-121582278D01*
X152953859Y-121711859D01*
X152824278Y-121818205D01*
X152676444Y-121897223D01*
X152676441Y-121897224D01*
X152676439Y-121897225D01*
X152516025Y-121945886D01*
X152516024Y-121945886D01*
X152516021Y-121945887D01*
X152391004Y-121958200D01*
X152307396Y-121958200D01*
X152182379Y-121945887D01*
X152182376Y-121945886D01*
X152182375Y-121945886D01*
X152021961Y-121897225D01*
X152021959Y-121897224D01*
X152021956Y-121897223D01*
X151874122Y-121818205D01*
X151744541Y-121711859D01*
X151638195Y-121582278D01*
X151559177Y-121434444D01*
X151537378Y-121362582D01*
X151510514Y-121274025D01*
X151510514Y-121274024D01*
X151510513Y-121274021D01*
X151494083Y-121107200D01*
X151510513Y-120940379D01*
X151510514Y-120940375D01*
X151559175Y-120779961D01*
X151559176Y-120779959D01*
X151559177Y-120779956D01*
X151638195Y-120632122D01*
X151744541Y-120502541D01*
X151874122Y-120396195D01*
X152021956Y-120317177D01*
X152021959Y-120317176D01*
X152021961Y-120317175D01*
X152182375Y-120268514D01*
X152182376Y-120268514D01*
X152182379Y-120268513D01*
X152307396Y-120256200D01*
X152391004Y-120256200D01*
X152516021Y-120268513D01*
X152516021Y-120268513D01*
G37*
G36*
X160136021Y-120268513D02*
X160136024Y-120268514D01*
X160136025Y-120268514D01*
X160296439Y-120317175D01*
X160296441Y-120317176D01*
X160296444Y-120317177D01*
X160444278Y-120396195D01*
X160573859Y-120502541D01*
X160680205Y-120632122D01*
X160759223Y-120779956D01*
X160759224Y-120779959D01*
X160759225Y-120779961D01*
X160807886Y-120940375D01*
X160807887Y-120940379D01*
X160824317Y-121107200D01*
X160807887Y-121274021D01*
X160807886Y-121274024D01*
X160807886Y-121274025D01*
X160781023Y-121362582D01*
X160759223Y-121434444D01*
X160680205Y-121582278D01*
X160573859Y-121711859D01*
X160444278Y-121818205D01*
X160296444Y-121897223D01*
X160296441Y-121897224D01*
X160296439Y-121897225D01*
X160136025Y-121945886D01*
X160136024Y-121945886D01*
X160136021Y-121945887D01*
X160011004Y-121958200D01*
X159927396Y-121958200D01*
X159802379Y-121945887D01*
X159802376Y-121945886D01*
X159802375Y-121945886D01*
X159641961Y-121897225D01*
X159641959Y-121897224D01*
X159641956Y-121897223D01*
X159494122Y-121818205D01*
X159364541Y-121711859D01*
X159258195Y-121582278D01*
X159179177Y-121434444D01*
X159157378Y-121362582D01*
X159130514Y-121274025D01*
X159130514Y-121274024D01*
X159130513Y-121274021D01*
X159114083Y-121107200D01*
X159130513Y-120940379D01*
X159130514Y-120940375D01*
X159179175Y-120779961D01*
X159179176Y-120779959D01*
X159179177Y-120779956D01*
X159258195Y-120632122D01*
X159364541Y-120502541D01*
X159494122Y-120396195D01*
X159641956Y-120317177D01*
X159641959Y-120317176D01*
X159641961Y-120317175D01*
X159802375Y-120268514D01*
X159802376Y-120268514D01*
X159802379Y-120268513D01*
X159927396Y-120256200D01*
X160011004Y-120256200D01*
X160136021Y-120268513D01*
X160136021Y-120268513D01*
G37*
G36*
X204464225Y-118163360D02*
X204464228Y-118163361D01*
X204464229Y-118163361D01*
X204643493Y-118217740D01*
X204643495Y-118217741D01*
X204808705Y-118306048D01*
X204953512Y-118424888D01*
X205072352Y-118569695D01*
X205160659Y-118734905D01*
X205215040Y-118914175D01*
X205233401Y-119100600D01*
X205215040Y-119287025D01*
X205215039Y-119287028D01*
X205215039Y-119287029D01*
X205206972Y-119313624D01*
X205160659Y-119466295D01*
X205072352Y-119631505D01*
X204953512Y-119776312D01*
X204808705Y-119895152D01*
X204808703Y-119895153D01*
X204643493Y-119983460D01*
X204464229Y-120037839D01*
X204464228Y-120037839D01*
X204464225Y-120037840D01*
X204324518Y-120051600D01*
X202431082Y-120051600D01*
X202291375Y-120037840D01*
X202291372Y-120037839D01*
X202291371Y-120037839D01*
X202112107Y-119983460D01*
X201946897Y-119895153D01*
X201946895Y-119895152D01*
X201802088Y-119776312D01*
X201683248Y-119631505D01*
X201594941Y-119466295D01*
X201548629Y-119313624D01*
X201540561Y-119287029D01*
X201540561Y-119287028D01*
X201540560Y-119287025D01*
X201522199Y-119100600D01*
X201540560Y-118914175D01*
X201594941Y-118734905D01*
X201683248Y-118569695D01*
X201802088Y-118424888D01*
X201946895Y-118306048D01*
X202112105Y-118217741D01*
X202112107Y-118217740D01*
X202291371Y-118163361D01*
X202291372Y-118163361D01*
X202291375Y-118163360D01*
X202431082Y-118149600D01*
X204324518Y-118149600D01*
X204464225Y-118163360D01*
X204464225Y-118163360D01*
G37*
G36*
X138893855Y-118302340D02*
X138957618Y-118308620D01*
X139039427Y-118333437D01*
X139080333Y-118345845D01*
X139180491Y-118399381D01*
X139193426Y-118406295D01*
X139292553Y-118487647D01*
X139373905Y-118586774D01*
X139373906Y-118586776D01*
X139434355Y-118699867D01*
X139434355Y-118699868D01*
X139471580Y-118822582D01*
X139484149Y-118950200D01*
X139471580Y-119077818D01*
X139464669Y-119100600D01*
X139434355Y-119200533D01*
X139388124Y-119287025D01*
X139373905Y-119313626D01*
X139292553Y-119412753D01*
X139193426Y-119494105D01*
X139193424Y-119494106D01*
X139080333Y-119554555D01*
X139039427Y-119566963D01*
X138957618Y-119591780D01*
X138893855Y-119598060D01*
X138861974Y-119601200D01*
X137998026Y-119601200D01*
X137966145Y-119598060D01*
X137902382Y-119591780D01*
X137820573Y-119566963D01*
X137779667Y-119554555D01*
X137666576Y-119494106D01*
X137666574Y-119494105D01*
X137567447Y-119412753D01*
X137486095Y-119313626D01*
X137471876Y-119287025D01*
X137425645Y-119200533D01*
X137395331Y-119100600D01*
X137388420Y-119077818D01*
X137375851Y-118950200D01*
X137388420Y-118822582D01*
X137425645Y-118699868D01*
X137425645Y-118699867D01*
X137486094Y-118586776D01*
X137486095Y-118586774D01*
X137567447Y-118487647D01*
X137666574Y-118406295D01*
X137679509Y-118399381D01*
X137779667Y-118345845D01*
X137820573Y-118333437D01*
X137902382Y-118308620D01*
X137966145Y-118302340D01*
X137998026Y-118299200D01*
X138861974Y-118299200D01*
X138893855Y-118302340D01*
X138893855Y-118302340D01*
G37*
G36*
X93173855Y-118302340D02*
X93237618Y-118308620D01*
X93319427Y-118333437D01*
X93360333Y-118345845D01*
X93460491Y-118399381D01*
X93473426Y-118406295D01*
X93572553Y-118487647D01*
X93653905Y-118586774D01*
X93653906Y-118586776D01*
X93714355Y-118699867D01*
X93714355Y-118699868D01*
X93751580Y-118822582D01*
X93764149Y-118950200D01*
X93751580Y-119077818D01*
X93744669Y-119100600D01*
X93714355Y-119200533D01*
X93668124Y-119287025D01*
X93653905Y-119313626D01*
X93572553Y-119412753D01*
X93473426Y-119494105D01*
X93473424Y-119494106D01*
X93360333Y-119554555D01*
X93319427Y-119566963D01*
X93237618Y-119591780D01*
X93173855Y-119598060D01*
X93141974Y-119601200D01*
X92278026Y-119601200D01*
X92246145Y-119598060D01*
X92182382Y-119591780D01*
X92100573Y-119566963D01*
X92059667Y-119554555D01*
X91946576Y-119494106D01*
X91946574Y-119494105D01*
X91847447Y-119412753D01*
X91766095Y-119313626D01*
X91751876Y-119287025D01*
X91705645Y-119200533D01*
X91675331Y-119100600D01*
X91668420Y-119077818D01*
X91655851Y-118950200D01*
X91668420Y-118822582D01*
X91705645Y-118699868D01*
X91705645Y-118699867D01*
X91766094Y-118586776D01*
X91766095Y-118586774D01*
X91847447Y-118487647D01*
X91946574Y-118406295D01*
X91959509Y-118399381D01*
X92059667Y-118345845D01*
X92100573Y-118333437D01*
X92182382Y-118308620D01*
X92246145Y-118302340D01*
X92278026Y-118299200D01*
X93141974Y-118299200D01*
X93173855Y-118302340D01*
X93173855Y-118302340D01*
G37*
G36*
X160820200Y-117691000D02*
X159118200Y-117691000D01*
X159118200Y-115989000D01*
X160820200Y-115989000D01*
X160820200Y-117691000D01*
X160820200Y-117691000D01*
G37*
G36*
X152516021Y-116001313D02*
X152516024Y-116001314D01*
X152516025Y-116001314D01*
X152676439Y-116049975D01*
X152676441Y-116049976D01*
X152676444Y-116049977D01*
X152824278Y-116128995D01*
X152953859Y-116235341D01*
X153060205Y-116364922D01*
X153139223Y-116512756D01*
X153139224Y-116512759D01*
X153139225Y-116512761D01*
X153176852Y-116636800D01*
X153187887Y-116673179D01*
X153204317Y-116840000D01*
X153187887Y-117006821D01*
X153187886Y-117006824D01*
X153187886Y-117006825D01*
X153148075Y-117138066D01*
X153139223Y-117167244D01*
X153060205Y-117315078D01*
X152953859Y-117444659D01*
X152824278Y-117551005D01*
X152676444Y-117630023D01*
X152676441Y-117630024D01*
X152676439Y-117630025D01*
X152516025Y-117678686D01*
X152516024Y-117678686D01*
X152516021Y-117678687D01*
X152391004Y-117691000D01*
X152307396Y-117691000D01*
X152182379Y-117678687D01*
X152182376Y-117678686D01*
X152182375Y-117678686D01*
X152021961Y-117630025D01*
X152021959Y-117630024D01*
X152021956Y-117630023D01*
X151874122Y-117551005D01*
X151744541Y-117444659D01*
X151638195Y-117315078D01*
X151559177Y-117167244D01*
X151550326Y-117138066D01*
X151510514Y-117006825D01*
X151510514Y-117006824D01*
X151510513Y-117006821D01*
X151494083Y-116840000D01*
X151510513Y-116673179D01*
X151521548Y-116636800D01*
X151559175Y-116512761D01*
X151559176Y-116512759D01*
X151559177Y-116512756D01*
X151638195Y-116364922D01*
X151744541Y-116235341D01*
X151874122Y-116128995D01*
X152021956Y-116049977D01*
X152021959Y-116049976D01*
X152021961Y-116049975D01*
X152182375Y-116001314D01*
X152182376Y-116001314D01*
X152182379Y-116001313D01*
X152307396Y-115989000D01*
X152391004Y-115989000D01*
X152516021Y-116001313D01*
X152516021Y-116001313D01*
G37*
G36*
X165289000Y-117638600D02*
X163387000Y-117638600D01*
X163387000Y-115736600D01*
X165289000Y-115736600D01*
X165289000Y-117638600D01*
X165289000Y-117638600D01*
G37*
G36*
X167155396Y-115773146D02*
X167328466Y-115844834D01*
X167484230Y-115948912D01*
X167616688Y-116081370D01*
X167720766Y-116237134D01*
X167792454Y-116410204D01*
X167829000Y-116593933D01*
X167829000Y-116781267D01*
X167792454Y-116964996D01*
X167720766Y-117138066D01*
X167616688Y-117293830D01*
X167484230Y-117426288D01*
X167328466Y-117530366D01*
X167155396Y-117602054D01*
X166971667Y-117638600D01*
X166784333Y-117638600D01*
X166600604Y-117602054D01*
X166427534Y-117530366D01*
X166271770Y-117426288D01*
X166139312Y-117293830D01*
X166035234Y-117138066D01*
X165963546Y-116964996D01*
X165927000Y-116781267D01*
X165927000Y-116593933D01*
X165963546Y-116410204D01*
X166035234Y-116237134D01*
X166139312Y-116081370D01*
X166271770Y-115948912D01*
X166427534Y-115844834D01*
X166600604Y-115773146D01*
X166784333Y-115736600D01*
X166971667Y-115736600D01*
X167155396Y-115773146D01*
X167155396Y-115773146D01*
G37*
G36*
X172582021Y-115798113D02*
X172582024Y-115798114D01*
X172582025Y-115798114D01*
X172742439Y-115846775D01*
X172742441Y-115846776D01*
X172742444Y-115846777D01*
X172890278Y-115925795D01*
X173019859Y-116032141D01*
X173126205Y-116161722D01*
X173205223Y-116309556D01*
X173205224Y-116309559D01*
X173205225Y-116309561D01*
X173253886Y-116469975D01*
X173253887Y-116469979D01*
X173270317Y-116636800D01*
X173253887Y-116803621D01*
X173253886Y-116803624D01*
X173253886Y-116803625D01*
X173229193Y-116885028D01*
X173205223Y-116964044D01*
X173126205Y-117111878D01*
X173019859Y-117241459D01*
X172890278Y-117347805D01*
X172742444Y-117426823D01*
X172742441Y-117426824D01*
X172742439Y-117426825D01*
X172582025Y-117475486D01*
X172582024Y-117475486D01*
X172582021Y-117475487D01*
X172457004Y-117487800D01*
X172373396Y-117487800D01*
X172248379Y-117475487D01*
X172248376Y-117475486D01*
X172248375Y-117475486D01*
X172087961Y-117426825D01*
X172087959Y-117426824D01*
X172087956Y-117426823D01*
X171940122Y-117347805D01*
X171810541Y-117241459D01*
X171704195Y-117111878D01*
X171625177Y-116964044D01*
X171601208Y-116885028D01*
X171576514Y-116803625D01*
X171576514Y-116803624D01*
X171576513Y-116803621D01*
X171560083Y-116636800D01*
X171576513Y-116469979D01*
X171576514Y-116469975D01*
X171625175Y-116309561D01*
X171625176Y-116309559D01*
X171625177Y-116309556D01*
X171704195Y-116161722D01*
X171810541Y-116032141D01*
X171940122Y-115925795D01*
X172087956Y-115846777D01*
X172087959Y-115846776D01*
X172087961Y-115846775D01*
X172248375Y-115798114D01*
X172248376Y-115798114D01*
X172248379Y-115798113D01*
X172373396Y-115785800D01*
X172457004Y-115785800D01*
X172582021Y-115798113D01*
X172582021Y-115798113D01*
G37*
G36*
X185363428Y-115818503D02*
X185518300Y-115882653D01*
X185657681Y-115975785D01*
X185776215Y-116094319D01*
X185869347Y-116233700D01*
X185933497Y-116388572D01*
X185966200Y-116552984D01*
X185966200Y-116720616D01*
X185933497Y-116885028D01*
X185869347Y-117039900D01*
X185776215Y-117179281D01*
X185657681Y-117297815D01*
X185518300Y-117390947D01*
X185363428Y-117455097D01*
X185199016Y-117487800D01*
X185031384Y-117487800D01*
X184866972Y-117455097D01*
X184712100Y-117390947D01*
X184572719Y-117297815D01*
X184454185Y-117179281D01*
X184361053Y-117039900D01*
X184296903Y-116885028D01*
X184264200Y-116720616D01*
X184264200Y-116552984D01*
X184296903Y-116388572D01*
X184361053Y-116233700D01*
X184454185Y-116094319D01*
X184572719Y-115975785D01*
X184712100Y-115882653D01*
X184866972Y-115818503D01*
X185031384Y-115785800D01*
X185199016Y-115785800D01*
X185363428Y-115818503D01*
X185363428Y-115818503D01*
G37*
G36*
X138893855Y-115762340D02*
X138957618Y-115768620D01*
X139039427Y-115793437D01*
X139080333Y-115805845D01*
X139180491Y-115859381D01*
X139193426Y-115866295D01*
X139292553Y-115947647D01*
X139373905Y-116046774D01*
X139373906Y-116046776D01*
X139434355Y-116159867D01*
X139436387Y-116166566D01*
X139471580Y-116282582D01*
X139484149Y-116410200D01*
X139471580Y-116537818D01*
X139454557Y-116593935D01*
X139434355Y-116660533D01*
X139380819Y-116760691D01*
X139373905Y-116773626D01*
X139292553Y-116872753D01*
X139193426Y-116954105D01*
X139193424Y-116954106D01*
X139080333Y-117014555D01*
X139039427Y-117026963D01*
X138957618Y-117051780D01*
X138893855Y-117058060D01*
X138861974Y-117061200D01*
X137998026Y-117061200D01*
X137966145Y-117058060D01*
X137902382Y-117051780D01*
X137820573Y-117026963D01*
X137779667Y-117014555D01*
X137666576Y-116954106D01*
X137666574Y-116954105D01*
X137567447Y-116872753D01*
X137486095Y-116773626D01*
X137479181Y-116760691D01*
X137425645Y-116660533D01*
X137405443Y-116593935D01*
X137388420Y-116537818D01*
X137375851Y-116410200D01*
X137388420Y-116282582D01*
X137423613Y-116166566D01*
X137425645Y-116159867D01*
X137486094Y-116046776D01*
X137486095Y-116046774D01*
X137567447Y-115947647D01*
X137666574Y-115866295D01*
X137679509Y-115859381D01*
X137779667Y-115805845D01*
X137820573Y-115793437D01*
X137902382Y-115768620D01*
X137966145Y-115762340D01*
X137998026Y-115759200D01*
X138861974Y-115759200D01*
X138893855Y-115762340D01*
X138893855Y-115762340D01*
G37*
G36*
X93173855Y-115762340D02*
X93237618Y-115768620D01*
X93319427Y-115793437D01*
X93360333Y-115805845D01*
X93460491Y-115859381D01*
X93473426Y-115866295D01*
X93572553Y-115947647D01*
X93653905Y-116046774D01*
X93653906Y-116046776D01*
X93714355Y-116159867D01*
X93716387Y-116166566D01*
X93751580Y-116282582D01*
X93764149Y-116410200D01*
X93751580Y-116537818D01*
X93734557Y-116593935D01*
X93714355Y-116660533D01*
X93660819Y-116760691D01*
X93653905Y-116773626D01*
X93572553Y-116872753D01*
X93473426Y-116954105D01*
X93473424Y-116954106D01*
X93360333Y-117014555D01*
X93319427Y-117026963D01*
X93237618Y-117051780D01*
X93173855Y-117058060D01*
X93141974Y-117061200D01*
X92278026Y-117061200D01*
X92246145Y-117058060D01*
X92182382Y-117051780D01*
X92100573Y-117026963D01*
X92059667Y-117014555D01*
X91946576Y-116954106D01*
X91946574Y-116954105D01*
X91847447Y-116872753D01*
X91766095Y-116773626D01*
X91759181Y-116760691D01*
X91705645Y-116660533D01*
X91685443Y-116593935D01*
X91668420Y-116537818D01*
X91655851Y-116410200D01*
X91668420Y-116282582D01*
X91703613Y-116166566D01*
X91705645Y-116159867D01*
X91766094Y-116046776D01*
X91766095Y-116046774D01*
X91847447Y-115947647D01*
X91946574Y-115866295D01*
X91959509Y-115859381D01*
X92059667Y-115805845D01*
X92100573Y-115793437D01*
X92182382Y-115768620D01*
X92246145Y-115762340D01*
X92278026Y-115759200D01*
X93141974Y-115759200D01*
X93173855Y-115762340D01*
X93173855Y-115762340D01*
G37*
G36*
X78258894Y-114363833D02*
X78431294Y-114416131D01*
X78431296Y-114416132D01*
X78590183Y-114501059D01*
X78729449Y-114615351D01*
X78843741Y-114754617D01*
X78876098Y-114815153D01*
X78928669Y-114913506D01*
X78980967Y-115085906D01*
X78998625Y-115265200D01*
X78980967Y-115444494D01*
X78928669Y-115616894D01*
X78928668Y-115616896D01*
X78843741Y-115775783D01*
X78729449Y-115915049D01*
X78590183Y-116029341D01*
X78492838Y-116081373D01*
X78431294Y-116114269D01*
X78258894Y-116166567D01*
X78124531Y-116179800D01*
X78034669Y-116179800D01*
X77900306Y-116166567D01*
X77727906Y-116114269D01*
X77666362Y-116081373D01*
X77569017Y-116029341D01*
X77429751Y-115915049D01*
X77315459Y-115775783D01*
X77230532Y-115616896D01*
X77230531Y-115616894D01*
X77178233Y-115444494D01*
X77160575Y-115265200D01*
X77178233Y-115085906D01*
X77230531Y-114913506D01*
X77283102Y-114815153D01*
X77315459Y-114754617D01*
X77429751Y-114615351D01*
X77569017Y-114501059D01*
X77727904Y-114416132D01*
X77727906Y-114416131D01*
X77900306Y-114363833D01*
X78034669Y-114350600D01*
X78124531Y-114350600D01*
X78258894Y-114363833D01*
X78258894Y-114363833D01*
G37*
G36*
X80798894Y-114363833D02*
X80971294Y-114416131D01*
X80971296Y-114416132D01*
X81130183Y-114501059D01*
X81269449Y-114615351D01*
X81383741Y-114754617D01*
X81416098Y-114815153D01*
X81468669Y-114913506D01*
X81520967Y-115085906D01*
X81538625Y-115265200D01*
X81520967Y-115444494D01*
X81468669Y-115616894D01*
X81468668Y-115616896D01*
X81383741Y-115775783D01*
X81269449Y-115915049D01*
X81130183Y-116029341D01*
X81032838Y-116081373D01*
X80971294Y-116114269D01*
X80798894Y-116166567D01*
X80664531Y-116179800D01*
X80574669Y-116179800D01*
X80440306Y-116166567D01*
X80267906Y-116114269D01*
X80206362Y-116081373D01*
X80109017Y-116029341D01*
X79969751Y-115915049D01*
X79855459Y-115775783D01*
X79770532Y-115616896D01*
X79770531Y-115616894D01*
X79718233Y-115444494D01*
X79700575Y-115265200D01*
X79718233Y-115085906D01*
X79770531Y-114913506D01*
X79823102Y-114815153D01*
X79855459Y-114754617D01*
X79969751Y-114615351D01*
X80109017Y-114501059D01*
X80267904Y-114416132D01*
X80267906Y-114416131D01*
X80440306Y-114363833D01*
X80574669Y-114350600D01*
X80664531Y-114350600D01*
X80798894Y-114363833D01*
X80798894Y-114363833D01*
G37*
G36*
X152516021Y-113461313D02*
X152516024Y-113461314D01*
X152516025Y-113461314D01*
X152676439Y-113509975D01*
X152676441Y-113509976D01*
X152676444Y-113509977D01*
X152824278Y-113588995D01*
X152953859Y-113695341D01*
X153060205Y-113824922D01*
X153139223Y-113972756D01*
X153139224Y-113972759D01*
X153139225Y-113972761D01*
X153184051Y-114120532D01*
X153187887Y-114133179D01*
X153204317Y-114300000D01*
X153187887Y-114466821D01*
X153187886Y-114466824D01*
X153187886Y-114466825D01*
X153162199Y-114551505D01*
X153139223Y-114627244D01*
X153060205Y-114775078D01*
X152953859Y-114904659D01*
X152824278Y-115011005D01*
X152676444Y-115090023D01*
X152676441Y-115090024D01*
X152676439Y-115090025D01*
X152516025Y-115138686D01*
X152516024Y-115138686D01*
X152516021Y-115138687D01*
X152391004Y-115151000D01*
X152307396Y-115151000D01*
X152182379Y-115138687D01*
X152182376Y-115138686D01*
X152182375Y-115138686D01*
X152021961Y-115090025D01*
X152021959Y-115090024D01*
X152021956Y-115090023D01*
X151874122Y-115011005D01*
X151744541Y-114904659D01*
X151638195Y-114775078D01*
X151559177Y-114627244D01*
X151536202Y-114551505D01*
X151510514Y-114466825D01*
X151510514Y-114466824D01*
X151510513Y-114466821D01*
X151494083Y-114300000D01*
X151510513Y-114133179D01*
X151514349Y-114120532D01*
X151559175Y-113972761D01*
X151559176Y-113972759D01*
X151559177Y-113972756D01*
X151638195Y-113824922D01*
X151744541Y-113695341D01*
X151874122Y-113588995D01*
X152021956Y-113509977D01*
X152021959Y-113509976D01*
X152021961Y-113509975D01*
X152182375Y-113461314D01*
X152182376Y-113461314D01*
X152182379Y-113461313D01*
X152307396Y-113449000D01*
X152391004Y-113449000D01*
X152516021Y-113461313D01*
X152516021Y-113461313D01*
G37*
G36*
X160136021Y-113461313D02*
X160136024Y-113461314D01*
X160136025Y-113461314D01*
X160296439Y-113509975D01*
X160296441Y-113509976D01*
X160296444Y-113509977D01*
X160444278Y-113588995D01*
X160573859Y-113695341D01*
X160680205Y-113824922D01*
X160759223Y-113972756D01*
X160759224Y-113972759D01*
X160759225Y-113972761D01*
X160804051Y-114120532D01*
X160807887Y-114133179D01*
X160824317Y-114300000D01*
X160807887Y-114466821D01*
X160807886Y-114466824D01*
X160807886Y-114466825D01*
X160782199Y-114551505D01*
X160759223Y-114627244D01*
X160680205Y-114775078D01*
X160573859Y-114904659D01*
X160444278Y-115011005D01*
X160296444Y-115090023D01*
X160296441Y-115090024D01*
X160296439Y-115090025D01*
X160136025Y-115138686D01*
X160136024Y-115138686D01*
X160136021Y-115138687D01*
X160011004Y-115151000D01*
X159927396Y-115151000D01*
X159802379Y-115138687D01*
X159802376Y-115138686D01*
X159802375Y-115138686D01*
X159641961Y-115090025D01*
X159641959Y-115090024D01*
X159641956Y-115090023D01*
X159494122Y-115011005D01*
X159364541Y-114904659D01*
X159258195Y-114775078D01*
X159179177Y-114627244D01*
X159156202Y-114551505D01*
X159130514Y-114466825D01*
X159130514Y-114466824D01*
X159130513Y-114466821D01*
X159114083Y-114300000D01*
X159130513Y-114133179D01*
X159134349Y-114120532D01*
X159179175Y-113972761D01*
X159179176Y-113972759D01*
X159179177Y-113972756D01*
X159258195Y-113824922D01*
X159364541Y-113695341D01*
X159494122Y-113588995D01*
X159641956Y-113509977D01*
X159641959Y-113509976D01*
X159641961Y-113509975D01*
X159802375Y-113461314D01*
X159802376Y-113461314D01*
X159802379Y-113461313D01*
X159927396Y-113449000D01*
X160011004Y-113449000D01*
X160136021Y-113461313D01*
X160136021Y-113461313D01*
G37*
G36*
X204464225Y-113083360D02*
X204464228Y-113083361D01*
X204464229Y-113083361D01*
X204643493Y-113137740D01*
X204643495Y-113137741D01*
X204808705Y-113226048D01*
X204953512Y-113344888D01*
X205072352Y-113489695D01*
X205160659Y-113654905D01*
X205215040Y-113834175D01*
X205233401Y-114020600D01*
X205215040Y-114207025D01*
X205215039Y-114207028D01*
X205215039Y-114207029D01*
X205167473Y-114363834D01*
X205160659Y-114386295D01*
X205072352Y-114551505D01*
X204953512Y-114696312D01*
X204808705Y-114815152D01*
X204808703Y-114815153D01*
X204643493Y-114903460D01*
X204464229Y-114957839D01*
X204464228Y-114957839D01*
X204464225Y-114957840D01*
X204324518Y-114971600D01*
X202431082Y-114971600D01*
X202291375Y-114957840D01*
X202291372Y-114957839D01*
X202291371Y-114957839D01*
X202112107Y-114903460D01*
X201946897Y-114815153D01*
X201946895Y-114815152D01*
X201802088Y-114696312D01*
X201683248Y-114551505D01*
X201594941Y-114386295D01*
X201588128Y-114363834D01*
X201540561Y-114207029D01*
X201540561Y-114207028D01*
X201540560Y-114207025D01*
X201522199Y-114020600D01*
X201540560Y-113834175D01*
X201594941Y-113654905D01*
X201683248Y-113489695D01*
X201802088Y-113344888D01*
X201946895Y-113226048D01*
X202112105Y-113137741D01*
X202112107Y-113137740D01*
X202291371Y-113083361D01*
X202291372Y-113083361D01*
X202291375Y-113083360D01*
X202431082Y-113069600D01*
X204324518Y-113069600D01*
X204464225Y-113083360D01*
X204464225Y-113083360D01*
G37*
G36*
X93173855Y-113222340D02*
X93237618Y-113228620D01*
X93319427Y-113253437D01*
X93360333Y-113265845D01*
X93460491Y-113319381D01*
X93473426Y-113326295D01*
X93572553Y-113407647D01*
X93653905Y-113506774D01*
X93653906Y-113506776D01*
X93714355Y-113619867D01*
X93714355Y-113619868D01*
X93751580Y-113742582D01*
X93764149Y-113870200D01*
X93751580Y-113997818D01*
X93744669Y-114020600D01*
X93714355Y-114120533D01*
X93668124Y-114207025D01*
X93653905Y-114233626D01*
X93572553Y-114332753D01*
X93473426Y-114414105D01*
X93473424Y-114414106D01*
X93360333Y-114474555D01*
X93319427Y-114486963D01*
X93237618Y-114511780D01*
X93173855Y-114518060D01*
X93141974Y-114521200D01*
X92278026Y-114521200D01*
X92246145Y-114518060D01*
X92182382Y-114511780D01*
X92100573Y-114486963D01*
X92059667Y-114474555D01*
X91946576Y-114414106D01*
X91946574Y-114414105D01*
X91847447Y-114332753D01*
X91766095Y-114233626D01*
X91751876Y-114207025D01*
X91705645Y-114120533D01*
X91675331Y-114020600D01*
X91668420Y-113997818D01*
X91655851Y-113870200D01*
X91668420Y-113742582D01*
X91705645Y-113619868D01*
X91705645Y-113619867D01*
X91766094Y-113506776D01*
X91766095Y-113506774D01*
X91847447Y-113407647D01*
X91946574Y-113326295D01*
X91959509Y-113319381D01*
X92059667Y-113265845D01*
X92100573Y-113253437D01*
X92182382Y-113228620D01*
X92246145Y-113222340D01*
X92278026Y-113219200D01*
X93141974Y-113219200D01*
X93173855Y-113222340D01*
X93173855Y-113222340D01*
G37*
G36*
X138893855Y-113222340D02*
X138957618Y-113228620D01*
X139039427Y-113253437D01*
X139080333Y-113265845D01*
X139180491Y-113319381D01*
X139193426Y-113326295D01*
X139292553Y-113407647D01*
X139373905Y-113506774D01*
X139373906Y-113506776D01*
X139434355Y-113619867D01*
X139434355Y-113619868D01*
X139471580Y-113742582D01*
X139484149Y-113870200D01*
X139471580Y-113997818D01*
X139464669Y-114020600D01*
X139434355Y-114120533D01*
X139388124Y-114207025D01*
X139373905Y-114233626D01*
X139292553Y-114332753D01*
X139193426Y-114414105D01*
X139193424Y-114414106D01*
X139080333Y-114474555D01*
X139039427Y-114486963D01*
X138957618Y-114511780D01*
X138893855Y-114518060D01*
X138861974Y-114521200D01*
X137998026Y-114521200D01*
X137966145Y-114518060D01*
X137902382Y-114511780D01*
X137820573Y-114486963D01*
X137779667Y-114474555D01*
X137666576Y-114414106D01*
X137666574Y-114414105D01*
X137567447Y-114332753D01*
X137486095Y-114233626D01*
X137471876Y-114207025D01*
X137425645Y-114120533D01*
X137395331Y-114020600D01*
X137388420Y-113997818D01*
X137375851Y-113870200D01*
X137388420Y-113742582D01*
X137425645Y-113619868D01*
X137425645Y-113619867D01*
X137486094Y-113506776D01*
X137486095Y-113506774D01*
X137567447Y-113407647D01*
X137666574Y-113326295D01*
X137679509Y-113319381D01*
X137779667Y-113265845D01*
X137820573Y-113253437D01*
X137902382Y-113228620D01*
X137966145Y-113222340D01*
X137998026Y-113219200D01*
X138861974Y-113219200D01*
X138893855Y-113222340D01*
X138893855Y-113222340D01*
G37*
G36*
X78258894Y-111823833D02*
X78431294Y-111876131D01*
X78431296Y-111876132D01*
X78590183Y-111961059D01*
X78614725Y-111981200D01*
X78729449Y-112075351D01*
X78843740Y-112214616D01*
X78928669Y-112373506D01*
X78980967Y-112545906D01*
X78998625Y-112725200D01*
X78980967Y-112904494D01*
X78928669Y-113076894D01*
X78928668Y-113076896D01*
X78843741Y-113235783D01*
X78729449Y-113375049D01*
X78590183Y-113489341D01*
X78431296Y-113574268D01*
X78431294Y-113574269D01*
X78258894Y-113626567D01*
X78124531Y-113639800D01*
X78034669Y-113639800D01*
X77900306Y-113626567D01*
X77727906Y-113574269D01*
X77727904Y-113574268D01*
X77569017Y-113489341D01*
X77429751Y-113375049D01*
X77315459Y-113235783D01*
X77230532Y-113076896D01*
X77230531Y-113076894D01*
X77178233Y-112904494D01*
X77160575Y-112725200D01*
X77178233Y-112545906D01*
X77230531Y-112373506D01*
X77315460Y-112214616D01*
X77429751Y-112075351D01*
X77544475Y-111981200D01*
X77569017Y-111961059D01*
X77727904Y-111876132D01*
X77727906Y-111876131D01*
X77900306Y-111823833D01*
X78034669Y-111810600D01*
X78124531Y-111810600D01*
X78258894Y-111823833D01*
X78258894Y-111823833D01*
G37*
G36*
X80798894Y-111823833D02*
X80971294Y-111876131D01*
X80971296Y-111876132D01*
X81130183Y-111961059D01*
X81154725Y-111981200D01*
X81269449Y-112075351D01*
X81383740Y-112214616D01*
X81468669Y-112373506D01*
X81520967Y-112545906D01*
X81538625Y-112725200D01*
X81520967Y-112904494D01*
X81468669Y-113076894D01*
X81468668Y-113076896D01*
X81383741Y-113235783D01*
X81269449Y-113375049D01*
X81130183Y-113489341D01*
X80971296Y-113574268D01*
X80971294Y-113574269D01*
X80798894Y-113626567D01*
X80664531Y-113639800D01*
X80574669Y-113639800D01*
X80440306Y-113626567D01*
X80267906Y-113574269D01*
X80267904Y-113574268D01*
X80109017Y-113489341D01*
X79969751Y-113375049D01*
X79855459Y-113235783D01*
X79770532Y-113076896D01*
X79770531Y-113076894D01*
X79718233Y-112904494D01*
X79700575Y-112725200D01*
X79718233Y-112545906D01*
X79770531Y-112373506D01*
X79855460Y-112214616D01*
X79969751Y-112075351D01*
X80084475Y-111981200D01*
X80109017Y-111961059D01*
X80267904Y-111876132D01*
X80267906Y-111876131D01*
X80440306Y-111823833D01*
X80574669Y-111810600D01*
X80664531Y-111810600D01*
X80798894Y-111823833D01*
X80798894Y-111823833D01*
G37*
G36*
X93156188Y-110680600D02*
X93237618Y-110688620D01*
X93319427Y-110713437D01*
X93360333Y-110725845D01*
X93446725Y-110772023D01*
X93473426Y-110786295D01*
X93572553Y-110867647D01*
X93653905Y-110966774D01*
X93653906Y-110966776D01*
X93714355Y-111079867D01*
X93714355Y-111079868D01*
X93751580Y-111202582D01*
X93764149Y-111330200D01*
X93751580Y-111457818D01*
X93726763Y-111539627D01*
X93714355Y-111580533D01*
X93660819Y-111680691D01*
X93653905Y-111693626D01*
X93572553Y-111792753D01*
X93473426Y-111874105D01*
X93473424Y-111874106D01*
X93360333Y-111934555D01*
X93319427Y-111946963D01*
X93237618Y-111971780D01*
X93173855Y-111978060D01*
X93141974Y-111981200D01*
X92278026Y-111981200D01*
X92246145Y-111978060D01*
X92182382Y-111971780D01*
X92100573Y-111946963D01*
X92059667Y-111934555D01*
X91946576Y-111874106D01*
X91946574Y-111874105D01*
X91847447Y-111792753D01*
X91766095Y-111693626D01*
X91759181Y-111680691D01*
X91705645Y-111580533D01*
X91693237Y-111539627D01*
X91668420Y-111457818D01*
X91655851Y-111330200D01*
X91668420Y-111202582D01*
X91705645Y-111079868D01*
X91705645Y-111079867D01*
X91766094Y-110966776D01*
X91766095Y-110966774D01*
X91847447Y-110867647D01*
X91946574Y-110786295D01*
X91973275Y-110772023D01*
X92059667Y-110725845D01*
X92100573Y-110713437D01*
X92182382Y-110688620D01*
X92263812Y-110680600D01*
X92278026Y-110679200D01*
X93141974Y-110679200D01*
X93156188Y-110680600D01*
X93156188Y-110680600D01*
G37*
G36*
X138876188Y-110680600D02*
X138957618Y-110688620D01*
X139039427Y-110713437D01*
X139080333Y-110725845D01*
X139166725Y-110772023D01*
X139193426Y-110786295D01*
X139292553Y-110867647D01*
X139373905Y-110966774D01*
X139373906Y-110966776D01*
X139434355Y-111079867D01*
X139434355Y-111079868D01*
X139471580Y-111202582D01*
X139484149Y-111330200D01*
X139471580Y-111457818D01*
X139446763Y-111539627D01*
X139434355Y-111580533D01*
X139380819Y-111680691D01*
X139373905Y-111693626D01*
X139292553Y-111792753D01*
X139193426Y-111874105D01*
X139193424Y-111874106D01*
X139080333Y-111934555D01*
X139039427Y-111946963D01*
X138957618Y-111971780D01*
X138893855Y-111978060D01*
X138861974Y-111981200D01*
X137998026Y-111981200D01*
X137966145Y-111978060D01*
X137902382Y-111971780D01*
X137820573Y-111946963D01*
X137779667Y-111934555D01*
X137666576Y-111874106D01*
X137666574Y-111874105D01*
X137567447Y-111792753D01*
X137486095Y-111693626D01*
X137479181Y-111680691D01*
X137425645Y-111580533D01*
X137413237Y-111539627D01*
X137388420Y-111457818D01*
X137375851Y-111330200D01*
X137388420Y-111202582D01*
X137425645Y-111079868D01*
X137425645Y-111079867D01*
X137486094Y-110966776D01*
X137486095Y-110966774D01*
X137567447Y-110867647D01*
X137666574Y-110786295D01*
X137693275Y-110772023D01*
X137779667Y-110725845D01*
X137820573Y-110713437D01*
X137902382Y-110688620D01*
X137983812Y-110680600D01*
X137998026Y-110679200D01*
X138861974Y-110679200D01*
X138876188Y-110680600D01*
X138876188Y-110680600D01*
G37*
G36*
X80798894Y-109283833D02*
X80971294Y-109336131D01*
X80971296Y-109336132D01*
X81130183Y-109421059D01*
X81269449Y-109535351D01*
X81383741Y-109674617D01*
X81443668Y-109786733D01*
X81468669Y-109833506D01*
X81520967Y-110005906D01*
X81538625Y-110185200D01*
X81520967Y-110364494D01*
X81468669Y-110536894D01*
X81468668Y-110536896D01*
X81383741Y-110695783D01*
X81269449Y-110835049D01*
X81130183Y-110949341D01*
X81097564Y-110966776D01*
X80971294Y-111034269D01*
X80798894Y-111086567D01*
X80664531Y-111099800D01*
X80574669Y-111099800D01*
X80440306Y-111086567D01*
X80267906Y-111034269D01*
X80141636Y-110966776D01*
X80109017Y-110949341D01*
X79969751Y-110835049D01*
X79855459Y-110695783D01*
X79770532Y-110536896D01*
X79770531Y-110536894D01*
X79718233Y-110364494D01*
X79700575Y-110185200D01*
X79718233Y-110005906D01*
X79770531Y-109833506D01*
X79795532Y-109786733D01*
X79855459Y-109674617D01*
X79969751Y-109535351D01*
X80109017Y-109421059D01*
X80267904Y-109336132D01*
X80267906Y-109336131D01*
X80440306Y-109283833D01*
X80574669Y-109270600D01*
X80664531Y-109270600D01*
X80798894Y-109283833D01*
X80798894Y-109283833D01*
G37*
G36*
X78258894Y-109283833D02*
X78431294Y-109336131D01*
X78431296Y-109336132D01*
X78590183Y-109421059D01*
X78729449Y-109535351D01*
X78843741Y-109674617D01*
X78903668Y-109786733D01*
X78928669Y-109833506D01*
X78980967Y-110005906D01*
X78998625Y-110185200D01*
X78980967Y-110364494D01*
X78928669Y-110536894D01*
X78928668Y-110536896D01*
X78843741Y-110695783D01*
X78729449Y-110835049D01*
X78590183Y-110949341D01*
X78557564Y-110966776D01*
X78431294Y-111034269D01*
X78258894Y-111086567D01*
X78124531Y-111099800D01*
X78034669Y-111099800D01*
X77900306Y-111086567D01*
X77727906Y-111034269D01*
X77601636Y-110966776D01*
X77569017Y-110949341D01*
X77429751Y-110835049D01*
X77315459Y-110695783D01*
X77230532Y-110536896D01*
X77230531Y-110536894D01*
X77178233Y-110364494D01*
X77160575Y-110185200D01*
X77178233Y-110005906D01*
X77230531Y-109833506D01*
X77255532Y-109786733D01*
X77315459Y-109674617D01*
X77429751Y-109535351D01*
X77569017Y-109421059D01*
X77727904Y-109336132D01*
X77727906Y-109336131D01*
X77900306Y-109283833D01*
X78034669Y-109270600D01*
X78124531Y-109270600D01*
X78258894Y-109283833D01*
X78258894Y-109283833D01*
G37*
G36*
X160820200Y-110833000D02*
X159118200Y-110833000D01*
X159118200Y-109131000D01*
X160820200Y-109131000D01*
X160820200Y-110833000D01*
X160820200Y-110833000D01*
G37*
G36*
X152516021Y-109143313D02*
X152516024Y-109143314D01*
X152516025Y-109143314D01*
X152676439Y-109191975D01*
X152676441Y-109191976D01*
X152676444Y-109191977D01*
X152824278Y-109270995D01*
X152953859Y-109377341D01*
X153060205Y-109506922D01*
X153139223Y-109654756D01*
X153139224Y-109654759D01*
X153139225Y-109654761D01*
X153166836Y-109745784D01*
X153187887Y-109815179D01*
X153204317Y-109982000D01*
X153187887Y-110148821D01*
X153187886Y-110148824D01*
X153187886Y-110148825D01*
X153140609Y-110304678D01*
X153139223Y-110309244D01*
X153060205Y-110457078D01*
X152953859Y-110586659D01*
X152824278Y-110693005D01*
X152676444Y-110772023D01*
X152676441Y-110772024D01*
X152676439Y-110772025D01*
X152516025Y-110820686D01*
X152516024Y-110820686D01*
X152516021Y-110820687D01*
X152391004Y-110833000D01*
X152307396Y-110833000D01*
X152182379Y-110820687D01*
X152182376Y-110820686D01*
X152182375Y-110820686D01*
X152021961Y-110772025D01*
X152021959Y-110772024D01*
X152021956Y-110772023D01*
X151874122Y-110693005D01*
X151744541Y-110586659D01*
X151638195Y-110457078D01*
X151559177Y-110309244D01*
X151557792Y-110304678D01*
X151510514Y-110148825D01*
X151510514Y-110148824D01*
X151510513Y-110148821D01*
X151494083Y-109982000D01*
X151510513Y-109815179D01*
X151531564Y-109745784D01*
X151559175Y-109654761D01*
X151559176Y-109654759D01*
X151559177Y-109654756D01*
X151638195Y-109506922D01*
X151744541Y-109377341D01*
X151874122Y-109270995D01*
X152021956Y-109191977D01*
X152021959Y-109191976D01*
X152021961Y-109191975D01*
X152182375Y-109143314D01*
X152182376Y-109143314D01*
X152182379Y-109143313D01*
X152307396Y-109131000D01*
X152391004Y-109131000D01*
X152516021Y-109143313D01*
X152516021Y-109143313D01*
G37*
G36*
X167155396Y-108965946D02*
X167328466Y-109037634D01*
X167484230Y-109141712D01*
X167616688Y-109274170D01*
X167720766Y-109429934D01*
X167792454Y-109603004D01*
X167829000Y-109786733D01*
X167829000Y-109974067D01*
X167792454Y-110157796D01*
X167720766Y-110330866D01*
X167616688Y-110486630D01*
X167484230Y-110619088D01*
X167328466Y-110723166D01*
X167155396Y-110794854D01*
X166971667Y-110831400D01*
X166784333Y-110831400D01*
X166600604Y-110794854D01*
X166427534Y-110723166D01*
X166271770Y-110619088D01*
X166139312Y-110486630D01*
X166035234Y-110330866D01*
X165963546Y-110157796D01*
X165927000Y-109974067D01*
X165927000Y-109786733D01*
X165963546Y-109603004D01*
X166035234Y-109429934D01*
X166139312Y-109274170D01*
X166271770Y-109141712D01*
X166427534Y-109037634D01*
X166600604Y-108965946D01*
X166784333Y-108929400D01*
X166971667Y-108929400D01*
X167155396Y-108965946D01*
X167155396Y-108965946D01*
G37*
G36*
X165289000Y-110831400D02*
X163387000Y-110831400D01*
X163387000Y-108929400D01*
X165289000Y-108929400D01*
X165289000Y-110831400D01*
X165289000Y-110831400D01*
G37*
G36*
X185363428Y-109011303D02*
X185518300Y-109075453D01*
X185657681Y-109168585D01*
X185776215Y-109287119D01*
X185869347Y-109426500D01*
X185933497Y-109581372D01*
X185966200Y-109745784D01*
X185966200Y-109913416D01*
X185933497Y-110077828D01*
X185869347Y-110232700D01*
X185776215Y-110372081D01*
X185657681Y-110490615D01*
X185518300Y-110583747D01*
X185363428Y-110647897D01*
X185199016Y-110680600D01*
X185031384Y-110680600D01*
X184866972Y-110647897D01*
X184712100Y-110583747D01*
X184572719Y-110490615D01*
X184454185Y-110372081D01*
X184361053Y-110232700D01*
X184296903Y-110077828D01*
X184264200Y-109913416D01*
X184264200Y-109745784D01*
X184296903Y-109581372D01*
X184361053Y-109426500D01*
X184454185Y-109287119D01*
X184572719Y-109168585D01*
X184712100Y-109075453D01*
X184866972Y-109011303D01*
X185031384Y-108978600D01*
X185199016Y-108978600D01*
X185363428Y-109011303D01*
X185363428Y-109011303D01*
G37*
G36*
X172582021Y-108990913D02*
X172582024Y-108990914D01*
X172582025Y-108990914D01*
X172742439Y-109039575D01*
X172742441Y-109039576D01*
X172742444Y-109039577D01*
X172890278Y-109118595D01*
X173019859Y-109224941D01*
X173126205Y-109354522D01*
X173205223Y-109502356D01*
X173205224Y-109502359D01*
X173205225Y-109502361D01*
X173251453Y-109654756D01*
X173253887Y-109662779D01*
X173270317Y-109829600D01*
X173253887Y-109996421D01*
X173253886Y-109996424D01*
X173253886Y-109996425D01*
X173229193Y-110077828D01*
X173205223Y-110156844D01*
X173126205Y-110304678D01*
X173019859Y-110434259D01*
X172890278Y-110540605D01*
X172742444Y-110619623D01*
X172742441Y-110619624D01*
X172742439Y-110619625D01*
X172582025Y-110668286D01*
X172582024Y-110668286D01*
X172582021Y-110668287D01*
X172457004Y-110680600D01*
X172373396Y-110680600D01*
X172248379Y-110668287D01*
X172248376Y-110668286D01*
X172248375Y-110668286D01*
X172087961Y-110619625D01*
X172087959Y-110619624D01*
X172087956Y-110619623D01*
X171940122Y-110540605D01*
X171810541Y-110434259D01*
X171704195Y-110304678D01*
X171625177Y-110156844D01*
X171601208Y-110077828D01*
X171576514Y-109996425D01*
X171576514Y-109996424D01*
X171576513Y-109996421D01*
X171560083Y-109829600D01*
X171576513Y-109662779D01*
X171578947Y-109654756D01*
X171625175Y-109502361D01*
X171625176Y-109502359D01*
X171625177Y-109502356D01*
X171704195Y-109354522D01*
X171810541Y-109224941D01*
X171940122Y-109118595D01*
X172087956Y-109039577D01*
X172087959Y-109039576D01*
X172087961Y-109039575D01*
X172248375Y-108990914D01*
X172248376Y-108990914D01*
X172248379Y-108990913D01*
X172373396Y-108978600D01*
X172457004Y-108978600D01*
X172582021Y-108990913D01*
X172582021Y-108990913D01*
G37*
G36*
X204464225Y-108003360D02*
X204464228Y-108003361D01*
X204464229Y-108003361D01*
X204643493Y-108057740D01*
X204643495Y-108057741D01*
X204808705Y-108146048D01*
X204953512Y-108264888D01*
X205072352Y-108409695D01*
X205160659Y-108574905D01*
X205215040Y-108754175D01*
X205233401Y-108940600D01*
X205215040Y-109127025D01*
X205215039Y-109127028D01*
X205215039Y-109127029D01*
X205167473Y-109283834D01*
X205160659Y-109306295D01*
X205072352Y-109471505D01*
X204953512Y-109616312D01*
X204808705Y-109735152D01*
X204808703Y-109735153D01*
X204643493Y-109823460D01*
X204464229Y-109877839D01*
X204464228Y-109877839D01*
X204464225Y-109877840D01*
X204324518Y-109891600D01*
X202431082Y-109891600D01*
X202291375Y-109877840D01*
X202291372Y-109877839D01*
X202291371Y-109877839D01*
X202112107Y-109823460D01*
X201946897Y-109735153D01*
X201946895Y-109735152D01*
X201802088Y-109616312D01*
X201683248Y-109471505D01*
X201594941Y-109306295D01*
X201588128Y-109283834D01*
X201540561Y-109127029D01*
X201540561Y-109127028D01*
X201540560Y-109127025D01*
X201522199Y-108940600D01*
X201540560Y-108754175D01*
X201594941Y-108574905D01*
X201683248Y-108409695D01*
X201802088Y-108264888D01*
X201946895Y-108146048D01*
X202112105Y-108057741D01*
X202112107Y-108057740D01*
X202291371Y-108003361D01*
X202291372Y-108003361D01*
X202291375Y-108003360D01*
X202431082Y-107989600D01*
X204324518Y-107989600D01*
X204464225Y-108003360D01*
X204464225Y-108003360D01*
G37*
G36*
X138893855Y-108142340D02*
X138957618Y-108148620D01*
X139039427Y-108173437D01*
X139080333Y-108185845D01*
X139166725Y-108232023D01*
X139193426Y-108246295D01*
X139292553Y-108327647D01*
X139373905Y-108426774D01*
X139373906Y-108426776D01*
X139434355Y-108539867D01*
X139434355Y-108539868D01*
X139471580Y-108662582D01*
X139484149Y-108790200D01*
X139471580Y-108917818D01*
X139446763Y-108999627D01*
X139434355Y-109040533D01*
X139392629Y-109118596D01*
X139373905Y-109153626D01*
X139292553Y-109252753D01*
X139193426Y-109334105D01*
X139193424Y-109334106D01*
X139080333Y-109394555D01*
X139039427Y-109406963D01*
X138957618Y-109431780D01*
X138893855Y-109438060D01*
X138861974Y-109441200D01*
X137998026Y-109441200D01*
X137966145Y-109438060D01*
X137902382Y-109431780D01*
X137820573Y-109406963D01*
X137779667Y-109394555D01*
X137666576Y-109334106D01*
X137666574Y-109334105D01*
X137567447Y-109252753D01*
X137486095Y-109153626D01*
X137467371Y-109118596D01*
X137425645Y-109040533D01*
X137413237Y-108999627D01*
X137388420Y-108917818D01*
X137375851Y-108790200D01*
X137388420Y-108662582D01*
X137425645Y-108539868D01*
X137425645Y-108539867D01*
X137486094Y-108426776D01*
X137486095Y-108426774D01*
X137567447Y-108327647D01*
X137666574Y-108246295D01*
X137693275Y-108232023D01*
X137779667Y-108185845D01*
X137820573Y-108173437D01*
X137902382Y-108148620D01*
X137966145Y-108142340D01*
X137998026Y-108139200D01*
X138861974Y-108139200D01*
X138893855Y-108142340D01*
X138893855Y-108142340D01*
G37*
G36*
X93173855Y-108142340D02*
X93237618Y-108148620D01*
X93319427Y-108173437D01*
X93360333Y-108185845D01*
X93446725Y-108232023D01*
X93473426Y-108246295D01*
X93572553Y-108327647D01*
X93653905Y-108426774D01*
X93653906Y-108426776D01*
X93714355Y-108539867D01*
X93714355Y-108539868D01*
X93751580Y-108662582D01*
X93764149Y-108790200D01*
X93751580Y-108917818D01*
X93726763Y-108999627D01*
X93714355Y-109040533D01*
X93672629Y-109118596D01*
X93653905Y-109153626D01*
X93572553Y-109252753D01*
X93473426Y-109334105D01*
X93473424Y-109334106D01*
X93360333Y-109394555D01*
X93319427Y-109406963D01*
X93237618Y-109431780D01*
X93173855Y-109438060D01*
X93141974Y-109441200D01*
X92278026Y-109441200D01*
X92246145Y-109438060D01*
X92182382Y-109431780D01*
X92100573Y-109406963D01*
X92059667Y-109394555D01*
X91946576Y-109334106D01*
X91946574Y-109334105D01*
X91847447Y-109252753D01*
X91766095Y-109153626D01*
X91747371Y-109118596D01*
X91705645Y-109040533D01*
X91693237Y-108999627D01*
X91668420Y-108917818D01*
X91655851Y-108790200D01*
X91668420Y-108662582D01*
X91705645Y-108539868D01*
X91705645Y-108539867D01*
X91766094Y-108426776D01*
X91766095Y-108426774D01*
X91847447Y-108327647D01*
X91946574Y-108246295D01*
X91973275Y-108232023D01*
X92059667Y-108185845D01*
X92100573Y-108173437D01*
X92182382Y-108148620D01*
X92246145Y-108142340D01*
X92278026Y-108139200D01*
X93141974Y-108139200D01*
X93173855Y-108142340D01*
X93173855Y-108142340D01*
G37*
G36*
X78258894Y-106743833D02*
X78431294Y-106796131D01*
X78431296Y-106796132D01*
X78590183Y-106881059D01*
X78729449Y-106995351D01*
X78827442Y-107114756D01*
X78843740Y-107134616D01*
X78928669Y-107293506D01*
X78980967Y-107465906D01*
X78998625Y-107645200D01*
X78980967Y-107824494D01*
X78928669Y-107996894D01*
X78928668Y-107996896D01*
X78843741Y-108155783D01*
X78729449Y-108295049D01*
X78590183Y-108409341D01*
X78557564Y-108426776D01*
X78431294Y-108494269D01*
X78258894Y-108546567D01*
X78124531Y-108559800D01*
X78034669Y-108559800D01*
X77900306Y-108546567D01*
X77727906Y-108494269D01*
X77601636Y-108426776D01*
X77569017Y-108409341D01*
X77429751Y-108295049D01*
X77315459Y-108155783D01*
X77230532Y-107996896D01*
X77230531Y-107996894D01*
X77178233Y-107824494D01*
X77160575Y-107645200D01*
X77178233Y-107465906D01*
X77230531Y-107293506D01*
X77315460Y-107134616D01*
X77331759Y-107114756D01*
X77429751Y-106995351D01*
X77569017Y-106881059D01*
X77727904Y-106796132D01*
X77727906Y-106796131D01*
X77900306Y-106743833D01*
X78034669Y-106730600D01*
X78124531Y-106730600D01*
X78258894Y-106743833D01*
X78258894Y-106743833D01*
G37*
G36*
X80798894Y-106743833D02*
X80971294Y-106796131D01*
X80971296Y-106796132D01*
X81130183Y-106881059D01*
X81269449Y-106995351D01*
X81367442Y-107114756D01*
X81383740Y-107134616D01*
X81468669Y-107293506D01*
X81520967Y-107465906D01*
X81538625Y-107645200D01*
X81520967Y-107824494D01*
X81468669Y-107996894D01*
X81468668Y-107996896D01*
X81383741Y-108155783D01*
X81269449Y-108295049D01*
X81130183Y-108409341D01*
X81097564Y-108426776D01*
X80971294Y-108494269D01*
X80798894Y-108546567D01*
X80664531Y-108559800D01*
X80574669Y-108559800D01*
X80440306Y-108546567D01*
X80267906Y-108494269D01*
X80141636Y-108426776D01*
X80109017Y-108409341D01*
X79969751Y-108295049D01*
X79855459Y-108155783D01*
X79770532Y-107996896D01*
X79770531Y-107996894D01*
X79718233Y-107824494D01*
X79700575Y-107645200D01*
X79718233Y-107465906D01*
X79770531Y-107293506D01*
X79855460Y-107134616D01*
X79871759Y-107114756D01*
X79969751Y-106995351D01*
X80109017Y-106881059D01*
X80267904Y-106796132D01*
X80267906Y-106796131D01*
X80440306Y-106743833D01*
X80574669Y-106730600D01*
X80664531Y-106730600D01*
X80798894Y-106743833D01*
X80798894Y-106743833D01*
G37*
G36*
X160136021Y-106603313D02*
X160136024Y-106603314D01*
X160136025Y-106603314D01*
X160296439Y-106651975D01*
X160296441Y-106651976D01*
X160296444Y-106651977D01*
X160444278Y-106730995D01*
X160573859Y-106837341D01*
X160680205Y-106966922D01*
X160759223Y-107114756D01*
X160759224Y-107114759D01*
X160759225Y-107114761D01*
X160765248Y-107134617D01*
X160807887Y-107275179D01*
X160824317Y-107442000D01*
X160807887Y-107608821D01*
X160759223Y-107769244D01*
X160680205Y-107917078D01*
X160573859Y-108046659D01*
X160444278Y-108153005D01*
X160296444Y-108232023D01*
X160296441Y-108232024D01*
X160296439Y-108232025D01*
X160136025Y-108280686D01*
X160136024Y-108280686D01*
X160136021Y-108280687D01*
X160011004Y-108293000D01*
X159927396Y-108293000D01*
X159802379Y-108280687D01*
X159802376Y-108280686D01*
X159802375Y-108280686D01*
X159641961Y-108232025D01*
X159641959Y-108232024D01*
X159641956Y-108232023D01*
X159494122Y-108153005D01*
X159364541Y-108046659D01*
X159258195Y-107917078D01*
X159179177Y-107769244D01*
X159130513Y-107608821D01*
X159114083Y-107442000D01*
X159130513Y-107275179D01*
X159173152Y-107134617D01*
X159179175Y-107114761D01*
X159179176Y-107114759D01*
X159179177Y-107114756D01*
X159258195Y-106966922D01*
X159364541Y-106837341D01*
X159494122Y-106730995D01*
X159641956Y-106651977D01*
X159641959Y-106651976D01*
X159641961Y-106651975D01*
X159802375Y-106603314D01*
X159802376Y-106603314D01*
X159802379Y-106603313D01*
X159927396Y-106591000D01*
X160011004Y-106591000D01*
X160136021Y-106603313D01*
X160136021Y-106603313D01*
G37*
G36*
X152516021Y-106603313D02*
X152516024Y-106603314D01*
X152516025Y-106603314D01*
X152676439Y-106651975D01*
X152676441Y-106651976D01*
X152676444Y-106651977D01*
X152824278Y-106730995D01*
X152953859Y-106837341D01*
X153060205Y-106966922D01*
X153139223Y-107114756D01*
X153139224Y-107114759D01*
X153139225Y-107114761D01*
X153145248Y-107134617D01*
X153187887Y-107275179D01*
X153204317Y-107442000D01*
X153187887Y-107608821D01*
X153139223Y-107769244D01*
X153060205Y-107917078D01*
X152953859Y-108046659D01*
X152824278Y-108153005D01*
X152676444Y-108232023D01*
X152676441Y-108232024D01*
X152676439Y-108232025D01*
X152516025Y-108280686D01*
X152516024Y-108280686D01*
X152516021Y-108280687D01*
X152391004Y-108293000D01*
X152307396Y-108293000D01*
X152182379Y-108280687D01*
X152182376Y-108280686D01*
X152182375Y-108280686D01*
X152021961Y-108232025D01*
X152021959Y-108232024D01*
X152021956Y-108232023D01*
X151874122Y-108153005D01*
X151744541Y-108046659D01*
X151638195Y-107917078D01*
X151559177Y-107769244D01*
X151510513Y-107608821D01*
X151494083Y-107442000D01*
X151510513Y-107275179D01*
X151553152Y-107134617D01*
X151559175Y-107114761D01*
X151559176Y-107114759D01*
X151559177Y-107114756D01*
X151638195Y-106966922D01*
X151744541Y-106837341D01*
X151874122Y-106730995D01*
X152021956Y-106651977D01*
X152021959Y-106651976D01*
X152021961Y-106651975D01*
X152182375Y-106603314D01*
X152182376Y-106603314D01*
X152182379Y-106603313D01*
X152307396Y-106591000D01*
X152391004Y-106591000D01*
X152516021Y-106603313D01*
X152516021Y-106603313D01*
G37*
G36*
X138893855Y-105602340D02*
X138957618Y-105608620D01*
X139039427Y-105633437D01*
X139080333Y-105645845D01*
X139180491Y-105699381D01*
X139193426Y-105706295D01*
X139292553Y-105787647D01*
X139373905Y-105886774D01*
X139373906Y-105886776D01*
X139434355Y-105999867D01*
X139434355Y-105999868D01*
X139471580Y-106122582D01*
X139484149Y-106250200D01*
X139471580Y-106377818D01*
X139446763Y-106459627D01*
X139434355Y-106500533D01*
X139385999Y-106591000D01*
X139373905Y-106613626D01*
X139292553Y-106712753D01*
X139193426Y-106794105D01*
X139193424Y-106794106D01*
X139080333Y-106854555D01*
X139039427Y-106866963D01*
X138957618Y-106891780D01*
X138893855Y-106898060D01*
X138861974Y-106901200D01*
X137998026Y-106901200D01*
X137966145Y-106898060D01*
X137902382Y-106891780D01*
X137820573Y-106866963D01*
X137779667Y-106854555D01*
X137666576Y-106794106D01*
X137666574Y-106794105D01*
X137567447Y-106712753D01*
X137486095Y-106613626D01*
X137474001Y-106591000D01*
X137425645Y-106500533D01*
X137413237Y-106459627D01*
X137388420Y-106377818D01*
X137375851Y-106250200D01*
X137388420Y-106122582D01*
X137425645Y-105999868D01*
X137425645Y-105999867D01*
X137486094Y-105886776D01*
X137486095Y-105886774D01*
X137567447Y-105787647D01*
X137666574Y-105706295D01*
X137679509Y-105699381D01*
X137779667Y-105645845D01*
X137820573Y-105633437D01*
X137902382Y-105608620D01*
X137966145Y-105602340D01*
X137998026Y-105599200D01*
X138861974Y-105599200D01*
X138893855Y-105602340D01*
X138893855Y-105602340D01*
G37*
G36*
X93173855Y-105602340D02*
X93237618Y-105608620D01*
X93319427Y-105633437D01*
X93360333Y-105645845D01*
X93460491Y-105699381D01*
X93473426Y-105706295D01*
X93572553Y-105787647D01*
X93653905Y-105886774D01*
X93653906Y-105886776D01*
X93714355Y-105999867D01*
X93714355Y-105999868D01*
X93751580Y-106122582D01*
X93764149Y-106250200D01*
X93751580Y-106377818D01*
X93726763Y-106459627D01*
X93714355Y-106500533D01*
X93665999Y-106591000D01*
X93653905Y-106613626D01*
X93572553Y-106712753D01*
X93473426Y-106794105D01*
X93473424Y-106794106D01*
X93360333Y-106854555D01*
X93319427Y-106866963D01*
X93237618Y-106891780D01*
X93173855Y-106898060D01*
X93141974Y-106901200D01*
X92278026Y-106901200D01*
X92246145Y-106898060D01*
X92182382Y-106891780D01*
X92100573Y-106866963D01*
X92059667Y-106854555D01*
X91946576Y-106794106D01*
X91946574Y-106794105D01*
X91847447Y-106712753D01*
X91766095Y-106613626D01*
X91754001Y-106591000D01*
X91705645Y-106500533D01*
X91693237Y-106459627D01*
X91668420Y-106377818D01*
X91655851Y-106250200D01*
X91668420Y-106122582D01*
X91705645Y-105999868D01*
X91705645Y-105999867D01*
X91766094Y-105886776D01*
X91766095Y-105886774D01*
X91847447Y-105787647D01*
X91946574Y-105706295D01*
X91959509Y-105699381D01*
X92059667Y-105645845D01*
X92100573Y-105633437D01*
X92182382Y-105608620D01*
X92246145Y-105602340D01*
X92278026Y-105599200D01*
X93141974Y-105599200D01*
X93173855Y-105602340D01*
X93173855Y-105602340D01*
G37*
G36*
X78258894Y-104203833D02*
X78431294Y-104256131D01*
X78431296Y-104256132D01*
X78590183Y-104341059D01*
X78729449Y-104455351D01*
X78843741Y-104594617D01*
X78876098Y-104655153D01*
X78928669Y-104753506D01*
X78980967Y-104925906D01*
X78998625Y-105105200D01*
X78980967Y-105284494D01*
X78928669Y-105456894D01*
X78928668Y-105456896D01*
X78843741Y-105615783D01*
X78729449Y-105755049D01*
X78590183Y-105869341D01*
X78557564Y-105886776D01*
X78431294Y-105954269D01*
X78258894Y-106006567D01*
X78124531Y-106019800D01*
X78034669Y-106019800D01*
X77900306Y-106006567D01*
X77727906Y-105954269D01*
X77601636Y-105886776D01*
X77569017Y-105869341D01*
X77429751Y-105755049D01*
X77315459Y-105615783D01*
X77230532Y-105456896D01*
X77230531Y-105456894D01*
X77178233Y-105284494D01*
X77160575Y-105105200D01*
X77178233Y-104925906D01*
X77230531Y-104753506D01*
X77283102Y-104655153D01*
X77315459Y-104594617D01*
X77429751Y-104455351D01*
X77569017Y-104341059D01*
X77727904Y-104256132D01*
X77727906Y-104256131D01*
X77900306Y-104203833D01*
X78034669Y-104190600D01*
X78124531Y-104190600D01*
X78258894Y-104203833D01*
X78258894Y-104203833D01*
G37*
G36*
X80798894Y-104203833D02*
X80971294Y-104256131D01*
X80971296Y-104256132D01*
X81130183Y-104341059D01*
X81269449Y-104455351D01*
X81383741Y-104594617D01*
X81416098Y-104655153D01*
X81468669Y-104753506D01*
X81520967Y-104925906D01*
X81538625Y-105105200D01*
X81520967Y-105284494D01*
X81468669Y-105456894D01*
X81468668Y-105456896D01*
X81383741Y-105615783D01*
X81269449Y-105755049D01*
X81130183Y-105869341D01*
X81097564Y-105886776D01*
X80971294Y-105954269D01*
X80798894Y-106006567D01*
X80664531Y-106019800D01*
X80574669Y-106019800D01*
X80440306Y-106006567D01*
X80267906Y-105954269D01*
X80141636Y-105886776D01*
X80109017Y-105869341D01*
X79969751Y-105755049D01*
X79855459Y-105615783D01*
X79770532Y-105456896D01*
X79770531Y-105456894D01*
X79718233Y-105284494D01*
X79700575Y-105105200D01*
X79718233Y-104925906D01*
X79770531Y-104753506D01*
X79823102Y-104655153D01*
X79855459Y-104594617D01*
X79969751Y-104455351D01*
X80109017Y-104341059D01*
X80267904Y-104256132D01*
X80267906Y-104256131D01*
X80440306Y-104203833D01*
X80574669Y-104190600D01*
X80664531Y-104190600D01*
X80798894Y-104203833D01*
X80798894Y-104203833D01*
G37*
G36*
X204464225Y-102923360D02*
X204464228Y-102923361D01*
X204464229Y-102923361D01*
X204643493Y-102977740D01*
X204643495Y-102977741D01*
X204808705Y-103066048D01*
X204953512Y-103184888D01*
X205072352Y-103329695D01*
X205160659Y-103494905D01*
X205215040Y-103674175D01*
X205233401Y-103860600D01*
X205215040Y-104047025D01*
X205215039Y-104047028D01*
X205215039Y-104047029D01*
X205167473Y-104203834D01*
X205160659Y-104226295D01*
X205072352Y-104391505D01*
X204953512Y-104536312D01*
X204808705Y-104655152D01*
X204808703Y-104655153D01*
X204643493Y-104743460D01*
X204464229Y-104797839D01*
X204464228Y-104797839D01*
X204464225Y-104797840D01*
X204324518Y-104811600D01*
X202431082Y-104811600D01*
X202291375Y-104797840D01*
X202291372Y-104797839D01*
X202291371Y-104797839D01*
X202112107Y-104743460D01*
X201946897Y-104655153D01*
X201946895Y-104655152D01*
X201802088Y-104536312D01*
X201683248Y-104391505D01*
X201594941Y-104226295D01*
X201588128Y-104203834D01*
X201540561Y-104047029D01*
X201540561Y-104047028D01*
X201540560Y-104047025D01*
X201522199Y-103860600D01*
X201540560Y-103674175D01*
X201594941Y-103494905D01*
X201683248Y-103329695D01*
X201802088Y-103184888D01*
X201946895Y-103066048D01*
X202112105Y-102977741D01*
X202112107Y-102977740D01*
X202291371Y-102923361D01*
X202291372Y-102923361D01*
X202291375Y-102923360D01*
X202431082Y-102909600D01*
X204324518Y-102909600D01*
X204464225Y-102923360D01*
X204464225Y-102923360D01*
G37*
G36*
X138893855Y-103062340D02*
X138957618Y-103068620D01*
X139039427Y-103093437D01*
X139080333Y-103105845D01*
X139180491Y-103159381D01*
X139193426Y-103166295D01*
X139292553Y-103247647D01*
X139373905Y-103346774D01*
X139373906Y-103346776D01*
X139434355Y-103459867D01*
X139434355Y-103459868D01*
X139471580Y-103582582D01*
X139484149Y-103710200D01*
X139471580Y-103837818D01*
X139464669Y-103860600D01*
X139434355Y-103960533D01*
X139388124Y-104047025D01*
X139373905Y-104073626D01*
X139292553Y-104172753D01*
X139193426Y-104254105D01*
X139193424Y-104254106D01*
X139080333Y-104314555D01*
X139039427Y-104326963D01*
X138957618Y-104351780D01*
X138893855Y-104358060D01*
X138861974Y-104361200D01*
X137998026Y-104361200D01*
X137966145Y-104358060D01*
X137902382Y-104351780D01*
X137820573Y-104326963D01*
X137779667Y-104314555D01*
X137666576Y-104254106D01*
X137666574Y-104254105D01*
X137567447Y-104172753D01*
X137486095Y-104073626D01*
X137471876Y-104047025D01*
X137425645Y-103960533D01*
X137395331Y-103860600D01*
X137388420Y-103837818D01*
X137375851Y-103710200D01*
X137388420Y-103582582D01*
X137425645Y-103459868D01*
X137425645Y-103459867D01*
X137486094Y-103346776D01*
X137486095Y-103346774D01*
X137567447Y-103247647D01*
X137666574Y-103166295D01*
X137679509Y-103159381D01*
X137779667Y-103105845D01*
X137820573Y-103093437D01*
X137902382Y-103068620D01*
X137966145Y-103062340D01*
X137998026Y-103059200D01*
X138861974Y-103059200D01*
X138893855Y-103062340D01*
X138893855Y-103062340D01*
G37*
G36*
X93173855Y-103062340D02*
X93237618Y-103068620D01*
X93319427Y-103093437D01*
X93360333Y-103105845D01*
X93460491Y-103159381D01*
X93473426Y-103166295D01*
X93572553Y-103247647D01*
X93653905Y-103346774D01*
X93653906Y-103346776D01*
X93714355Y-103459867D01*
X93714355Y-103459868D01*
X93751580Y-103582582D01*
X93764149Y-103710200D01*
X93751580Y-103837818D01*
X93744669Y-103860600D01*
X93714355Y-103960533D01*
X93668124Y-104047025D01*
X93653905Y-104073626D01*
X93572553Y-104172753D01*
X93473426Y-104254105D01*
X93473424Y-104254106D01*
X93360333Y-104314555D01*
X93319427Y-104326963D01*
X93237618Y-104351780D01*
X93173855Y-104358060D01*
X93141974Y-104361200D01*
X92278026Y-104361200D01*
X92246145Y-104358060D01*
X92182382Y-104351780D01*
X92100573Y-104326963D01*
X92059667Y-104314555D01*
X91946576Y-104254106D01*
X91946574Y-104254105D01*
X91847447Y-104172753D01*
X91766095Y-104073626D01*
X91751876Y-104047025D01*
X91705645Y-103960533D01*
X91675331Y-103860600D01*
X91668420Y-103837818D01*
X91655851Y-103710200D01*
X91668420Y-103582582D01*
X91705645Y-103459868D01*
X91705645Y-103459867D01*
X91766094Y-103346776D01*
X91766095Y-103346774D01*
X91847447Y-103247647D01*
X91946574Y-103166295D01*
X91959509Y-103159381D01*
X92059667Y-103105845D01*
X92100573Y-103093437D01*
X92182382Y-103068620D01*
X92246145Y-103062340D01*
X92278026Y-103059200D01*
X93141974Y-103059200D01*
X93173855Y-103062340D01*
X93173855Y-103062340D01*
G37*
G36*
X80798894Y-101663833D02*
X80971294Y-101716131D01*
X80971296Y-101716132D01*
X81130183Y-101801059D01*
X81154725Y-101821200D01*
X81269449Y-101915351D01*
X81383740Y-102054616D01*
X81468669Y-102213506D01*
X81520967Y-102385906D01*
X81538625Y-102565200D01*
X81520967Y-102744494D01*
X81468669Y-102916894D01*
X81468668Y-102916896D01*
X81383741Y-103075783D01*
X81269449Y-103215049D01*
X81130183Y-103329341D01*
X81097564Y-103346776D01*
X80971294Y-103414269D01*
X80798894Y-103466567D01*
X80664531Y-103479800D01*
X80574669Y-103479800D01*
X80440306Y-103466567D01*
X80267906Y-103414269D01*
X80141636Y-103346776D01*
X80109017Y-103329341D01*
X79969751Y-103215049D01*
X79855459Y-103075783D01*
X79770532Y-102916896D01*
X79770531Y-102916894D01*
X79718233Y-102744494D01*
X79700575Y-102565200D01*
X79718233Y-102385906D01*
X79770531Y-102213506D01*
X79855460Y-102054616D01*
X79969751Y-101915351D01*
X80084475Y-101821200D01*
X80109017Y-101801059D01*
X80267904Y-101716132D01*
X80267906Y-101716131D01*
X80440306Y-101663833D01*
X80574669Y-101650600D01*
X80664531Y-101650600D01*
X80798894Y-101663833D01*
X80798894Y-101663833D01*
G37*
G36*
X78258894Y-101663833D02*
X78431294Y-101716131D01*
X78431296Y-101716132D01*
X78590183Y-101801059D01*
X78614725Y-101821200D01*
X78729449Y-101915351D01*
X78843740Y-102054616D01*
X78928669Y-102213506D01*
X78980967Y-102385906D01*
X78998625Y-102565200D01*
X78980967Y-102744494D01*
X78928669Y-102916894D01*
X78928668Y-102916896D01*
X78843741Y-103075783D01*
X78729449Y-103215049D01*
X78590183Y-103329341D01*
X78557564Y-103346776D01*
X78431294Y-103414269D01*
X78258894Y-103466567D01*
X78124531Y-103479800D01*
X78034669Y-103479800D01*
X77900306Y-103466567D01*
X77727906Y-103414269D01*
X77601636Y-103346776D01*
X77569017Y-103329341D01*
X77429751Y-103215049D01*
X77315459Y-103075783D01*
X77230532Y-102916896D01*
X77230531Y-102916894D01*
X77178233Y-102744494D01*
X77160575Y-102565200D01*
X77178233Y-102385906D01*
X77230531Y-102213506D01*
X77315460Y-102054616D01*
X77429751Y-101915351D01*
X77544475Y-101821200D01*
X77569017Y-101801059D01*
X77727904Y-101716132D01*
X77727906Y-101716131D01*
X77900306Y-101663833D01*
X78034669Y-101650600D01*
X78124531Y-101650600D01*
X78258894Y-101663833D01*
X78258894Y-101663833D01*
G37*
G36*
X93173855Y-100522340D02*
X93237618Y-100528620D01*
X93319427Y-100553437D01*
X93360333Y-100565845D01*
X93460491Y-100619381D01*
X93473426Y-100626295D01*
X93572553Y-100707647D01*
X93653905Y-100806774D01*
X93653906Y-100806776D01*
X93714355Y-100919867D01*
X93714355Y-100919868D01*
X93751580Y-101042582D01*
X93764149Y-101170200D01*
X93751580Y-101297818D01*
X93726763Y-101379627D01*
X93714355Y-101420533D01*
X93660819Y-101520691D01*
X93653905Y-101533626D01*
X93572553Y-101632753D01*
X93473426Y-101714105D01*
X93473424Y-101714106D01*
X93360333Y-101774555D01*
X93319427Y-101786963D01*
X93237618Y-101811780D01*
X93173855Y-101818060D01*
X93141974Y-101821200D01*
X92278026Y-101821200D01*
X92246145Y-101818060D01*
X92182382Y-101811780D01*
X92100573Y-101786963D01*
X92059667Y-101774555D01*
X91946576Y-101714106D01*
X91946574Y-101714105D01*
X91847447Y-101632753D01*
X91766095Y-101533626D01*
X91759181Y-101520691D01*
X91705645Y-101420533D01*
X91693237Y-101379627D01*
X91668420Y-101297818D01*
X91655851Y-101170200D01*
X91668420Y-101042582D01*
X91705645Y-100919868D01*
X91705645Y-100919867D01*
X91766094Y-100806776D01*
X91766095Y-100806774D01*
X91847447Y-100707647D01*
X91946574Y-100626295D01*
X91959509Y-100619381D01*
X92059667Y-100565845D01*
X92100573Y-100553437D01*
X92182382Y-100528620D01*
X92246145Y-100522340D01*
X92278026Y-100519200D01*
X93141974Y-100519200D01*
X93173855Y-100522340D01*
X93173855Y-100522340D01*
G37*
G36*
X138893855Y-100522340D02*
X138957618Y-100528620D01*
X139039427Y-100553437D01*
X139080333Y-100565845D01*
X139180491Y-100619381D01*
X139193426Y-100626295D01*
X139292553Y-100707647D01*
X139373905Y-100806774D01*
X139373906Y-100806776D01*
X139434355Y-100919867D01*
X139434355Y-100919868D01*
X139471580Y-101042582D01*
X139484149Y-101170200D01*
X139471580Y-101297818D01*
X139446763Y-101379627D01*
X139434355Y-101420533D01*
X139380819Y-101520691D01*
X139373905Y-101533626D01*
X139292553Y-101632753D01*
X139193426Y-101714105D01*
X139193424Y-101714106D01*
X139080333Y-101774555D01*
X139039427Y-101786963D01*
X138957618Y-101811780D01*
X138893855Y-101818060D01*
X138861974Y-101821200D01*
X137998026Y-101821200D01*
X137966145Y-101818060D01*
X137902382Y-101811780D01*
X137820573Y-101786963D01*
X137779667Y-101774555D01*
X137666576Y-101714106D01*
X137666574Y-101714105D01*
X137567447Y-101632753D01*
X137486095Y-101533626D01*
X137479181Y-101520691D01*
X137425645Y-101420533D01*
X137413237Y-101379627D01*
X137388420Y-101297818D01*
X137375851Y-101170200D01*
X137388420Y-101042582D01*
X137425645Y-100919868D01*
X137425645Y-100919867D01*
X137486094Y-100806776D01*
X137486095Y-100806774D01*
X137567447Y-100707647D01*
X137666574Y-100626295D01*
X137679509Y-100619381D01*
X137779667Y-100565845D01*
X137820573Y-100553437D01*
X137902382Y-100528620D01*
X137966145Y-100522340D01*
X137998026Y-100519200D01*
X138861974Y-100519200D01*
X138893855Y-100522340D01*
X138893855Y-100522340D01*
G37*
G36*
X78258894Y-99123833D02*
X78431294Y-99176131D01*
X78431296Y-99176132D01*
X78590183Y-99261059D01*
X78729449Y-99375351D01*
X78843741Y-99514617D01*
X78876098Y-99575153D01*
X78928669Y-99673506D01*
X78980967Y-99845906D01*
X78998625Y-100025200D01*
X78980967Y-100204494D01*
X78928669Y-100376894D01*
X78928668Y-100376896D01*
X78843741Y-100535783D01*
X78729449Y-100675049D01*
X78590183Y-100789341D01*
X78557564Y-100806776D01*
X78431294Y-100874269D01*
X78258894Y-100926567D01*
X78124531Y-100939800D01*
X78034669Y-100939800D01*
X77900306Y-100926567D01*
X77727906Y-100874269D01*
X77601636Y-100806776D01*
X77569017Y-100789341D01*
X77429751Y-100675049D01*
X77315459Y-100535783D01*
X77230532Y-100376896D01*
X77230531Y-100376894D01*
X77178233Y-100204494D01*
X77160575Y-100025200D01*
X77178233Y-99845906D01*
X77230531Y-99673506D01*
X77283102Y-99575153D01*
X77315459Y-99514617D01*
X77429751Y-99375351D01*
X77569017Y-99261059D01*
X77727904Y-99176132D01*
X77727906Y-99176131D01*
X77900306Y-99123833D01*
X78034669Y-99110600D01*
X78124531Y-99110600D01*
X78258894Y-99123833D01*
X78258894Y-99123833D01*
G37*
G36*
X80798894Y-99123833D02*
X80971294Y-99176131D01*
X80971296Y-99176132D01*
X81130183Y-99261059D01*
X81269449Y-99375351D01*
X81383741Y-99514617D01*
X81416098Y-99575153D01*
X81468669Y-99673506D01*
X81520967Y-99845906D01*
X81538625Y-100025200D01*
X81520967Y-100204494D01*
X81468669Y-100376894D01*
X81468668Y-100376896D01*
X81383741Y-100535783D01*
X81269449Y-100675049D01*
X81130183Y-100789341D01*
X81097564Y-100806776D01*
X80971294Y-100874269D01*
X80798894Y-100926567D01*
X80664531Y-100939800D01*
X80574669Y-100939800D01*
X80440306Y-100926567D01*
X80267906Y-100874269D01*
X80141636Y-100806776D01*
X80109017Y-100789341D01*
X79969751Y-100675049D01*
X79855459Y-100535783D01*
X79770532Y-100376896D01*
X79770531Y-100376894D01*
X79718233Y-100204494D01*
X79700575Y-100025200D01*
X79718233Y-99845906D01*
X79770531Y-99673506D01*
X79823102Y-99575153D01*
X79855459Y-99514617D01*
X79969751Y-99375351D01*
X80109017Y-99261059D01*
X80267904Y-99176132D01*
X80267906Y-99176131D01*
X80440306Y-99123833D01*
X80574669Y-99110600D01*
X80664531Y-99110600D01*
X80798894Y-99123833D01*
X80798894Y-99123833D01*
G37*
G36*
X164744600Y-99974600D02*
X162915400Y-99974600D01*
X162915400Y-98145400D01*
X164744600Y-98145400D01*
X164744600Y-99974600D01*
X164744600Y-99974600D01*
G37*
G36*
X169089294Y-98158633D02*
X169261694Y-98210931D01*
X169261696Y-98210932D01*
X169420583Y-98295859D01*
X169559849Y-98410151D01*
X169674141Y-98549417D01*
X169717320Y-98630200D01*
X169759069Y-98708306D01*
X169811367Y-98880706D01*
X169829025Y-99060000D01*
X169811367Y-99239294D01*
X169759069Y-99411694D01*
X169759068Y-99411696D01*
X169674141Y-99570583D01*
X169559849Y-99709849D01*
X169420583Y-99824141D01*
X169261696Y-99909068D01*
X169261694Y-99909069D01*
X169089294Y-99961367D01*
X168954931Y-99974600D01*
X168865069Y-99974600D01*
X168730706Y-99961367D01*
X168558306Y-99909069D01*
X168558304Y-99909068D01*
X168399417Y-99824141D01*
X168260151Y-99709849D01*
X168145859Y-99570583D01*
X168060932Y-99411696D01*
X168060931Y-99411694D01*
X168008633Y-99239294D01*
X167990975Y-99060000D01*
X168008633Y-98880706D01*
X168060931Y-98708306D01*
X168102680Y-98630200D01*
X168145859Y-98549417D01*
X168260151Y-98410151D01*
X168399417Y-98295859D01*
X168558304Y-98210932D01*
X168558306Y-98210931D01*
X168730706Y-98158633D01*
X168865069Y-98145400D01*
X168954931Y-98145400D01*
X169089294Y-98158633D01*
X169089294Y-98158633D01*
G37*
G36*
X166549294Y-98158633D02*
X166721694Y-98210931D01*
X166721696Y-98210932D01*
X166880583Y-98295859D01*
X167019849Y-98410151D01*
X167134141Y-98549417D01*
X167177320Y-98630200D01*
X167219069Y-98708306D01*
X167271367Y-98880706D01*
X167289025Y-99060000D01*
X167271367Y-99239294D01*
X167219069Y-99411694D01*
X167219068Y-99411696D01*
X167134141Y-99570583D01*
X167019849Y-99709849D01*
X166880583Y-99824141D01*
X166721696Y-99909068D01*
X166721694Y-99909069D01*
X166549294Y-99961367D01*
X166414931Y-99974600D01*
X166325069Y-99974600D01*
X166190706Y-99961367D01*
X166018306Y-99909069D01*
X166018304Y-99909068D01*
X165859417Y-99824141D01*
X165720151Y-99709849D01*
X165605859Y-99570583D01*
X165520932Y-99411696D01*
X165520931Y-99411694D01*
X165468633Y-99239294D01*
X165450975Y-99060000D01*
X165468633Y-98880706D01*
X165520931Y-98708306D01*
X165562680Y-98630200D01*
X165605859Y-98549417D01*
X165720151Y-98410151D01*
X165859417Y-98295859D01*
X166018304Y-98210932D01*
X166018306Y-98210931D01*
X166190706Y-98158633D01*
X166325069Y-98145400D01*
X166414931Y-98145400D01*
X166549294Y-98158633D01*
X166549294Y-98158633D01*
G37*
G36*
X171629294Y-98158633D02*
X171801694Y-98210931D01*
X171801696Y-98210932D01*
X171960583Y-98295859D01*
X172099849Y-98410151D01*
X172214141Y-98549417D01*
X172257320Y-98630200D01*
X172299069Y-98708306D01*
X172351367Y-98880706D01*
X172369025Y-99060000D01*
X172351367Y-99239294D01*
X172299069Y-99411694D01*
X172299068Y-99411696D01*
X172214141Y-99570583D01*
X172099849Y-99709849D01*
X171960583Y-99824141D01*
X171801696Y-99909068D01*
X171801694Y-99909069D01*
X171629294Y-99961367D01*
X171494931Y-99974600D01*
X171405069Y-99974600D01*
X171270706Y-99961367D01*
X171098306Y-99909069D01*
X171098304Y-99909068D01*
X170939417Y-99824141D01*
X170800151Y-99709849D01*
X170685859Y-99570583D01*
X170600932Y-99411696D01*
X170600931Y-99411694D01*
X170548633Y-99239294D01*
X170530975Y-99060000D01*
X170548633Y-98880706D01*
X170600931Y-98708306D01*
X170642680Y-98630200D01*
X170685859Y-98549417D01*
X170800151Y-98410151D01*
X170939417Y-98295859D01*
X171098304Y-98210932D01*
X171098306Y-98210931D01*
X171270706Y-98158633D01*
X171405069Y-98145400D01*
X171494931Y-98145400D01*
X171629294Y-98158633D01*
X171629294Y-98158633D01*
G37*
G36*
X174169294Y-98158633D02*
X174341694Y-98210931D01*
X174341696Y-98210932D01*
X174500583Y-98295859D01*
X174639849Y-98410151D01*
X174754141Y-98549417D01*
X174797320Y-98630200D01*
X174839069Y-98708306D01*
X174891367Y-98880706D01*
X174909025Y-99060000D01*
X174891367Y-99239294D01*
X174839069Y-99411694D01*
X174839068Y-99411696D01*
X174754141Y-99570583D01*
X174639849Y-99709849D01*
X174500583Y-99824141D01*
X174341696Y-99909068D01*
X174341694Y-99909069D01*
X174169294Y-99961367D01*
X174034931Y-99974600D01*
X173945069Y-99974600D01*
X173810706Y-99961367D01*
X173638306Y-99909069D01*
X173638304Y-99909068D01*
X173479417Y-99824141D01*
X173340151Y-99709849D01*
X173225859Y-99570583D01*
X173140932Y-99411696D01*
X173140931Y-99411694D01*
X173088633Y-99239294D01*
X173070975Y-99060000D01*
X173088633Y-98880706D01*
X173140931Y-98708306D01*
X173182680Y-98630200D01*
X173225859Y-98549417D01*
X173340151Y-98410151D01*
X173479417Y-98295859D01*
X173638304Y-98210932D01*
X173638306Y-98210931D01*
X173810706Y-98158633D01*
X173945069Y-98145400D01*
X174034931Y-98145400D01*
X174169294Y-98158633D01*
X174169294Y-98158633D01*
G37*
G36*
X204464225Y-97843360D02*
X204464228Y-97843361D01*
X204464229Y-97843361D01*
X204643493Y-97897740D01*
X204643495Y-97897741D01*
X204808705Y-97986048D01*
X204953512Y-98104888D01*
X205072352Y-98249695D01*
X205072353Y-98249697D01*
X205160660Y-98414907D01*
X205201463Y-98549417D01*
X205215040Y-98594175D01*
X205233401Y-98780600D01*
X205215040Y-98967025D01*
X205215039Y-98967028D01*
X205215039Y-98967029D01*
X205167473Y-99123834D01*
X205160659Y-99146295D01*
X205072352Y-99311505D01*
X204953512Y-99456312D01*
X204808705Y-99575152D01*
X204808703Y-99575153D01*
X204643493Y-99663460D01*
X204464229Y-99717839D01*
X204464228Y-99717839D01*
X204464225Y-99717840D01*
X204324518Y-99731600D01*
X202431082Y-99731600D01*
X202291375Y-99717840D01*
X202291372Y-99717839D01*
X202291371Y-99717839D01*
X202112107Y-99663460D01*
X201946897Y-99575153D01*
X201946895Y-99575152D01*
X201802088Y-99456312D01*
X201683248Y-99311505D01*
X201594941Y-99146295D01*
X201588128Y-99123834D01*
X201540561Y-98967029D01*
X201540561Y-98967028D01*
X201540560Y-98967025D01*
X201522199Y-98780600D01*
X201540560Y-98594175D01*
X201554137Y-98549417D01*
X201594940Y-98414907D01*
X201683247Y-98249697D01*
X201683248Y-98249695D01*
X201802088Y-98104888D01*
X201946895Y-97986048D01*
X202112105Y-97897741D01*
X202112107Y-97897740D01*
X202291371Y-97843361D01*
X202291372Y-97843361D01*
X202291375Y-97843360D01*
X202431082Y-97829600D01*
X204324518Y-97829600D01*
X204464225Y-97843360D01*
X204464225Y-97843360D01*
G37*
G36*
X138893855Y-97982340D02*
X138957618Y-97988620D01*
X139039427Y-98013437D01*
X139080333Y-98025845D01*
X139180491Y-98079381D01*
X139193426Y-98086295D01*
X139292553Y-98167647D01*
X139373905Y-98266774D01*
X139373906Y-98266776D01*
X139434355Y-98379867D01*
X139434355Y-98379868D01*
X139471580Y-98502582D01*
X139484149Y-98630200D01*
X139471580Y-98757818D01*
X139464669Y-98780600D01*
X139434355Y-98880533D01*
X139388124Y-98967025D01*
X139373905Y-98993626D01*
X139292553Y-99092753D01*
X139193426Y-99174105D01*
X139193424Y-99174106D01*
X139080333Y-99234555D01*
X139064710Y-99239294D01*
X138957618Y-99271780D01*
X138893855Y-99278060D01*
X138861974Y-99281200D01*
X137998026Y-99281200D01*
X137966145Y-99278060D01*
X137902382Y-99271780D01*
X137795290Y-99239294D01*
X137779667Y-99234555D01*
X137666576Y-99174106D01*
X137666574Y-99174105D01*
X137567447Y-99092753D01*
X137486095Y-98993626D01*
X137471876Y-98967025D01*
X137425645Y-98880533D01*
X137395331Y-98780600D01*
X137388420Y-98757818D01*
X137375851Y-98630200D01*
X137388420Y-98502582D01*
X137425645Y-98379868D01*
X137425645Y-98379867D01*
X137486094Y-98266776D01*
X137486095Y-98266774D01*
X137567447Y-98167647D01*
X137666574Y-98086295D01*
X137679509Y-98079381D01*
X137779667Y-98025845D01*
X137820573Y-98013437D01*
X137902382Y-97988620D01*
X137966145Y-97982340D01*
X137998026Y-97979200D01*
X138861974Y-97979200D01*
X138893855Y-97982340D01*
X138893855Y-97982340D01*
G37*
G36*
X93173855Y-97982340D02*
X93237618Y-97988620D01*
X93319427Y-98013437D01*
X93360333Y-98025845D01*
X93460491Y-98079381D01*
X93473426Y-98086295D01*
X93572553Y-98167647D01*
X93653905Y-98266774D01*
X93653906Y-98266776D01*
X93714355Y-98379867D01*
X93714355Y-98379868D01*
X93751580Y-98502582D01*
X93764149Y-98630200D01*
X93751580Y-98757818D01*
X93744669Y-98780600D01*
X93714355Y-98880533D01*
X93668124Y-98967025D01*
X93653905Y-98993626D01*
X93572553Y-99092753D01*
X93473426Y-99174105D01*
X93473424Y-99174106D01*
X93360333Y-99234555D01*
X93344710Y-99239294D01*
X93237618Y-99271780D01*
X93173855Y-99278060D01*
X93141974Y-99281200D01*
X92278026Y-99281200D01*
X92246145Y-99278060D01*
X92182382Y-99271780D01*
X92075290Y-99239294D01*
X92059667Y-99234555D01*
X91946576Y-99174106D01*
X91946574Y-99174105D01*
X91847447Y-99092753D01*
X91766095Y-98993626D01*
X91751876Y-98967025D01*
X91705645Y-98880533D01*
X91675331Y-98780600D01*
X91668420Y-98757818D01*
X91655851Y-98630200D01*
X91668420Y-98502582D01*
X91705645Y-98379868D01*
X91705645Y-98379867D01*
X91766094Y-98266776D01*
X91766095Y-98266774D01*
X91847447Y-98167647D01*
X91946574Y-98086295D01*
X91959509Y-98079381D01*
X92059667Y-98025845D01*
X92100573Y-98013437D01*
X92182382Y-97988620D01*
X92246145Y-97982340D01*
X92278026Y-97979200D01*
X93141974Y-97979200D01*
X93173855Y-97982340D01*
X93173855Y-97982340D01*
G37*
G36*
X80798894Y-96583833D02*
X80971294Y-96636131D01*
X80971296Y-96636132D01*
X81130183Y-96721059D01*
X81154725Y-96741200D01*
X81269449Y-96835351D01*
X81383740Y-96974616D01*
X81468669Y-97133506D01*
X81520967Y-97305906D01*
X81538625Y-97485200D01*
X81520967Y-97664494D01*
X81468669Y-97836894D01*
X81468668Y-97836896D01*
X81383741Y-97995783D01*
X81269449Y-98135049D01*
X81130183Y-98249341D01*
X81097564Y-98266776D01*
X80971294Y-98334269D01*
X80798894Y-98386567D01*
X80664531Y-98399800D01*
X80574669Y-98399800D01*
X80440306Y-98386567D01*
X80267906Y-98334269D01*
X80141636Y-98266776D01*
X80109017Y-98249341D01*
X79969751Y-98135049D01*
X79855459Y-97995783D01*
X79770532Y-97836896D01*
X79770531Y-97836894D01*
X79718233Y-97664494D01*
X79700575Y-97485200D01*
X79718233Y-97305906D01*
X79770531Y-97133506D01*
X79855460Y-96974616D01*
X79969751Y-96835351D01*
X80084475Y-96741200D01*
X80109017Y-96721059D01*
X80267904Y-96636132D01*
X80267906Y-96636131D01*
X80440306Y-96583833D01*
X80574669Y-96570600D01*
X80664531Y-96570600D01*
X80798894Y-96583833D01*
X80798894Y-96583833D01*
G37*
G36*
X78258894Y-96583833D02*
X78431294Y-96636131D01*
X78431296Y-96636132D01*
X78590183Y-96721059D01*
X78614725Y-96741200D01*
X78729449Y-96835351D01*
X78843740Y-96974616D01*
X78928669Y-97133506D01*
X78980967Y-97305906D01*
X78998625Y-97485200D01*
X78980967Y-97664494D01*
X78928669Y-97836894D01*
X78928668Y-97836896D01*
X78843741Y-97995783D01*
X78729449Y-98135049D01*
X78590183Y-98249341D01*
X78557564Y-98266776D01*
X78431294Y-98334269D01*
X78258894Y-98386567D01*
X78124531Y-98399800D01*
X78034669Y-98399800D01*
X77900306Y-98386567D01*
X77727906Y-98334269D01*
X77601636Y-98266776D01*
X77569017Y-98249341D01*
X77429751Y-98135049D01*
X77315459Y-97995783D01*
X77230532Y-97836896D01*
X77230531Y-97836894D01*
X77178233Y-97664494D01*
X77160575Y-97485200D01*
X77178233Y-97305906D01*
X77230531Y-97133506D01*
X77315460Y-96974616D01*
X77429751Y-96835351D01*
X77544475Y-96741200D01*
X77569017Y-96721059D01*
X77727904Y-96636132D01*
X77727906Y-96636131D01*
X77900306Y-96583833D01*
X78034669Y-96570600D01*
X78124531Y-96570600D01*
X78258894Y-96583833D01*
X78258894Y-96583833D01*
G37*
G36*
X166549294Y-95618633D02*
X166721694Y-95670931D01*
X166721696Y-95670932D01*
X166880583Y-95755859D01*
X166880585Y-95755860D01*
X166880584Y-95755860D01*
X167019849Y-95870151D01*
X167134140Y-96009416D01*
X167219069Y-96168306D01*
X167271367Y-96340706D01*
X167289025Y-96520000D01*
X167271367Y-96699294D01*
X167219069Y-96871694D01*
X167219068Y-96871696D01*
X167134141Y-97030583D01*
X167019849Y-97169849D01*
X166880583Y-97284141D01*
X166721696Y-97369068D01*
X166721694Y-97369069D01*
X166549294Y-97421367D01*
X166414931Y-97434600D01*
X166325069Y-97434600D01*
X166190706Y-97421367D01*
X166018306Y-97369069D01*
X166018304Y-97369068D01*
X165859417Y-97284141D01*
X165720151Y-97169849D01*
X165605859Y-97030583D01*
X165520932Y-96871696D01*
X165520931Y-96871694D01*
X165468633Y-96699294D01*
X165450975Y-96520000D01*
X165468633Y-96340706D01*
X165520931Y-96168306D01*
X165605860Y-96009416D01*
X165720151Y-95870151D01*
X165859416Y-95755860D01*
X165859415Y-95755860D01*
X165859417Y-95755859D01*
X166018304Y-95670932D01*
X166018306Y-95670931D01*
X166190706Y-95618633D01*
X166325069Y-95605400D01*
X166414931Y-95605400D01*
X166549294Y-95618633D01*
X166549294Y-95618633D01*
G37*
G36*
X164009294Y-95618633D02*
X164181694Y-95670931D01*
X164181696Y-95670932D01*
X164340583Y-95755859D01*
X164340585Y-95755860D01*
X164340584Y-95755860D01*
X164479849Y-95870151D01*
X164594140Y-96009416D01*
X164679069Y-96168306D01*
X164731367Y-96340706D01*
X164749025Y-96520000D01*
X164731367Y-96699294D01*
X164679069Y-96871694D01*
X164679068Y-96871696D01*
X164594141Y-97030583D01*
X164479849Y-97169849D01*
X164340583Y-97284141D01*
X164181696Y-97369068D01*
X164181694Y-97369069D01*
X164009294Y-97421367D01*
X163874931Y-97434600D01*
X163785069Y-97434600D01*
X163650706Y-97421367D01*
X163478306Y-97369069D01*
X163478304Y-97369068D01*
X163319417Y-97284141D01*
X163180151Y-97169849D01*
X163065859Y-97030583D01*
X162980932Y-96871696D01*
X162980931Y-96871694D01*
X162928633Y-96699294D01*
X162910975Y-96520000D01*
X162928633Y-96340706D01*
X162980931Y-96168306D01*
X163065860Y-96009416D01*
X163180151Y-95870151D01*
X163319416Y-95755860D01*
X163319415Y-95755860D01*
X163319417Y-95755859D01*
X163478304Y-95670932D01*
X163478306Y-95670931D01*
X163650706Y-95618633D01*
X163785069Y-95605400D01*
X163874931Y-95605400D01*
X164009294Y-95618633D01*
X164009294Y-95618633D01*
G37*
G36*
X174169294Y-95618633D02*
X174341694Y-95670931D01*
X174341696Y-95670932D01*
X174500583Y-95755859D01*
X174500585Y-95755860D01*
X174500584Y-95755860D01*
X174639849Y-95870151D01*
X174754140Y-96009416D01*
X174839069Y-96168306D01*
X174891367Y-96340706D01*
X174909025Y-96520000D01*
X174891367Y-96699294D01*
X174839069Y-96871694D01*
X174839068Y-96871696D01*
X174754141Y-97030583D01*
X174639849Y-97169849D01*
X174500583Y-97284141D01*
X174341696Y-97369068D01*
X174341694Y-97369069D01*
X174169294Y-97421367D01*
X174034931Y-97434600D01*
X173945069Y-97434600D01*
X173810706Y-97421367D01*
X173638306Y-97369069D01*
X173638304Y-97369068D01*
X173479417Y-97284141D01*
X173340151Y-97169849D01*
X173225859Y-97030583D01*
X173140932Y-96871696D01*
X173140931Y-96871694D01*
X173088633Y-96699294D01*
X173070975Y-96520000D01*
X173088633Y-96340706D01*
X173140931Y-96168306D01*
X173225860Y-96009416D01*
X173340151Y-95870151D01*
X173479416Y-95755860D01*
X173479415Y-95755860D01*
X173479417Y-95755859D01*
X173638304Y-95670932D01*
X173638306Y-95670931D01*
X173810706Y-95618633D01*
X173945069Y-95605400D01*
X174034931Y-95605400D01*
X174169294Y-95618633D01*
X174169294Y-95618633D01*
G37*
G36*
X171629294Y-95618633D02*
X171801694Y-95670931D01*
X171801696Y-95670932D01*
X171960583Y-95755859D01*
X171960585Y-95755860D01*
X171960584Y-95755860D01*
X172099849Y-95870151D01*
X172214140Y-96009416D01*
X172299069Y-96168306D01*
X172351367Y-96340706D01*
X172369025Y-96520000D01*
X172351367Y-96699294D01*
X172299069Y-96871694D01*
X172299068Y-96871696D01*
X172214141Y-97030583D01*
X172099849Y-97169849D01*
X171960583Y-97284141D01*
X171801696Y-97369068D01*
X171801694Y-97369069D01*
X171629294Y-97421367D01*
X171494931Y-97434600D01*
X171405069Y-97434600D01*
X171270706Y-97421367D01*
X171098306Y-97369069D01*
X171098304Y-97369068D01*
X170939417Y-97284141D01*
X170800151Y-97169849D01*
X170685859Y-97030583D01*
X170600932Y-96871696D01*
X170600931Y-96871694D01*
X170548633Y-96699294D01*
X170530975Y-96520000D01*
X170548633Y-96340706D01*
X170600931Y-96168306D01*
X170685860Y-96009416D01*
X170800151Y-95870151D01*
X170939416Y-95755860D01*
X170939415Y-95755860D01*
X170939417Y-95755859D01*
X171098304Y-95670932D01*
X171098306Y-95670931D01*
X171270706Y-95618633D01*
X171405069Y-95605400D01*
X171494931Y-95605400D01*
X171629294Y-95618633D01*
X171629294Y-95618633D01*
G37*
G36*
X169089294Y-95618633D02*
X169261694Y-95670931D01*
X169261696Y-95670932D01*
X169420583Y-95755859D01*
X169420585Y-95755860D01*
X169420584Y-95755860D01*
X169559849Y-95870151D01*
X169674140Y-96009416D01*
X169759069Y-96168306D01*
X169811367Y-96340706D01*
X169829025Y-96520000D01*
X169811367Y-96699294D01*
X169759069Y-96871694D01*
X169759068Y-96871696D01*
X169674141Y-97030583D01*
X169559849Y-97169849D01*
X169420583Y-97284141D01*
X169261696Y-97369068D01*
X169261694Y-97369069D01*
X169089294Y-97421367D01*
X168954931Y-97434600D01*
X168865069Y-97434600D01*
X168730706Y-97421367D01*
X168558306Y-97369069D01*
X168558304Y-97369068D01*
X168399417Y-97284141D01*
X168260151Y-97169849D01*
X168145859Y-97030583D01*
X168060932Y-96871696D01*
X168060931Y-96871694D01*
X168008633Y-96699294D01*
X167990975Y-96520000D01*
X168008633Y-96340706D01*
X168060931Y-96168306D01*
X168145860Y-96009416D01*
X168260151Y-95870151D01*
X168399416Y-95755860D01*
X168399415Y-95755860D01*
X168399417Y-95755859D01*
X168558304Y-95670932D01*
X168558306Y-95670931D01*
X168730706Y-95618633D01*
X168865069Y-95605400D01*
X168954931Y-95605400D01*
X169089294Y-95618633D01*
X169089294Y-95618633D01*
G37*
G36*
X138893855Y-95442340D02*
X138957618Y-95448620D01*
X139039427Y-95473437D01*
X139080333Y-95485845D01*
X139180491Y-95539381D01*
X139193426Y-95546295D01*
X139292553Y-95627647D01*
X139373905Y-95726774D01*
X139373906Y-95726776D01*
X139434355Y-95839867D01*
X139434355Y-95839868D01*
X139471580Y-95962582D01*
X139484149Y-96090200D01*
X139471580Y-96217818D01*
X139446763Y-96299627D01*
X139434355Y-96340533D01*
X139380819Y-96440691D01*
X139373905Y-96453626D01*
X139292553Y-96552753D01*
X139193426Y-96634105D01*
X139193424Y-96634106D01*
X139080333Y-96694555D01*
X139064710Y-96699294D01*
X138957618Y-96731780D01*
X138893855Y-96738060D01*
X138861974Y-96741200D01*
X137998026Y-96741200D01*
X137966145Y-96738060D01*
X137902382Y-96731780D01*
X137795290Y-96699294D01*
X137779667Y-96694555D01*
X137666576Y-96634106D01*
X137666574Y-96634105D01*
X137567447Y-96552753D01*
X137486095Y-96453626D01*
X137479181Y-96440691D01*
X137425645Y-96340533D01*
X137413237Y-96299627D01*
X137388420Y-96217818D01*
X137375851Y-96090200D01*
X137388420Y-95962582D01*
X137425645Y-95839868D01*
X137425645Y-95839867D01*
X137486094Y-95726776D01*
X137486095Y-95726774D01*
X137567447Y-95627647D01*
X137666574Y-95546295D01*
X137679509Y-95539381D01*
X137779667Y-95485845D01*
X137820573Y-95473437D01*
X137902382Y-95448620D01*
X137966145Y-95442340D01*
X137998026Y-95439200D01*
X138861974Y-95439200D01*
X138893855Y-95442340D01*
X138893855Y-95442340D01*
G37*
G36*
X93173855Y-95442340D02*
X93237618Y-95448620D01*
X93319427Y-95473437D01*
X93360333Y-95485845D01*
X93460491Y-95539381D01*
X93473426Y-95546295D01*
X93572553Y-95627647D01*
X93653905Y-95726774D01*
X93653906Y-95726776D01*
X93714355Y-95839867D01*
X93714355Y-95839868D01*
X93751580Y-95962582D01*
X93764149Y-96090200D01*
X93751580Y-96217818D01*
X93726763Y-96299627D01*
X93714355Y-96340533D01*
X93660819Y-96440691D01*
X93653905Y-96453626D01*
X93572553Y-96552753D01*
X93473426Y-96634105D01*
X93473424Y-96634106D01*
X93360333Y-96694555D01*
X93344710Y-96699294D01*
X93237618Y-96731780D01*
X93173855Y-96738060D01*
X93141974Y-96741200D01*
X92278026Y-96741200D01*
X92246145Y-96738060D01*
X92182382Y-96731780D01*
X92075290Y-96699294D01*
X92059667Y-96694555D01*
X91946576Y-96634106D01*
X91946574Y-96634105D01*
X91847447Y-96552753D01*
X91766095Y-96453626D01*
X91759181Y-96440691D01*
X91705645Y-96340533D01*
X91693237Y-96299627D01*
X91668420Y-96217818D01*
X91655851Y-96090200D01*
X91668420Y-95962582D01*
X91705645Y-95839868D01*
X91705645Y-95839867D01*
X91766094Y-95726776D01*
X91766095Y-95726774D01*
X91847447Y-95627647D01*
X91946574Y-95546295D01*
X91959509Y-95539381D01*
X92059667Y-95485845D01*
X92100573Y-95473437D01*
X92182382Y-95448620D01*
X92246145Y-95442340D01*
X92278026Y-95439200D01*
X93141974Y-95439200D01*
X93173855Y-95442340D01*
X93173855Y-95442340D01*
G37*
G36*
X80798894Y-94043833D02*
X80971294Y-94096131D01*
X80971296Y-94096132D01*
X81130183Y-94181059D01*
X81269449Y-94295351D01*
X81383741Y-94434617D01*
X81442220Y-94544024D01*
X81468669Y-94593506D01*
X81520967Y-94765906D01*
X81538625Y-94945200D01*
X81520967Y-95124494D01*
X81468669Y-95296894D01*
X81468668Y-95296896D01*
X81383741Y-95455783D01*
X81269449Y-95595049D01*
X81130183Y-95709341D01*
X81097564Y-95726776D01*
X80971294Y-95794269D01*
X80798894Y-95846567D01*
X80664531Y-95859800D01*
X80574669Y-95859800D01*
X80440306Y-95846567D01*
X80267906Y-95794269D01*
X80141636Y-95726776D01*
X80109017Y-95709341D01*
X79969751Y-95595049D01*
X79855459Y-95455783D01*
X79770532Y-95296896D01*
X79770531Y-95296894D01*
X79718233Y-95124494D01*
X79700575Y-94945200D01*
X79718233Y-94765906D01*
X79770531Y-94593506D01*
X79796980Y-94544024D01*
X79855459Y-94434617D01*
X79969751Y-94295351D01*
X80109017Y-94181059D01*
X80267904Y-94096132D01*
X80267906Y-94096131D01*
X80440306Y-94043833D01*
X80574669Y-94030600D01*
X80664531Y-94030600D01*
X80798894Y-94043833D01*
X80798894Y-94043833D01*
G37*
G36*
X78258894Y-94043833D02*
X78431294Y-94096131D01*
X78431296Y-94096132D01*
X78590183Y-94181059D01*
X78729449Y-94295351D01*
X78843741Y-94434617D01*
X78902220Y-94544024D01*
X78928669Y-94593506D01*
X78980967Y-94765906D01*
X78998625Y-94945200D01*
X78980967Y-95124494D01*
X78928669Y-95296894D01*
X78928668Y-95296896D01*
X78843741Y-95455783D01*
X78729449Y-95595049D01*
X78590183Y-95709341D01*
X78557564Y-95726776D01*
X78431294Y-95794269D01*
X78258894Y-95846567D01*
X78124531Y-95859800D01*
X78034669Y-95859800D01*
X77900306Y-95846567D01*
X77727906Y-95794269D01*
X77601636Y-95726776D01*
X77569017Y-95709341D01*
X77429751Y-95595049D01*
X77315459Y-95455783D01*
X77230532Y-95296896D01*
X77230531Y-95296894D01*
X77178233Y-95124494D01*
X77160575Y-94945200D01*
X77178233Y-94765906D01*
X77230531Y-94593506D01*
X77256980Y-94544024D01*
X77315459Y-94434617D01*
X77429751Y-94295351D01*
X77569017Y-94181059D01*
X77727904Y-94096132D01*
X77727906Y-94096131D01*
X77900306Y-94043833D01*
X78034669Y-94030600D01*
X78124531Y-94030600D01*
X78258894Y-94043833D01*
X78258894Y-94043833D01*
G37*
G36*
X205088718Y-92753534D02*
X205121224Y-92763395D01*
X205151183Y-92779408D01*
X205177441Y-92800959D01*
X205198992Y-92827217D01*
X205215005Y-92857176D01*
X205224866Y-92889682D01*
X205228800Y-92929629D01*
X205228800Y-94471571D01*
X205224866Y-94511518D01*
X205215005Y-94544024D01*
X205198992Y-94573983D01*
X205177441Y-94600241D01*
X205151183Y-94621792D01*
X205121224Y-94637805D01*
X205088718Y-94647666D01*
X205048771Y-94651600D01*
X201706829Y-94651600D01*
X201666882Y-94647666D01*
X201634376Y-94637805D01*
X201604417Y-94621792D01*
X201578159Y-94600241D01*
X201556608Y-94573983D01*
X201540595Y-94544024D01*
X201530734Y-94511518D01*
X201526800Y-94471571D01*
X201526800Y-92929629D01*
X201530734Y-92889682D01*
X201540595Y-92857176D01*
X201556608Y-92827217D01*
X201578159Y-92800959D01*
X201604417Y-92779408D01*
X201634376Y-92763395D01*
X201666882Y-92753534D01*
X201706829Y-92749600D01*
X205048771Y-92749600D01*
X205088718Y-92753534D01*
X205088718Y-92753534D01*
G37*
G36*
X138893855Y-92902340D02*
X138957618Y-92908620D01*
X139026875Y-92929629D01*
X139080333Y-92945845D01*
X139180491Y-92999381D01*
X139193426Y-93006295D01*
X139292553Y-93087647D01*
X139373905Y-93186774D01*
X139373906Y-93186776D01*
X139434355Y-93299867D01*
X139434355Y-93299868D01*
X139471580Y-93422582D01*
X139484149Y-93550200D01*
X139471580Y-93677818D01*
X139446763Y-93759627D01*
X139434355Y-93800533D01*
X139380819Y-93900691D01*
X139373905Y-93913626D01*
X139292553Y-94012753D01*
X139193426Y-94094105D01*
X139193424Y-94094106D01*
X139080333Y-94154555D01*
X139039427Y-94166963D01*
X138957618Y-94191780D01*
X138893855Y-94198060D01*
X138861974Y-94201200D01*
X137998026Y-94201200D01*
X137966145Y-94198060D01*
X137902382Y-94191780D01*
X137820573Y-94166963D01*
X137779667Y-94154555D01*
X137666576Y-94094106D01*
X137666574Y-94094105D01*
X137567447Y-94012753D01*
X137486095Y-93913626D01*
X137479181Y-93900691D01*
X137425645Y-93800533D01*
X137413237Y-93759627D01*
X137388420Y-93677818D01*
X137375851Y-93550200D01*
X137388420Y-93422582D01*
X137425645Y-93299868D01*
X137425645Y-93299867D01*
X137486094Y-93186776D01*
X137486095Y-93186774D01*
X137567447Y-93087647D01*
X137666574Y-93006295D01*
X137679509Y-92999381D01*
X137779667Y-92945845D01*
X137833125Y-92929629D01*
X137902382Y-92908620D01*
X137966145Y-92902340D01*
X137998026Y-92899200D01*
X138861974Y-92899200D01*
X138893855Y-92902340D01*
X138893855Y-92902340D01*
G37*
G36*
X93173855Y-92902340D02*
X93237618Y-92908620D01*
X93306875Y-92929629D01*
X93360333Y-92945845D01*
X93460491Y-92999381D01*
X93473426Y-93006295D01*
X93572553Y-93087647D01*
X93653905Y-93186774D01*
X93653906Y-93186776D01*
X93714355Y-93299867D01*
X93714355Y-93299868D01*
X93751580Y-93422582D01*
X93764149Y-93550200D01*
X93751580Y-93677818D01*
X93726763Y-93759627D01*
X93714355Y-93800533D01*
X93660819Y-93900691D01*
X93653905Y-93913626D01*
X93572553Y-94012753D01*
X93473426Y-94094105D01*
X93473424Y-94094106D01*
X93360333Y-94154555D01*
X93319427Y-94166963D01*
X93237618Y-94191780D01*
X93173855Y-94198060D01*
X93141974Y-94201200D01*
X92278026Y-94201200D01*
X92246145Y-94198060D01*
X92182382Y-94191780D01*
X92100573Y-94166963D01*
X92059667Y-94154555D01*
X91946576Y-94094106D01*
X91946574Y-94094105D01*
X91847447Y-94012753D01*
X91766095Y-93913626D01*
X91759181Y-93900691D01*
X91705645Y-93800533D01*
X91693237Y-93759627D01*
X91668420Y-93677818D01*
X91655851Y-93550200D01*
X91668420Y-93422582D01*
X91705645Y-93299868D01*
X91705645Y-93299867D01*
X91766094Y-93186776D01*
X91766095Y-93186774D01*
X91847447Y-93087647D01*
X91946574Y-93006295D01*
X91959509Y-92999381D01*
X92059667Y-92945845D01*
X92113125Y-92929629D01*
X92182382Y-92908620D01*
X92246145Y-92902340D01*
X92278026Y-92899200D01*
X93141974Y-92899200D01*
X93173855Y-92902340D01*
X93173855Y-92902340D01*
G37*
G36*
X78258894Y-91503833D02*
X78431294Y-91556131D01*
X78431296Y-91556132D01*
X78590183Y-91641059D01*
X78614725Y-91661200D01*
X78729449Y-91755351D01*
X78843740Y-91894616D01*
X78928669Y-92053506D01*
X78980967Y-92225906D01*
X78998625Y-92405200D01*
X78980967Y-92584494D01*
X78928669Y-92756894D01*
X78928668Y-92756896D01*
X78843741Y-92915783D01*
X78729449Y-93055049D01*
X78590183Y-93169341D01*
X78557564Y-93186776D01*
X78431294Y-93254269D01*
X78258894Y-93306567D01*
X78124531Y-93319800D01*
X78034669Y-93319800D01*
X77900306Y-93306567D01*
X77727906Y-93254269D01*
X77601636Y-93186776D01*
X77569017Y-93169341D01*
X77429751Y-93055049D01*
X77315459Y-92915783D01*
X77230532Y-92756896D01*
X77230531Y-92756894D01*
X77178233Y-92584494D01*
X77160575Y-92405200D01*
X77178233Y-92225906D01*
X77230531Y-92053506D01*
X77315460Y-91894616D01*
X77429751Y-91755351D01*
X77544475Y-91661200D01*
X77569017Y-91641059D01*
X77727904Y-91556132D01*
X77727906Y-91556131D01*
X77900306Y-91503833D01*
X78034669Y-91490600D01*
X78124531Y-91490600D01*
X78258894Y-91503833D01*
X78258894Y-91503833D01*
G37*
G36*
X80798894Y-91503833D02*
X80971294Y-91556131D01*
X80971296Y-91556132D01*
X81130183Y-91641059D01*
X81154725Y-91661200D01*
X81269449Y-91755351D01*
X81383740Y-91894616D01*
X81468669Y-92053506D01*
X81520967Y-92225906D01*
X81538625Y-92405200D01*
X81520967Y-92584494D01*
X81468669Y-92756894D01*
X81468668Y-92756896D01*
X81383741Y-92915783D01*
X81269449Y-93055049D01*
X81130183Y-93169341D01*
X81097564Y-93186776D01*
X80971294Y-93254269D01*
X80798894Y-93306567D01*
X80664531Y-93319800D01*
X80574669Y-93319800D01*
X80440306Y-93306567D01*
X80267906Y-93254269D01*
X80141636Y-93186776D01*
X80109017Y-93169341D01*
X79969751Y-93055049D01*
X79855459Y-92915783D01*
X79770532Y-92756896D01*
X79770531Y-92756894D01*
X79718233Y-92584494D01*
X79700575Y-92405200D01*
X79718233Y-92225906D01*
X79770531Y-92053506D01*
X79855460Y-91894616D01*
X79969751Y-91755351D01*
X80084475Y-91661200D01*
X80109017Y-91641059D01*
X80267904Y-91556132D01*
X80267906Y-91556131D01*
X80440306Y-91503833D01*
X80574669Y-91490600D01*
X80664531Y-91490600D01*
X80798894Y-91503833D01*
X80798894Y-91503833D01*
G37*
G36*
X93173855Y-90362340D02*
X93237618Y-90368620D01*
X93319427Y-90393437D01*
X93360333Y-90405845D01*
X93460491Y-90459381D01*
X93473426Y-90466295D01*
X93572553Y-90547647D01*
X93653905Y-90646774D01*
X93653906Y-90646776D01*
X93714355Y-90759867D01*
X93714355Y-90759868D01*
X93751580Y-90882582D01*
X93764149Y-91010200D01*
X93751580Y-91137818D01*
X93726763Y-91219627D01*
X93714355Y-91260533D01*
X93660819Y-91360691D01*
X93653905Y-91373626D01*
X93572553Y-91472753D01*
X93473426Y-91554105D01*
X93473424Y-91554106D01*
X93360333Y-91614555D01*
X93319427Y-91626963D01*
X93237618Y-91651780D01*
X93173855Y-91658060D01*
X93141974Y-91661200D01*
X92278026Y-91661200D01*
X92246145Y-91658060D01*
X92182382Y-91651780D01*
X92100573Y-91626963D01*
X92059667Y-91614555D01*
X91946576Y-91554106D01*
X91946574Y-91554105D01*
X91847447Y-91472753D01*
X91766095Y-91373626D01*
X91759181Y-91360691D01*
X91705645Y-91260533D01*
X91693237Y-91219627D01*
X91668420Y-91137818D01*
X91655851Y-91010200D01*
X91668420Y-90882582D01*
X91705645Y-90759868D01*
X91705645Y-90759867D01*
X91766094Y-90646776D01*
X91766095Y-90646774D01*
X91847447Y-90547647D01*
X91946574Y-90466295D01*
X91959509Y-90459381D01*
X92059667Y-90405845D01*
X92100573Y-90393437D01*
X92182382Y-90368620D01*
X92246145Y-90362340D01*
X92278026Y-90359200D01*
X93141974Y-90359200D01*
X93173855Y-90362340D01*
X93173855Y-90362340D01*
G37*
G36*
X138893855Y-90362340D02*
X138957618Y-90368620D01*
X139039427Y-90393437D01*
X139080333Y-90405845D01*
X139180491Y-90459381D01*
X139193426Y-90466295D01*
X139292553Y-90547647D01*
X139373905Y-90646774D01*
X139373906Y-90646776D01*
X139434355Y-90759867D01*
X139434355Y-90759868D01*
X139471580Y-90882582D01*
X139484149Y-91010200D01*
X139471580Y-91137818D01*
X139446763Y-91219627D01*
X139434355Y-91260533D01*
X139380819Y-91360691D01*
X139373905Y-91373626D01*
X139292553Y-91472753D01*
X139193426Y-91554105D01*
X139193424Y-91554106D01*
X139080333Y-91614555D01*
X139039427Y-91626963D01*
X138957618Y-91651780D01*
X138893855Y-91658060D01*
X138861974Y-91661200D01*
X137998026Y-91661200D01*
X137966145Y-91658060D01*
X137902382Y-91651780D01*
X137820573Y-91626963D01*
X137779667Y-91614555D01*
X137666576Y-91554106D01*
X137666574Y-91554105D01*
X137567447Y-91472753D01*
X137486095Y-91373626D01*
X137479181Y-91360691D01*
X137425645Y-91260533D01*
X137413237Y-91219627D01*
X137388420Y-91137818D01*
X137375851Y-91010200D01*
X137388420Y-90882582D01*
X137425645Y-90759868D01*
X137425645Y-90759867D01*
X137486094Y-90646776D01*
X137486095Y-90646774D01*
X137567447Y-90547647D01*
X137666574Y-90466295D01*
X137679509Y-90459381D01*
X137779667Y-90405845D01*
X137820573Y-90393437D01*
X137902382Y-90368620D01*
X137966145Y-90362340D01*
X137998026Y-90359200D01*
X138861974Y-90359200D01*
X138893855Y-90362340D01*
X138893855Y-90362340D01*
G37*
G36*
X80798894Y-88963833D02*
X80971294Y-89016131D01*
X80971296Y-89016132D01*
X81130183Y-89101059D01*
X81154725Y-89121200D01*
X81269449Y-89215351D01*
X81383740Y-89354616D01*
X81468669Y-89513506D01*
X81520967Y-89685906D01*
X81538625Y-89865200D01*
X81520967Y-90044494D01*
X81468669Y-90216894D01*
X81468668Y-90216896D01*
X81383741Y-90375783D01*
X81269449Y-90515049D01*
X81130183Y-90629341D01*
X81097564Y-90646776D01*
X80971294Y-90714269D01*
X80798894Y-90766567D01*
X80664531Y-90779800D01*
X80574669Y-90779800D01*
X80440306Y-90766567D01*
X80267906Y-90714269D01*
X80141636Y-90646776D01*
X80109017Y-90629341D01*
X79969751Y-90515049D01*
X79855459Y-90375783D01*
X79770532Y-90216896D01*
X79770531Y-90216894D01*
X79718233Y-90044494D01*
X79700575Y-89865200D01*
X79718233Y-89685906D01*
X79770531Y-89513506D01*
X79855460Y-89354616D01*
X79969751Y-89215351D01*
X80084475Y-89121200D01*
X80109017Y-89101059D01*
X80267904Y-89016132D01*
X80267906Y-89016131D01*
X80440306Y-88963833D01*
X80574669Y-88950600D01*
X80664531Y-88950600D01*
X80798894Y-88963833D01*
X80798894Y-88963833D01*
G37*
G36*
X78258894Y-88963833D02*
X78431294Y-89016131D01*
X78431296Y-89016132D01*
X78590183Y-89101059D01*
X78614725Y-89121200D01*
X78729449Y-89215351D01*
X78843740Y-89354616D01*
X78928669Y-89513506D01*
X78980967Y-89685906D01*
X78998625Y-89865200D01*
X78980967Y-90044494D01*
X78928669Y-90216894D01*
X78928668Y-90216896D01*
X78843741Y-90375783D01*
X78729449Y-90515049D01*
X78590183Y-90629341D01*
X78557564Y-90646776D01*
X78431294Y-90714269D01*
X78258894Y-90766567D01*
X78124531Y-90779800D01*
X78034669Y-90779800D01*
X77900306Y-90766567D01*
X77727906Y-90714269D01*
X77601636Y-90646776D01*
X77569017Y-90629341D01*
X77429751Y-90515049D01*
X77315459Y-90375783D01*
X77230532Y-90216896D01*
X77230531Y-90216894D01*
X77178233Y-90044494D01*
X77160575Y-89865200D01*
X77178233Y-89685906D01*
X77230531Y-89513506D01*
X77315460Y-89354616D01*
X77429751Y-89215351D01*
X77544475Y-89121200D01*
X77569017Y-89101059D01*
X77727904Y-89016132D01*
X77727906Y-89016131D01*
X77900306Y-88963833D01*
X78034669Y-88950600D01*
X78124531Y-88950600D01*
X78258894Y-88963833D01*
X78258894Y-88963833D01*
G37*
G36*
X93173855Y-87822340D02*
X93237618Y-87828620D01*
X93319427Y-87853437D01*
X93360333Y-87865845D01*
X93460491Y-87919381D01*
X93473426Y-87926295D01*
X93572553Y-88007647D01*
X93653905Y-88106774D01*
X93653906Y-88106776D01*
X93714355Y-88219867D01*
X93714355Y-88219868D01*
X93751580Y-88342582D01*
X93764149Y-88470200D01*
X93751580Y-88597818D01*
X93726763Y-88679627D01*
X93714355Y-88720533D01*
X93660819Y-88820691D01*
X93653905Y-88833626D01*
X93572553Y-88932753D01*
X93473426Y-89014105D01*
X93473424Y-89014106D01*
X93360333Y-89074555D01*
X93319427Y-89086963D01*
X93237618Y-89111780D01*
X93173855Y-89118060D01*
X93141974Y-89121200D01*
X92278026Y-89121200D01*
X92246145Y-89118060D01*
X92182382Y-89111780D01*
X92100573Y-89086963D01*
X92059667Y-89074555D01*
X91946576Y-89014106D01*
X91946574Y-89014105D01*
X91847447Y-88932753D01*
X91766095Y-88833626D01*
X91759181Y-88820691D01*
X91705645Y-88720533D01*
X91693237Y-88679627D01*
X91668420Y-88597818D01*
X91655851Y-88470200D01*
X91668420Y-88342582D01*
X91705645Y-88219868D01*
X91705645Y-88219867D01*
X91766094Y-88106776D01*
X91766095Y-88106774D01*
X91847447Y-88007647D01*
X91946574Y-87926295D01*
X91959509Y-87919381D01*
X92059667Y-87865845D01*
X92100573Y-87853437D01*
X92182382Y-87828620D01*
X92246145Y-87822340D01*
X92278026Y-87819200D01*
X93141974Y-87819200D01*
X93173855Y-87822340D01*
X93173855Y-87822340D01*
G37*
G36*
X138893855Y-87822340D02*
X138957618Y-87828620D01*
X139039427Y-87853437D01*
X139080333Y-87865845D01*
X139180491Y-87919381D01*
X139193426Y-87926295D01*
X139292553Y-88007647D01*
X139373905Y-88106774D01*
X139373906Y-88106776D01*
X139434355Y-88219867D01*
X139434355Y-88219868D01*
X139471580Y-88342582D01*
X139484149Y-88470200D01*
X139471580Y-88597818D01*
X139446763Y-88679627D01*
X139434355Y-88720533D01*
X139380819Y-88820691D01*
X139373905Y-88833626D01*
X139292553Y-88932753D01*
X139193426Y-89014105D01*
X139193424Y-89014106D01*
X139080333Y-89074555D01*
X139039427Y-89086963D01*
X138957618Y-89111780D01*
X138893855Y-89118060D01*
X138861974Y-89121200D01*
X137998026Y-89121200D01*
X137966145Y-89118060D01*
X137902382Y-89111780D01*
X137820573Y-89086963D01*
X137779667Y-89074555D01*
X137666576Y-89014106D01*
X137666574Y-89014105D01*
X137567447Y-88932753D01*
X137486095Y-88833626D01*
X137479181Y-88820691D01*
X137425645Y-88720533D01*
X137413237Y-88679627D01*
X137388420Y-88597818D01*
X137375851Y-88470200D01*
X137388420Y-88342582D01*
X137425645Y-88219868D01*
X137425645Y-88219867D01*
X137486094Y-88106776D01*
X137486095Y-88106774D01*
X137567447Y-88007647D01*
X137666574Y-87926295D01*
X137679509Y-87919381D01*
X137779667Y-87865845D01*
X137820573Y-87853437D01*
X137902382Y-87828620D01*
X137966145Y-87822340D01*
X137998026Y-87819200D01*
X138861974Y-87819200D01*
X138893855Y-87822340D01*
X138893855Y-87822340D01*
G37*
G36*
X78258894Y-86423833D02*
X78431294Y-86476131D01*
X78431296Y-86476132D01*
X78590183Y-86561059D01*
X78729449Y-86675351D01*
X78843741Y-86814617D01*
X78876098Y-86875153D01*
X78928669Y-86973506D01*
X78980967Y-87145906D01*
X78998625Y-87325200D01*
X78980967Y-87504494D01*
X78928669Y-87676894D01*
X78928668Y-87676896D01*
X78843741Y-87835783D01*
X78729449Y-87975049D01*
X78590183Y-88089341D01*
X78557564Y-88106776D01*
X78431294Y-88174269D01*
X78258894Y-88226567D01*
X78124531Y-88239800D01*
X78034669Y-88239800D01*
X77900306Y-88226567D01*
X77727906Y-88174269D01*
X77601636Y-88106776D01*
X77569017Y-88089341D01*
X77429751Y-87975049D01*
X77315459Y-87835783D01*
X77230532Y-87676896D01*
X77230531Y-87676894D01*
X77178233Y-87504494D01*
X77160575Y-87325200D01*
X77178233Y-87145906D01*
X77230531Y-86973506D01*
X77283102Y-86875153D01*
X77315459Y-86814617D01*
X77429751Y-86675351D01*
X77569017Y-86561059D01*
X77727904Y-86476132D01*
X77727906Y-86476131D01*
X77900306Y-86423833D01*
X78034669Y-86410600D01*
X78124531Y-86410600D01*
X78258894Y-86423833D01*
X78258894Y-86423833D01*
G37*
G36*
X80798894Y-86423833D02*
X80971294Y-86476131D01*
X80971296Y-86476132D01*
X81130183Y-86561059D01*
X81269449Y-86675351D01*
X81383741Y-86814617D01*
X81416098Y-86875153D01*
X81468669Y-86973506D01*
X81520967Y-87145906D01*
X81538625Y-87325200D01*
X81520967Y-87504494D01*
X81468669Y-87676894D01*
X81468668Y-87676896D01*
X81383741Y-87835783D01*
X81269449Y-87975049D01*
X81130183Y-88089341D01*
X81097564Y-88106776D01*
X80971294Y-88174269D01*
X80798894Y-88226567D01*
X80664531Y-88239800D01*
X80574669Y-88239800D01*
X80440306Y-88226567D01*
X80267906Y-88174269D01*
X80141636Y-88106776D01*
X80109017Y-88089341D01*
X79969751Y-87975049D01*
X79855459Y-87835783D01*
X79770532Y-87676896D01*
X79770531Y-87676894D01*
X79718233Y-87504494D01*
X79700575Y-87325200D01*
X79718233Y-87145906D01*
X79770531Y-86973506D01*
X79823102Y-86875153D01*
X79855459Y-86814617D01*
X79969751Y-86675351D01*
X80109017Y-86561059D01*
X80267904Y-86476132D01*
X80267906Y-86476131D01*
X80440306Y-86423833D01*
X80574669Y-86410600D01*
X80664531Y-86410600D01*
X80798894Y-86423833D01*
X80798894Y-86423833D01*
G37*
G36*
X204311825Y-85143360D02*
X204311828Y-85143361D01*
X204311829Y-85143361D01*
X204491093Y-85197740D01*
X204491095Y-85197741D01*
X204656305Y-85286048D01*
X204801112Y-85404888D01*
X204919952Y-85549695D01*
X205008259Y-85714905D01*
X205062640Y-85894175D01*
X205081001Y-86080600D01*
X205062640Y-86267025D01*
X205062639Y-86267028D01*
X205062639Y-86267029D01*
X205015073Y-86423834D01*
X205008259Y-86446295D01*
X204919952Y-86611505D01*
X204801112Y-86756312D01*
X204656305Y-86875152D01*
X204656303Y-86875153D01*
X204491093Y-86963460D01*
X204311829Y-87017839D01*
X204311828Y-87017839D01*
X204311825Y-87017840D01*
X204172118Y-87031600D01*
X202278682Y-87031600D01*
X202138975Y-87017840D01*
X202138972Y-87017839D01*
X202138971Y-87017839D01*
X201959707Y-86963460D01*
X201794497Y-86875153D01*
X201794495Y-86875152D01*
X201649688Y-86756312D01*
X201530848Y-86611505D01*
X201442541Y-86446295D01*
X201435728Y-86423834D01*
X201388161Y-86267029D01*
X201388161Y-86267028D01*
X201388160Y-86267025D01*
X201369799Y-86080600D01*
X201388160Y-85894175D01*
X201442541Y-85714905D01*
X201530848Y-85549695D01*
X201649688Y-85404888D01*
X201794495Y-85286048D01*
X201959705Y-85197741D01*
X201959707Y-85197740D01*
X202138971Y-85143361D01*
X202138972Y-85143361D01*
X202138975Y-85143360D01*
X202278682Y-85129600D01*
X204172118Y-85129600D01*
X204311825Y-85143360D01*
X204311825Y-85143360D01*
G37*
G36*
X138893855Y-85282340D02*
X138957618Y-85288620D01*
X139039427Y-85313437D01*
X139080333Y-85325845D01*
X139180491Y-85379381D01*
X139193426Y-85386295D01*
X139292553Y-85467647D01*
X139373905Y-85566774D01*
X139373906Y-85566776D01*
X139434355Y-85679867D01*
X139434355Y-85679868D01*
X139471580Y-85802582D01*
X139484149Y-85930200D01*
X139471580Y-86057818D01*
X139464669Y-86080600D01*
X139434355Y-86180533D01*
X139388124Y-86267025D01*
X139373905Y-86293626D01*
X139292553Y-86392753D01*
X139193426Y-86474105D01*
X139193424Y-86474106D01*
X139080333Y-86534555D01*
X139039427Y-86546963D01*
X138957618Y-86571780D01*
X138893855Y-86578060D01*
X138861974Y-86581200D01*
X137998026Y-86581200D01*
X137966145Y-86578060D01*
X137902382Y-86571780D01*
X137820573Y-86546963D01*
X137779667Y-86534555D01*
X137666576Y-86474106D01*
X137666574Y-86474105D01*
X137567447Y-86392753D01*
X137486095Y-86293626D01*
X137471876Y-86267025D01*
X137425645Y-86180533D01*
X137395331Y-86080600D01*
X137388420Y-86057818D01*
X137375851Y-85930200D01*
X137388420Y-85802582D01*
X137425645Y-85679868D01*
X137425645Y-85679867D01*
X137486094Y-85566776D01*
X137486095Y-85566774D01*
X137567447Y-85467647D01*
X137666574Y-85386295D01*
X137679509Y-85379381D01*
X137779667Y-85325845D01*
X137820573Y-85313437D01*
X137902382Y-85288620D01*
X137966145Y-85282340D01*
X137998026Y-85279200D01*
X138861974Y-85279200D01*
X138893855Y-85282340D01*
X138893855Y-85282340D01*
G37*
G36*
X93173855Y-85282340D02*
X93237618Y-85288620D01*
X93319427Y-85313437D01*
X93360333Y-85325845D01*
X93460491Y-85379381D01*
X93473426Y-85386295D01*
X93572553Y-85467647D01*
X93653905Y-85566774D01*
X93653906Y-85566776D01*
X93714355Y-85679867D01*
X93714355Y-85679868D01*
X93751580Y-85802582D01*
X93764149Y-85930200D01*
X93751580Y-86057818D01*
X93744669Y-86080600D01*
X93714355Y-86180533D01*
X93668124Y-86267025D01*
X93653905Y-86293626D01*
X93572553Y-86392753D01*
X93473426Y-86474105D01*
X93473424Y-86474106D01*
X93360333Y-86534555D01*
X93319427Y-86546963D01*
X93237618Y-86571780D01*
X93173855Y-86578060D01*
X93141974Y-86581200D01*
X92278026Y-86581200D01*
X92246145Y-86578060D01*
X92182382Y-86571780D01*
X92100573Y-86546963D01*
X92059667Y-86534555D01*
X91946576Y-86474106D01*
X91946574Y-86474105D01*
X91847447Y-86392753D01*
X91766095Y-86293626D01*
X91751876Y-86267025D01*
X91705645Y-86180533D01*
X91675331Y-86080600D01*
X91668420Y-86057818D01*
X91655851Y-85930200D01*
X91668420Y-85802582D01*
X91705645Y-85679868D01*
X91705645Y-85679867D01*
X91766094Y-85566776D01*
X91766095Y-85566774D01*
X91847447Y-85467647D01*
X91946574Y-85386295D01*
X91959509Y-85379381D01*
X92059667Y-85325845D01*
X92100573Y-85313437D01*
X92182382Y-85288620D01*
X92246145Y-85282340D01*
X92278026Y-85279200D01*
X93141974Y-85279200D01*
X93173855Y-85282340D01*
X93173855Y-85282340D01*
G37*
G36*
X80798894Y-83883833D02*
X80971294Y-83936131D01*
X80971296Y-83936132D01*
X81130183Y-84021059D01*
X81269449Y-84135351D01*
X81383741Y-84274617D01*
X81468668Y-84433504D01*
X81468669Y-84433506D01*
X81520967Y-84605906D01*
X81538625Y-84785200D01*
X81520967Y-84964494D01*
X81468669Y-85136894D01*
X81468668Y-85136896D01*
X81383741Y-85295783D01*
X81269449Y-85435049D01*
X81130183Y-85549341D01*
X81097564Y-85566776D01*
X80971294Y-85634269D01*
X80798894Y-85686567D01*
X80664531Y-85699800D01*
X80574669Y-85699800D01*
X80440306Y-85686567D01*
X80267906Y-85634269D01*
X80141636Y-85566776D01*
X80109017Y-85549341D01*
X79969751Y-85435049D01*
X79855459Y-85295783D01*
X79770532Y-85136896D01*
X79770531Y-85136894D01*
X79718233Y-84964494D01*
X79700575Y-84785200D01*
X79718233Y-84605906D01*
X79770531Y-84433506D01*
X79770532Y-84433504D01*
X79855459Y-84274617D01*
X79969751Y-84135351D01*
X80109017Y-84021059D01*
X80267904Y-83936132D01*
X80267906Y-83936131D01*
X80440306Y-83883833D01*
X80574669Y-83870600D01*
X80664531Y-83870600D01*
X80798894Y-83883833D01*
X80798894Y-83883833D01*
G37*
G36*
X78994200Y-85699800D02*
X77165000Y-85699800D01*
X77165000Y-83870600D01*
X78994200Y-83870600D01*
X78994200Y-85699800D01*
X78994200Y-85699800D01*
G37*
G36*
X184985331Y-80818211D02*
X185313092Y-80953974D01*
X185608073Y-81151074D01*
X185858926Y-81401927D01*
X186056026Y-81696908D01*
X186191789Y-82024669D01*
X186261000Y-82372616D01*
X186261000Y-82727384D01*
X186191789Y-83075331D01*
X186056026Y-83403092D01*
X185858926Y-83698073D01*
X185608073Y-83948926D01*
X185313092Y-84146026D01*
X184985331Y-84281789D01*
X184637384Y-84351000D01*
X184282616Y-84351000D01*
X183934669Y-84281789D01*
X183606908Y-84146026D01*
X183311927Y-83948926D01*
X183061074Y-83698073D01*
X182863974Y-83403092D01*
X182728211Y-83075331D01*
X182659000Y-82727384D01*
X182659000Y-82372616D01*
X182728211Y-82024669D01*
X182863974Y-81696908D01*
X183061074Y-81401927D01*
X183311927Y-81151074D01*
X183606908Y-80953974D01*
X183934669Y-80818211D01*
X184282616Y-80749000D01*
X184637384Y-80749000D01*
X184985331Y-80818211D01*
X184985331Y-80818211D01*
G37*
G36*
X152985331Y-80818211D02*
X153313092Y-80953974D01*
X153608073Y-81151074D01*
X153858926Y-81401927D01*
X154056026Y-81696908D01*
X154191789Y-82024669D01*
X154261000Y-82372616D01*
X154261000Y-82727384D01*
X154191789Y-83075331D01*
X154056026Y-83403092D01*
X153858926Y-83698073D01*
X153608073Y-83948926D01*
X153313092Y-84146026D01*
X152985331Y-84281789D01*
X152637384Y-84351000D01*
X152282616Y-84351000D01*
X151934669Y-84281789D01*
X151606908Y-84146026D01*
X151311927Y-83948926D01*
X151061074Y-83698073D01*
X150863974Y-83403092D01*
X150728211Y-83075331D01*
X150659000Y-82727384D01*
X150659000Y-82372616D01*
X150728211Y-82024669D01*
X150863974Y-81696908D01*
X151061074Y-81401927D01*
X151311927Y-81151074D01*
X151606908Y-80953974D01*
X151934669Y-80818211D01*
X152282616Y-80749000D01*
X152637384Y-80749000D01*
X152985331Y-80818211D01*
X152985331Y-80818211D01*
G37*
G36*
X138893855Y-82742340D02*
X138957618Y-82748620D01*
X139039427Y-82773437D01*
X139080333Y-82785845D01*
X139180491Y-82839381D01*
X139193426Y-82846295D01*
X139292553Y-82927647D01*
X139373905Y-83026774D01*
X139373906Y-83026776D01*
X139434355Y-83139867D01*
X139434355Y-83139868D01*
X139471580Y-83262582D01*
X139484149Y-83390200D01*
X139471580Y-83517818D01*
X139446763Y-83599627D01*
X139434355Y-83640533D01*
X139403599Y-83698073D01*
X139373905Y-83753626D01*
X139292553Y-83852753D01*
X139193426Y-83934105D01*
X139193424Y-83934106D01*
X139080333Y-83994555D01*
X139039427Y-84006963D01*
X138957618Y-84031780D01*
X138893855Y-84038060D01*
X138861974Y-84041200D01*
X137998026Y-84041200D01*
X137966145Y-84038060D01*
X137902382Y-84031780D01*
X137820573Y-84006963D01*
X137779667Y-83994555D01*
X137666576Y-83934106D01*
X137666574Y-83934105D01*
X137567447Y-83852753D01*
X137486095Y-83753626D01*
X137456401Y-83698073D01*
X137425645Y-83640533D01*
X137413237Y-83599627D01*
X137388420Y-83517818D01*
X137375851Y-83390200D01*
X137388420Y-83262582D01*
X137425645Y-83139868D01*
X137425645Y-83139867D01*
X137486094Y-83026776D01*
X137486095Y-83026774D01*
X137567447Y-82927647D01*
X137666574Y-82846295D01*
X137679509Y-82839381D01*
X137779667Y-82785845D01*
X137820573Y-82773437D01*
X137902382Y-82748620D01*
X137966145Y-82742340D01*
X137998026Y-82739200D01*
X138861974Y-82739200D01*
X138893855Y-82742340D01*
X138893855Y-82742340D01*
G37*
G36*
X93173855Y-82742340D02*
X93237618Y-82748620D01*
X93319427Y-82773437D01*
X93360333Y-82785845D01*
X93460491Y-82839381D01*
X93473426Y-82846295D01*
X93572553Y-82927647D01*
X93653905Y-83026774D01*
X93653906Y-83026776D01*
X93714355Y-83139867D01*
X93714355Y-83139868D01*
X93751580Y-83262582D01*
X93764149Y-83390200D01*
X93751580Y-83517818D01*
X93726763Y-83599627D01*
X93714355Y-83640533D01*
X93683599Y-83698073D01*
X93653905Y-83753626D01*
X93572553Y-83852753D01*
X93473426Y-83934105D01*
X93473424Y-83934106D01*
X93360333Y-83994555D01*
X93319427Y-84006963D01*
X93237618Y-84031780D01*
X93173855Y-84038060D01*
X93141974Y-84041200D01*
X92278026Y-84041200D01*
X92246145Y-84038060D01*
X92182382Y-84031780D01*
X92100573Y-84006963D01*
X92059667Y-83994555D01*
X91946576Y-83934106D01*
X91946574Y-83934105D01*
X91847447Y-83852753D01*
X91766095Y-83753626D01*
X91736401Y-83698073D01*
X91705645Y-83640533D01*
X91693237Y-83599627D01*
X91668420Y-83517818D01*
X91655851Y-83390200D01*
X91668420Y-83262582D01*
X91705645Y-83139868D01*
X91705645Y-83139867D01*
X91766094Y-83026776D01*
X91766095Y-83026774D01*
X91847447Y-82927647D01*
X91946574Y-82846295D01*
X91959509Y-82839381D01*
X92059667Y-82785845D01*
X92100573Y-82773437D01*
X92182382Y-82748620D01*
X92246145Y-82742340D01*
X92278026Y-82739200D01*
X93141974Y-82739200D01*
X93173855Y-82742340D01*
X93173855Y-82742340D01*
G37*
G36*
X204936318Y-80053534D02*
X204968824Y-80063395D01*
X204998783Y-80079408D01*
X205025041Y-80100959D01*
X205046592Y-80127217D01*
X205062605Y-80157176D01*
X205072466Y-80189682D01*
X205076400Y-80229629D01*
X205076400Y-81771571D01*
X205072466Y-81811518D01*
X205062605Y-81844024D01*
X205046592Y-81873983D01*
X205025041Y-81900241D01*
X204998783Y-81921792D01*
X204968824Y-81937805D01*
X204936318Y-81947666D01*
X204896371Y-81951600D01*
X201554429Y-81951600D01*
X201514482Y-81947666D01*
X201481976Y-81937805D01*
X201452017Y-81921792D01*
X201425759Y-81900241D01*
X201404208Y-81873983D01*
X201388195Y-81844024D01*
X201378334Y-81811518D01*
X201374400Y-81771571D01*
X201374400Y-80229629D01*
X201378334Y-80189682D01*
X201388195Y-80157176D01*
X201404208Y-80127217D01*
X201425759Y-80100959D01*
X201452017Y-80079408D01*
X201481976Y-80063395D01*
X201514482Y-80053534D01*
X201554429Y-80049600D01*
X204896371Y-80049600D01*
X204936318Y-80053534D01*
X204936318Y-80053534D01*
G37*
G36*
X93173855Y-80202340D02*
X93237618Y-80208620D01*
X93306875Y-80229629D01*
X93360333Y-80245845D01*
X93460491Y-80299381D01*
X93473426Y-80306295D01*
X93572553Y-80387647D01*
X93653905Y-80486774D01*
X93653906Y-80486776D01*
X93714355Y-80599867D01*
X93714355Y-80599868D01*
X93751580Y-80722582D01*
X93764149Y-80850200D01*
X93751580Y-80977818D01*
X93726763Y-81059627D01*
X93714355Y-81100533D01*
X93687341Y-81151072D01*
X93653905Y-81213626D01*
X93572553Y-81312753D01*
X93473426Y-81394105D01*
X93473424Y-81394106D01*
X93360333Y-81454555D01*
X93319427Y-81466963D01*
X93237618Y-81491780D01*
X93173855Y-81498060D01*
X93141974Y-81501200D01*
X92278026Y-81501200D01*
X92246145Y-81498060D01*
X92182382Y-81491780D01*
X92100573Y-81466963D01*
X92059667Y-81454555D01*
X91946576Y-81394106D01*
X91946574Y-81394105D01*
X91847447Y-81312753D01*
X91766095Y-81213626D01*
X91732659Y-81151072D01*
X91705645Y-81100533D01*
X91693237Y-81059627D01*
X91668420Y-80977818D01*
X91655851Y-80850200D01*
X91668420Y-80722582D01*
X91705645Y-80599868D01*
X91705645Y-80599867D01*
X91766094Y-80486776D01*
X91766095Y-80486774D01*
X91847447Y-80387647D01*
X91946574Y-80306295D01*
X91959509Y-80299381D01*
X92059667Y-80245845D01*
X92113125Y-80229629D01*
X92182382Y-80208620D01*
X92246145Y-80202340D01*
X92278026Y-80199200D01*
X93141974Y-80199200D01*
X93173855Y-80202340D01*
X93173855Y-80202340D01*
G37*
G36*
X138893855Y-80202340D02*
X138957618Y-80208620D01*
X139026875Y-80229629D01*
X139080333Y-80245845D01*
X139180491Y-80299381D01*
X139193426Y-80306295D01*
X139292553Y-80387647D01*
X139373905Y-80486774D01*
X139373906Y-80486776D01*
X139434355Y-80599867D01*
X139434355Y-80599868D01*
X139471580Y-80722582D01*
X139484149Y-80850200D01*
X139471580Y-80977818D01*
X139446763Y-81059627D01*
X139434355Y-81100533D01*
X139407341Y-81151072D01*
X139373905Y-81213626D01*
X139292553Y-81312753D01*
X139193426Y-81394105D01*
X139193424Y-81394106D01*
X139080333Y-81454555D01*
X139039427Y-81466963D01*
X138957618Y-81491780D01*
X138893855Y-81498060D01*
X138861974Y-81501200D01*
X137998026Y-81501200D01*
X137966145Y-81498060D01*
X137902382Y-81491780D01*
X137820573Y-81466963D01*
X137779667Y-81454555D01*
X137666576Y-81394106D01*
X137666574Y-81394105D01*
X137567447Y-81312753D01*
X137486095Y-81213626D01*
X137452659Y-81151072D01*
X137425645Y-81100533D01*
X137413237Y-81059627D01*
X137388420Y-80977818D01*
X137375851Y-80850200D01*
X137388420Y-80722582D01*
X137425645Y-80599868D01*
X137425645Y-80599867D01*
X137486094Y-80486776D01*
X137486095Y-80486774D01*
X137567447Y-80387647D01*
X137666574Y-80306295D01*
X137679509Y-80299381D01*
X137779667Y-80245845D01*
X137833125Y-80229629D01*
X137902382Y-80208620D01*
X137966145Y-80202340D01*
X137998026Y-80199200D01*
X138861974Y-80199200D01*
X138893855Y-80202340D01*
X138893855Y-80202340D01*
G37*
G36*
X138893855Y-77662340D02*
X138957618Y-77668620D01*
X139039427Y-77693437D01*
X139080333Y-77705845D01*
X139180491Y-77759381D01*
X139193426Y-77766295D01*
X139292553Y-77847647D01*
X139373905Y-77946774D01*
X139373906Y-77946776D01*
X139434355Y-78059867D01*
X139434355Y-78059868D01*
X139471580Y-78182582D01*
X139484149Y-78310200D01*
X139471580Y-78437818D01*
X139446763Y-78519627D01*
X139434355Y-78560533D01*
X139380819Y-78660691D01*
X139373905Y-78673626D01*
X139292553Y-78772753D01*
X139193426Y-78854105D01*
X139193424Y-78854106D01*
X139080333Y-78914555D01*
X139039427Y-78926963D01*
X138957618Y-78951780D01*
X138893855Y-78958060D01*
X138861974Y-78961200D01*
X137998026Y-78961200D01*
X137966145Y-78958060D01*
X137902382Y-78951780D01*
X137820573Y-78926963D01*
X137779667Y-78914555D01*
X137666576Y-78854106D01*
X137666574Y-78854105D01*
X137567447Y-78772753D01*
X137486095Y-78673626D01*
X137479181Y-78660691D01*
X137425645Y-78560533D01*
X137413237Y-78519627D01*
X137388420Y-78437818D01*
X137375851Y-78310200D01*
X137388420Y-78182582D01*
X137425645Y-78059868D01*
X137425645Y-78059867D01*
X137486094Y-77946776D01*
X137486095Y-77946774D01*
X137567447Y-77847647D01*
X137666574Y-77766295D01*
X137679509Y-77759381D01*
X137779667Y-77705845D01*
X137820573Y-77693437D01*
X137902382Y-77668620D01*
X137966145Y-77662340D01*
X137998026Y-77659200D01*
X138861974Y-77659200D01*
X138893855Y-77662340D01*
X138893855Y-77662340D01*
G37*
G36*
X93173855Y-77662340D02*
X93237618Y-77668620D01*
X93319427Y-77693437D01*
X93360333Y-77705845D01*
X93460491Y-77759381D01*
X93473426Y-77766295D01*
X93572553Y-77847647D01*
X93653905Y-77946774D01*
X93653906Y-77946776D01*
X93714355Y-78059867D01*
X93714355Y-78059868D01*
X93751580Y-78182582D01*
X93764149Y-78310200D01*
X93751580Y-78437818D01*
X93726763Y-78519627D01*
X93714355Y-78560533D01*
X93660819Y-78660691D01*
X93653905Y-78673626D01*
X93572553Y-78772753D01*
X93473426Y-78854105D01*
X93473424Y-78854106D01*
X93360333Y-78914555D01*
X93319427Y-78926963D01*
X93237618Y-78951780D01*
X93173855Y-78958060D01*
X93141974Y-78961200D01*
X92278026Y-78961200D01*
X92246145Y-78958060D01*
X92182382Y-78951780D01*
X92100573Y-78926963D01*
X92059667Y-78914555D01*
X91946576Y-78854106D01*
X91946574Y-78854105D01*
X91847447Y-78772753D01*
X91766095Y-78673626D01*
X91759181Y-78660691D01*
X91705645Y-78560533D01*
X91693237Y-78519627D01*
X91668420Y-78437818D01*
X91655851Y-78310200D01*
X91668420Y-78182582D01*
X91705645Y-78059868D01*
X91705645Y-78059867D01*
X91766094Y-77946776D01*
X91766095Y-77946774D01*
X91847447Y-77847647D01*
X91946574Y-77766295D01*
X91959509Y-77759381D01*
X92059667Y-77705845D01*
X92100573Y-77693437D01*
X92182382Y-77668620D01*
X92246145Y-77662340D01*
X92278026Y-77659200D01*
X93141974Y-77659200D01*
X93173855Y-77662340D01*
X93173855Y-77662340D01*
G37*
G36*
X138893855Y-75122340D02*
X138957618Y-75128620D01*
X139039427Y-75153437D01*
X139080333Y-75165845D01*
X139180491Y-75219381D01*
X139193426Y-75226295D01*
X139292553Y-75307647D01*
X139373905Y-75406774D01*
X139373906Y-75406776D01*
X139434355Y-75519867D01*
X139434355Y-75519868D01*
X139471580Y-75642582D01*
X139484149Y-75770200D01*
X139471580Y-75897818D01*
X139446763Y-75979627D01*
X139434355Y-76020533D01*
X139380819Y-76120691D01*
X139373905Y-76133626D01*
X139292553Y-76232753D01*
X139193426Y-76314105D01*
X139193424Y-76314106D01*
X139080333Y-76374555D01*
X139039427Y-76386963D01*
X138957618Y-76411780D01*
X138893855Y-76418060D01*
X138861974Y-76421200D01*
X137998026Y-76421200D01*
X137966145Y-76418060D01*
X137902382Y-76411780D01*
X137820573Y-76386963D01*
X137779667Y-76374555D01*
X137666576Y-76314106D01*
X137666574Y-76314105D01*
X137567447Y-76232753D01*
X137486095Y-76133626D01*
X137479181Y-76120691D01*
X137425645Y-76020533D01*
X137413237Y-75979627D01*
X137388420Y-75897818D01*
X137375851Y-75770200D01*
X137388420Y-75642582D01*
X137425645Y-75519868D01*
X137425645Y-75519867D01*
X137486094Y-75406776D01*
X137486095Y-75406774D01*
X137567447Y-75307647D01*
X137666574Y-75226295D01*
X137679509Y-75219381D01*
X137779667Y-75165845D01*
X137820573Y-75153437D01*
X137902382Y-75128620D01*
X137966145Y-75122340D01*
X137998026Y-75119200D01*
X138861974Y-75119200D01*
X138893855Y-75122340D01*
X138893855Y-75122340D01*
G37*
G36*
X93173855Y-75122340D02*
X93237618Y-75128620D01*
X93319427Y-75153437D01*
X93360333Y-75165845D01*
X93460491Y-75219381D01*
X93473426Y-75226295D01*
X93572553Y-75307647D01*
X93653905Y-75406774D01*
X93653906Y-75406776D01*
X93714355Y-75519867D01*
X93714355Y-75519868D01*
X93751580Y-75642582D01*
X93764149Y-75770200D01*
X93751580Y-75897818D01*
X93726763Y-75979627D01*
X93714355Y-76020533D01*
X93660819Y-76120691D01*
X93653905Y-76133626D01*
X93572553Y-76232753D01*
X93473426Y-76314105D01*
X93473424Y-76314106D01*
X93360333Y-76374555D01*
X93319427Y-76386963D01*
X93237618Y-76411780D01*
X93173855Y-76418060D01*
X93141974Y-76421200D01*
X92278026Y-76421200D01*
X92246145Y-76418060D01*
X92182382Y-76411780D01*
X92100573Y-76386963D01*
X92059667Y-76374555D01*
X91946576Y-76314106D01*
X91946574Y-76314105D01*
X91847447Y-76232753D01*
X91766095Y-76133626D01*
X91759181Y-76120691D01*
X91705645Y-76020533D01*
X91693237Y-75979627D01*
X91668420Y-75897818D01*
X91655851Y-75770200D01*
X91668420Y-75642582D01*
X91705645Y-75519868D01*
X91705645Y-75519867D01*
X91766094Y-75406776D01*
X91766095Y-75406774D01*
X91847447Y-75307647D01*
X91946574Y-75226295D01*
X91959509Y-75219381D01*
X92059667Y-75165845D01*
X92100573Y-75153437D01*
X92182382Y-75128620D01*
X92246145Y-75122340D01*
X92278026Y-75119200D01*
X93141974Y-75119200D01*
X93173855Y-75122340D01*
X93173855Y-75122340D01*
G37*
G36*
X93173855Y-72582340D02*
X93237618Y-72588620D01*
X93319427Y-72613437D01*
X93360333Y-72625845D01*
X93460491Y-72679381D01*
X93473426Y-72686295D01*
X93572553Y-72767647D01*
X93653905Y-72866774D01*
X93653906Y-72866776D01*
X93714355Y-72979867D01*
X93714355Y-72979868D01*
X93751580Y-73102582D01*
X93764149Y-73230200D01*
X93751580Y-73357818D01*
X93726763Y-73439627D01*
X93714355Y-73480533D01*
X93660819Y-73580691D01*
X93653905Y-73593626D01*
X93572553Y-73692753D01*
X93473426Y-73774105D01*
X93473424Y-73774106D01*
X93360333Y-73834555D01*
X93319427Y-73846963D01*
X93237618Y-73871780D01*
X93173855Y-73878060D01*
X93141974Y-73881200D01*
X92278026Y-73881200D01*
X92246145Y-73878060D01*
X92182382Y-73871780D01*
X92100573Y-73846963D01*
X92059667Y-73834555D01*
X91946576Y-73774106D01*
X91946574Y-73774105D01*
X91847447Y-73692753D01*
X91766095Y-73593626D01*
X91759181Y-73580691D01*
X91705645Y-73480533D01*
X91693237Y-73439627D01*
X91668420Y-73357818D01*
X91655851Y-73230200D01*
X91668420Y-73102582D01*
X91705645Y-72979868D01*
X91705645Y-72979867D01*
X91766094Y-72866776D01*
X91766095Y-72866774D01*
X91847447Y-72767647D01*
X91946574Y-72686295D01*
X91959509Y-72679381D01*
X92059667Y-72625845D01*
X92100573Y-72613437D01*
X92182382Y-72588620D01*
X92246145Y-72582340D01*
X92278026Y-72579200D01*
X93141974Y-72579200D01*
X93173855Y-72582340D01*
X93173855Y-72582340D01*
G37*
G36*
X138893855Y-72582340D02*
X138957618Y-72588620D01*
X139039427Y-72613437D01*
X139080333Y-72625845D01*
X139180491Y-72679381D01*
X139193426Y-72686295D01*
X139292553Y-72767647D01*
X139373905Y-72866774D01*
X139373906Y-72866776D01*
X139434355Y-72979867D01*
X139434355Y-72979868D01*
X139471580Y-73102582D01*
X139484149Y-73230200D01*
X139471580Y-73357818D01*
X139446763Y-73439627D01*
X139434355Y-73480533D01*
X139380819Y-73580691D01*
X139373905Y-73593626D01*
X139292553Y-73692753D01*
X139193426Y-73774105D01*
X139193424Y-73774106D01*
X139080333Y-73834555D01*
X139039427Y-73846963D01*
X138957618Y-73871780D01*
X138893855Y-73878060D01*
X138861974Y-73881200D01*
X137998026Y-73881200D01*
X137966145Y-73878060D01*
X137902382Y-73871780D01*
X137820573Y-73846963D01*
X137779667Y-73834555D01*
X137666576Y-73774106D01*
X137666574Y-73774105D01*
X137567447Y-73692753D01*
X137486095Y-73593626D01*
X137479181Y-73580691D01*
X137425645Y-73480533D01*
X137413237Y-73439627D01*
X137388420Y-73357818D01*
X137375851Y-73230200D01*
X137388420Y-73102582D01*
X137425645Y-72979868D01*
X137425645Y-72979867D01*
X137486094Y-72866776D01*
X137486095Y-72866774D01*
X137567447Y-72767647D01*
X137666574Y-72686295D01*
X137679509Y-72679381D01*
X137779667Y-72625845D01*
X137820573Y-72613437D01*
X137902382Y-72588620D01*
X137966145Y-72582340D01*
X137998026Y-72579200D01*
X138861974Y-72579200D01*
X138893855Y-72582340D01*
X138893855Y-72582340D01*
G37*
G36*
X79265331Y-69308211D02*
X79593092Y-69443974D01*
X79888073Y-69641074D01*
X80138926Y-69891927D01*
X80336026Y-70186908D01*
X80471789Y-70514669D01*
X80541000Y-70862616D01*
X80541000Y-71217384D01*
X80471789Y-71565331D01*
X80336026Y-71893092D01*
X80138926Y-72188073D01*
X79888073Y-72438926D01*
X79593092Y-72636026D01*
X79265331Y-72771789D01*
X78917384Y-72841000D01*
X78562616Y-72841000D01*
X78214669Y-72771789D01*
X77886908Y-72636026D01*
X77591927Y-72438926D01*
X77341074Y-72188073D01*
X77143974Y-71893092D01*
X77008211Y-71565331D01*
X76939000Y-71217384D01*
X76939000Y-70862616D01*
X77008211Y-70514669D01*
X77143974Y-70186908D01*
X77341074Y-69891927D01*
X77591927Y-69641074D01*
X77886908Y-69443974D01*
X78214669Y-69308211D01*
X78562616Y-69239000D01*
X78917384Y-69239000D01*
X79265331Y-69308211D01*
X79265331Y-69308211D01*
G37*
G36*
X204995331Y-69308211D02*
X205323092Y-69443974D01*
X205618073Y-69641074D01*
X205868926Y-69891927D01*
X206066026Y-70186908D01*
X206201789Y-70514669D01*
X206271000Y-70862616D01*
X206271000Y-71217384D01*
X206201789Y-71565331D01*
X206066026Y-71893092D01*
X205868926Y-72188073D01*
X205618073Y-72438926D01*
X205323092Y-72636026D01*
X204995331Y-72771789D01*
X204647384Y-72841000D01*
X204292616Y-72841000D01*
X203944669Y-72771789D01*
X203616908Y-72636026D01*
X203321927Y-72438926D01*
X203071074Y-72188073D01*
X202873974Y-71893092D01*
X202738211Y-71565331D01*
X202669000Y-71217384D01*
X202669000Y-70862616D01*
X202738211Y-70514669D01*
X202873974Y-70186908D01*
X203071074Y-69891927D01*
X203321927Y-69641074D01*
X203616908Y-69443974D01*
X203944669Y-69308211D01*
X204292616Y-69239000D01*
X204647384Y-69239000D01*
X204995331Y-69308211D01*
X204995331Y-69308211D01*
G37*
G36*
X138893855Y-70042340D02*
X138957618Y-70048620D01*
X139039427Y-70073437D01*
X139080333Y-70085845D01*
X139180491Y-70139381D01*
X139193426Y-70146295D01*
X139292553Y-70227647D01*
X139373905Y-70326774D01*
X139373906Y-70326776D01*
X139434355Y-70439867D01*
X139434355Y-70439868D01*
X139471580Y-70562582D01*
X139484149Y-70690200D01*
X139471580Y-70817818D01*
X139457990Y-70862617D01*
X139434355Y-70940533D01*
X139380819Y-71040691D01*
X139373905Y-71053626D01*
X139292553Y-71152753D01*
X139193426Y-71234105D01*
X139193424Y-71234106D01*
X139080333Y-71294555D01*
X139039427Y-71306963D01*
X138957618Y-71331780D01*
X138893855Y-71338060D01*
X138861974Y-71341200D01*
X137998026Y-71341200D01*
X137966145Y-71338060D01*
X137902382Y-71331780D01*
X137820573Y-71306963D01*
X137779667Y-71294555D01*
X137666576Y-71234106D01*
X137666574Y-71234105D01*
X137567447Y-71152753D01*
X137486095Y-71053626D01*
X137479181Y-71040691D01*
X137425645Y-70940533D01*
X137402010Y-70862617D01*
X137388420Y-70817818D01*
X137375851Y-70690200D01*
X137388420Y-70562582D01*
X137425645Y-70439868D01*
X137425645Y-70439867D01*
X137486094Y-70326776D01*
X137486095Y-70326774D01*
X137567447Y-70227647D01*
X137666574Y-70146295D01*
X137679509Y-70139381D01*
X137779667Y-70085845D01*
X137820573Y-70073437D01*
X137902382Y-70048620D01*
X137966145Y-70042340D01*
X137998026Y-70039200D01*
X138861974Y-70039200D01*
X138893855Y-70042340D01*
X138893855Y-70042340D01*
G37*
G36*
X93173855Y-70042340D02*
X93237618Y-70048620D01*
X93319427Y-70073437D01*
X93360333Y-70085845D01*
X93460491Y-70139381D01*
X93473426Y-70146295D01*
X93572553Y-70227647D01*
X93653905Y-70326774D01*
X93653906Y-70326776D01*
X93714355Y-70439867D01*
X93714355Y-70439868D01*
X93751580Y-70562582D01*
X93764149Y-70690200D01*
X93751580Y-70817818D01*
X93737990Y-70862617D01*
X93714355Y-70940533D01*
X93660819Y-71040691D01*
X93653905Y-71053626D01*
X93572553Y-71152753D01*
X93473426Y-71234105D01*
X93473424Y-71234106D01*
X93360333Y-71294555D01*
X93319427Y-71306963D01*
X93237618Y-71331780D01*
X93173855Y-71338060D01*
X93141974Y-71341200D01*
X92278026Y-71341200D01*
X92246145Y-71338060D01*
X92182382Y-71331780D01*
X92100573Y-71306963D01*
X92059667Y-71294555D01*
X91946576Y-71234106D01*
X91946574Y-71234105D01*
X91847447Y-71152753D01*
X91766095Y-71053626D01*
X91759181Y-71040691D01*
X91705645Y-70940533D01*
X91682010Y-70862617D01*
X91668420Y-70817818D01*
X91655851Y-70690200D01*
X91668420Y-70562582D01*
X91705645Y-70439868D01*
X91705645Y-70439867D01*
X91766094Y-70326776D01*
X91766095Y-70326774D01*
X91847447Y-70227647D01*
X91946574Y-70146295D01*
X91959509Y-70139381D01*
X92059667Y-70085845D01*
X92100573Y-70073437D01*
X92182382Y-70048620D01*
X92246145Y-70042340D01*
X92278026Y-70039200D01*
X93141974Y-70039200D01*
X93173855Y-70042340D01*
X93173855Y-70042340D01*
G37*
G36*
X93173855Y-67502340D02*
X93237618Y-67508620D01*
X93319427Y-67533437D01*
X93360333Y-67545845D01*
X93460491Y-67599381D01*
X93473426Y-67606295D01*
X93572553Y-67687647D01*
X93653905Y-67786774D01*
X93653906Y-67786776D01*
X93714355Y-67899867D01*
X93714355Y-67899868D01*
X93751580Y-68022582D01*
X93764149Y-68150200D01*
X93751580Y-68277818D01*
X93726763Y-68359627D01*
X93714355Y-68400533D01*
X93660819Y-68500691D01*
X93653905Y-68513626D01*
X93572553Y-68612753D01*
X93473426Y-68694105D01*
X93473424Y-68694106D01*
X93360333Y-68754555D01*
X93319427Y-68766963D01*
X93237618Y-68791780D01*
X93173855Y-68798060D01*
X93141974Y-68801200D01*
X92278026Y-68801200D01*
X92246145Y-68798060D01*
X92182382Y-68791780D01*
X92100573Y-68766963D01*
X92059667Y-68754555D01*
X91946576Y-68694106D01*
X91946574Y-68694105D01*
X91847447Y-68612753D01*
X91766095Y-68513626D01*
X91759181Y-68500691D01*
X91705645Y-68400533D01*
X91693237Y-68359627D01*
X91668420Y-68277818D01*
X91655851Y-68150200D01*
X91668420Y-68022582D01*
X91705645Y-67899868D01*
X91705645Y-67899867D01*
X91766094Y-67786776D01*
X91766095Y-67786774D01*
X91847447Y-67687647D01*
X91946574Y-67606295D01*
X91959509Y-67599381D01*
X92059667Y-67545845D01*
X92100573Y-67533437D01*
X92182382Y-67508620D01*
X92246145Y-67502340D01*
X92278026Y-67499200D01*
X93141974Y-67499200D01*
X93173855Y-67502340D01*
X93173855Y-67502340D01*
G37*
G36*
X138893855Y-67502340D02*
X138957618Y-67508620D01*
X139039427Y-67533437D01*
X139080333Y-67545845D01*
X139180491Y-67599381D01*
X139193426Y-67606295D01*
X139292553Y-67687647D01*
X139373905Y-67786774D01*
X139373906Y-67786776D01*
X139434355Y-67899867D01*
X139434355Y-67899868D01*
X139471580Y-68022582D01*
X139484149Y-68150200D01*
X139471580Y-68277818D01*
X139446763Y-68359627D01*
X139434355Y-68400533D01*
X139380819Y-68500691D01*
X139373905Y-68513626D01*
X139292553Y-68612753D01*
X139193426Y-68694105D01*
X139193424Y-68694106D01*
X139080333Y-68754555D01*
X139039427Y-68766963D01*
X138957618Y-68791780D01*
X138893855Y-68798060D01*
X138861974Y-68801200D01*
X137998026Y-68801200D01*
X137966145Y-68798060D01*
X137902382Y-68791780D01*
X137820573Y-68766963D01*
X137779667Y-68754555D01*
X137666576Y-68694106D01*
X137666574Y-68694105D01*
X137567447Y-68612753D01*
X137486095Y-68513626D01*
X137479181Y-68500691D01*
X137425645Y-68400533D01*
X137413237Y-68359627D01*
X137388420Y-68277818D01*
X137375851Y-68150200D01*
X137388420Y-68022582D01*
X137425645Y-67899868D01*
X137425645Y-67899867D01*
X137486094Y-67786776D01*
X137486095Y-67786774D01*
X137567447Y-67687647D01*
X137666574Y-67606295D01*
X137679509Y-67599381D01*
X137779667Y-67545845D01*
X137820573Y-67533437D01*
X137902382Y-67508620D01*
X137966145Y-67502340D01*
X137998026Y-67499200D01*
X138861974Y-67499200D01*
X138893855Y-67502340D01*
X138893855Y-67502340D01*
G37*
G36*
X138893855Y-64962340D02*
X138957618Y-64968620D01*
X139039427Y-64993437D01*
X139080333Y-65005845D01*
X139180491Y-65059381D01*
X139193426Y-65066295D01*
X139292553Y-65147647D01*
X139373905Y-65246774D01*
X139373906Y-65246776D01*
X139434355Y-65359867D01*
X139434355Y-65359868D01*
X139471580Y-65482582D01*
X139484149Y-65610200D01*
X139471580Y-65737818D01*
X139446763Y-65819627D01*
X139434355Y-65860533D01*
X139380819Y-65960691D01*
X139373905Y-65973626D01*
X139292553Y-66072753D01*
X139193426Y-66154105D01*
X139193424Y-66154106D01*
X139080333Y-66214555D01*
X139039427Y-66226963D01*
X138957618Y-66251780D01*
X138893855Y-66258060D01*
X138861974Y-66261200D01*
X137998026Y-66261200D01*
X137966145Y-66258060D01*
X137902382Y-66251780D01*
X137820573Y-66226963D01*
X137779667Y-66214555D01*
X137666576Y-66154106D01*
X137666574Y-66154105D01*
X137567447Y-66072753D01*
X137486095Y-65973626D01*
X137479181Y-65960691D01*
X137425645Y-65860533D01*
X137413237Y-65819627D01*
X137388420Y-65737818D01*
X137375851Y-65610200D01*
X137388420Y-65482582D01*
X137425645Y-65359868D01*
X137425645Y-65359867D01*
X137486094Y-65246776D01*
X137486095Y-65246774D01*
X137567447Y-65147647D01*
X137666574Y-65066295D01*
X137679509Y-65059381D01*
X137779667Y-65005845D01*
X137820573Y-64993437D01*
X137902382Y-64968620D01*
X137966145Y-64962340D01*
X137998026Y-64959200D01*
X138861974Y-64959200D01*
X138893855Y-64962340D01*
X138893855Y-64962340D01*
G37*
G36*
X93173855Y-64962340D02*
X93237618Y-64968620D01*
X93319427Y-64993437D01*
X93360333Y-65005845D01*
X93460491Y-65059381D01*
X93473426Y-65066295D01*
X93572553Y-65147647D01*
X93653905Y-65246774D01*
X93653906Y-65246776D01*
X93714355Y-65359867D01*
X93714355Y-65359868D01*
X93751580Y-65482582D01*
X93764149Y-65610200D01*
X93751580Y-65737818D01*
X93726763Y-65819627D01*
X93714355Y-65860533D01*
X93660819Y-65960691D01*
X93653905Y-65973626D01*
X93572553Y-66072753D01*
X93473426Y-66154105D01*
X93473424Y-66154106D01*
X93360333Y-66214555D01*
X93319427Y-66226963D01*
X93237618Y-66251780D01*
X93173855Y-66258060D01*
X93141974Y-66261200D01*
X92278026Y-66261200D01*
X92246145Y-66258060D01*
X92182382Y-66251780D01*
X92100573Y-66226963D01*
X92059667Y-66214555D01*
X91946576Y-66154106D01*
X91946574Y-66154105D01*
X91847447Y-66072753D01*
X91766095Y-65973626D01*
X91759181Y-65960691D01*
X91705645Y-65860533D01*
X91693237Y-65819627D01*
X91668420Y-65737818D01*
X91655851Y-65610200D01*
X91668420Y-65482582D01*
X91705645Y-65359868D01*
X91705645Y-65359867D01*
X91766094Y-65246776D01*
X91766095Y-65246774D01*
X91847447Y-65147647D01*
X91946574Y-65066295D01*
X91959509Y-65059381D01*
X92059667Y-65005845D01*
X92100573Y-64993437D01*
X92182382Y-64968620D01*
X92246145Y-64962340D01*
X92278026Y-64959200D01*
X93141974Y-64959200D01*
X93173855Y-64962340D01*
X93173855Y-64962340D01*
G37*
M02*
