G04 #@! TF.GenerationSoftware,KiCad,Pcbnew,(5.0.2)-1*
G04 #@! TF.CreationDate,2020-02-10T23:08:40+01:00*
G04 #@! TF.ProjectId,ToolChanger,546f6f6c-4368-4616-9e67-65722e6b6963,rev?*
G04 #@! TF.SameCoordinates,Original*
G04 #@! TF.FileFunction,Legend,Top*
G04 #@! TF.FilePolarity,Positive*
%FSLAX46Y46*%
G04 Gerber Fmt 4.6, Leading zero omitted, Abs format (unit mm)*
G04 Created by KiCad (PCBNEW (5.0.2)-1) date 2020-02-10 23:08:40*
%MOMM*%
%LPD*%
G01*
G04 APERTURE LIST*
%ADD10C,0.300000*%
%ADD11C,0.120000*%
%ADD12C,0.150000*%
G04 APERTURE END LIST*
D10*
X208615742Y-83076800D02*
X208615742Y-81933942D01*
X209187171Y-82505371D02*
X208044314Y-82505371D01*
X207830028Y-81291085D02*
X207758600Y-81219657D01*
X207687171Y-81076800D01*
X207687171Y-80719657D01*
X207758600Y-80576800D01*
X207830028Y-80505371D01*
X207972885Y-80433942D01*
X208115742Y-80433942D01*
X208330028Y-80505371D01*
X209187171Y-81362514D01*
X209187171Y-80433942D01*
X208187171Y-79148228D02*
X209187171Y-79148228D01*
X207615742Y-79505371D02*
X208687171Y-79862514D01*
X208687171Y-78933942D01*
X207657000Y-87248857D02*
X207585571Y-87391714D01*
X207585571Y-87606000D01*
X207657000Y-87820285D01*
X207799857Y-87963142D01*
X207942714Y-88034571D01*
X208228428Y-88106000D01*
X208442714Y-88106000D01*
X208728428Y-88034571D01*
X208871285Y-87963142D01*
X209014142Y-87820285D01*
X209085571Y-87606000D01*
X209085571Y-87463142D01*
X209014142Y-87248857D01*
X208942714Y-87177428D01*
X208442714Y-87177428D01*
X208442714Y-87463142D01*
X209085571Y-86534571D02*
X207585571Y-86534571D01*
X209085571Y-85677428D01*
X207585571Y-85677428D01*
X209085571Y-84963142D02*
X207585571Y-84963142D01*
X207585571Y-84606000D01*
X207657000Y-84391714D01*
X207799857Y-84248857D01*
X207942714Y-84177428D01*
X208228428Y-84106000D01*
X208442714Y-84106000D01*
X208728428Y-84177428D01*
X208871285Y-84248857D01*
X209014142Y-84391714D01*
X209085571Y-84606000D01*
X209085571Y-84963142D01*
X208615742Y-95624400D02*
X208615742Y-94481542D01*
X209187171Y-95052971D02*
X208044314Y-95052971D01*
X207830028Y-93838685D02*
X207758600Y-93767257D01*
X207687171Y-93624400D01*
X207687171Y-93267257D01*
X207758600Y-93124400D01*
X207830028Y-93052971D01*
X207972885Y-92981542D01*
X208115742Y-92981542D01*
X208330028Y-93052971D01*
X209187171Y-93910114D01*
X209187171Y-92981542D01*
X208187171Y-91695828D02*
X209187171Y-91695828D01*
X207615742Y-92052971D02*
X208687171Y-92410114D01*
X208687171Y-91481542D01*
X207758600Y-100025057D02*
X207687171Y-100167914D01*
X207687171Y-100382200D01*
X207758600Y-100596485D01*
X207901457Y-100739342D01*
X208044314Y-100810771D01*
X208330028Y-100882200D01*
X208544314Y-100882200D01*
X208830028Y-100810771D01*
X208972885Y-100739342D01*
X209115742Y-100596485D01*
X209187171Y-100382200D01*
X209187171Y-100239342D01*
X209115742Y-100025057D01*
X209044314Y-99953628D01*
X208544314Y-99953628D01*
X208544314Y-100239342D01*
X209187171Y-99310771D02*
X207687171Y-99310771D01*
X209187171Y-98453628D01*
X207687171Y-98453628D01*
X209187171Y-97739342D02*
X207687171Y-97739342D01*
X207687171Y-97382200D01*
X207758600Y-97167914D01*
X207901457Y-97025057D01*
X208044314Y-96953628D01*
X208330028Y-96882200D01*
X208544314Y-96882200D01*
X208830028Y-96953628D01*
X208972885Y-97025057D01*
X209115742Y-97167914D01*
X209187171Y-97382200D01*
X209187171Y-97739342D01*
X207958571Y-103625685D02*
X208958571Y-103625685D01*
X207387142Y-103982828D02*
X208458571Y-104339971D01*
X208458571Y-103411400D01*
X207458571Y-109262800D02*
X207458571Y-108334228D01*
X208030000Y-108834228D01*
X208030000Y-108619942D01*
X208101428Y-108477085D01*
X208172857Y-108405657D01*
X208315714Y-108334228D01*
X208672857Y-108334228D01*
X208815714Y-108405657D01*
X208887142Y-108477085D01*
X208958571Y-108619942D01*
X208958571Y-109048514D01*
X208887142Y-109191371D01*
X208815714Y-109262800D01*
X207677628Y-114423771D02*
X207606200Y-114352342D01*
X207534771Y-114209485D01*
X207534771Y-113852342D01*
X207606200Y-113709485D01*
X207677628Y-113638057D01*
X207820485Y-113566628D01*
X207963342Y-113566628D01*
X208177628Y-113638057D01*
X209034771Y-114495200D01*
X209034771Y-113566628D01*
X209060171Y-118646628D02*
X209060171Y-119503771D01*
X209060171Y-119075200D02*
X207560171Y-119075200D01*
X207774457Y-119218057D01*
X207917314Y-119360914D01*
X207988742Y-119503771D01*
D11*
G04 #@! TO.C,J4*
X204535400Y-78350600D02*
X195115400Y-78350600D01*
X195115400Y-78350600D02*
X195115400Y-88730600D01*
X195115400Y-88730600D02*
X204535400Y-88730600D01*
X204535400Y-78350600D02*
X204535400Y-79950600D01*
X204535400Y-88730600D02*
X204535400Y-87130600D01*
X204535400Y-82050600D02*
X204535400Y-85030600D01*
X198425400Y-78350600D02*
X198425400Y-88730600D01*
X205825400Y-81300600D02*
X205225400Y-81000600D01*
X205225400Y-81000600D02*
X205825400Y-80700600D01*
X205825400Y-80700600D02*
X205825400Y-81300600D01*
G04 #@! TO.C,J3*
X204687800Y-91050600D02*
X195267800Y-91050600D01*
X195267800Y-91050600D02*
X195267800Y-121750600D01*
X195267800Y-121750600D02*
X204687800Y-121750600D01*
X204687800Y-91050600D02*
X204687800Y-92650600D01*
X204687800Y-121750600D02*
X204687800Y-120150600D01*
X204687800Y-94750600D02*
X204687800Y-97730600D01*
X204687800Y-99830600D02*
X204687800Y-102810600D01*
X204687800Y-104910600D02*
X204687800Y-107890600D01*
X204687800Y-109990600D02*
X204687800Y-112970600D01*
X204687800Y-115070600D02*
X204687800Y-118050600D01*
X198577800Y-91050600D02*
X198577800Y-121750600D01*
X205977800Y-94000600D02*
X205377800Y-93700600D01*
X205377800Y-93700600D02*
X205977800Y-93400600D01*
X205977800Y-93400600D02*
X205977800Y-94000600D01*
G04 #@! TO.C,R4*
X173455200Y-130962400D02*
X174145200Y-130962400D01*
X184075200Y-130962400D02*
X183385200Y-130962400D01*
X174145200Y-132682400D02*
X183385200Y-132682400D01*
X174145200Y-129242400D02*
X174145200Y-132682400D01*
X183385200Y-129242400D02*
X174145200Y-129242400D01*
X183385200Y-132682400D02*
X183385200Y-129242400D01*
G04 #@! TO.C,R3*
X183385200Y-125621200D02*
X183385200Y-122181200D01*
X183385200Y-122181200D02*
X174145200Y-122181200D01*
X174145200Y-122181200D02*
X174145200Y-125621200D01*
X174145200Y-125621200D02*
X183385200Y-125621200D01*
X184075200Y-123901200D02*
X183385200Y-123901200D01*
X173455200Y-123901200D02*
X174145200Y-123901200D01*
G04 #@! TO.C,R2*
X173455200Y-116636800D02*
X174145200Y-116636800D01*
X184075200Y-116636800D02*
X183385200Y-116636800D01*
X174145200Y-118356800D02*
X183385200Y-118356800D01*
X174145200Y-114916800D02*
X174145200Y-118356800D01*
X183385200Y-114916800D02*
X174145200Y-114916800D01*
X183385200Y-118356800D02*
X183385200Y-114916800D01*
G04 #@! TO.C,R1*
X183385200Y-111549600D02*
X183385200Y-108109600D01*
X183385200Y-108109600D02*
X174145200Y-108109600D01*
X174145200Y-108109600D02*
X174145200Y-111549600D01*
X174145200Y-111549600D02*
X183385200Y-111549600D01*
X184075200Y-109829600D02*
X183385200Y-109829600D01*
X173455200Y-109829600D02*
X174145200Y-109829600D01*
G04 #@! TO.C,J2*
X158480000Y-93115000D02*
X179340000Y-93115000D01*
X179340000Y-93115000D02*
X179340000Y-102465000D01*
X179340000Y-102465000D02*
X158480000Y-102465000D01*
X158480000Y-102465000D02*
X158480000Y-93115000D01*
X158230000Y-102715000D02*
X160770000Y-102715000D01*
X158230000Y-102715000D02*
X158230000Y-100175000D01*
G04 #@! TO.C,D4*
X164048000Y-131991600D02*
X164048000Y-132147600D01*
X164048000Y-129675600D02*
X164048000Y-129831600D01*
X166649130Y-131991437D02*
G75*
G02X164567039Y-131991600I-1041130J1079837D01*
G01*
X166649130Y-129831763D02*
G75*
G03X164567039Y-129831600I-1041130J-1079837D01*
G01*
X167280335Y-131990208D02*
G75*
G02X164048000Y-132147116I-1672335J1078608D01*
G01*
X167280335Y-129832992D02*
G75*
G03X164048000Y-129676084I-1672335J-1078608D01*
G01*
G04 #@! TO.C,D3*
X167280335Y-122619392D02*
G75*
G03X164048000Y-122462484I-1672335J-1078608D01*
G01*
X167280335Y-124776608D02*
G75*
G02X164048000Y-124933516I-1672335J1078608D01*
G01*
X166649130Y-122618163D02*
G75*
G03X164567039Y-122618000I-1041130J-1079837D01*
G01*
X166649130Y-124777837D02*
G75*
G02X164567039Y-124778000I-1041130J1079837D01*
G01*
X164048000Y-122462000D02*
X164048000Y-122618000D01*
X164048000Y-124778000D02*
X164048000Y-124934000D01*
G04 #@! TO.C,D2*
X164048000Y-117767600D02*
X164048000Y-117923600D01*
X164048000Y-115451600D02*
X164048000Y-115607600D01*
X166649130Y-117767437D02*
G75*
G02X164567039Y-117767600I-1041130J1079837D01*
G01*
X166649130Y-115607763D02*
G75*
G03X164567039Y-115607600I-1041130J-1079837D01*
G01*
X167280335Y-117766208D02*
G75*
G02X164048000Y-117923116I-1672335J1078608D01*
G01*
X167280335Y-115608992D02*
G75*
G03X164048000Y-115452084I-1672335J-1078608D01*
G01*
G04 #@! TO.C,D1*
X167280335Y-108801792D02*
G75*
G03X164048000Y-108644884I-1672335J-1078608D01*
G01*
X167280335Y-110959008D02*
G75*
G02X164048000Y-111115916I-1672335J1078608D01*
G01*
X166649130Y-108800563D02*
G75*
G03X164567039Y-108800400I-1041130J-1079837D01*
G01*
X166649130Y-110960237D02*
G75*
G02X164567039Y-110960400I-1041130J1079837D01*
G01*
X164048000Y-108644400D02*
X164048000Y-108800400D01*
X164048000Y-110960400D02*
X164048000Y-111116400D01*
G04 #@! TO.C,U5*
X153509200Y-132292400D02*
X155159200Y-132292400D01*
X153509200Y-127092400D02*
X153509200Y-132292400D01*
X158809200Y-127092400D02*
X153509200Y-127092400D01*
X158809200Y-132292400D02*
X158809200Y-127092400D01*
X157159200Y-132292400D02*
X158809200Y-132292400D01*
X155159200Y-132292400D02*
G75*
G02X157159200Y-132292400I1000000J0D01*
G01*
G04 #@! TO.C,U4*
X155159200Y-124977200D02*
G75*
G02X157159200Y-124977200I1000000J0D01*
G01*
X157159200Y-124977200D02*
X158809200Y-124977200D01*
X158809200Y-124977200D02*
X158809200Y-119777200D01*
X158809200Y-119777200D02*
X153509200Y-119777200D01*
X153509200Y-119777200D02*
X153509200Y-124977200D01*
X153509200Y-124977200D02*
X155159200Y-124977200D01*
G04 #@! TO.C,U3*
X153509200Y-118170000D02*
X155159200Y-118170000D01*
X153509200Y-112970000D02*
X153509200Y-118170000D01*
X158809200Y-112970000D02*
X153509200Y-112970000D01*
X158809200Y-118170000D02*
X158809200Y-112970000D01*
X157159200Y-118170000D02*
X158809200Y-118170000D01*
X155159200Y-118170000D02*
G75*
G02X157159200Y-118170000I1000000J0D01*
G01*
G04 #@! TO.C,U2*
X155159200Y-111312000D02*
G75*
G02X157159200Y-111312000I1000000J0D01*
G01*
X157159200Y-111312000D02*
X158809200Y-111312000D01*
X158809200Y-111312000D02*
X158809200Y-106112000D01*
X158809200Y-106112000D02*
X153509200Y-106112000D01*
X153509200Y-106112000D02*
X153509200Y-111312000D01*
X153509200Y-111312000D02*
X155159200Y-111312000D01*
G04 #@! TO.C,J1*
X84024600Y-79435200D02*
X84024600Y-120615200D01*
X84024600Y-120615200D02*
X74674600Y-120615200D01*
X74674600Y-120615200D02*
X74674600Y-79435200D01*
X74674600Y-79435200D02*
X84024600Y-79435200D01*
X74424600Y-79185200D02*
X74424600Y-81725200D01*
X74424600Y-79185200D02*
X76964600Y-79185200D01*
D12*
G04 #@! TO.C,U1*
X91210001Y-64510200D02*
X91210000Y-135290200D01*
X91210000Y-135290200D02*
X139929999Y-135290200D01*
X139929999Y-135290200D02*
X139930000Y-64510200D01*
X139930000Y-64510200D02*
X123690000Y-64510200D01*
X123690000Y-64510200D02*
X123690000Y-64960200D01*
X123690000Y-64960200D02*
X107450001Y-64960200D01*
X107450001Y-64960200D02*
X107450001Y-64510200D01*
X107450001Y-64510200D02*
X91210001Y-64510200D01*
G04 #@! TO.C,H6*
X183698095Y-78502380D02*
X183698095Y-77502380D01*
X183698095Y-77978571D02*
X184269523Y-77978571D01*
X184269523Y-78502380D02*
X184269523Y-77502380D01*
X185174285Y-77502380D02*
X184983809Y-77502380D01*
X184888571Y-77550000D01*
X184840952Y-77597619D01*
X184745714Y-77740476D01*
X184698095Y-77930952D01*
X184698095Y-78311904D01*
X184745714Y-78407142D01*
X184793333Y-78454761D01*
X184888571Y-78502380D01*
X185079047Y-78502380D01*
X185174285Y-78454761D01*
X185221904Y-78407142D01*
X185269523Y-78311904D01*
X185269523Y-78073809D01*
X185221904Y-77978571D01*
X185174285Y-77930952D01*
X185079047Y-77883333D01*
X184888571Y-77883333D01*
X184793333Y-77930952D01*
X184745714Y-77978571D01*
X184698095Y-78073809D01*
G04 #@! TO.C,H5*
X151698095Y-78502380D02*
X151698095Y-77502380D01*
X151698095Y-77978571D02*
X152269523Y-77978571D01*
X152269523Y-78502380D02*
X152269523Y-77502380D01*
X153221904Y-77502380D02*
X152745714Y-77502380D01*
X152698095Y-77978571D01*
X152745714Y-77930952D01*
X152840952Y-77883333D01*
X153079047Y-77883333D01*
X153174285Y-77930952D01*
X153221904Y-77978571D01*
X153269523Y-78073809D01*
X153269523Y-78311904D01*
X153221904Y-78407142D01*
X153174285Y-78454761D01*
X153079047Y-78502380D01*
X152840952Y-78502380D01*
X152745714Y-78454761D01*
X152698095Y-78407142D01*
G04 #@! TO.C,H2*
X203708095Y-124222380D02*
X203708095Y-123222380D01*
X203708095Y-123698571D02*
X204279523Y-123698571D01*
X204279523Y-124222380D02*
X204279523Y-123222380D01*
X204708095Y-123317619D02*
X204755714Y-123270000D01*
X204850952Y-123222380D01*
X205089047Y-123222380D01*
X205184285Y-123270000D01*
X205231904Y-123317619D01*
X205279523Y-123412857D01*
X205279523Y-123508095D01*
X205231904Y-123650952D01*
X204660476Y-124222380D01*
X205279523Y-124222380D01*
G04 #@! TO.C,H3*
X203708095Y-66992380D02*
X203708095Y-65992380D01*
X203708095Y-66468571D02*
X204279523Y-66468571D01*
X204279523Y-66992380D02*
X204279523Y-65992380D01*
X204660476Y-65992380D02*
X205279523Y-65992380D01*
X204946190Y-66373333D01*
X205089047Y-66373333D01*
X205184285Y-66420952D01*
X205231904Y-66468571D01*
X205279523Y-66563809D01*
X205279523Y-66801904D01*
X205231904Y-66897142D01*
X205184285Y-66944761D01*
X205089047Y-66992380D01*
X204803333Y-66992380D01*
X204708095Y-66944761D01*
X204660476Y-66897142D01*
G04 #@! TO.C,H1*
X77978095Y-124222380D02*
X77978095Y-123222380D01*
X77978095Y-123698571D02*
X78549523Y-123698571D01*
X78549523Y-124222380D02*
X78549523Y-123222380D01*
X79549523Y-124222380D02*
X78978095Y-124222380D01*
X79263809Y-124222380D02*
X79263809Y-123222380D01*
X79168571Y-123365238D01*
X79073333Y-123460476D01*
X78978095Y-123508095D01*
G04 #@! TO.C,H4*
X77978095Y-66992380D02*
X77978095Y-65992380D01*
X77978095Y-66468571D02*
X78549523Y-66468571D01*
X78549523Y-66992380D02*
X78549523Y-65992380D01*
X79454285Y-66325714D02*
X79454285Y-66992380D01*
X79216190Y-65944761D02*
X78978095Y-66659047D01*
X79597142Y-66659047D01*
G04 #@! TO.C,J4*
X205677780Y-83873933D02*
X206392066Y-83873933D01*
X206534923Y-83921552D01*
X206630161Y-84016790D01*
X206677780Y-84159647D01*
X206677780Y-84254885D01*
X206011114Y-82969171D02*
X206677780Y-82969171D01*
X205630161Y-83207266D02*
X206344447Y-83445361D01*
X206344447Y-82826314D01*
G04 #@! TO.C,J3*
X205830180Y-106733933D02*
X206544466Y-106733933D01*
X206687323Y-106781552D01*
X206782561Y-106876790D01*
X206830180Y-107019647D01*
X206830180Y-107114885D01*
X205830180Y-106352980D02*
X205830180Y-105733933D01*
X206211133Y-106067266D01*
X206211133Y-105924409D01*
X206258752Y-105829171D01*
X206306371Y-105781552D01*
X206401609Y-105733933D01*
X206639704Y-105733933D01*
X206734942Y-105781552D01*
X206782561Y-105829171D01*
X206830180Y-105924409D01*
X206830180Y-106210123D01*
X206782561Y-106305361D01*
X206734942Y-106352980D01*
G04 #@! TO.C,R4*
X178598533Y-134134780D02*
X178265200Y-133658590D01*
X178027104Y-134134780D02*
X178027104Y-133134780D01*
X178408057Y-133134780D01*
X178503295Y-133182400D01*
X178550914Y-133230019D01*
X178598533Y-133325257D01*
X178598533Y-133468114D01*
X178550914Y-133563352D01*
X178503295Y-133610971D01*
X178408057Y-133658590D01*
X178027104Y-133658590D01*
X179455676Y-133468114D02*
X179455676Y-134134780D01*
X179217580Y-133087161D02*
X178979485Y-133801447D01*
X179598533Y-133801447D01*
G04 #@! TO.C,R3*
X178598533Y-127073580D02*
X178265200Y-126597390D01*
X178027104Y-127073580D02*
X178027104Y-126073580D01*
X178408057Y-126073580D01*
X178503295Y-126121200D01*
X178550914Y-126168819D01*
X178598533Y-126264057D01*
X178598533Y-126406914D01*
X178550914Y-126502152D01*
X178503295Y-126549771D01*
X178408057Y-126597390D01*
X178027104Y-126597390D01*
X178931866Y-126073580D02*
X179550914Y-126073580D01*
X179217580Y-126454533D01*
X179360438Y-126454533D01*
X179455676Y-126502152D01*
X179503295Y-126549771D01*
X179550914Y-126645009D01*
X179550914Y-126883104D01*
X179503295Y-126978342D01*
X179455676Y-127025961D01*
X179360438Y-127073580D01*
X179074723Y-127073580D01*
X178979485Y-127025961D01*
X178931866Y-126978342D01*
G04 #@! TO.C,R2*
X178598533Y-119809180D02*
X178265200Y-119332990D01*
X178027104Y-119809180D02*
X178027104Y-118809180D01*
X178408057Y-118809180D01*
X178503295Y-118856800D01*
X178550914Y-118904419D01*
X178598533Y-118999657D01*
X178598533Y-119142514D01*
X178550914Y-119237752D01*
X178503295Y-119285371D01*
X178408057Y-119332990D01*
X178027104Y-119332990D01*
X178979485Y-118904419D02*
X179027104Y-118856800D01*
X179122342Y-118809180D01*
X179360438Y-118809180D01*
X179455676Y-118856800D01*
X179503295Y-118904419D01*
X179550914Y-118999657D01*
X179550914Y-119094895D01*
X179503295Y-119237752D01*
X178931866Y-119809180D01*
X179550914Y-119809180D01*
G04 #@! TO.C,R1*
X178598533Y-113001980D02*
X178265200Y-112525790D01*
X178027104Y-113001980D02*
X178027104Y-112001980D01*
X178408057Y-112001980D01*
X178503295Y-112049600D01*
X178550914Y-112097219D01*
X178598533Y-112192457D01*
X178598533Y-112335314D01*
X178550914Y-112430552D01*
X178503295Y-112478171D01*
X178408057Y-112525790D01*
X178027104Y-112525790D01*
X179550914Y-113001980D02*
X178979485Y-113001980D01*
X179265200Y-113001980D02*
X179265200Y-112001980D01*
X179169961Y-112144838D01*
X179074723Y-112240076D01*
X178979485Y-112287695D01*
G04 #@! TO.C,J2*
X156678380Y-98123333D02*
X157392666Y-98123333D01*
X157535523Y-98170952D01*
X157630761Y-98266190D01*
X157678380Y-98409047D01*
X157678380Y-98504285D01*
X156773619Y-97694761D02*
X156726000Y-97647142D01*
X156678380Y-97551904D01*
X156678380Y-97313809D01*
X156726000Y-97218571D01*
X156773619Y-97170952D01*
X156868857Y-97123333D01*
X156964095Y-97123333D01*
X157106952Y-97170952D01*
X157678380Y-97742380D01*
X157678380Y-97123333D01*
G04 #@! TO.C,D4*
X164869904Y-128403980D02*
X164869904Y-127403980D01*
X165108000Y-127403980D01*
X165250857Y-127451600D01*
X165346095Y-127546838D01*
X165393714Y-127642076D01*
X165441333Y-127832552D01*
X165441333Y-127975409D01*
X165393714Y-128165885D01*
X165346095Y-128261123D01*
X165250857Y-128356361D01*
X165108000Y-128403980D01*
X164869904Y-128403980D01*
X166298476Y-127737314D02*
X166298476Y-128403980D01*
X166060380Y-127356361D02*
X165822285Y-128070647D01*
X166441333Y-128070647D01*
G04 #@! TO.C,D3*
X164869904Y-121190380D02*
X164869904Y-120190380D01*
X165108000Y-120190380D01*
X165250857Y-120238000D01*
X165346095Y-120333238D01*
X165393714Y-120428476D01*
X165441333Y-120618952D01*
X165441333Y-120761809D01*
X165393714Y-120952285D01*
X165346095Y-121047523D01*
X165250857Y-121142761D01*
X165108000Y-121190380D01*
X164869904Y-121190380D01*
X165774666Y-120190380D02*
X166393714Y-120190380D01*
X166060380Y-120571333D01*
X166203238Y-120571333D01*
X166298476Y-120618952D01*
X166346095Y-120666571D01*
X166393714Y-120761809D01*
X166393714Y-120999904D01*
X166346095Y-121095142D01*
X166298476Y-121142761D01*
X166203238Y-121190380D01*
X165917523Y-121190380D01*
X165822285Y-121142761D01*
X165774666Y-121095142D01*
G04 #@! TO.C,D2*
X164869904Y-114179980D02*
X164869904Y-113179980D01*
X165108000Y-113179980D01*
X165250857Y-113227600D01*
X165346095Y-113322838D01*
X165393714Y-113418076D01*
X165441333Y-113608552D01*
X165441333Y-113751409D01*
X165393714Y-113941885D01*
X165346095Y-114037123D01*
X165250857Y-114132361D01*
X165108000Y-114179980D01*
X164869904Y-114179980D01*
X165822285Y-113275219D02*
X165869904Y-113227600D01*
X165965142Y-113179980D01*
X166203238Y-113179980D01*
X166298476Y-113227600D01*
X166346095Y-113275219D01*
X166393714Y-113370457D01*
X166393714Y-113465695D01*
X166346095Y-113608552D01*
X165774666Y-114179980D01*
X166393714Y-114179980D01*
G04 #@! TO.C,D1*
X164869904Y-107372780D02*
X164869904Y-106372780D01*
X165108000Y-106372780D01*
X165250857Y-106420400D01*
X165346095Y-106515638D01*
X165393714Y-106610876D01*
X165441333Y-106801352D01*
X165441333Y-106944209D01*
X165393714Y-107134685D01*
X165346095Y-107229923D01*
X165250857Y-107325161D01*
X165108000Y-107372780D01*
X164869904Y-107372780D01*
X166393714Y-107372780D02*
X165822285Y-107372780D01*
X166108000Y-107372780D02*
X166108000Y-106372780D01*
X166012761Y-106515638D01*
X165917523Y-106610876D01*
X165822285Y-106658495D01*
G04 #@! TO.C,U5*
X155397295Y-132744780D02*
X155397295Y-133554304D01*
X155444914Y-133649542D01*
X155492533Y-133697161D01*
X155587771Y-133744780D01*
X155778247Y-133744780D01*
X155873485Y-133697161D01*
X155921104Y-133649542D01*
X155968723Y-133554304D01*
X155968723Y-132744780D01*
X156921104Y-132744780D02*
X156444914Y-132744780D01*
X156397295Y-133220971D01*
X156444914Y-133173352D01*
X156540152Y-133125733D01*
X156778247Y-133125733D01*
X156873485Y-133173352D01*
X156921104Y-133220971D01*
X156968723Y-133316209D01*
X156968723Y-133554304D01*
X156921104Y-133649542D01*
X156873485Y-133697161D01*
X156778247Y-133744780D01*
X156540152Y-133744780D01*
X156444914Y-133697161D01*
X156397295Y-133649542D01*
G04 #@! TO.C,U4*
X155397295Y-125429580D02*
X155397295Y-126239104D01*
X155444914Y-126334342D01*
X155492533Y-126381961D01*
X155587771Y-126429580D01*
X155778247Y-126429580D01*
X155873485Y-126381961D01*
X155921104Y-126334342D01*
X155968723Y-126239104D01*
X155968723Y-125429580D01*
X156873485Y-125762914D02*
X156873485Y-126429580D01*
X156635390Y-125381961D02*
X156397295Y-126096247D01*
X157016342Y-126096247D01*
G04 #@! TO.C,U3*
X155397295Y-118622380D02*
X155397295Y-119431904D01*
X155444914Y-119527142D01*
X155492533Y-119574761D01*
X155587771Y-119622380D01*
X155778247Y-119622380D01*
X155873485Y-119574761D01*
X155921104Y-119527142D01*
X155968723Y-119431904D01*
X155968723Y-118622380D01*
X156349676Y-118622380D02*
X156968723Y-118622380D01*
X156635390Y-119003333D01*
X156778247Y-119003333D01*
X156873485Y-119050952D01*
X156921104Y-119098571D01*
X156968723Y-119193809D01*
X156968723Y-119431904D01*
X156921104Y-119527142D01*
X156873485Y-119574761D01*
X156778247Y-119622380D01*
X156492533Y-119622380D01*
X156397295Y-119574761D01*
X156349676Y-119527142D01*
G04 #@! TO.C,U2*
X155397295Y-111764380D02*
X155397295Y-112573904D01*
X155444914Y-112669142D01*
X155492533Y-112716761D01*
X155587771Y-112764380D01*
X155778247Y-112764380D01*
X155873485Y-112716761D01*
X155921104Y-112669142D01*
X155968723Y-112573904D01*
X155968723Y-111764380D01*
X156397295Y-111859619D02*
X156444914Y-111812000D01*
X156540152Y-111764380D01*
X156778247Y-111764380D01*
X156873485Y-111812000D01*
X156921104Y-111859619D01*
X156968723Y-111954857D01*
X156968723Y-112050095D01*
X156921104Y-112192952D01*
X156349676Y-112764380D01*
X156968723Y-112764380D01*
G04 #@! TO.C,J1*
X79016266Y-77633580D02*
X79016266Y-78347866D01*
X78968647Y-78490723D01*
X78873409Y-78585961D01*
X78730552Y-78633580D01*
X78635314Y-78633580D01*
X80016266Y-78633580D02*
X79444838Y-78633580D01*
X79730552Y-78633580D02*
X79730552Y-77633580D01*
X79635314Y-77776438D01*
X79540076Y-77871676D01*
X79444838Y-77919295D01*
G04 #@! TO.C,U1*
X114808095Y-62962580D02*
X114808095Y-63772104D01*
X114855714Y-63867342D01*
X114903333Y-63914961D01*
X114998571Y-63962580D01*
X115189047Y-63962580D01*
X115284285Y-63914961D01*
X115331904Y-63867342D01*
X115379523Y-63772104D01*
X115379523Y-62962580D01*
X116379523Y-63962580D02*
X115808095Y-63962580D01*
X116093809Y-63962580D02*
X116093809Y-62962580D01*
X115998571Y-63105438D01*
X115903333Y-63200676D01*
X115808095Y-63248295D01*
G04 #@! TD*
M02*
